<?xml version="1.0" encoding="UTF-8"?>
<!-- Do not edit this file with editors other than diagrams.net -->
<!DOCTYPE svg PUBLIC "-//W3C//DTD SVG 1.1//EN" "http://www.w3.org/Graphics/SVG/1.1/DTD/svg11.dtd">
<svg xmlns="http://www.w3.org/2000/svg" viewBox="0 0 24 24" width="28" height="28" class="css-hj6vlq"><path d="M18,14a4,4,0,0,0-3.08,1.48l-5.1-2.35a3.64,3.64,0,0,0,0-2.26l5.1-2.35A4,4,0,1,0,14,6a4.17,4.17,0,0,0,.07.71L8.79,9.14a4,4,0,1,0,0,5.72l5.28,2.43A4.17,4.17,0,0,0,14,18a4,4,0,1,0,4-4ZM18,4a2,2,0,1,1-2,2A2,2,0,0,1,18,4ZM6,14a2,2,0,1,1,2-2A2,2,0,0,1,6,14Zm12,6a2,2,0,1,1,2-2A2,2,0,0,1,18,20Z"></path></svg>