<svg xmlns="http://www.w3.org/2000/svg" xmlns:xlink="http://www.w3.org/1999/xlink" viewBox="0 0 65.22 72.8"><defs><style>.cls-1{fill:url(#linear-gradient);}</style><linearGradient id="linear-gradient" y1="36.4" x2="65.22" y2="36.4" gradientUnits="userSpaceOnUse"><stop offset="0" stop-color="#9e0fa1"/><stop offset="0.26" stop-color="#cb0571"/><stop offset="0.52" stop-color="#ff0026"/><stop offset="0.77" stop-color="#ff6000"/><stop offset="1" stop-color="#ffa400"/></linearGradient></defs><path class="cls-1" d="M32.68,10.43,22.25,0h2.82l7.61,7.6L40.28,0H43.1ZM0,26.55v2.82L32.65,62.84,65.22,29.46V26.64L32.65,60Zm0-21V8.36L32.65,41.83,65.22,8.45V5.63L32.65,39ZM4.06,0H1.24L32.68,31.44,64.11,0H61.29L32.68,28.62ZM0,16.05v2.82L32.65,52.33,65.22,19V16.14L32.65,49.51Zm32.68,2.06L14.57,0H11.75L32.68,20.93,53.61,0H50.79ZM0,37.06v2.28L32.65,72.8,65.22,39.43V37.15L32.65,70.52Z"/></svg>