<?xml version="1.0" encoding="utf-8"?>
<!-- Generator: Adobe Illustrator 16.0.4, SVG Export Plug-In . SVG Version: 6.00 Build 0)  -->
<!DOCTYPE svg PUBLIC "-//W3C//DTD SVG 1.1//EN" "http://www.w3.org/Graphics/SVG/1.1/DTD/svg11.dtd">
<svg version="1.1" id="Layer_1" xmlns="http://www.w3.org/2000/svg" xmlns:xlink="http://www.w3.org/1999/xlink" x="0px" y="0px"
	 width="270px" height="10px" viewBox="0 0 270 10" enable-background="new 0 0 270 10" xml:space="preserve">
<g>
	<g>
		<path fill="#FFFFFF" d="M121.965,9.413h-4.883V0.656h4.883v0.903h-3.862V4.38h3.63v0.898h-3.63V8.5h3.862V9.413z"/>
		<path fill="#FFFFFF" d="M130.988,9.413h-1.158l-4.789-7.352h-0.046c0.062,0.864,0.095,1.655,0.095,2.374v4.978h-0.94V0.656h1.15
			l4.774,7.317h0.045c-0.006-0.107-0.022-0.453-0.051-1.041c-0.028-0.582-0.039-0.998-0.028-1.254V0.656h0.951v8.753h-0.003V9.413
			L130.988,9.413z"/>
		<path fill="#FFFFFF" d="M136.339,9.413h-1.018V1.561h-2.771V0.656h6.564v0.903h-2.771v7.852h-0.002v0.002H136.339z"/>
		<path fill="#FFFFFF" d="M145.554,9.413h-4.877V0.656h4.877v0.903h-3.859V4.38h3.631v0.898h-3.631V8.5h3.859V9.413z"/>
		<path fill="#FFFFFF" d="M148.761,5.769v3.641h-1.018V0.656h2.402c1.074,0,1.865,0.204,2.379,0.614
			c0.514,0.412,0.771,1.032,0.771,1.858c0,1.156-0.586,1.94-1.764,2.349l2.383,3.934h-1.207l-2.121-3.645h-1.826V5.769
			L148.761,5.769z M148.761,4.897h1.396c0.719,0,1.244-0.142,1.582-0.428c0.334-0.286,0.504-0.714,0.504-1.285
			c0-0.582-0.17-0.997-0.512-1.254c-0.34-0.255-0.889-0.381-1.643-0.381h-1.324v3.349h-0.004V4.897z"/>
		<path fill="#FFFFFF" d="M161.124,3.209c0,0.884-0.301,1.567-0.904,2.046c-0.605,0.477-1.475,0.714-2.6,0.714h-1.031v3.444h-1.016
			V0.656h2.27C160.03,0.656,161.124,1.504,161.124,3.209z M156.589,5.092h0.92c0.898,0,1.555-0.146,1.959-0.435
			c0.4-0.293,0.604-0.759,0.604-1.404c0-0.577-0.188-1.006-0.568-1.295c-0.381-0.279-0.973-0.423-1.773-0.423h-1.139v3.557H156.589z
			"/>
		<path fill="#FFFFFF" d="M164.22,5.769v3.641h-1.02V0.656h2.402c1.074,0,1.865,0.204,2.383,0.614
			c0.512,0.412,0.771,1.032,0.771,1.858c0,1.156-0.588,1.94-1.762,2.349l2.379,3.934h-1.205l-2.119-3.645h-1.826v0.002H164.22z
			 M164.22,4.897h1.395c0.719,0,1.244-0.142,1.582-0.428c0.334-0.286,0.504-0.714,0.504-1.285c0-0.582-0.17-0.997-0.51-1.254
			c-0.34-0.255-0.887-0.381-1.645-0.381h-1.322v3.349h-0.004V4.897z"/>
		<path fill="#FFFFFF" d="M171.03,9.413V0.656h1.018v8.753h-1.018V9.413z"/>
		<path fill="#FFFFFF" d="M179.636,7.081c0,0.773-0.281,1.374-0.838,1.805c-0.561,0.434-1.318,0.646-2.277,0.646
			c-1.039,0-1.836-0.134-2.395-0.4V8.147c0.357,0.152,0.75,0.272,1.174,0.357c0.422,0.088,0.844,0.131,1.258,0.131
			c0.68,0,1.188-0.129,1.531-0.384c0.346-0.257,0.514-0.62,0.514-1.073c0-0.304-0.061-0.556-0.184-0.748
			c-0.119-0.194-0.318-0.375-0.607-0.537c-0.285-0.162-0.721-0.351-1.301-0.558c-0.816-0.29-1.398-0.636-1.748-1.036
			c-0.352-0.398-0.525-0.92-0.525-1.562c0-0.674,0.254-1.211,0.764-1.611c0.508-0.398,1.178-0.599,2.014-0.599
			c0.869,0,1.672,0.161,2.398,0.48l-0.316,0.884c-0.725-0.3-1.428-0.454-2.109-0.454c-0.539,0-0.959,0.114-1.266,0.347
			c-0.303,0.231-0.453,0.553-0.453,0.965c0,0.305,0.057,0.551,0.168,0.745c0.115,0.195,0.303,0.372,0.566,0.533
			c0.268,0.161,0.672,0.34,1.221,0.535c0.92,0.327,1.551,0.679,1.896,1.056C179.462,5.995,179.636,6.483,179.636,7.081z"/>
		<path fill="#FFFFFF" d="M186.556,9.413h-4.881V0.656h4.881v0.903h-3.863V4.38h3.633v0.898h-3.633V8.5h3.863V9.413z"/>
		<path fill="#FFFFFF" d="M197.677,9.413l-1.09-2.785h-3.51l-1.078,2.785h-1.031l3.463-8.793h0.854l3.443,8.793H197.677z
			 M196.267,5.71l-1.018-2.712c-0.131-0.345-0.271-0.766-0.406-1.263c-0.09,0.383-0.211,0.804-0.377,1.263l-1.031,2.712H196.267z"/>
		<path fill="#FFFFFF" d="M205.733,3.209c0,0.884-0.303,1.567-0.908,2.046c-0.607,0.477-1.473,0.714-2.596,0.714h-1.031v3.444
			h-1.021V0.656h2.273C204.642,0.656,205.733,1.504,205.733,3.209z M201.2,5.092h0.914c0.902,0,1.557-0.146,1.961-0.435
			c0.398-0.293,0.605-0.759,0.605-1.404c0-0.577-0.189-1.006-0.57-1.295c-0.381-0.279-0.969-0.423-1.773-0.423H201.2V5.092
			L201.2,5.092z"/>
		<path fill="#FFFFFF" d="M213.366,3.209c0,0.884-0.307,1.567-0.908,2.046c-0.607,0.477-1.473,0.714-2.598,0.714h-1.031v3.444h-1.02
			V0.656h2.271C212.269,0.656,213.366,1.504,213.366,3.209z M208.827,5.092h0.918c0.904,0,1.559-0.146,1.959-0.435
			c0.404-0.293,0.604-0.759,0.604-1.404c0-0.577-0.188-1.006-0.566-1.295c-0.381-0.279-0.971-0.423-1.773-0.423h-1.141V5.092
			L208.827,5.092z"/>
		<path fill="#FFFFFF" d="M215.44,9.413V0.656h1.021v7.832h3.857V9.41h-4.879V9.413z"/>
		<path fill="#FFFFFF" d="M222.052,9.413V0.656h1.021v8.753h-1.021V9.413z"/>
		<path fill="#FFFFFF" d="M229.466,1.44c-0.959,0-1.721,0.32-2.279,0.959c-0.557,0.642-0.834,1.518-0.834,2.633
			c0,1.146,0.27,2.031,0.807,2.656c0.537,0.621,1.303,0.937,2.299,0.937c0.611,0,1.309-0.108,2.09-0.327v0.891
			c-0.605,0.229-1.355,0.343-2.244,0.343c-1.289,0-2.285-0.396-2.988-1.181c-0.699-0.776-1.051-1.891-1.051-3.333
			c0-0.902,0.17-1.69,0.506-2.371c0.336-0.678,0.824-1.202,1.461-1.569s1.387-0.551,2.248-0.551c0.918,0,1.719,0.168,2.408,0.504
			l-0.432,0.875C230.798,1.594,230.13,1.44,229.466,1.44z"/>
		<path fill="#FFFFFF" d="M239.204,9.413l-1.09-2.785h-3.512l-1.074,2.785h-1.031l3.459-8.793h0.857l3.445,8.793H239.204z
			 M237.798,5.71l-1.018-2.712c-0.133-0.345-0.27-0.766-0.406-1.263c-0.088,0.383-0.215,0.804-0.377,1.263l-1.033,2.712H237.798z"/>
		<path fill="#FFFFFF" d="M244.401,9.413h-1.016V1.561h-2.773V0.656h6.564v0.903h-2.771v7.852h-0.004V9.413z"/>
		<path fill="#FFFFFF" d="M248.743,9.413V0.656h1.018v8.753h-1.018V9.413z"/>
		<path fill="#FFFFFF" d="M260.005,5.021c0,1.402-0.354,2.503-1.062,3.305c-0.707,0.806-1.691,1.206-2.955,1.206
			c-1.291,0-2.285-0.396-2.988-1.186c-0.699-0.789-1.051-1.901-1.051-3.338c0-1.424,0.354-2.532,1.057-3.312
			c0.699-0.785,1.703-1.18,2.99-1.18c1.262,0,2.24,0.399,2.951,1.2C259.655,2.513,260.005,3.614,260.005,5.021z M253.03,5.021
			c0,1.186,0.25,2.085,0.754,2.697c0.508,0.613,1.242,0.922,2.203,0.922c0.973,0,1.705-0.311,2.201-0.918
			c0.494-0.615,0.738-1.516,0.738-2.702c0-1.179-0.244-2.072-0.736-2.681c-0.49-0.61-1.223-0.914-2.189-0.914
			c-0.969,0-1.705,0.306-2.213,0.918C253.282,2.96,253.03,3.851,253.03,5.021z"/>
		<path fill="#FFFFFF" d="M269.044,9.413h-1.162l-4.783-7.352h-0.049c0.061,0.864,0.094,1.655,0.094,2.374v4.978H262.2V0.656h1.152
			l4.771,7.319h0.049c-0.012-0.108-0.025-0.455-0.055-1.041c-0.027-0.582-0.041-0.998-0.029-1.256V0.656h0.951v8.755h0.006v0.002
			H269.044z"/>
	</g>
	<g>
		<path fill="#FFFFFF" d="M7.533,3.368c0,1.013-0.298,1.796-0.896,2.348C6.04,6.269,5.191,6.544,4.093,6.544H3.403v3.008H0.954
			V0.485h3.139c1.145,0,2.005,0.25,2.58,0.75C7.246,1.736,7.533,2.447,7.533,3.368z M3.403,4.547h0.447
			c0.368,0,0.66-0.103,0.877-0.31s0.326-0.492,0.326-0.856c0-0.612-0.339-0.918-1.018-0.918H3.403V4.547z"/>
		<path fill="#FFFFFF" d="M17.652,9.552l-0.446-1.699h-2.944l-0.459,1.699h-2.691l2.958-9.104h3.268l2.995,9.104H17.652z
			 M16.697,5.843l-0.39-1.489c-0.092-0.33-0.202-0.758-0.333-1.283c-0.13-0.525-0.216-0.901-0.257-1.128
			c-0.037,0.211-0.111,0.558-0.221,1.042c-0.108,0.483-0.353,1.437-0.729,2.857H16.697z"/>
		<path fill="#FFFFFF" d="M28.423,9.552h-2.449V2.488H23.76V0.485h6.871v2.003h-2.208V9.552z"/>
		<path fill="#FFFFFF" d="M39.037,9.552h-2.449V2.488h-2.214V0.485h6.871v2.003h-2.208V9.552z"/>
		<path fill="#FFFFFF" d="M51.035,9.552h-5.382V0.485h5.382V2.45h-2.933v1.427h2.716v1.966h-2.716v1.711h2.933V9.552z"/>
		<path fill="#FFFFFF" d="M58.184,6.253v3.299h-2.449V0.485h2.97c2.464,0,3.696,0.893,3.696,2.679c0,1.05-0.513,1.862-1.538,2.437
			l2.642,3.951h-2.777l-1.922-3.299H58.184z M58.184,4.41h0.459c0.855,0,1.284-0.378,1.284-1.135c0-0.625-0.42-0.937-1.26-0.937
			h-0.483V4.41z"/>
		<path fill="#FFFFFF" d="M76.072,9.552H72.86L69.55,3.164h-0.057c0.079,1.004,0.118,1.771,0.118,2.301v4.086h-2.17V0.485h3.2
			l3.299,6.301h0.037c-0.059-0.914-0.086-1.648-0.086-2.202V0.485h2.183v9.066H76.072z"/>
		<path fill="#FFFFFF" d="M83.557,9.552h-2.412V0.485h5.356V2.45h-2.944v1.73h2.716v1.965h-2.716V9.552z"/>
		<path fill="#FFFFFF" d="M91.102,9.552V0.485h2.449v7.088h3.49v1.979H91.102z"/>
		<path fill="#FFFFFF" d="M104.842,3.846l1.562-3.361h2.654l-2.983,5.525v3.541h-2.468V6.085l-2.983-5.6h2.667L104.842,3.846z"/>
	</g>
</g>
</svg>
