<?xml version="1.0" encoding="utf-8"?>
<!-- Generator: Adobe Illustrator 16.0.4, SVG Export Plug-In . SVG Version: 6.00 Build 0)  -->
<svg version="1.2" baseProfile="tiny" id="Layer_1" xmlns="http://www.w3.org/2000/svg" xmlns:xlink="http://www.w3.org/1999/xlink"
	 x="0px" y="0px" width="270px" height="10px" viewBox="1.5 0 270 10" overflow="scroll" xml:space="preserve">
<g>
	<path fill="#FFFFFF" d="M123.49,9.379h-4.882V0.622h4.882v0.903h-3.862v2.821h3.63v0.898h-3.63v3.222h3.862V9.379z"/>
	<path fill="#FFFFFF" d="M132.514,9.379h-1.158l-4.789-7.352h-0.046c0.062,0.864,0.094,1.655,0.094,2.374v4.978h-0.94V0.622h1.15
		L131.6,7.94h0.045c-0.006-0.108-0.023-0.454-0.051-1.041c-0.028-0.582-0.039-0.998-0.028-1.255V0.622h0.951v8.753h-0.003V9.379
		L132.514,9.379z"/>
	<path fill="#FFFFFF" d="M137.865,9.379h-1.018V1.527h-2.772V0.622h6.565v0.903h-2.772v7.852h-0.002V9.379z"/>
	<path fill="#FFFFFF" d="M147.08,9.379h-4.878V0.622h4.878v0.903h-3.86v2.821h3.631v0.898h-3.631v3.222h3.86V9.379z"/>
	<path fill="#FFFFFF" d="M150.287,5.735v3.64h-1.018V0.622h2.402c1.074,0,1.865,0.204,2.38,0.614
		c0.514,0.412,0.771,1.032,0.771,1.858c0,1.156-0.586,1.94-1.763,2.349l2.382,3.934h-1.206l-2.122-3.644h-1.826L150.287,5.735
		L150.287,5.735z M150.287,4.863h1.397c0.718,0,1.244-0.142,1.581-0.428c0.334-0.286,0.504-0.714,0.504-1.285
		c0-0.582-0.17-0.997-0.512-1.254c-0.339-0.255-0.888-0.381-1.642-0.381h-1.324v3.349H150.287L150.287,4.863z"/>
	<path fill="#FFFFFF" d="M162.651,3.175c0,0.884-0.301,1.567-0.906,2.046c-0.605,0.477-1.473,0.715-2.598,0.715h-1.032V9.38h-1.015
		V0.622h2.269C161.557,0.622,162.651,1.47,162.651,3.175z M158.115,5.058h0.92c0.898,0,1.555-0.146,1.959-0.435
		c0.4-0.293,0.604-0.759,0.604-1.404c0-0.577-0.189-1.006-0.569-1.295c-0.38-0.279-0.972-0.423-1.773-0.423h-1.14V5.058
		L158.115,5.058z"/>
	<path fill="#FFFFFF" d="M165.745,5.735v3.64h-1.019V0.622h2.403c1.073,0,1.864,0.204,2.383,0.614
		c0.511,0.412,0.771,1.032,0.771,1.858c0,1.156-0.587,1.94-1.762,2.349l2.38,3.934h-1.205l-2.12-3.644h-1.827v0.002H165.745z
		 M165.745,4.863h1.396c0.718,0,1.244-0.142,1.581-0.428c0.335-0.286,0.505-0.714,0.505-1.285c0-0.582-0.17-0.997-0.511-1.254
		c-0.339-0.255-0.887-0.381-1.643-0.381h-1.323v3.349H165.745L165.745,4.863z"/>
	<path fill="#FFFFFF" d="M172.557,9.379V0.622h1.017v8.753h-1.017V9.379z"/>
	<path fill="#FFFFFF" d="M181.162,7.047c0,0.773-0.282,1.374-0.839,1.804c-0.559,0.434-1.318,0.647-2.276,0.647
		c-1.039,0-1.837-0.134-2.394-0.401V8.113c0.357,0.152,0.749,0.273,1.173,0.358c0.421,0.088,0.843,0.13,1.258,0.13
		c0.68,0,1.188-0.129,1.531-0.383c0.345-0.257,0.514-0.62,0.514-1.074c0-0.303-0.06-0.555-0.183-0.748
		c-0.121-0.194-0.32-0.374-0.609-0.536c-0.285-0.163-0.72-0.351-1.301-0.558c-0.815-0.29-1.398-0.636-1.748-1.036
		c-0.351-0.398-0.524-0.92-0.524-1.562c0-0.674,0.254-1.211,0.763-1.611c0.508-0.398,1.177-0.599,2.013-0.599
		c0.87,0,1.673,0.161,2.4,0.48l-0.317,0.884c-0.724-0.3-1.428-0.454-2.11-0.454c-0.539,0-0.958,0.114-1.265,0.347
		c-0.302,0.231-0.453,0.553-0.453,0.965c0,0.305,0.057,0.551,0.168,0.745c0.114,0.195,0.302,0.372,0.566,0.533
		c0.267,0.161,0.672,0.34,1.22,0.535c0.921,0.327,1.551,0.679,1.898,1.056C180.988,5.961,181.162,6.449,181.162,7.047z"/>
	<path fill="#FFFFFF" d="M188.081,9.379H183.2V0.622h4.881v0.903h-3.862v2.821h3.632v0.898h-3.632v3.222h3.862V9.379z"/>
	<path fill="#FFFFFF" d="M199.203,9.379l-1.089-2.785h-3.51l-1.079,2.785h-1.032l3.463-8.793h0.855l3.443,8.793H199.203z
		 M197.793,5.676l-1.017-2.712c-0.131-0.345-0.272-0.766-0.407-1.263c-0.09,0.383-0.212,0.804-0.378,1.263l-1.031,2.712H197.793z"/>
	<path fill="#FFFFFF" d="M207.259,3.175c0,0.884-0.302,1.567-0.907,2.046c-0.608,0.477-1.474,0.715-2.596,0.715h-1.032V9.38h-1.022
		V0.622h2.274C206.167,0.622,207.259,1.47,207.259,3.175z M202.726,5.058h0.915c0.901,0,1.556-0.146,1.96-0.435
		c0.399-0.293,0.605-0.759,0.605-1.404c0-0.577-0.189-1.006-0.569-1.295c-0.382-0.279-0.97-0.423-1.774-0.423h-1.137V5.058
		L202.726,5.058z"/>
	<path fill="#FFFFFF" d="M214.892,3.175c0,0.884-0.306,1.567-0.908,2.046c-0.607,0.477-1.472,0.715-2.597,0.715h-1.032V9.38h-1.02
		V0.622h2.272C213.794,0.622,214.892,1.47,214.892,3.175z M210.354,5.058h0.917c0.904,0,1.559-0.146,1.959-0.435
		c0.404-0.293,0.604-0.759,0.604-1.404c0-0.577-0.188-1.006-0.567-1.295c-0.38-0.279-0.971-0.423-1.774-0.423h-1.139V5.058
		L210.354,5.058z"/>
	<path fill="#FFFFFF" d="M216.967,9.379V0.622h1.021v7.832h3.858v0.922h-4.879V9.379z"/>
	<path fill="#FFFFFF" d="M223.578,9.379V0.622h1.021v8.753h-1.021V9.379z"/>
	<path fill="#FFFFFF" d="M230.992,1.406c-0.959,0-1.72,0.32-2.28,0.959c-0.556,0.642-0.833,1.518-0.833,2.633
		c0,1.147,0.269,2.031,0.806,2.656c0.538,0.622,1.303,0.937,2.299,0.937c0.611,0,1.308-0.108,2.089-0.327v0.891
		c-0.605,0.228-1.354,0.342-2.244,0.342c-1.288,0-2.284-0.395-2.987-1.18c-0.699-0.777-1.052-1.891-1.052-3.334
		c0-0.902,0.171-1.69,0.507-2.371c0.335-0.678,0.823-1.202,1.46-1.569s1.387-0.551,2.249-0.551c0.918,0,1.719,0.168,2.407,0.504
		l-0.431,0.875C232.323,1.56,231.656,1.406,230.992,1.406z"/>
	<path fill="#FFFFFF" d="M240.731,9.379l-1.09-2.785h-3.513l-1.073,2.785h-1.031l3.458-8.793h0.857l3.445,8.793H240.731z
		 M239.323,5.676l-1.016-2.712c-0.133-0.345-0.271-0.766-0.406-1.263c-0.089,0.383-0.215,0.804-0.378,1.263l-1.033,2.712H239.323z"
		/>
	<path fill="#FFFFFF" d="M245.928,9.379h-1.017V1.527h-2.772V0.622h6.564v0.903h-2.771v7.852h-0.004V9.379z"/>
	<path fill="#FFFFFF" d="M250.269,9.379V0.622h1.018v8.753h-1.018V9.379z"/>
	<path fill="#FFFFFF" d="M261.531,4.987c0,1.402-0.354,2.503-1.063,3.305c-0.706,0.805-1.691,1.206-2.955,1.206
		c-1.29,0-2.285-0.396-2.988-1.186c-0.7-0.788-1.051-1.901-1.051-3.338c0-1.424,0.353-2.532,1.056-3.312
		c0.7-0.785,1.704-1.18,2.992-1.18c1.261,0,2.24,0.399,2.95,1.2C261.182,2.479,261.531,3.58,261.531,4.987z M254.556,4.987
		c0,1.186,0.25,2.085,0.755,2.696c0.508,0.614,1.241,0.923,2.203,0.923c0.972,0,1.705-0.311,2.2-0.919
		c0.495-0.615,0.739-1.515,0.739-2.701c0-1.179-0.244-2.072-0.737-2.681c-0.49-0.61-1.223-0.914-2.189-0.914
		c-0.968,0-1.706,0.306-2.213,0.918C254.808,2.926,254.556,3.817,254.556,4.987z"/>
	<path fill="#FFFFFF" d="M270.571,9.379h-1.163l-4.784-7.352h-0.049c0.061,0.864,0.094,1.655,0.094,2.374v4.978h-0.942V0.622h1.151
		l4.772,7.319h0.049c-0.011-0.108-0.026-0.454-0.054-1.041c-0.028-0.582-0.041-0.998-0.03-1.255V0.622h0.952v8.755h0.004V9.379z"/>
</g>
<g>
	<path fill="#FFFFFF" d="M9.059,3.334c0,1.013-0.298,1.796-0.896,2.347C7.566,6.234,6.717,6.51,5.618,6.51H4.929v3.008H2.48V0.451
		h3.138c1.145,0,2.005,0.25,2.58,0.75C8.772,1.702,9.059,2.413,9.059,3.334z M4.929,4.513h0.447c0.368,0,0.66-0.103,0.877-0.31
		C6.47,3.996,6.579,3.711,6.579,3.347c0-0.612-0.339-0.918-1.017-0.918H4.929V4.513z"/>
	<path fill="#FFFFFF" d="M19.178,9.518l-0.446-1.699h-2.945l-0.459,1.699h-2.691l2.958-9.104h3.268l2.995,9.104H19.178z
		 M18.223,5.809L17.833,4.32C17.741,3.99,17.631,3.562,17.5,3.037c-0.13-0.525-0.216-0.901-0.257-1.128
		c-0.037,0.211-0.111,0.558-0.22,1.042c-0.109,0.483-0.353,1.437-0.729,2.858H18.223z"/>
	<path fill="#FFFFFF" d="M29.948,9.518h-2.449V2.454h-2.214V0.451h6.871v2.003h-2.208V9.518z"/>
	<path fill="#FFFFFF" d="M40.563,9.518h-2.449V2.454H35.9V0.451h6.871v2.003h-2.208V9.518z"/>
	<path fill="#FFFFFF" d="M52.561,9.518h-5.382V0.451h5.382v1.965h-2.933v1.427h2.716v1.965h-2.716V7.52h2.933V9.518z"/>
	<path fill="#FFFFFF" d="M59.709,6.219v3.299H57.26V0.451h2.97c2.464,0,3.696,0.893,3.696,2.679c0,1.05-0.513,1.862-1.538,2.437
		l2.642,3.951h-2.778l-1.922-3.299H59.709z M59.709,4.376h0.459c0.856,0,1.284-0.378,1.284-1.135c0-0.625-0.42-0.937-1.259-0.937
		h-0.484V4.376z"/>
	<path fill="#FFFFFF" d="M77.598,9.518h-3.212L71.075,3.13h-0.056c0.079,1.004,0.118,1.771,0.118,2.301v4.086h-2.17V0.451h3.2
		l3.299,6.301h0.037c-0.058-0.914-0.086-1.648-0.086-2.202V0.451h2.183V9.518z"/>
	<path fill="#FFFFFF" d="M85.082,9.518h-2.412V0.451h5.357v1.965h-2.945v1.73h2.716v1.966h-2.716V9.518z"/>
	<path fill="#FFFFFF" d="M92.627,9.518V0.451h2.449v7.088h3.491v1.979H92.627z"/>
	<path fill="#FFFFFF" d="M106.367,3.812l1.562-3.361h2.654l-2.983,5.525v3.541h-2.468V6.051l-2.983-5.6h2.667L106.367,3.812z"/>
</g>
</svg>
