<?xml version="1.0" encoding="utf-8"?>
<!-- Generator: Adobe Illustrator 16.0.0, SVG Export Plug-In . SVG Version: 6.00 Build 0)  -->
<!DOCTYPE svg PUBLIC "-//W3C//DTD SVG 1.0//EN" "http://www.w3.org/TR/2001/REC-SVG-20010904/DTD/svg10.dtd">
<svg version="1.0" id="Layer_1" xmlns="http://www.w3.org/2000/svg" xmlns:xlink="http://www.w3.org/1999/xlink" x="0px" y="0px"
	 width="1000px" height="11px" viewBox="0 0 1000 11" enable-background="new 0 0 1000 11" xml:space="preserve">
<path fill="#E4F1E1" d="M1000,0c0,1.104-0.896,2-2,2H38l-8,9l-8-9H2C0.896,2,0,1.104,0,0"/>
<path fill="#4B9E39" d="M999,0c0,0.551-0.448,1-1,1H38h-0.449l-0.298,0.335L30,9.495l-7.253-8.159L22.449,1H22H2
	C1.449,1,1,0.551,1,0 M0,0c0,1.104,0.896,2,2,2h20l8,9l8-9h960c1.104,0,2-0.896,2-2"/>
</svg>
