<?xml version="1.0" encoding="utf-8"?>
<!-- Generator: Adobe Illustrator 16.0.0, SVG Export Plug-In . SVG Version: 6.00 Build 0)  -->
<!DOCTYPE svg PUBLIC "-//W3C//DTD SVG 1.0//EN" "http://www.w3.org/TR/2001/REC-SVG-20010904/DTD/svg10.dtd">
<svg version="1.0" id="svg7384" xmlns="http://www.w3.org/2000/svg" xmlns:xlink="http://www.w3.org/1999/xlink" x="0px" y="0px"
	 width="17px" height="17px" viewBox="0 0 17 17" enable-background="new 0 0 17 17" xml:space="preserve">
<g>
	<g>
		<g>
			<path fill="#418093" d="M8.24,12.734c-0.544,0.018-1.048-0.486-1.031-1.031V7.766c-0.007-0.527,0.473-1.014,1-1.014
				c0.528,0,1.008,0.486,1,1.014v3.938c0.008,0.467-0.354,0.914-0.813,1C8.345,12.719,8.292,12.729,8.24,12.734L8.24,12.734z"/>
		</g>
		<g>
			<rect x="7.208" y="3.766" fill="#418093" width="2" height="2"/>
		</g>
	</g>
	<g id="path3869_3_">
		<path fill="#418093" d="M8.209,16.418C3.683,16.418,0,12.736,0,8.209C0,3.683,3.683,0,8.209,0s8.208,3.683,8.208,8.209
			C16.418,12.736,12.736,16.418,8.209,16.418z M8.209,1.5C4.51,1.5,1.5,4.51,1.5,8.209s3.01,6.709,6.709,6.709
			c3.699,0,6.708-3.01,6.708-6.709S11.908,1.5,8.209,1.5z"/>
	</g>
</g>
</svg>
