<?xml version="1.0" encoding="utf-8"?>
<!-- Generator: Adobe Illustrator 16.0.0, SVG Export Plug-In . SVG Version: 6.00 Build 0)  -->
<!DOCTYPE svg PUBLIC "-//W3C//DTD SVG 1.0//EN" "http://www.w3.org/TR/2001/REC-SVG-20010904/DTD/svg10.dtd">
<svg version="1.0" id="svg7384" xmlns="http://www.w3.org/2000/svg" xmlns:xlink="http://www.w3.org/1999/xlink" x="0px" y="0px"
	 width="18px" height="17px" viewBox="0 0 18 17" enable-background="new 0 0 18 17" xml:space="preserve">
<g>
	<path fill="#EE7700" d="M17.077,12.955L10.745,1.39c-0.518-0.838-1.271-1.343-2.064-1.387L8.572,0C7.773,0,7.057,0.478,6.54,1.364
		L0.295,12.951c-0.41,0.738-0.391,1.695,0.047,2.439c0.381,0.646,1.002,1.02,1.703,1.02H15.2c0.77,0,1.498-0.436,1.902-1.137
		C17.521,14.551,17.507,13.701,17.077,12.955z M1.61,13.672L7.847,2.099c0.131-0.224,0.396-0.598,0.75-0.598l0,0
		c0.295,0.016,0.621,0.27,0.853,0.643l6.32,11.546c0.213,0.369,0.135,0.658,0.033,0.834c-0.133,0.23-0.377,0.387-0.604,0.387H2.045
		c-0.203,0-0.336-0.154-0.411-0.281C1.492,14.387,1.428,14,1.61,13.672z"/>
	<path fill="#EE7700" d="M8.732,10.672c0.527,0,1.007-0.486,1-1.014V5.72c0.018-0.544-0.486-1.048-1.031-1.031
		C8.648,4.696,8.595,4.706,8.544,4.72c-0.459,0.087-0.82,0.533-0.812,1v3.938C7.725,10.186,8.205,10.672,8.732,10.672z"/>
	<rect x="7.732" y="11.658" fill="#EE7700" width="1.999" height="2"/>
</g>
</svg>
