<?xml version="1.0" encoding="utf-8"?>
<!-- Generator: Adobe Illustrator 16.0.0, SVG Export Plug-In . SVG Version: 6.00 Build 0)  -->
<!DOCTYPE svg PUBLIC "-//W3C//DTD SVG 1.0//EN" "http://www.w3.org/TR/2001/REC-SVG-20010904/DTD/svg10.dtd">
<svg version="1.0" id="Layer_1" xmlns="http://www.w3.org/2000/svg" xmlns:xlink="http://www.w3.org/1999/xlink" x="0px" y="0px"
	 width="70px" height="50px" viewBox="0 0 70 50" enable-background="new 0 0 70 50" xml:space="preserve">
<g>
	<polygon fill="#4E5258" points="21,16.586 16.415,12 21,7.414 21,6 15,12 21,18 	"/>
	<rect x="13" y="6" fill="#4E5258" width="1" height="12"/>
</g>
<g>
	<polygon fill="#4E5258" points="20,42.586 15.415,38 20,33.414 20,32 14,38 20,44 	"/>
</g>
<g>
	<polygon fill="#4E5258" points="50,42.586 54.586,38 50,33.414 50,32 56,38 50,44 	"/>
</g>
<g>
	<polygon fill="#4E5258" points="49,16.586 53.586,12 49,7.414 49,6 55,12 49,18 	"/>
	<rect x="56" y="6" fill="#4E5258" width="1" height="12"/>
</g>
</svg>
