<?xml version="1.0" encoding="utf-8"?>
<!-- Generator: Adobe Illustrator 16.0.0, SVG Export Plug-In . SVG Version: 6.00 Build 0)  -->
<!DOCTYPE svg PUBLIC "-//W3C//DTD SVG 1.0//EN" "http://www.w3.org/TR/2001/REC-SVG-20010904/DTD/svg10.dtd">
<svg version="1.0" id="Layer_1" xmlns="http://www.w3.org/2000/svg" xmlns:xlink="http://www.w3.org/1999/xlink" x="0px" y="0px"
	 width="1000px" height="11px" viewBox="0 0 1000 11" enable-background="new 0 0 1000 11" xml:space="preserve">
<path fill="#FFFFFF" d="M0,11c0-1.104,0.896-2,2-2h960l8-9l8,9h20c1.104,0,2,0.896,2,2"/>
<path fill="#B6B6B6" d="M1,11c0-0.551,0.448-1,1-1h960h0.449l0.298-0.335L970,1.505l7.253,8.159L977.551,10H978h20
	c0.551,0,1,0.449,1,1 M1000,11c0-1.104-0.896-2-2-2h-20l-8-9l-8,9H2c-1.104,0-2,0.896-2,2"/>
</svg>
