<svg xmlns="http://www.w3.org/2000/svg" width="729.577" height="150.658" viewBox="0 0 193.036 39.861"><path fill="#4d4d4d" d="M5.795 9.869 11.511.003 34.53 0l5.685 9.964.007 19.932-5.691 9.958-23.012.008-5.782-9.965z"/><path fill="#ededed" d="M5.738 29.894h10.374l-5.698-10.041 4.634-9.982-9.252-.002L0 19.934"/><path fill="#e0e0e0" d="M19.258 29.894h7.583l6.705-9.773-6.588-10.156h-8.92l-5.373 9.814z"/><path fill="#acacac" d="m0 19.933 5.738 9.964h10.375l-5.636-9.93z"/><path fill="#9e9e9e" d="m12.774 19.935 6.485 9.962h7.582l6.6-9.958z"/><path fill="#00b8e3" d="m15.342 19.94-1.957.57-1.878-.571 7.667-13.29 1.918 3.318"/><path fill="#33c6e9" d="m21.084 29.894-1.908 3.332-5.093-5.487-2.58-7.797v-.004h3.838"/><path fill="#008aaa" d="M11.508 19.939h-.004v.003l-1.917 3.322-1.925-3.307 1.952-3.386 5.728-9.92h3.834"/><path fill="#d4d4d4" d="M32.604 29.894h11.612l-.007-19.93H32.604Z"/><path fill="#919191" d="M32.604 19.966v9.93h11.591v-9.93z"/><path fill="#00b8e3" d="M19.178 33.23h-3.837l-5.754-9.967 1.917-3.32z"/><path fill="#008aaa" d="M34.519 19.939 26.85 33.227c-.705-1.036-1.913-3.33-1.913-3.33l5.753-9.96z"/><path fill="#00b8e3" d="m30.68 33.227-3.83-.001 7.67-13.288 1.916-3.318 1.922 3.34m-3.839-.021h-3.828l-5.755-9.973 1.905-3.314 4.658 5.922z"/><path fill="#33c6e9" d="M36.436 16.618v.003l-1.917 3.318-7.677-13.286 3.841.002z"/><path fill="#626262" d="M175.972 9.98a.193.193 0 0 0-.195.196v19.503c0 .106.086.195.195.195h4.049c.106 0 .195-.09.195-.195V24.31c0-.046.016-.093.05-.13l.181-.204 1.6-1.782a.196.196 0 0 1 .302.016l1.528 2.06 2.735 3.68 1.002 1.347.367.497c.04.05.096.08.159.08h4.7a.2.2 0 0 0 .162-.312l-.973-1.356-1.389-1.954q-.619-.864-1.333-1.866l-.215-.304-1.76-2.48-1.934-2.706a.19.19 0 0 1 .016-.241l1.551-1.724 3.725-4.14 2.239-2.487a.2.2 0 0 0 .05-.123.195.195 0 0 0-.196-.201h-4.97a.2.2 0 0 0-.143.062l-1.558 1.694-3.324 3.614-2.235 2.428a.194.194 0 0 1-.338-.132v-7.471a.195.195 0 0 0-.195-.195Z"/><path fill="#6f6f6f" d="M161.562 9.98a.2.2 0 0 0-.178.12l-5.213 12.065-.003.003-.007.013-.003.01-.674 1.565-.04.096-.087.195h.001l-.073.166v.003l-2.027 4.693-.298.69a.196.196 0 0 0 .178.275h4.3a.2.2 0 0 0 .175-.112q.002-.004.004-.007l1.498-3.485.248-.576a.2.2 0 0 1 .182-.12h8.08a.19.19 0 0 1 .178.12l1.664 3.866 1.865-6.618-1.499-3.47-1.339-3.098-2.712-6.273a.19.19 0 0 0-.179-.12h-2.526zm7.905 19.58v.003l.086.192c.03.073.099.12.178.12h4.3a.197.197 0 0 0 .179-.276l-.04-.09-2.838-6.567zm-5.87-13.362c.074 0 .147.04.181.117l.943 2.2.952 2.225.285.664a.194.194 0 0 1-.179.272h-4.389a.194.194 0 0 1-.178-.272l.516-1.19 1.69-3.9a.2.2 0 0 1 .18-.116z"/><path fill="#7d7d7d" d="M143.452 9.524q-1.24-.002-2.368.235v.004-.004h-.003a9.8 9.8 0 0 0-3.556 1.488 10.6 10.6 0 0 0-1.497 1.224c-1.486 1.453-2.428 3.197-2.815 5.176l-.002.003-.014.076-.005.023-.042.225v-.001l-.003.012v.006l-.01.085v.009a11 11 0 0 0-.126 1.715q0 3.945 2.45 6.727c.175.206.367.404.565.599q.76.744 1.608 1.3 2.52 1.647 5.818 1.647.367.001.724-.023 3.195-.18 5.615-1.991a10.4 10.4 0 0 0 1.089-.933l.01-.01a10 10 0 0 0 1.922-2.583q.222-.43.396-.887.689-1.762.688-3.845 0-.562-.05-1.1v-.006a9.8 9.8 0 0 0-.783-3.1q-.75-1.725-2.183-3.124-.596-.585-1.25-1.052-2.638-1.895-6.178-1.895m.017 3.873q2.49 0 4.197 1.875.094.101.175.205 1.532 1.821 1.531 4.336 0 1.754-.744 3.162a6.5 6.5 0 0 1-1.138 1.545 5.7 5.7 0 0 1-1.382 1.048q-1.185.635-2.64.635a5.6 5.6 0 0 1-2.56-.592 5.5 5.5 0 0 1-1.12-.77 6 6 0 0 1-.516-.503q-1.71-1.864-1.71-4.524 0-.078.003-.156.045-2.56 1.707-4.386c.83-.912 1.802-1.495 2.913-1.74a6 6 0 0 1 1.284-.135"/><path fill="#888" d="M120.252 9.98a.193.193 0 0 0-.195.196v19.503c0 .106.086.195.195.195h12.528c.11 0 .196-.09.196-.195v-3.57a.195.195 0 0 0-.196-.194h-8.09a.19.19 0 0 1-.194-.191V10.176a.19.19 0 0 0-.113-.176.2.2 0 0 0-.083-.02h-2.242z"/><path fill="#949494" d="M109.792 9.525q-4.384.002-7.415 2.96-.55.541-1.002 1.13v.004q-2.028 2.634-2.027 6.25-.001 2.064.649 3.794l.006-.002-.005.003c.254.695.592 1.336.999 1.948v.003q.004.002.003.003a10 10 0 0 0 1.323 1.58 10 10 0 0 0 1.984 1.512h.003a10 10 0 0 0 .953.484h.007l.003.003h.003q2.053.903 4.617.903.755-.001 1.475-.106h.01q.462-.065.913-.175 2.524-.607 4.63-2.557v-.002l.001.002c.281-.258.559-.54.83-.837a.2.2 0 0 0-.007-.27l-2.566-2.643a.19.19 0 0 0-.172-.057.2.2 0 0 0-.116.07q-1.028 1.216-2.338 1.822-1.301.6-2.874.6-1.078 0-2.011-.341a5.64 5.64 0 0 1-2.057-1.34 5.4 5.4 0 0 1-1.3-2.066h-.007l.007-.001q-.381-1.071-.38-2.385-.002-2.585 1.544-4.183.112-.114.235-.23 1.776-1.636 4.283-1.636c.611 0 1.197.076 1.75.229v-.001q1.905.518 3.343 2.216c.076.09.215.096.29.007l2.498-2.832a.2.2 0 0 0-.003-.264q-2.933-3.222-7.1-3.556-.482-.039-.977-.04z"/><path fill="#aaa" d="M82.588 9.98a.195.195 0 0 0-.17.29l1.892 3.309 3.423 5.983 1.38 2.41a.2.2 0 0 1 .026.097v7.61c0 .106.086.195.195.195h4.049c.109 0 .194-.09.194-.195v-7.61q0-.05.027-.096l.976-1.706 3.704-6.476.757-1.32.503-.88h-.007l.007-.003.754-1.316a.194.194 0 0 0-.168-.29h-4.363a.2.2 0 0 0-.168.095l-3.953 6.803-.003.003v.003l-.212.156-.159.122a.2.2 0 0 1-.082-.076l-.067-.112-.099-.17-3.905-6.73a.2.2 0 0 0-.169-.095zm15.537 2.04v.002l-.004.002z"/><path fill="#bcbcbc" d="M66.598 9.98a.193.193 0 0 0-.196.196v19.503c0 .106.086.195.195.195h14.264c.11 0 .196-.09.196-.195v-3.54a.196.196 0 0 0-.196-.194h-9.825a.195.195 0 0 1-.196-.195v-3.737c0-.106.09-.196.196-.196h8.519a.195.195 0 0 0 .195-.194v-3.394c0-.11-.09-.195-.195-.195h-8.52a.196.196 0 0 1-.195-.195V14.13c0-.11.09-.195.196-.195h9.515a.195.195 0 0 0 .195-.195v-3.565a.195.195 0 0 0-.195-.195h-7.829z"/><path fill="#b8b8b8" d="M47.256 9.98a.193.193 0 0 0-.195.196v19.503c0 .106.086.195.195.195h4.048c.11 0 .196-.09.196-.195V24.31c0-.046.016-.093.05-.13l.842-.942.94-1.044a.196.196 0 0 1 .3.016l2.808 3.777.002.002 2.016 2.713.81 1.09a.19.19 0 0 0 .156.08h4.703a.197.197 0 0 0 .158-.31l-.171-.241a694 694 0 0 1-1.846-2.587q-.848-1.184-1.888-2.652l-.07-.1v.002-.002a1569 1569 0 0 0-3.628-5.086.195.195 0 0 1 .017-.241l1.772-1.968h-.006l.006-.001v-.003l1.459-1.62 1.402-1.558 2.88-3.202a.194.194 0 0 0-.145-.324H59.1a.2.2 0 0 0-.146.063l-3.079 3.345-4.038 4.39a.194.194 0 0 1-.338-.132V10.17a.193.193 0 0 0-.195-.192h-2.11zm.091 9.823v.01h-.001zm12.27 8.34v.002h-.001z"/><path fill="#a0a0a0" d="M89.222 29.806c-.024-.025-.045-1.79-.045-3.92V22.01l-3.38-5.904c-1.996-3.487-3.364-5.945-3.342-6.003.032-.084.357-.098 2.278-.098 2.052 0 2.25.01 2.342.115.055.064.986 1.649 2.069 3.523 1.082 1.873 2.003 3.443 2.045 3.488.194.21.46-.181 2.48-3.662l2.01-3.465h2.275c1.894 0 2.28.016 2.31.094.02.05-1.477 2.737-3.326 5.969l-3.362 5.876-.066 7.872-2.121.018c-1.167.01-2.142-.003-2.167-.028z"/><path fill="#acacac" d="M66.456 29.767c-.017-.045-.023-4.503-.014-9.905l.017-9.823h14.22v3.837l-4.855.017c-3.453.012-4.88.038-4.944.09-.13.109-.13 3.91 0 4.018.063.052 1.362.079 4.448.09l4.36.018v3.638l-4.36.017c-3.086.012-4.385.039-4.448.09-.07.06-.089.465-.089 1.98 0 1.047.018 1.95.04 2.009.036.094.538.104 4.999.104 3.29 0 5 .023 5.086.069.122.065.128.156.128 1.872 0 1.314-.022 1.825-.08 1.883-.118.118-14.463.115-14.508-.003z"/></svg>