<svg width="616" height="616" viewBox="0 0 616 616" fill="none" xmlns="http://www.w3.org/2000/svg">
<path d="M83.0599 160.11C116.48 127.43 172.75 151.11 172.75 197.85V397.469L414.98 160.62C448.4 127.94 504.67 151.62 504.67 198.36V397.46L615.87 288.74V72.0595C615.87 32.6895 583.95 0.769531 544.58 0.769531H72.1699C32.7999 0.769531 0.879883 32.6895 0.879883 72.0595V240.44L83.0499 160.1L83.0599 160.11Z" fill="#9052F6"/>
<path d="M532.88 455.91C499.46 488.59 443.19 464.91 443.19 418.17V219.07L200.96 455.92C167.54 488.6 111.27 464.92 111.27 418.18V218.56L0.899902 326.47V544.49C0.899902 583.86 32.8199 615.78 72.1899 615.78H544.6C583.97 615.78 615.89 583.86 615.89 544.49V374.77L532.89 455.93L532.88 455.91Z" fill="#9052F6"/>
</svg>
