<?xml version="1.0" encoding="UTF-8"?><svg id="b" xmlns="http://www.w3.org/2000/svg" viewBox="0 0 1823.556082218 249.30976596"><g id="c"><path d="M515.595419197,213.826976369c-9.352767059.304640748-18.413120803-3.283100622-25.021787121-9.908261783l101.365699052-58.58208483c3.000354295-1.712781205,4.044040607-5.533523106,2.331294238-8.533842565-.000905736-.001532784-.0017418-.003082985-.002647535-.004615769h0l-5.844504004-9.862609215c-7.354644245-12.198588895-17.776109858-22.258038881-30.227050677-29.17688487-12.426555624-7.084334367-26.470616017-10.843042076-40.774552907-10.91279244-21.331331829-.284122349-41.899337408,7.929925812-57.166628814,22.830115537-15.703925726,15.103144213-24.476743194,36.019039423-24.245571553,57.805851844-.629347027,21.801217104,7.762504036,42.896500253,23.195336075,58.308099755,14.830448069,15.18842272,35.208667165,23.679329926,56.436048395,23.515008553,14.199777275.150561156,28.213321339-3.239067929,40.774552907-9.862609215,11.726003831-6.110668399,21.597130446-15.256439994,28.583279571-26.48293054,1.045776472-1.42210969.740613184-3.422723277-.68146167-4.468464913-.045913837-.033773494-.09273341-.066292892-.140389047-.097558195h0l-24.565226613-15.524485533c-10.584916086,13.487990874-26.873320081,21.243562548-44.016390297,20.958064178ZM474.729526319,150.952836089c3.487918836-8.225979488,9.479152037-15.143797815,17.122586653-19.770870998,7.790094142-5.519553873,17.294328092-8.077769761,26.802533346-7.21432487,10.161728458-.199976011,19.866687393,4.215938809,26.391607987,12.00864565l-71.184283524,41.642125863c-3.266501272-8.654200916-2.937719182-18.255122162.913190687-26.665575644h-.045635149Z" style="fill:#fff;"/><path d="M172.504445687,246.063105778h30.090075557c1.739988115,0,3.150567092-1.410544141,3.150567092-3.150549674h0v-123.510938992c-.06604904-1.738751437-1.529125857-3.094742415-3.267859876-3.028693375-.451718305.017156726-.89448376.131314271-1.298163232.334739044l-31.642541528,18.26409243v107.712485802c-.130321445,1.735111076,1.170628666,3.247358895,2.905739742,3.377662922.005504087.000418032.011008173.000818646.01651226.001201842h.045669985Z" style="fill:#fff;"/><path d="M370.258895325,104.196751804c-12.474629293-11.96110323-29.309191967-18.282302945-46.573421762-17.487868153-21.748876026-.685946804-42.770097857,7.875181052-57.851504411,23.560687247-15.068935269,15.361975631-23.30054077,36.155143642-22.830115537,57.668876725-.704035393,21.662796291,7.555090542,42.657386006,22.830115537,58.034149516,15.152890009,15.42699701,36.054206356,23.833862385,57.668894143,23.195388329,6.691994011.055737587,13.36461921-.726574279,19.862228386-2.328664121.59151514-.150944352,1.159759837-.381349601,1.689406255-.684910433l61.732582249-35.43233165V3.150668622c-.06604904-1.738751437-1.529091021-3.094742415-3.267894712-3.028697729-.451683469.01716108-.894448924.13132298-1.298128396.334743399l-31.962161752,18.26409243v85.475945082ZM357.291406421,200.083237062c-17.372778746,17.753048431-45.847927398,18.061312122-63.60097583.68849854-.001254096-.001184424-.002438519-.002386265-.003692615-.003588107l-1.187140926-1.187158344c-8.491342655-8.460059935-13.229316218-19.975933063-13.150168845-31.962161752-.212917581-12.070549207,4.406404593-23.725714049,12.830513785-32.373104529,8.643088235-8.911725985,20.650636551-13.754555883,33.05803238-13.332779113,12.021970417-.266895951,23.608839296,4.500287591,31.962161752,13.150151427,17.3132092,18.180538304,17.3132092,46.748315858,0,64.928854162l.091270298.091287716Z" style="fill:#fff;"/><path d="M76.526611328,35.541015625h36.493408203V3.198420368c0-1.766438793-1.431981575-3.198420368-3.198420368-3.198420368H3.150878906C1.410696538,0,0,1.410696538,0,3.150878906v29.222167969c0,1.740182368,1.410696538,3.150878906,3.150878906,3.150878906h73.375732422v.017089844Z" style="fill:#fff;"/><path d="M186.841796875,0h-11.866455078c-.073120117.038574219-.150878906.067382812-.22265625.108398438l-61.732666016,35.432617188h0c-.591552734.150878906-1.159667969.381347656-1.689453125.685058594l-34.803955078,19.976074219v171.094726562l31.962158203,18.583496094c1.554321289.782226562,3.448486328.15625,4.23059082-1.397949219.209838867-.416503906.32434082-.875.335449219-1.341796875V35.523925781h73.42175293c1.739990234,0,3.150512695-1.410644531,3.150512695-3.150878906V3.150878906c.010864258-1.606933594-1.189331055-2.964355469-2.78527832-3.150878906Z" style="fill:#fff;"/><path d="M953.546072452,13.678249425v225.830078125h-81.829956055c23.520019531-16.140136719,39.790039062-40.270019531,46.799926758-69.490234375h-57.309936523c-10.579956055,29.560058594-35.400024414,43.800292969-65.699951172,43.800292969-28.510009766,0-50.040039062-13.550292969-62.180053711-36.450195312v-100.5c12.300048828-23.290039062,34.209960938-37.159912109,62.91003418-37.159912109,30.66003418,0,54.390014648,14.599853516,64.969970703,43.800048828h57.309936523c-7.149902344-30.130126953-23.079833984-54.020019531-45.799926758-69.830078125h80.829956055Z" style="fill:#fff;"/><path d="M1189.332534553,127.308200328c0,52.560058594,26.650146484,85.409912109,72.639892578,85.409912109,45.620117188,0,71.900146484-33.209960938,71.900146484-85.409912109,0-52.560058594-26.280029297-86.140014648-71.900146484-86.140014648-45.989746094,0-72.639892578,33.579956055-72.639892578,86.140014648Z" style="fill:#fff;"/><path d="M1186.826131046,239.508249425c-33.16-23.33-52.97-63.22-52.97-112.2,0-49.79,20.3-90.3,54.19-113.63h-182.3v196.85h119.72v28.98h61.36Z" style="fill:#fff;"/><polygon points="1817.036062686 13.678249425 1722.236013858 120.00832755 1722.236013858 13.678249425 1817.036062686 13.678249425" style="fill:#fff;"/><polygon points="1815.756033389 239.50832755 1722.236013858 239.50832755 1722.236013858 183.158229894 1754.356131046 148.478298253 1815.756033389 239.50832755" style="fill:#fff;"/><polygon points="1670.406179874 13.678249425 1670.406179874 239.50832755 1635.556082218 239.50832755 1550.236135929 13.678249425 1670.406179874 13.678249425" style="fill:#fff;"/><path d="M1485.416189639,13.678249425l-85.630126953,225.830078125h-62.779907227c33.049926758-23.330078125,52.719970703-63.229980469,52.719970703-112.200195312,0-49.790039062-20.16003418-90.299804688-53.940063477-113.629882812h149.630126953Z" style="fill:#fff;"/><polygon points="1823.556082218 74.188259191 1823.556082218 152.388210363 1793.406179874 107.5981713 1823.556082218 74.188259191" style="fill:#fff;"/><polygon points="1578.496145694 239.50832755 1452.926199405 239.50832755 1466.376150577 203.228298253 1565.286062686 203.228298253 1578.496145694 239.50832755" style="fill:#fff;"/></g></svg>