<?xml version="1.0" encoding="utf-8"?>
<!-- Generator: Adobe Illustrator 19.1.0, SVG Export Plug-In . SVG Version: 6.00 Build 0)  -->
<svg version="1.1" id="Layer_1" xmlns="http://www.w3.org/2000/svg" xmlns:xlink="http://www.w3.org/1999/xlink" x="0px" y="0px"
	 viewBox="0 0 478 12.5" style="enable-background:new 0 0 478 12.5;" xml:space="preserve">
<style type="text/css">
	.st0{fill:#FFFFFF;}
</style>
<g>
	<g>
		<path class="st0" d="M92.4,9.5c-0.2,0.6-0.5,1.2-0.9,1.6c-0.4,0.4-0.9,0.8-1.6,1c-0.6,0.2-1.4,0.4-2.2,0.4c-0.8,0-1.5-0.1-2.1-0.3
			c-0.6-0.2-1.1-0.5-1.5-0.8c-0.4-0.4-0.8-0.8-1-1.3c-0.3-0.5-0.5-1.1-0.6-1.7l3.3-0.9c0.2,0.7,0.5,1.2,0.7,1.6
			c0.3,0.3,0.7,0.5,1.3,0.5c0.5,0,0.9-0.2,1.2-0.5c0.3-0.3,0.4-0.8,0.4-1.4V0.3h3.4v7.1C92.7,8.2,92.6,8.9,92.4,9.5z"/>
		<path class="st0" d="M104.3,11.3c-0.7,0.7-1.9,1-3.4,1h-5.8v-12h5.8c1.5,0,2.6,0.3,3.2,0.8c0.7,0.5,1,1.3,1,2.3
			c0,0.7-0.1,1.2-0.4,1.5c-0.3,0.3-0.6,0.6-1,0.9c0.6,0.2,1,0.6,1.3,1c0.3,0.4,0.4,1,0.4,1.7C105.4,9.7,105,10.6,104.3,11.3z
			 M101.6,3.2c-0.1-0.2-0.4-0.3-0.8-0.3h-2.5v1.9h2.5c0.4,0,0.7-0.1,0.8-0.3c0.2-0.2,0.2-0.4,0.2-0.7C101.8,3.6,101.8,3.4,101.6,3.2
			z M101.8,7.6c-0.2-0.2-0.5-0.3-0.9-0.3h-2.6v2.3h2.6c0.4,0,0.7-0.1,0.9-0.3c0.2-0.2,0.3-0.5,0.3-0.9C102.1,8.1,102,7.9,101.8,7.6z
			"/>
		<path class="st0" d="M117.5,8.9c-0.3,0.8-0.7,1.4-1.2,1.9c-0.5,0.5-1.1,0.9-1.8,1.2c-0.7,0.3-1.4,0.4-2.2,0.4
			c-0.8,0-1.6-0.1-2.2-0.4c-0.7-0.3-1.3-0.7-1.8-1.2c-0.5-0.5-0.9-1.2-1.1-1.9c-0.3-0.8-0.4-1.7-0.4-2.7c0-1,0.1-1.9,0.4-2.7
			c0.3-0.8,0.7-1.4,1.1-1.9c0.5-0.5,1.1-0.9,1.8-1.2c0.7-0.3,1.4-0.4,2.2-0.4c0.8,0,1.6,0.1,2.2,0.4c0.7,0.3,1.3,0.7,1.7,1.2
			c0.5,0.5,0.9,1.2,1.1,1.9c0.3,0.8,0.4,1.7,0.4,2.7C117.9,7.3,117.8,8.2,117.5,8.9z M113.9,3.8C113.5,3.3,113,3,112.3,3
			s-1.2,0.3-1.6,0.8c-0.4,0.5-0.5,1.4-0.5,2.5c0,1.1,0.2,1.9,0.6,2.5c0.4,0.6,0.9,0.8,1.6,0.8c0.7,0,1.2-0.3,1.6-0.8
			c0.4-0.5,0.5-1.4,0.5-2.5C114.5,5.2,114.3,4.4,113.9,3.8z"/>
		<path class="st0" d="M128.8,10.4c-0.2,0.5-0.6,0.9-1,1.2c-0.4,0.3-1,0.5-1.6,0.7c-0.6,0.2-1.3,0.2-2,0.2c-1,0-1.9-0.1-2.8-0.4
			c-0.9-0.3-1.6-0.6-2.3-1l1.6-2.6c0.2,0.1,0.5,0.3,0.8,0.4c0.3,0.1,0.6,0.3,0.9,0.4c0.3,0.1,0.6,0.2,1,0.3c0.3,0.1,0.6,0.1,0.9,0.1
			c0.6,0,1-0.1,1.2-0.2c0.2-0.1,0.3-0.3,0.3-0.6c0-0.1,0-0.2-0.1-0.3c-0.1-0.1-0.2-0.2-0.3-0.3c-0.2-0.1-0.4-0.2-0.6-0.3
			c-0.3-0.1-0.6-0.2-1-0.3c-0.7-0.2-1.3-0.4-1.9-0.5c-0.5-0.2-1-0.4-1.3-0.7c-0.4-0.3-0.6-0.6-0.8-1.1c-0.2-0.4-0.3-0.9-0.3-1.5
			c0-0.6,0.1-1.1,0.3-1.5c0.2-0.5,0.5-0.9,1-1.2c0.4-0.3,0.9-0.6,1.5-0.8c0.6-0.2,1.2-0.3,2-0.3c1,0,1.9,0.1,2.7,0.4
			c0.8,0.2,1.5,0.6,2.1,1l-1.6,2.6c-0.5-0.4-1.1-0.6-1.6-0.8c-0.5-0.2-1.1-0.3-1.7-0.3c-0.5,0-0.8,0.1-1,0.2
			c-0.2,0.1-0.2,0.3-0.2,0.5c0,0.1,0,0.2,0.1,0.3c0.1,0.1,0.2,0.2,0.3,0.2c0.1,0.1,0.3,0.1,0.6,0.2c0.3,0.1,0.6,0.2,1,0.2
			c0.8,0.2,1.4,0.4,2,0.6c0.6,0.2,1,0.5,1.4,0.8c0.4,0.3,0.6,0.7,0.8,1.1c0.2,0.4,0.3,0.9,0.3,1.5C129.2,9.3,129,9.9,128.8,10.4z"/>
		<path class="st0" d="M140.2,10.4c-0.2,0.5-0.6,0.9-1,1.2c-0.4,0.3-1,0.5-1.6,0.7c-0.6,0.2-1.3,0.2-2,0.2c-1,0-1.9-0.1-2.8-0.4
			c-0.9-0.3-1.6-0.6-2.3-1l1.6-2.6c0.2,0.1,0.5,0.3,0.8,0.4c0.3,0.1,0.6,0.3,0.9,0.4c0.3,0.1,0.6,0.2,1,0.3c0.3,0.1,0.6,0.1,0.9,0.1
			c0.6,0,1-0.1,1.2-0.2c0.2-0.1,0.3-0.3,0.3-0.6c0-0.1,0-0.2-0.1-0.3c-0.1-0.1-0.2-0.2-0.3-0.3c-0.2-0.1-0.4-0.2-0.6-0.3
			c-0.3-0.1-0.6-0.2-1-0.3c-0.7-0.2-1.4-0.4-1.9-0.5c-0.5-0.2-1-0.4-1.3-0.7c-0.4-0.3-0.6-0.6-0.8-1.1c-0.2-0.4-0.3-0.9-0.3-1.5
			c0-0.6,0.1-1.1,0.3-1.5c0.2-0.5,0.5-0.9,1-1.2c0.4-0.3,0.9-0.6,1.5-0.8c0.6-0.2,1.2-0.3,2-0.3c1,0,1.9,0.1,2.7,0.4
			c0.8,0.2,1.5,0.6,2.1,1l-1.6,2.6c-0.5-0.4-1.1-0.6-1.6-0.8c-0.5-0.2-1.1-0.3-1.7-0.3c-0.5,0-0.8,0.1-1,0.2
			c-0.2,0.1-0.2,0.3-0.2,0.5c0,0.1,0,0.2,0.1,0.3c0.1,0.1,0.2,0.2,0.3,0.2c0.1,0.1,0.4,0.1,0.6,0.2c0.3,0.1,0.6,0.2,1,0.2
			c0.8,0.2,1.4,0.4,2,0.6c0.5,0.2,1,0.5,1.4,0.8c0.4,0.3,0.6,0.7,0.8,1.1c0.2,0.4,0.3,0.9,0.3,1.5C140.6,9.3,140.4,9.9,140.2,10.4z"
			/>
	</g>
	<g>
		<g>
			<path class="st0" d="M6.5,12.3l-2-4H3.2v4H0V0.3h5.3c0.7,0,1.3,0.1,1.9,0.2c0.6,0.1,1.1,0.4,1.5,0.7c0.4,0.3,0.7,0.7,0.9,1.2
				C9.9,2.9,10,3.5,10,4.2c0,0.9-0.2,1.6-0.6,2.2C9,7,8.5,7.4,7.8,7.7l2.4,4.6H6.5z M6.4,3.4C6.2,3.1,5.8,3,5.2,3h-2v2.6h2
				c0.5,0,0.9-0.1,1.2-0.3c0.2-0.2,0.3-0.6,0.3-1C6.7,3.9,6.6,3.6,6.4,3.4z"/>
		</g>
		<g>
			<path class="st0" d="M12.2,12.3V0.3h9.1v2.8h-5.9v1.6H19v2.7h-3.5v2h6v2.8H12.2z"/>
		</g>
		<g>
			<path class="st0" d="M33.5,9.1c-0.3,0.8-0.7,1.4-1.2,1.9c-0.5,0.5-1.2,0.8-2,1c-0.8,0.2-1.7,0.3-2.8,0.3h-3.9V0.3h4.2
				c0.9,0,1.8,0.1,2.5,0.3c0.8,0.2,1.4,0.5,1.9,1c0.5,0.5,0.9,1.1,1.2,1.8c0.3,0.7,0.4,1.7,0.4,2.8C33.9,7.3,33.8,8.3,33.5,9.1z
				 M30.4,4.9c-0.1-0.4-0.3-0.7-0.5-1c-0.2-0.2-0.5-0.4-0.9-0.6c-0.4-0.1-0.8-0.2-1.3-0.2h-0.8v6.3h0.7c0.5,0,0.9-0.1,1.3-0.2
				c0.4-0.1,0.7-0.3,0.9-0.5c0.2-0.2,0.4-0.6,0.5-1c0.1-0.4,0.2-0.9,0.2-1.5C30.5,5.7,30.5,5.3,30.4,4.9z"/>
		</g>
		<g>
			<path class="st0" d="M48,12.3V7.6h-3.7v4.7h-3.4V0.3h3.4v4.4H48V0.3h3.4v11.9H48z"/>
		</g>
		<g>
			<path class="st0" d="M61.5,12.3l-0.6-2.1h-3.6l-0.6,2.1h-3.5l4.3-11.9h3.3l4.3,11.9H61.5z M59.8,6.7c-0.1-0.4-0.2-0.7-0.3-1
				c-0.1-0.3-0.2-0.5-0.2-0.8c-0.1-0.2-0.1-0.4-0.2-0.6c0-0.2-0.1-0.4-0.1-0.6C59,4,59,4.2,58.9,4.4c0,0.2-0.1,0.4-0.2,0.6
				c-0.1,0.2-0.1,0.5-0.2,0.8c-0.1,0.3-0.2,0.6-0.3,1l-0.2,0.8h2L59.8,6.7z"/>
		</g>
		<g>
			<path class="st0" d="M71.3,3.2v9.1H68V3.2h-3.3V0.3h10v2.9H71.3z"/>
		</g>
	</g>
	<g>
		<path class="st0" d="M78.6,2c-0.1,0.1-0.1,0.3-0.3,0.4c-0.1,0.1-0.2,0.2-0.4,0.3c-0.1,0.1-0.3,0.1-0.5,0.1c-0.2,0-0.3,0-0.5-0.1
			c-0.1-0.1-0.3-0.1-0.4-0.3c-0.1-0.1-0.2-0.2-0.3-0.4c-0.1-0.1-0.1-0.3-0.1-0.5c0-0.2,0-0.3,0.1-0.5c0.1-0.1,0.1-0.3,0.3-0.4
			c0.1-0.1,0.2-0.2,0.4-0.3c0.1-0.1,0.3-0.1,0.5-0.1c0.2,0,0.3,0,0.5,0.1c0.1,0.1,0.3,0.1,0.4,0.3c0.1,0.1,0.2,0.2,0.3,0.4
			c0.1,0.1,0.1,0.3,0.1,0.5C78.7,1.7,78.6,1.8,78.6,2z M78.4,1.1c0-0.1-0.1-0.2-0.2-0.3c-0.1-0.1-0.2-0.2-0.3-0.2
			c-0.1,0-0.3-0.1-0.4-0.1c-0.1,0-0.3,0-0.4,0.1c-0.1,0.1-0.2,0.1-0.3,0.2c-0.1,0.1-0.2,0.2-0.2,0.3c-0.1,0.1-0.1,0.3-0.1,0.4
			c0,0.1,0,0.3,0.1,0.4c0.1,0.1,0.1,0.2,0.2,0.3c0.1,0.1,0.2,0.2,0.3,0.2c0.1,0,0.3,0.1,0.4,0.1c0.1,0,0.3,0,0.4-0.1
			c0.1-0.1,0.2-0.1,0.3-0.2c0.1-0.1,0.2-0.2,0.2-0.3c0-0.1,0.1-0.3,0.1-0.4C78.5,1.4,78.4,1.2,78.4,1.1z M77.9,1.5
			c-0.1,0.1-0.1,0.1-0.2,0.1L78,2.1h-0.3l-0.3-0.5h-0.3v0.5H77V0.8h0.6c0.1,0,0.1,0,0.2,0c0.1,0,0.1,0,0.1,0.1C77.9,1,77.9,1,78,1
			c0,0,0,0.1,0,0.2C78,1.3,78,1.4,77.9,1.5z M77.7,1.1c0,0-0.1,0-0.1,0h-0.3v0.4h0.3c0.1,0,0.1,0,0.1,0c0,0,0.1-0.1,0.1-0.1
			C77.8,1.2,77.8,1.1,77.7,1.1z"/>
	</g>
	<g>
		<path class="st0" d="M145.1,2c-0.1,0.1-0.1,0.3-0.3,0.4c-0.1,0.1-0.2,0.2-0.4,0.3c-0.1,0.1-0.3,0.1-0.5,0.1c-0.2,0-0.3,0-0.5-0.1
			c-0.1-0.1-0.3-0.1-0.4-0.3c-0.1-0.1-0.2-0.2-0.3-0.4c-0.1-0.1-0.1-0.3-0.1-0.5c0-0.2,0-0.3,0.1-0.5c0.1-0.1,0.1-0.3,0.3-0.4
			c0.1-0.1,0.2-0.2,0.4-0.3c0.1-0.1,0.3-0.1,0.5-0.1c0.2,0,0.3,0,0.5,0.1c0.1,0.1,0.3,0.1,0.4,0.3c0.1,0.1,0.2,0.2,0.3,0.4
			c0.1,0.1,0.1,0.3,0.1,0.5C145.2,1.7,145.2,1.8,145.1,2z M144.9,1.1c0-0.1-0.1-0.2-0.2-0.3c-0.1-0.1-0.2-0.2-0.3-0.2
			c-0.1,0-0.3-0.1-0.4-0.1c-0.1,0-0.3,0-0.4,0.1c-0.1,0.1-0.2,0.1-0.3,0.2c-0.1,0.1-0.2,0.2-0.2,0.3c0,0.1-0.1,0.3-0.1,0.4
			c0,0.1,0,0.3,0.1,0.4c0.1,0.1,0.1,0.2,0.2,0.3c0.1,0.1,0.2,0.2,0.3,0.2c0.1,0,0.3,0.1,0.4,0.1c0.1,0,0.3,0,0.4-0.1
			c0.1-0.1,0.2-0.1,0.3-0.2c0.1-0.1,0.2-0.2,0.2-0.3c0-0.1,0.1-0.3,0.1-0.4C145,1.4,145,1.2,144.9,1.1z M144.5,1.5
			c0,0.1-0.1,0.1-0.2,0.1l0.3,0.5h-0.3L144,1.6h-0.3v0.5h-0.2V0.8h0.6c0.1,0,0.1,0,0.2,0c0.1,0,0.1,0,0.1,0.1c0,0,0.1,0.1,0.1,0.1
			c0,0,0,0.1,0,0.2C144.5,1.3,144.5,1.4,144.5,1.5z M144.3,1.1c0,0-0.1,0-0.1,0h-0.3v0.4h0.3c0.1,0,0.1,0,0.1,0c0,0,0.1-0.1,0.1-0.1
			C144.3,1.2,144.3,1.1,144.3,1.1z"/>
	</g>
	<g>
		<path class="st0" d="M151.1,12.3V0.2h2.4v12.1H151.1z"/>
		<path class="st0" d="M166,9c-0.4,0.8-0.8,1.4-1.4,1.9c-0.6,0.5-1.2,0.8-2,1.1c-0.7,0.2-1.5,0.3-2.3,0.3h-3.6V0.2h3.8
			c0.9,0,1.7,0.1,2.4,0.3c0.7,0.2,1.4,0.6,1.9,1c0.5,0.5,1,1.1,1.3,1.9c0.3,0.8,0.5,1.7,0.5,2.8C166.6,7.3,166.4,8.2,166,9z
			 M163.2,3.5c-0.6-0.6-1.5-0.9-2.8-0.9h-1.3v7.4h1.2c0.6,0,1.2-0.1,1.7-0.3c0.5-0.2,0.9-0.4,1.2-0.7c0.3-0.3,0.5-0.7,0.7-1.2
			c0.1-0.5,0.2-1,0.2-1.5C164.1,5,163.8,4.1,163.2,3.5z"/>
		<path class="st0" d="M169,12.3V0.2h8.4v2.4h-6v2.1h3.5V7h-3.5v2.9h6.2v2.4H169z"/>
		<path class="st0" d="M187.8,12.3l-4.4-6.6c-0.1-0.2-0.3-0.5-0.5-0.7s-0.3-0.5-0.4-0.6c0,0.1,0,0.3,0,0.5s0,0.5,0,0.7
			c0,0.3,0,0.5,0,0.8s0,0.5,0,0.6v5.3h-2.4V0.2h2.3l4.3,6.4c0.1,0.2,0.3,0.5,0.5,0.7c0.2,0.3,0.3,0.5,0.4,0.6c0-0.1,0-0.3,0-0.5
			c0-0.2,0-0.5,0-0.7c0-0.3,0-0.5,0-0.8c0-0.3,0-0.5,0-0.6V0.2h2.4v12.1H187.8z"/>
		<path class="st0" d="M198.2,2.6v9.7h-2.4V2.6h-3.5V0.2h9.3v2.4H198.2z"/>
		<path class="st0" d="M204.2,12.3V0.2h2.4v12.1H204.2z"/>
		<path class="st0" d="M215,2.6v9.7h-2.4V2.6h-3.5V0.2h9.3v2.4H215z"/>
		<path class="st0" d="M226.6,7.5v4.8h-2.4V7.5l-4.6-7.4h2.8l1.7,2.9c0.1,0.2,0.2,0.4,0.4,0.6c0.1,0.2,0.3,0.4,0.4,0.7
			c0.1,0.2,0.2,0.4,0.3,0.6s0.2,0.3,0.2,0.5c0.1-0.1,0.1-0.3,0.2-0.5c0.1-0.2,0.2-0.4,0.3-0.6c0.1-0.2,0.2-0.4,0.4-0.7
			c0.1-0.2,0.2-0.4,0.4-0.6l1.7-2.9h2.7L226.6,7.5z"/>
		<path class="st0" d="M246.1,12.3l-0.9-2.7h-4.4l-0.9,2.7h-2.6l4.6-12.1h2.3l4.6,12.1H246.1z M243.6,5.1c-0.1-0.4-0.2-0.7-0.4-1
			S243,3.4,243,3.2c-0.1,0.2-0.1,0.5-0.2,0.8c-0.1,0.3-0.2,0.7-0.4,1l-0.8,2.2h2.8L243.6,5.1z"/>
		<path class="st0" d="M258.7,12.3l-4.4-6.6c-0.2-0.2-0.3-0.5-0.5-0.7c-0.2-0.3-0.3-0.5-0.4-0.6c0,0.1,0,0.3,0,0.5s0,0.5,0,0.7
			c0,0.3,0,0.5,0,0.8s0,0.5,0,0.6v5.3H251V0.2h2.3l4.3,6.4c0.1,0.2,0.3,0.5,0.5,0.7c0.2,0.3,0.3,0.5,0.4,0.6c0-0.1,0-0.3,0-0.5
			c0-0.2,0-0.5,0-0.7c0-0.3,0-0.5,0-0.8c0-0.3,0-0.5,0-0.6V0.2h2.4v12.1H258.7z"/>
		<path class="st0" d="M273.2,9c-0.4,0.8-0.8,1.4-1.4,1.9c-0.6,0.5-1.2,0.8-2,1.1c-0.7,0.2-1.5,0.3-2.3,0.3h-3.6V0.2h3.8
			c0.9,0,1.7,0.1,2.4,0.3s1.4,0.6,1.9,1c0.5,0.5,1,1.1,1.3,1.9c0.3,0.8,0.5,1.7,0.5,2.8C273.7,7.3,273.5,8.2,273.2,9z M270.4,3.5
			c-0.6-0.6-1.5-0.9-2.8-0.9h-1.3v7.4h1.2c0.6,0,1.2-0.1,1.7-0.3c0.5-0.2,0.9-0.4,1.2-0.7c0.3-0.3,0.5-0.7,0.7-1.2
			c0.2-0.5,0.2-1,0.2-1.5C271.2,5,271,4.1,270.4,3.5z"/>
		<path class="st0" d="M289.2,12.3l-0.9-2.7h-4.4l-0.9,2.7h-2.6l4.6-12.1h2.3l4.6,12.1H289.2z M286.6,5.1c-0.1-0.4-0.2-0.7-0.4-1
			s-0.2-0.6-0.2-0.8c-0.1,0.2-0.1,0.5-0.2,0.8c-0.1,0.3-0.2,0.7-0.4,1l-0.8,2.2h2.8L286.6,5.1z"/>
		<path class="st0" d="M300.6,3.7c-0.2-0.4-0.5-0.7-0.9-1c-0.4-0.2-0.8-0.3-1.4-0.3c-0.4,0-0.9,0.1-1.2,0.3s-0.7,0.5-0.9,0.8
			c-0.2,0.3-0.4,0.7-0.6,1.2c-0.1,0.5-0.2,1-0.2,1.5c0,0.5,0.1,1,0.2,1.5c0.1,0.5,0.3,0.9,0.6,1.2s0.5,0.6,0.9,0.8s0.8,0.3,1.2,0.3
			c0.6,0,1-0.1,1.4-0.4c0.4-0.2,0.7-0.6,1-1.2l2,1.2c-0.4,0.9-1,1.5-1.7,2s-1.6,0.7-2.8,0.7c-0.8,0-1.5-0.1-2.2-0.4
			c-0.6-0.3-1.2-0.7-1.7-1.3c-0.5-0.5-0.8-1.2-1.1-2C293.1,8,293,7.2,293,6.2c0-0.9,0.1-1.8,0.4-2.5s0.6-1.4,1.1-2s1-1,1.7-1.3
			c0.7-0.3,1.4-0.5,2.2-0.5c0.6,0,1.1,0.1,1.5,0.2c0.5,0.1,0.9,0.3,1.2,0.6c0.4,0.2,0.7,0.5,0.9,0.8s0.5,0.7,0.7,1.1L300.6,3.7z"/>
		<path class="st0" d="M311.7,3.7c-0.2-0.4-0.5-0.7-0.9-1c-0.4-0.2-0.8-0.3-1.4-0.3c-0.4,0-0.9,0.1-1.2,0.3s-0.7,0.5-0.9,0.8
			c-0.2,0.3-0.4,0.7-0.6,1.2c-0.1,0.5-0.2,1-0.2,1.5c0,0.5,0.1,1,0.2,1.5c0.1,0.5,0.3,0.9,0.6,1.2s0.5,0.6,0.9,0.8s0.8,0.3,1.2,0.3
			c0.6,0,1-0.1,1.4-0.4c0.4-0.2,0.7-0.6,1-1.2l2,1.2c-0.4,0.9-1,1.5-1.7,2s-1.6,0.7-2.8,0.7c-0.8,0-1.5-0.1-2.2-0.4
			s-1.2-0.7-1.7-1.3c-0.5-0.5-0.8-1.2-1.1-2c-0.3-0.8-0.4-1.6-0.4-2.6c0-0.9,0.1-1.8,0.4-2.5s0.6-1.4,1.1-2s1-1,1.7-1.3
			c0.7-0.3,1.4-0.5,2.2-0.5c0.6,0,1.1,0.1,1.5,0.2c0.5,0.1,0.9,0.3,1.2,0.6c0.4,0.2,0.7,0.5,0.9,0.8s0.5,0.7,0.7,1.1L311.7,3.7z"/>
		<path class="st0" d="M316.4,12.3V0.2h8.4v2.4h-6v2.1h3.5V7h-3.5v2.9h6.2v2.4H316.4z"/>
		<path class="st0" d="M335.9,10.2c-0.2,0.5-0.5,0.9-0.9,1.2c-0.4,0.3-0.9,0.6-1.5,0.8s-1.3,0.3-2.1,0.3c-1,0-1.9-0.2-2.8-0.6
			c-0.8-0.4-1.5-0.9-1.9-1.6l1.7-1.6c0.4,0.5,0.9,0.8,1.4,1.1c0.5,0.2,1.1,0.3,1.7,0.3c0.7,0,1.3-0.1,1.6-0.3c0.3-0.2,0.5-0.5,0.5-1
			c0-0.2,0-0.4-0.1-0.5s-0.2-0.3-0.4-0.4c-0.2-0.1-0.5-0.2-0.8-0.4c-0.4-0.1-0.8-0.2-1.4-0.4c-0.6-0.1-1.1-0.3-1.5-0.4
			c-0.5-0.2-0.9-0.4-1.2-0.7c-0.3-0.3-0.6-0.6-0.8-1c-0.2-0.4-0.3-0.9-0.3-1.5c0-0.6,0.1-1,0.3-1.5c0.2-0.4,0.5-0.8,0.9-1.1
			c0.4-0.3,0.8-0.5,1.4-0.7c0.5-0.2,1.1-0.2,1.7-0.2c0.9,0,1.8,0.2,2.5,0.5c0.7,0.3,1.3,0.8,1.9,1.4l-1.7,1.7
			c-0.4-0.4-0.8-0.7-1.3-0.9c-0.4-0.2-0.9-0.3-1.5-0.3c-0.3,0-0.6,0-0.8,0.1s-0.4,0.1-0.5,0.2s-0.2,0.2-0.3,0.3
			c-0.1,0.1-0.1,0.3-0.1,0.4c0,0.2,0,0.4,0.1,0.5c0.1,0.1,0.2,0.2,0.4,0.4c0.2,0.1,0.4,0.2,0.7,0.3s0.7,0.2,1.2,0.3
			c0.5,0.1,1,0.2,1.4,0.4c0.5,0.2,0.9,0.4,1.3,0.6s0.7,0.6,0.9,1.1c0.2,0.4,0.4,1,0.4,1.6C336.2,9.2,336.1,9.7,335.9,10.2z"/>
		<path class="st0" d="M347.1,10.2c-0.2,0.5-0.5,0.9-0.9,1.2c-0.4,0.3-0.9,0.6-1.5,0.8s-1.3,0.3-2.1,0.3c-1,0-1.9-0.2-2.8-0.6
			c-0.8-0.4-1.5-0.9-1.9-1.6l1.7-1.6c0.4,0.5,0.9,0.8,1.4,1.1c0.5,0.2,1.1,0.3,1.7,0.3c0.7,0,1.3-0.1,1.6-0.3c0.3-0.2,0.5-0.5,0.5-1
			c0-0.2,0-0.4-0.1-0.5s-0.2-0.3-0.4-0.4c-0.2-0.1-0.5-0.2-0.8-0.4c-0.4-0.1-0.8-0.2-1.4-0.4c-0.6-0.1-1.1-0.3-1.5-0.4
			c-0.5-0.2-0.9-0.4-1.2-0.7c-0.3-0.3-0.6-0.6-0.8-1c-0.2-0.4-0.3-0.9-0.3-1.5c0-0.6,0.1-1,0.3-1.5c0.2-0.4,0.5-0.8,0.9-1.1
			c0.4-0.3,0.8-0.5,1.4-0.7c0.5-0.2,1.1-0.2,1.7-0.2c0.9,0,1.8,0.2,2.5,0.5c0.7,0.3,1.3,0.8,1.9,1.4l-1.7,1.7
			c-0.4-0.4-0.8-0.7-1.3-0.9c-0.4-0.2-0.9-0.3-1.5-0.3c-0.3,0-0.6,0-0.8,0.1s-0.4,0.1-0.5,0.2s-0.2,0.2-0.3,0.3
			c-0.1,0.1-0.1,0.3-0.1,0.4c0,0.2,0,0.4,0.1,0.5c0.1,0.1,0.2,0.2,0.4,0.4c0.2,0.1,0.4,0.2,0.7,0.3s0.7,0.2,1.2,0.3
			c0.5,0.1,1,0.2,1.4,0.4c0.5,0.2,0.9,0.4,1.3,0.6s0.7,0.6,0.9,1.1c0.2,0.4,0.4,1,0.4,1.6C347.3,9.2,347.2,9.7,347.1,10.2z"/>
		<path class="st0" d="M363.8,12.3V7.8c0-0.2,0-0.4,0-0.6c0-0.3,0-0.5,0-0.8c0-0.3,0-0.5,0-0.7c0-0.2,0-0.4,0-0.5
			c-0.1,0.2-0.2,0.5-0.4,0.9c-0.2,0.4-0.3,0.7-0.5,1.1l-2.5,5.4l-2.4-5.4c-0.2-0.3-0.3-0.7-0.5-1.1c-0.2-0.4-0.3-0.7-0.4-0.9
			c0,0.1,0,0.3,0,0.5c0,0.2,0,0.5,0,0.7c0,0.3,0,0.5,0,0.8c0,0.3,0,0.5,0,0.6v4.4h-2.4V0.2h2.3l2.5,5.5c0.1,0.2,0.2,0.4,0.2,0.5
			c0.1,0.2,0.2,0.4,0.2,0.6c0.1,0.2,0.1,0.4,0.2,0.5c0.1,0.2,0.1,0.3,0.1,0.4c0.1-0.2,0.2-0.5,0.3-0.9c0.2-0.4,0.3-0.8,0.5-1.1
			l2.4-5.5h2.4v12.1H363.8z"/>
		<path class="st0" d="M377.3,12.3l-0.9-2.7H372l-0.9,2.7h-2.6l4.6-12.1h2.3l4.6,12.1H377.3z M374.8,5.1c-0.1-0.4-0.2-0.7-0.4-1
			s-0.2-0.6-0.2-0.8c-0.1,0.2-0.1,0.5-0.2,0.8c-0.1,0.3-0.2,0.7-0.4,1l-0.8,2.2h2.8L374.8,5.1z"/>
		<path class="st0" d="M389.9,12.3l-4.4-6.6c-0.2-0.2-0.3-0.5-0.5-0.7c-0.2-0.3-0.3-0.5-0.4-0.6c0,0.1,0,0.3,0,0.5s0,0.5,0,0.7
			c0,0.3,0,0.5,0,0.8s0,0.5,0,0.6v5.3h-2.4V0.2h2.3l4.3,6.4c0.1,0.2,0.3,0.5,0.5,0.7c0.2,0.3,0.3,0.5,0.4,0.6c0-0.1,0-0.3,0-0.5
			c0-0.2,0-0.5,0-0.7c0-0.3,0-0.5,0-0.8c0-0.3,0-0.5,0-0.6V0.2h2.4v12.1H389.9z"/>
		<path class="st0" d="M403.2,12.3l-0.9-2.7h-4.4l-0.9,2.7h-2.6l4.6-12.1h2.3l4.6,12.1H403.2z M400.6,5.1c-0.1-0.4-0.2-0.7-0.4-1
			s-0.2-0.6-0.2-0.8c-0.1,0.2-0.1,0.5-0.2,0.8c-0.1,0.3-0.2,0.7-0.4,1l-0.8,2.2h2.8L400.6,5.1z"/>
		<path class="st0" d="M416.8,9.7c-0.2,0.6-0.6,1.1-1,1.5c-0.4,0.4-0.9,0.7-1.5,0.9c-0.6,0.2-1.2,0.3-1.9,0.3
			c-0.8,0-1.5-0.1-2.2-0.4s-1.2-0.7-1.7-1.3c-0.5-0.5-0.8-1.2-1.1-2C407.1,8,407,7.2,407,6.2c0-0.9,0.1-1.8,0.4-2.5s0.6-1.4,1.1-2
			s1-1,1.7-1.3c0.7-0.3,1.4-0.5,2.2-0.5c0.6,0,1.2,0.1,1.6,0.2c0.5,0.1,0.9,0.3,1.3,0.6c0.4,0.3,0.7,0.6,1,1
			c0.3,0.4,0.5,0.8,0.7,1.3L414.7,4c-0.1-0.2-0.2-0.4-0.4-0.6c-0.1-0.2-0.3-0.4-0.5-0.5c-0.2-0.1-0.4-0.2-0.6-0.3
			c-0.2-0.1-0.5-0.1-0.8-0.1c-0.4,0-0.9,0.1-1.2,0.3s-0.7,0.5-0.9,0.8c-0.2,0.3-0.4,0.7-0.6,1.2c-0.1,0.5-0.2,1-0.2,1.5
			c0,0.6,0.1,1.1,0.2,1.5c0.1,0.5,0.3,0.9,0.6,1.2c0.2,0.3,0.5,0.6,0.9,0.8s0.8,0.3,1.2,0.3c0.4,0,0.8,0,1.1-0.1
			c0.3-0.1,0.5-0.2,0.7-0.4c0.2-0.2,0.3-0.4,0.4-0.6c0.1-0.2,0.2-0.5,0.2-0.7h-1.9V6h4.3v1.6C417.1,8.4,417,9.1,416.8,9.7z"/>
		<path class="st0" d="M419.7,12.3V0.2h8.4v2.4h-6v2.1h3.5V7h-3.5v2.9h6.2v2.4H419.7z"/>
		<path class="st0" d="M439.8,12.3V7.8c0-0.2,0-0.4,0-0.6c0-0.3,0-0.5,0-0.8c0-0.3,0-0.5,0-0.7c0-0.2,0-0.4,0-0.5
			c-0.1,0.2-0.2,0.5-0.4,0.9c-0.2,0.4-0.3,0.7-0.5,1.1l-2.5,5.4l-2.4-5.4c-0.2-0.3-0.3-0.7-0.5-1.1c-0.2-0.4-0.3-0.7-0.4-0.9
			c0,0.1,0,0.3,0,0.5c0,0.2,0,0.5,0,0.7c0,0.3,0,0.5,0,0.8c0,0.3,0,0.5,0,0.6v4.4h-2.4V0.2h2.3l2.5,5.5c0.1,0.2,0.2,0.4,0.2,0.5
			c0.1,0.2,0.2,0.4,0.2,0.6c0.1,0.2,0.1,0.4,0.2,0.5c0.1,0.2,0.1,0.3,0.1,0.4c0.1-0.2,0.2-0.5,0.3-0.9c0.2-0.4,0.3-0.8,0.5-1.1
			l2.4-5.5h2.4v12.1H439.8z"/>
		<path class="st0" d="M445.3,12.3V0.2h8.4v2.4h-6v2.1h3.5V7h-3.5v2.9h6.2v2.4H445.3z"/>
		<path class="st0" d="M464.2,12.3l-4.4-6.6c-0.2-0.2-0.3-0.5-0.5-0.7c-0.2-0.3-0.3-0.5-0.4-0.6c0,0.1,0,0.3,0,0.5s0,0.5,0,0.7
			c0,0.3,0,0.5,0,0.8s0,0.5,0,0.6v5.3h-2.4V0.2h2.3l4.3,6.4c0.1,0.2,0.3,0.5,0.5,0.7c0.2,0.3,0.3,0.5,0.4,0.6c0-0.1,0-0.3,0-0.5
			c0-0.2,0-0.5,0-0.7c0-0.3,0-0.5,0-0.8c0-0.3,0-0.5,0-0.6V0.2h2.4v12.1H464.2z"/>
		<path class="st0" d="M474.5,2.6v9.7h-2.4V2.6h-3.5V0.2h9.3v2.4H474.5z"/>
	</g>
</g>
</svg>
