<svg width="240" height="240" viewBox="0 0 240 240" fill="none" xmlns="http://www.w3.org/2000/svg">
<path fill-rule="evenodd" clip-rule="evenodd" d="M239.257 120.417C239.257 54.4193 185.755 0.916504 119.757 0.916504C53.7601 0.916504 0.257324 54.4193 0.257324 120.417C0.257324 186.417 53.7601 239.917 119.757 239.917C185.755 239.917 239.257 186.417 239.257 120.417ZM98.0069 54.0276C97.0674 55.8714 97.0674 58.2851 97.0674 63.1126V90.4729C97.0674 91.6788 97.0674 92.2817 97.2196 92.8392C97.3545 93.3331 97.5763 93.799 97.8746 94.215C98.2113 94.6847 98.6792 95.0648 99.6152 95.8251L106.536 101.447C107.664 102.364 108.228 102.822 108.433 103.374C108.613 103.857 108.613 104.39 108.433 104.873C108.228 105.425 107.664 105.883 106.536 106.8L99.6152 112.422C98.6793 113.182 98.2113 113.562 97.8746 114.032C97.5763 114.448 97.3545 114.914 97.2196 115.408C97.0674 115.965 97.0674 116.568 97.0674 117.774V177.719C97.0674 182.547 97.0674 184.961 98.0069 186.805C98.8333 188.426 100.152 189.745 101.774 190.571C103.618 191.511 106.031 191.511 110.859 191.511H128.656C133.483 191.511 135.897 191.511 137.741 190.571C139.363 189.745 140.681 188.426 141.508 186.805C142.447 184.961 142.447 182.547 142.447 177.719V150.359C142.447 149.153 142.447 148.55 142.295 147.993C142.16 147.499 141.938 147.033 141.64 146.617C141.303 146.147 140.835 145.767 139.899 145.007L132.978 139.385C131.85 138.468 131.286 138.01 131.082 137.459C130.902 136.975 130.902 136.443 131.082 135.959C131.286 135.407 131.85 134.949 132.978 134.033L139.899 128.41C140.835 127.65 141.303 127.27 141.64 126.8C141.938 126.384 142.16 125.918 142.295 125.424C142.447 124.867 142.447 124.264 142.447 123.058V63.1126C142.447 58.2851 142.447 55.8714 141.508 54.0276C140.681 52.4057 139.363 51.087 137.741 50.2606C135.897 49.3211 133.483 49.3211 128.656 49.3211H110.859C106.031 49.3211 103.618 49.3211 101.774 50.2606C100.152 51.087 98.8333 52.4057 98.0069 54.0276Z" fill="#FFFEFB"/>
</svg>
