<svg viewBox="0 0 322 322" xmlns="http://www.w3.org/2000/svg" xml:space="preserve" style="fill-rule:evenodd;clip-rule:evenodd;stroke-linejoin:round;stroke-miterlimit:2">
    <path d="M321.347 72.106C321.347 32.31 289.037 0 249.241 0H72.106C32.31 0 0 32.31 0 72.106v177.135c0 39.796 32.31 72.106 72.106 72.106h177.135c39.796 0 72.106-32.31 72.106-72.106V72.106Z" style="fill:#fff"/>
    <path d="M126.106 266.574c.775.965.309 2.517.017 2.43l-7.773 7.741c-1.686 1.206-3.365 1.132-5.009.135l-18.424-19.268c-.452-.649-.762-1.328-.833-2.058v-94.735c-22.821-8.67-39.057-30.754-39.057-56.6 0-33.006 26.478-59.876 59.333-60.511-18.551 13.563-30.61 35.488-30.61 60.208 0 28.109 15.593 52.604 38.593 65.301v87.841h.006c-.004.137-.006.275-.006.413 0 3.551 1.699 6.535 3.763 9.103Z" style="fill:#ebebeb"/>
    <clipPath id="a">
        <path d="M126.106 266.574c.775.965.309 2.517.017 2.43l-7.773 7.741c-1.686 1.206-3.365 1.132-5.009.135l-18.424-19.268c-.452-.649-.762-1.328-.833-2.058v-94.735c-22.821-8.67-39.057-30.754-39.057-56.6 0-33.006 26.478-59.876 59.333-60.511-18.551 13.563-30.61 35.488-30.61 60.208 0 28.109 15.593 52.604 38.593 65.301v87.841h.006c-.004.137-.006.275-.006.413 0 3.551 1.699 6.535 3.763 9.103Z"/>
    </clipPath>
    <g clip-path="url(#a)">
        <path d="M126.531 277.545V43.603H55.027v233.942h71.504Z" style="fill:url(#b)"/>
    </g>
    <path d="M167.618 266.574c.775.965.309 2.517.017 2.43l-7.773 7.741c-1.686 1.206-3.365 1.132-5.009.135l-18.424-19.268c-.452-.649-.762-1.328-.833-2.058v-94.735c-22.82-8.67-39.056-30.754-39.056-56.6 0-33.006 26.477-59.876 59.333-60.511-18.552 13.563-30.611 35.488-30.611 60.208 0 28.109 15.593 52.604 38.593 65.301v87.841h.007c-.005.137-.007.275-.007.413 0 3.551 1.699 6.535 3.763 9.103Z" style="fill:#ebebeb"/>
    <clipPath id="c">
        <path d="M167.618 266.574c.775.965.309 2.517.017 2.43l-7.773 7.741c-1.686 1.206-3.365 1.132-5.009.135l-18.424-19.268c-.452-.649-.762-1.328-.833-2.058v-94.735c-22.82-8.67-39.056-30.754-39.056-56.6 0-33.006 26.477-59.876 59.333-60.511-18.552 13.563-30.611 35.488-30.611 60.208 0 28.109 15.593 52.604 38.593 65.301v87.841h.007c-.005.137-.007.275-.007.413 0 3.551 1.699 6.535 3.763 9.103Z"/>
    </clipPath>
    <g clip-path="url(#c)">
        <path d="M168.043 277.545V43.603H96.54v233.942h71.503Z" style="fill:url(#d)"/>
    </g>
    <path d="M177.014 160.725c-22.82-8.67-39.056-30.753-39.056-56.599 0-33.404 27.119-60.523 60.523-60.523 33.403 0 60.523 27.119 60.523 60.523 0 28.22-19.357 51.956-45.506 58.642l26.358 26.862c.994 1.581.943 3.037-.059 4.377l-25.881 26.464 18.777 18.979c1.571 2.132 1.323 4.182-.256 6.171l-31.157 31.03c-1.686 1.207-3.364 1.133-5.008.135l-18.424-19.268c-.453-.648-.763-1.327-.834-2.057v-94.736Zm21.662-93.481c8.924 0 16.169 7.245 16.169 16.169s-7.245 16.169-16.169 16.169-16.169-7.245-16.169-16.169 7.245-16.169 16.169-16.169Z" style="fill:none"/>
    <clipPath id="e">
        <path d="M177.014 160.725c-22.82-8.67-39.056-30.753-39.056-56.599 0-33.404 27.119-60.523 60.523-60.523 33.403 0 60.523 27.119 60.523 60.523 0 28.22-19.357 51.956-45.506 58.642l26.358 26.862c.994 1.581.943 3.037-.059 4.377l-25.881 26.464 18.777 18.979c1.571 2.132 1.323 4.182-.256 6.171l-31.157 31.03c-1.686 1.207-3.364 1.133-5.008.135l-18.424-19.268c-.453-.648-.763-1.327-.834-2.057v-94.736Zm21.662-93.481c8.924 0 16.169 7.245 16.169 16.169s-7.245 16.169-16.169 16.169-16.169-7.245-16.169-16.169 7.245-16.169 16.169-16.169Z"/>
    </clipPath>
    <g clip-path="url(#e)">
        <path d="M259.004 277.545V43.603H137.958v233.942h121.046Z" style="fill:url(#f)"/>
    </g>
    <defs>
        <linearGradient id="b" x1="0" y1="0" x2="1" y2="0" gradientUnits="userSpaceOnUse" gradientTransform="matrix(0 233.943 -71.5033 0 90.78 43.603)">
            <stop offset="0" style="stop-color:#ffdd53;stop-opacity:1"/>
            <stop offset="1" style="stop-color:#ffbf01;stop-opacity:1"/>
        </linearGradient>
        <linearGradient id="d" x1="0" y1="0" x2="1" y2="0" gradientUnits="userSpaceOnUse" gradientTransform="matrix(0 233.943 -71.5033 0 132.291 43.603)">
            <stop offset="0" style="stop-color:#51e376;stop-opacity:1"/>
            <stop offset="1" style="stop-color:#34c759;stop-opacity:1"/>
        </linearGradient>
        <linearGradient id="f" x1="0" y1="0" x2="1" y2="0" gradientUnits="userSpaceOnUse" gradientTransform="matrix(0 233.943 -121.046 0 198.481 43.603)">
            <stop offset="0" style="stop-color:#62ccf8;stop-opacity:1"/>
            <stop offset="1" style="stop-color:#0079ff;stop-opacity:1"/>
        </linearGradient>
    </defs>
</svg>
