<svg width="512" height="512" viewBox="0 0 512 512" fill="none" xmlns="http://www.w3.org/2000/svg">
<path d="M257.474 359.209C257.474 356.189 254.454 353.169 250.215 351.959L199.411 333.231C190.895 329.601 181.264 333.831 181.264 339.89V475.779C181.264 478.809 184.283 482.438 187.303 483.648L239.326 502.376C247.195 505.396 257.474 501.166 257.474 494.508V359.209Z" fill="white"/>
<path d="M352.736 321.104C352.736 318.084 349.717 315.064 345.477 313.854L294.674 295.126C286.157 291.496 276.526 295.726 276.526 301.785V437.674C276.526 440.704 279.546 444.333 282.566 445.543L334.589 464.271C342.458 467.291 352.736 463.061 352.736 456.403V321.104Z" fill="white"/>
<path d="M257.474 35.3211C257.474 32.3013 254.454 29.2815 250.215 28.0717L199.411 9.34343C190.895 5.71399 181.264 9.94358 181.264 16.0022V151.892C181.264 154.921 184.283 158.551 187.303 159.76L239.326 178.489C247.195 181.509 257.474 177.279 257.474 170.62V35.3211Z" fill="white"/>
<path d="M352.736 92.4777C352.736 89.4579 349.717 86.4382 345.477 85.2283L294.674 66.5C286.157 62.8706 276.526 67.1002 276.526 73.1588V209.048C276.526 212.078 279.546 215.707 282.566 216.917L334.589 235.645C342.458 238.665 352.736 234.436 352.736 227.777V92.4777Z" fill="white"/>
<path d="M448 168.687C448 165.667 444.98 162.647 440.741 161.437L389.937 142.709C381.421 139.079 371.79 143.309 371.79 149.368V361.466C371.79 364.495 374.81 368.125 377.829 369.335L429.852 388.063C437.721 391.083 448 386.853 448 380.194V168.687Z" fill="white"/>
<path d="M162.21 35.3306C162.21 32.3108 159.19 29.2815 154.951 28.0717L104.148 9.34343C95.6787 5.71399 86 9.94358 86 16.0022V475.789C86 478.808 89.0198 482.438 92.0492 483.648L144.063 502.376C151.931 505.396 162.21 501.166 162.21 494.507V35.3306Z" fill="white"/>
</svg>
