<?xml version="1.0" encoding="UTF-8"?><svg xmlns:inkscape="http://www.inkscape.org/namespaces/inkscape" xmlns:sodipodi="http://sodipodi.sourceforge.net/DTD/sodipodi-0.dtd" xmlns="http://www.w3.org/2000/svg" xmlns:svg="http://www.w3.org/2000/svg" xmlns:rdf="http://www.w3.org/1999/02/22-rdf-syntax-ns#" xmlns:cc="http://creativecommons.org/ns#" xmlns:dc="http://purl.org/dc/elements/1.1/" width="1000pt" height="1000pt" viewBox="0 0 1000 1000" version="1.2" baseProfile="tiny-ps"><title>YubiKey</title><defs id="defs1"></defs><desc id="logo-desc-v2">YubiKey</desc><g id="#76b93dff"><path fill="#76B93D" d=" M 491.78 0.00 L 511.37 0.00 C 574.24 1.38 636.67 15.16 694.57 39.58 C 717.73 50.60 741.13 61.38 762.77 75.25 C 779.69 84.71 794.83 96.89 809.98 108.88 C 825.12 120.25 839.38 132.80 852.61 146.36 C 856.92 150.72 860.78 155.50 865.23 159.73 C 879.49 173.96 892.14 189.73 903.77 206.16 C 910.61 216.29 918.36 225.81 924.67 236.30 C 934.75 252.39 943.29 269.37 951.53 286.45 C 979.45 343.28 995.28 405.80 999.29 468.92 C 999.90 481.28 1000.86 493.63 1000.62 506.02 C 999.92 530.28 998.27 554.55 994.28 578.51 C 990.71 600.50 985.66 622.25 979.40 643.62 C 974.54 659.88 969.46 676.12 962.49 691.61 C 949.88 720.01 936.37 748.21 918.72 773.87 C 915.53 778.61 911.86 783.01 908.71 787.78 C 898.94 802.36 887.86 816.03 876.17 829.11 C 862.46 844.35 848.22 859.16 832.84 872.74 C 822.70 882.04 811.43 889.96 800.96 898.85 C 784.93 911.66 767.54 922.65 749.80 932.90 C 721.00 949.90 690.64 964.30 658.92 974.98 C 613.06 990.59 564.79 998.98 516.36 1000.00 L 504.47 1000.00 C 511.75 981.42 519.01 962.82 526.11 944.17 C 537.32 919.39 545.95 893.55 556.42 868.47 C 562.86 852.73 568.51 836.67 575.21 821.04 C 582.59 805.63 588.10 789.42 594.54 773.61 C 605.97 746.81 615.42 719.19 627.74 692.77 C 643.77 653.10 659.30 613.22 676.12 573.87 C 692.91 533.90 707.98 493.23 725.31 453.49 C 732.94 435.27 740.06 416.84 747.34 398.48 C 753.89 382.51 760.21 366.44 766.50 350.37 C 774.97 332.55 781.46 313.91 788.79 295.63 C 730.56 295.64 672.33 296.00 614.10 295.47 C 600.44 332.35 588.31 369.78 574.40 406.57 C 559.72 448.61 545.43 490.78 530.66 532.79 C 524.97 546.15 520.39 559.94 515.44 573.59 C 508.03 595.34 499.38 616.64 491.75 638.31 C 487.72 622.08 482.01 606.34 476.44 590.59 C 462.53 549.76 447.48 509.33 431.80 469.15 C 425.09 452.88 419.43 436.21 413.27 419.73 C 404.83 396.70 396.42 373.65 388.53 350.42 C 386.62 344.61 384.02 339.07 381.78 333.39 C 376.47 320.42 371.13 307.43 364.99 294.82 C 306.81 296.76 248.59 295.12 190.40 295.90 C 204.79 334.07 218.81 372.38 233.78 410.33 C 250.79 452.59 266.56 495.33 283.11 537.76 C 293.49 560.74 301.47 584.68 311.01 608.00 C 319.20 628.80 326.75 649.86 335.75 670.32 C 347.17 698.67 358.08 727.21 369.24 755.66 C 377.66 776.87 386.64 797.85 394.94 819.12 C 385.00 843.03 374.52 866.71 364.56 890.62 C 359.78 902.38 354.90 914.11 349.80 925.74 C 343.36 940.74 337.11 955.86 329.50 970.32 C 302.81 960.87 277.35 948.27 252.82 934.20 C 241.07 927.41 229.30 920.61 218.24 912.72 C 144.26 861.18 83.20 790.37 46.19 707.92 C 41.31 698.44 36.89 688.71 33.49 678.59 C -16.51 550.54 -9.90 401.20 52.89 278.72 C 63.95 256.51 75.92 234.61 90.79 214.69 C 106.43 193.02 122.74 171.66 141.97 153.01 C 159.09 134.08 178.85 117.78 199.06 102.26 C 207.27 96.06 215.25 89.53 223.94 83.99 C 253.70 64.41 285.58 48.15 318.48 34.55 C 373.61 12.90 432.58 1.25 491.78 0.00 Z" id="path1"></path></g><metadata></metadata></svg>