<svg xmlns="http://www.w3.org/2000/svg" xmlns:xlink="http://www.w3.org/1999/xlink" xml:space="preserve" width="192" height="192">
  <defs>
    <linearGradient id="a">
      <stop offset="0" stop-color="#42ab46"/>
      <stop offset="1" stop-color="#439447"/>
    </linearGradient>
    <linearGradient xlink:href="#a" id="b" x1="0" x2="192" y1="0" y2="192" gradientUnits="userSpaceOnUse"/>
  </defs>
  <circle cx="96" cy="96" r="88" fill="url(#b)"/>
  <path fill="#ffa726" d="M56 56v10l70 70h10v-9L65 56Z"/>
  <path fill="#fff" d="m83 99-27 28v9h9l10-10h10v-9h9v-7zm25-46L95 79l21 21 25-13-4-29zm19 18c4 0 8 5 7 9s-6 7-10 5c-4-1-6-7-3-11 1-1 3-3 6-3z"/>
</svg>
