<svg width="50" height="50" viewBox="0 0 50 50" fill="none" xmlns="http://www.w3.org/2000/svg">
<rect width="50" height="50" rx="7.84782" fill="url(#paint0_linear_284_5743)"/>
<path d="M39.3518 17.6383C38.905 17.6383 38.5668 17.9747 38.5668 18.4287V31.5604C38.5668 32.0108 38.9014 32.3509 39.3518 32.3509C39.8022 32.3509 40.1368 32.0144 40.1368 31.5604V18.4287C40.1368 17.9784 39.8022 17.6383 39.3518 17.6383Z" fill="white"/>
<path d="M21.8918 22.5449C20.3814 22.5449 19.0954 23.7857 19.0954 25.3069C19.0954 26.8281 20.3272 28.1232 21.8375 28.1232C23.3478 28.1232 24.6339 26.8824 24.6339 25.3612C24.6339 23.84 23.4021 22.5449 21.8918 22.5449Z" fill="white"/>
<path d="M31.0694 22.5449C29.5591 22.5449 28.2731 23.7857 28.2731 25.3069C28.2731 26.8281 29.5048 28.1232 31.0152 28.1232C32.5255 28.1232 33.8115 26.8824 33.8115 25.3612C33.8658 23.84 32.634 22.5449 31.0694 22.5449Z" fill="white"/>
<path d="M12.6596 22.5449C11.1493 22.5449 9.86328 23.7857 9.86328 25.3069C9.86328 26.8281 11.0951 28.1232 12.6054 28.1232C14.1157 28.1232 15.4017 26.8824 15.4017 25.3612C15.4017 23.84 14.17 22.5449 12.6596 22.5449Z" fill="white"/>
<defs>
<linearGradient id="paint0_linear_284_5743" x1="25" y1="0" x2="25" y2="50" gradientUnits="userSpaceOnUse">
<stop stop-color="#3C3D3D"/>
<stop offset="1" stop-color="#262626"/>
</linearGradient>
</defs>
</svg>
