<?xml version="1.0" encoding="UTF-8"?><svg version="1.1" width="52px" height="52px" viewBox="0 0 52.0 52.0" xmlns="http://www.w3.org/2000/svg" xmlns:xlink="http://www.w3.org/1999/xlink"><defs><clipPath id="i0"><path d="M360,0 L360,800 L0,800 L0,0 L360,0 Z"></path></clipPath><clipPath id="i1"><path d="M26,0 C33.9910278,0 41.1395833,0.975 45.9087778,5.77777778 C49.7101944,9.60591667 52,15.8650556 52,26 C52,36.1349444 49.7098333,42.3944444 45.9080556,46.2225833 C41.1388611,51.0246389 33.9903056,52 26,52 C18.0089722,52 10.8607778,51.0246389 6.09158333,46.2225833 C2.29016667,42.3944444 0,36.1349444 0,26 C0,15.8650556 2.28980556,9.60555556 6.09086111,5.77777778 C10.8600556,0.975 18.0086111,0 26,0 Z"></path></clipPath><linearGradient id="i2" x1="26px" y1="52px" x2="26px" y2="0.195921148px" gradientUnits="userSpaceOnUse"><stop stop-color="#2929B2" offset="0%"></stop><stop stop-color="#1A40CC" offset="100%"></stop></linearGradient><clipPath id="i3"><path d="M37.1944444,0 L37.1944444,5.72222222 L0,5.72222222 L0,0 L37.1944444,0 Z"></path></clipPath><clipPath id="i4"><path d="M1.88342213,0 C2.62075987,0 3.64356402,0.181610871 3.64356402,1.32111819 L3.64356402,1.68911562 L2.34279339,1.68911562 L2.34279339,1.36490659 C2.34279339,1.07957573 2.16319664,0.889153371 1.8581768,0.889153371 C1.52931788,0.889153371 1.41648398,1.07527088 1.38085927,1.24215109 C1.36679688,1.30026657 1.36090408,1.41172184 1.38614941,1.51725793 C1.53460802,2.1304973 3.51244902,2.45611887 3.73255883,3.55553727 C3.75371937,3.6670598 3.80079488,3.96113488 3.73804986,4.41300963 C3.61182321,5.28965203 2.8380572,5.61217949 1.89581043,5.61217949 C0.915729136,5.61217949 0,5.25998892 0,4.0888006 L0,3.68824773 L1.39940823,3.68824773 L1.40121625,4.19231879 C1.40121625,4.4786586 1.59608073,4.66928275 1.92185932,4.66928275 C2.2707404,4.66928275 2.38839569,4.49150589 2.43118552,4.31541061 C2.45622996,4.21639905 2.47149769,4.05463085 2.42100703,3.92864671 C2.15134406,3.25096911 0.297921677,2.94128895 0.0721199473,1.87032292 C0.0173436085,1.60564189 0.0238390912,1.39907634 0.0617405677,1.16426021 C0.200221581,0.308873007 0.957112727,0 1.88342213,0 Z M18.8411186,0.0296631089 C19.5704877,0.0296631089 20.5778901,0.206969129 20.5778901,1.33564706 L20.5778901,1.70075217 L19.2921864,1.70075217 L19.2921864,1.38044441 C19.2921864,1.0974005 19.115603,0.90879425 18.8144001,0.90879425 C18.4912331,0.90879425 18.3790688,1.09161586 18.34177,1.25937049 C18.3297835,1.31681334 18.3230871,1.42665428 18.3462566,1.53017248 C18.4943134,2.13641647 20.4503912,2.46311425 20.6660144,3.54921452 C20.6896526,3.65905547 20.7340496,3.95070907 20.6751885,4.3984135 C20.5517743,5.26510093 19.7824949,5.58480333 18.8510962,5.58480333 C17.8785818,5.58480333 16.9756428,5.23543783 16.9756428,4.07750037 L16.9756428,3.67788919 L18.3595154,3.67788919 L18.3599172,4.18061498 C18.3599172,4.46305352 18.5551834,4.65044903 18.8797567,4.65044903 C19.2257583,4.65044903 19.3424761,4.47516091 19.3823865,4.30088174 C19.4063595,4.20556966 19.4198192,4.04380146 19.3728107,3.9169429 C19.1064289,3.24726963 17.2711537,2.94007821 17.0477627,1.8811523 C16.9901069,1.6193636 16.9990801,1.41421058 17.0353074,1.18309393 C17.1723153,0.333827686 17.92251,0.0296631089 18.8411186,0.0296631089 Z M23.2364845,0.166880211 L23.2362291,4.11137366 C23.2372063,4.15798462 23.2408818,4.20406745 23.2496764,4.24115194 C23.2751226,4.37123913 23.3877556,4.62159308 23.7469491,4.62159308 C24.1108301,4.62159308 24.2205836,4.37123913 24.2481057,4.24115194 C24.2596905,4.1855252 24.2617663,4.10965222 24.2596905,4.04211988 L24.2596905,0.166880211 L25.5786083,0.166880211 L25.5786083,3.92185312 C25.5843002,4.01864499 25.5747244,4.21639905 25.5674253,4.26819178 C25.4747475,5.24667079 24.707477,5.56435529 23.7469491,5.56435529 C22.7882962,5.56435529 22.020557,5.24667079 21.9295532,4.26819178 C21.9238613,4.21639905 21.9162944,4.01864499 21.9179685,3.92185312 L21.9179685,0.166880211 L23.2364845,0.166880211 Z M34.6297621,0.0259636282 C35.5539956,0.0259636282 36.3600382,0.336854534 36.4587427,1.31950387 C36.465573,1.39119692 36.4683814,1.46511378 36.4693607,1.52618022 L36.469004,1.65575402 L36.4687203,1.66617884 L36.4687203,1.83803654 L35.1553605,1.83803654 L35.15515,1.53355556 C35.1544471,1.49873362 35.15149,1.40564123 35.1394901,1.34526571 C35.1166555,1.2313217 35.0170804,0.966035306 34.6181774,0.966035306 C34.2381582,0.966035306 34.1255921,1.21759999 34.0996772,1.34526571 C34.0817978,1.41542132 34.0761059,1.50811012 34.0761059,1.5927946 L34.0761059,3.98689672 C34.0761059,4.05463085 34.0801907,4.12761151 34.0897665,4.18613057 C34.1125342,4.327518 34.2438501,4.5682533 34.6209899,4.5682533 C35.0004064,4.5682533 35.134133,4.327518 35.1553605,4.18613057 C35.1669452,4.12761151 35.1706282,4.05463085 35.1689541,3.98689672 L35.1689541,3.22890676 L34.6344496,3.22890676 L34.6344496,2.46493036 L36.4791667,2.46493036 L36.4791667,3.86851334 C36.4770908,3.96443078 36.4754837,4.03868945 36.460015,4.21397757 C36.3728282,5.16958707 35.5539956,5.50832497 34.6260791,5.50832497 C33.7038545,5.50832497 32.87933,5.16958707 32.7936164,4.21397757 C32.775938,4.03868945 32.7728576,3.96443078 32.7728576,3.86851334 L32.7728576,1.66617884 C32.7728576,1.5702614 32.788728,1.40909857 32.7991074,1.31950387 C32.9141511,0.339746855 33.7038545,0.0259636282 34.6297621,0.0259636282 Z M12.1447447,0.166880211 L12.8022616,4.26159998 L13.4601804,0.166880211 L15.5852746,0.166880211 L15.7019255,5.40521036 L14.395262,5.40521036 L14.3598382,0.555931054 L13.4622562,5.40521036 L12.1398563,5.40521036 L11.2430779,0.555931054 L11.207788,5.40521036 L9.9044058,5.40521036 L10.0172397,0.166880211 L12.1447447,0.166880211 Z M7.9012525,0.166880211 L8.86325358,5.40521036 L7.4643141,5.40521036 L6.75382883,0.555931054 L6.02586602,5.40521036 L4.61714983,5.40521036 L5.58316873,0.166880211 L7.9012525,0.166880211 Z M28.304836,5.35059257 L27.0246233,5.35059257 L27.0246233,0.166880211 L28.9598753,0.166880211 L30.1879903,4.38435547 L30.1168748,0.166880211 L31.4054581,0.166880211 L31.4054581,5.35059257 L29.5494241,5.35059257 L28.23,0.999 L28.304836,5.35059257 Z"></path></clipPath><clipPath id="i5"><path d="M24.3352966,2.47006432 C25.3096502,2.47006432 26.121323,2.65660564 26.7692768,3.02897356 C27.4172305,3.40169883 27.9295017,3.90843367 28.3060902,4.55025015 L26.3954573,5.48259937 C26.1960869,5.1463247 25.9191836,4.88009236 25.5647473,4.68461708 C25.2103111,4.48914179 24.8004942,4.39122547 24.3352966,4.39122547 C23.8036422,4.39122547 23.4104395,4.49485953 23.1556885,4.70212766 C22.9005913,4.90939579 22.7735619,5.14954093 22.7735619,5.42220573 C22.7735619,5.73846831 22.9618562,5.96503381 23.3384447,6.10083017 C23.714687,6.23734125 24.2688398,6.38207158 24.9998646,6.53466381 C25.3986054,6.6111386 25.799769,6.71155644 26.204394,6.83734675 C26.6086729,6.9627797 26.9769543,7.13181043 27.3092383,7.34479631 C27.6415222,7.55742482 27.9101185,7.82973226 28.1150269,8.1627907 C28.3199354,8.49549178 28.4223896,8.91252955 28.4223896,9.41426137 C28.4223896,9.75232283 28.3448567,10.1043213 28.1897908,10.469542 C28.0343788,10.8347628 27.7938191,11.1731816 27.4670731,11.4837264 C27.1403272,11.794986 26.7277413,12.0483534 26.2293153,12.2445434 C25.7308893,12.4410908 25.1327782,12.5390071 24.4349818,12.5390071 C23.3605969,12.5390071 22.4689682,12.332811 21.7600957,11.9200616 C21.0512233,11.5069548 20.5029547,10.9105228 20.11529,10.1300511 L22.1920649,9.16518225 C22.4246637,9.60473363 22.7403335,9.94243774 23.1390743,10.1786519 C23.5378151,10.4145088 24.0030126,10.5320798 24.534667,10.5320798 C25.0884736,10.5320798 25.5038286,10.417725 25.7807319,10.1890153 C26.0572891,9.95994832 26.1960869,9.68764088 26.1960869,9.37102095 C26.1960869,9.19662983 26.1323992,9.05511573 26.0050236,8.94576392 C25.8776481,8.83712683 25.7115061,8.74135466 25.5065976,8.65987685 C25.3013431,8.57804167 25.0607833,8.51014349 24.78388,8.45511023 C24.5069767,8.40079169 24.2189972,8.3407554 23.9199416,8.27535873 C23.4987025,8.18816318 23.0864626,8.08488647 22.6821838,7.9648139 C22.277905,7.84509869 21.9151616,7.67856947 21.5939538,7.46629831 C21.2727459,7.25331244 21.0124568,6.98064764 20.8130864,6.64830392 C20.613716,6.3159602 20.5140308,5.89892243 20.5140308,5.39754797 C20.5140308,5.01553137 20.6054089,4.64780912 20.7881651,4.2936665 C20.9709213,3.93916653 21.2284414,3.62612018 21.5607254,3.35309803 C21.8930093,3.08079059 22.294173,2.86566056 22.7652548,2.7073506 C23.2359904,2.54904063 23.7593377,2.47006432 24.3352966,2.47006432 Z M33.1073515,2.47006432 C34.081705,2.47006432 34.8933779,2.65660564 35.5413316,3.02897356 C36.1892854,3.40169883 36.7015565,3.90843367 37.0781451,4.55025015 L35.1675122,5.48259937 C34.9681418,5.1463247 34.6912384,4.88009236 34.3368022,4.68461708 C33.9823659,4.48914179 33.572549,4.39122547 33.1073515,4.39122547 C32.5756971,4.39122547 32.1824944,4.49485953 31.9277433,4.70212766 C31.6726461,4.90939579 31.5456167,5.14954093 31.5456167,5.42220573 C31.5456167,5.73846831 31.733911,5.96503381 32.1104995,6.10083017 C32.4867419,6.23734125 33.0408947,6.38207158 33.7719194,6.53466381 C34.1706602,6.6111386 34.5718239,6.71155644 34.9764489,6.83734675 C35.3807277,6.9627797 35.7490091,7.13181043 36.0812931,7.34479631 C36.4135771,7.55742482 36.6821733,7.82973226 36.8870818,8.1627907 C37.0919902,8.49549178 37.1944444,8.91252955 37.1944444,9.41426137 C37.1944444,9.75232283 37.1169115,10.1043213 36.9618457,10.469542 C36.8064337,10.8347628 36.5658739,11.1731816 36.239128,11.4837264 C35.9123821,11.794986 35.4997961,12.0483534 35.0013702,12.2445434 C34.5029442,12.4410908 33.904833,12.5390071 33.2070367,12.5390071 C32.1326518,12.5390071 31.2410231,12.332811 30.5321506,11.9200616 C29.8232781,11.5069548 29.2750095,10.9105228 28.8873449,10.1300511 L30.9641198,9.16518225 C31.1967186,9.60473363 31.5123883,9.94243774 31.9111291,10.1786519 C32.3098699,10.4145088 32.7750675,10.5320798 33.3067218,10.5320798 C33.8605285,10.5320798 34.2758835,10.417725 34.5527868,10.1890153 C34.829344,9.95994832 34.9681418,9.68764088 34.9681418,9.37102095 C34.9681418,9.19662983 34.904454,9.05511573 34.7770785,8.94576392 C34.6497029,8.83712683 34.483561,8.74135466 34.2786525,8.65987685 C34.0733979,8.57804167 33.8328382,8.51014349 33.5559348,8.45511023 C33.2790315,8.40079169 32.9910521,8.3407554 32.6919965,8.27535873 C32.2707573,8.18816318 31.8585175,8.08488647 31.4542386,7.9648139 C31.0499598,7.84509869 30.6872165,7.67856947 30.3660086,7.46629831 C30.0448008,7.25331244 29.7845116,6.98064764 29.5851412,6.64830392 C29.3857709,6.3159602 29.2860857,5.89892243 29.2860857,5.39754797 C29.2860857,5.01553137 29.3774638,4.64780912 29.5602199,4.2936665 C29.7429761,3.93916653 30.0004962,3.62612018 30.3327802,3.35309803 C30.6650642,3.08079059 31.0662279,2.86566056 31.5373096,2.7073506 C32.0080453,2.54904063 32.5313926,2.47006432 33.1073515,2.47006432 Z M13.7732057,2.47002859 C14.4156214,2.47002859 15.0081945,2.59010116 15.550925,2.82953159 C16.0933094,3.06967673 16.5422389,3.39666007 16.8966751,3.81083897 L16.8966751,2.48718181 L19.139592,2.48718181 L19.139592,12.5218181 L16.8966751,12.5218181 L16.8966751,11.0959563 C16.5422389,11.5440843 16.0881174,11.8967975 15.5343108,12.1537385 C14.9805042,12.4106795 14.382393,12.5389714 13.7399773,12.5389714 C13.1529423,12.5389714 12.5742143,12.4264033 12.0037935,12.2005525 C11.4333726,11.9743444 10.9211015,11.646289 10.4669801,11.2163863 C10.0128586,10.7864836 9.64700011,10.260094 9.37044292,9.63757491 C9.0935396,9.01469844 8.95508794,8.30641322 8.95508794,7.51307658 C8.95508794,6.70830447 9.09042444,5.99501622 9.36213582,5.3717824 C9.63350107,4.74890593 9.99347539,4.22287371 10.4420588,3.79297103 C10.8906421,3.36271098 11.4056823,3.03501292 11.9871793,2.80951949 C12.5686763,2.58331134 13.1640184,2.47002859 13.7732057,2.47002859 Z M4.15354978,0 C4.78488935,0 5.36638632,0.117213701 5.89804069,0.351998461 C6.42969506,0.586425862 6.88900844,0.903403156 7.27701922,1.30400242 C7.66468386,1.70424432 7.96893138,2.175958 8.19080017,2.71914344 C8.41232282,3.26197152 8.52308415,3.84232228 8.52308415,4.46019572 C8.52308415,5.07735444 8.41232282,5.66056408 8.19080017,6.20946726 C7.96893138,6.75837044 7.66468386,7.23294299 7.27701922,7.63354225 C6.88900844,8.03378416 6.42692603,8.35111881 5.88973359,8.58518885 C5.35219502,8.81961625 4.76827515,8.93682995 4.13693558,8.93682995 L2.25953108,8.93682995 L2.25953108,12.5218539 L0,12.5218539 L0,0 L4.15354978,0 Z M14.1054897,4.58023256 C13.6956728,4.58023256 13.3107771,4.65563527 12.9508028,4.80572599 C12.5908285,4.9558167 12.2779278,5.16022596 12.0121006,5.41752433 C11.7462734,5.67553741 11.5385959,5.98179394 11.3890681,6.33629391 C11.2395403,6.69079389 11.1647764,7.07173841 11.1647764,7.48019957 C11.1647764,7.88830337 11.2395403,8.27246413 11.3890681,8.63196712 C11.5385959,8.99147012 11.7462734,9.30272967 12.0121006,9.5664605 C12.2779278,9.82947661 12.5908285,10.03603 12.9508028,10.1868354 C13.3107771,10.3369262 13.6956728,10.4119715 14.1054897,10.4119715 C14.5263827,10.4119715 14.9137012,10.3369262 15.2684836,10.1868354 C15.6229199,10.03603 15.9271674,9.82661774 16.1822646,9.55788389 C16.4370156,9.28950739 16.639155,8.97789048 16.7886828,8.62374787 C16.9382106,8.26960526 17.0129745,7.88830337 17.0129745,7.48019957 C17.0129745,7.08281654 16.9382106,6.70687503 16.7886828,6.35237506 C16.639155,5.99787509 16.4370156,5.68911705 16.1822646,5.42610094 C15.9271674,5.16272747 15.6229199,4.9558167 15.2684836,4.80572599 C14.9137012,4.65563527 14.5263827,4.58023256 14.1054897,4.58023256 Z M3.98740779,2.16130628 L2.25953108,2.16130628 L2.25953108,6.77552367 L3.98740779,6.77552367 C4.31969177,6.77552367 4.62428542,6.71548738 4.90118874,6.59541481 C5.17774593,6.47534224 5.41622892,6.30952774 5.6155993,6.09832866 C5.81496969,5.88677222 5.97003555,5.64055198 6.08079688,5.36038265 C6.19121208,5.08057067 6.24693887,4.78003189 6.24693887,4.46019572 C6.24693887,4.13964484 6.19121208,3.83946341 6.08079688,3.55929408 C5.97003555,3.27912475 5.81496969,3.03612073 5.6155993,2.83028204 C5.41622892,2.62444334 5.17774593,2.46148771 4.90118874,2.34141514 C4.62428542,2.22134257 4.31969177,2.16130628 3.98740779,2.16130628 Z"></path></clipPath></defs><g transform="translate(-233.0 -160.0)"><g clip-path="url(#i0)"><g transform="translate(233.0 160.0)"><g transform="translate(-0.00018055555555207548 0.0)"><g clip-path="url(#i1)"><polygon points="0,0 52,0 52,52 0,52 0,0" stroke="none" fill="url(#i2)"></polygon></g></g><g transform="translate(7.583333333333332 14.80555555555555)"><g clip-path="url(#i3)"><g clip-path="url(#i4)"><polygon points="0,0 36.4791667,0 36.4791667,5.61217949 0,5.61217949 0,0" stroke="none" fill="#FFFFFF"></polygon></g></g></g><g transform="translate(7.583333333333371 24.43208025547733)"><g clip-path="url(#i5)"><polygon points="0,0 37.1944444,0 37.1944444,12.5390071 0,12.5390071 0,0" stroke="none" fill="#FFFFFF"></polygon></g></g></g></g></g></svg>