<?xml version="1.0" encoding="UTF-8"?>
<svg id="Layer_1" xmlns="http://www.w3.org/2000/svg" viewBox="0 0 32 32">
  <defs>
    <style>
      .cls-1 {
        fill: #226eb3;
      }

      .cls-2 {
        fill: #fff;
      }

      .cls-3 {
        opacity: .9;
      }

      .cls-4 {
        fill: #e42528;
      }
    </style>
  </defs>
  <path class="cls-2" d="M26.1,3.62H5.9c-1.24,0-2.25,1.01-2.25,2.25v16.94c0,1.24,1.01,2.25,2.25,2.25h.1c.3.07.67.29.67.91v2.11c0,.15.12.27.27.27h2.75c.15,0,.27-.12.27-.27v-1.23s.07-1.56,1.75-1.79h8.58c1.68.23,1.75,1.79,1.75,1.79v1.23c0,.15.12.27.27.27h2.75c.15,0,.27-.12.27-.27v-2.11c0-.62.37-.83.67-.91h.09c1.24,0,2.25-1.01,2.25-2.25V5.87c0-1.24-1.01-2.25-2.25-2.25Z"/>
  <g>
    <g class="cls-3">
      <path class="cls-1" d="M25.06,30h-2.75c-1.06,0-1.92-.86-1.92-1.92v-1.13c0-.15-.12-.27-.27-.27h-8.24c-.15,0-.27.12-.27.27v1.13c0,1.06-.86,1.92-1.92,1.92h-2.75c-1.06,0-1.92-.86-1.92-1.92v-1.49c-1.72-.38-3.02-1.92-3.02-3.76V5.84c0-2.12,1.72-3.84,3.84-3.84h20.31c2.12,0,3.84,1.72,3.84,3.84v16.99c0,1.84-1.3,3.38-3.02,3.76v1.49c0,1.06-.86,1.92-1.92,1.92ZM11.88,25.03h8.24c1.06,0,1.92.86,1.92,1.92v1.13c0,.15.12.27.27.27h2.75c.15,0,.27-.12.27-.27v-2.22c0-.46.37-.82.82-.82,1.21,0,2.2-.99,2.2-2.2V5.84c0-1.21-.99-2.2-2.2-2.2H5.84c-1.21,0-2.2.99-2.2,2.2v16.99c0,1.21.99,2.2,2.2,2.2.46,0,.82.37.82.82v2.22c0,.15.12.27.27.27h2.75c.15,0,.27-.12.27-.27v-1.13c0-1.06.86-1.92,1.92-1.92Z"/>
    </g>
    <g class="cls-3">
      <path class="cls-4" d="M10.77,19.25c-.17,0-.34-.05-.48-.16-.37-.27-.45-.78-.18-1.15l2.67-3.68c.27-.37.78-.45,1.15-.18.37.27.45.78.18,1.15l-2.67,3.68c-.16.22-.41.34-.67.34Z"/>
    </g>
    <g class="cls-3">
      <path class="cls-4" d="M16.12,19.25c-.26,0-.51-.12-.67-.34l-2.67-3.68c-.27-.37-.19-.88.18-1.15.37-.27.88-.19,1.15.18l2.67,3.68c.27.37.19.88-.18,1.15-.15.11-.32.16-.48.16Z"/>
    </g>
    <g class="cls-3">
      <path class="cls-4" d="M13.44,15.57c-.46,0-.82-.37-.82-.82v-4.51c0-.46.37-.82.82-.82s.82.37.82.82v4.51c0,.46-.37.82-.82.82Z"/>
    </g>
    <g class="cls-3">
      <path class="cls-4" d="M13.44,15.58c-.35,0-.67-.22-.78-.57-.14-.43.1-.9.53-1.04l4.32-1.39c.43-.14.9.1,1.04.53.14.43-.1.9-.53,1.04l-4.32,1.39c-.09.03-.17.04-.26.04Z"/>
    </g>
    <g class="cls-3">
      <path class="cls-4" d="M13.44,15.58c-.09,0-.17-.01-.25-.04l-4.32-1.39c-.43-.14-.67-.6-.53-1.04.14-.43.6-.67,1.04-.53l4.32,1.39c.43.14.67.6.53,1.04-.11.35-.43.57-.78.57Z"/>
    </g>
    <g class="cls-3">
      <path class="cls-1" d="M22.85,19.23c-.46,0-.82-.37-.82-.82v-8.15c0-.46.37-.82.82-.82s.82.37.82.82v8.15c0,.46-.37.82-.82.82Z"/>
    </g>
  </g>
</svg>