<svg width="240" height="240" viewBox="0 0 240 240" fill="none" xmlns="http://www.w3.org/2000/svg">
<path fill-rule="evenodd" clip-rule="evenodd" d="M239.116 120.417C239.116 54.4193 185.613 0.916504 119.616 0.916504C53.619 0.916504 0.116211 54.4193 0.116211 120.417C0.116211 186.417 53.619 239.917 119.616 239.917C185.613 239.917 239.116 186.417 239.116 120.417ZM97.8658 54.0276C96.9263 55.8714 96.9263 58.2851 96.9263 63.1126V90.4729C96.9263 91.6788 96.9263 92.2817 97.0785 92.8392C97.2134 93.3331 97.4352 93.799 97.7335 94.215C98.0702 94.6847 98.5381 95.0648 99.4741 95.8251L106.395 101.447C107.523 102.364 108.087 102.822 108.292 103.374C108.471 103.857 108.471 104.39 108.292 104.873C108.087 105.425 107.523 105.883 106.395 106.8L99.4741 112.422C98.5382 113.182 98.0702 113.562 97.7335 114.032C97.4352 114.448 97.2134 114.914 97.0785 115.408C96.9263 115.965 96.9263 116.568 96.9263 117.774V177.719C96.9263 182.547 96.9263 184.961 97.8658 186.805C98.6922 188.426 100.011 189.745 101.633 190.571C103.477 191.511 105.89 191.511 110.718 191.511H128.515C133.342 191.511 135.756 191.511 137.6 190.571C139.221 189.745 140.54 188.426 141.367 186.805C142.306 184.961 142.306 182.547 142.306 177.719V150.359C142.306 149.153 142.306 148.55 142.154 147.993C142.019 147.499 141.797 147.033 141.499 146.617C141.162 146.147 140.694 145.767 139.758 145.007L132.837 139.385C131.709 138.468 131.145 138.01 130.94 137.459C130.761 136.975 130.761 136.443 130.94 135.959C131.145 135.407 131.709 134.949 132.837 134.033L139.758 128.41C140.694 127.65 141.162 127.27 141.499 126.8C141.797 126.384 142.019 125.918 142.154 125.424C142.306 124.867 142.306 124.264 142.306 123.058V63.1126C142.306 58.2851 142.306 55.8714 141.367 54.0276C140.54 52.4057 139.221 51.087 137.6 50.2606C135.756 49.3211 133.342 49.3211 128.515 49.3211H110.718C105.89 49.3211 103.477 49.3211 101.633 50.2606C100.011 51.087 98.6922 52.4057 97.8658 54.0276Z" fill="#1A285F"/>
</svg>
