
<svg xmlns="http://www.w3.org/2000/svg" width="72px" height="72px" viewBox="0 0 72 72">	<defs>
        <filter id="a" width="200%" height="200%">
            <feOffset result="offOut" in="SourceAlpha" dy="2.2"/>
            <feGaussianBlur result="blurOut" in="offOut" stdDeviation="1.5"/>
            <feColorMatrix values="0 0 0 0 0 0 0 0 0 0 0 0 0 0 0 0 0 0 0.4 0"/>
            <feMerge>
                <feMergeNode/>
                <feMergeNode in="SourceGraphic"/>
            </feMerge>
        </filter>
    </defs>
<path fill="#ffffff" filter="url(#a)" d="M31.059,5.395c16.89-2.727,32.817,8.772,35.545,25.662c2.727,16.89-8.772,32.817-25.662,35.545
	C24.051,69.329,8.124,57.83,5.397,40.94C2.67,24.049,14.169,8.122,31.059,5.395z"/>
<path fill="#0068c3" d="M55.364,17.202c-5.047-5.197-11.802-8.109-19.02-8.2c-7.191-0.09-13.985,2.669-19.149,7.768
	C11.91,21.989,9,28.955,9,36.392l0.044,1.26c0,1.181,0.961,2.142,2.142,2.142s2.141-0.96,2.142-2.14l0.01-0.913
	c0-9.945,8.453-20.593,21.035-20.593c13.132,0,21.261,10.712,21.261,20.637c0,5.173-2.063,9.919-5.808,13.363
	C46.17,53.509,41.26,55.36,36,55.36c-3.13,0-6.219-0.755-8.958-2.186l18.87-8.686c1.267-0.583,2.115-1.81,2.213-3.201
	s-0.569-2.725-1.754-3.487l-15.706-8.415c-0.554-0.357-1.213-0.477-1.858-0.337c-0.644,0.139-1.195,0.521-1.552,1.075
	c-0.737,1.144-0.406,2.673,0.721,3.397l8.454,6.923l-18.419,8.478c-1.427,0.657-2.298,2.1-2.218,3.675
	c0.048,0.949,0.493,1.884,1.253,2.634C22.158,60.269,28.84,63,35.985,63c0.445,0,0.892-0.011,1.341-0.032
	c14.156-0.673,25.432-12.315,25.671-26.505C63.118,29.236,60.407,22.396,55.364,17.202z"/>
</svg>
