<svg width="512" height="512" viewBox="0 0 512 512" fill="none" xmlns="http://www.w3.org/2000/svg">
<path d="M256.483 28.0554C313.899 28.0554 371.315 27.8856 428.745 28.1405C440.68 27.9076 452.521 30.2889 463.441 35.1179C474.362 39.9469 484.099 47.1073 491.971 56.0984C504.062 69.6962 511.132 87.0387 512 105.23C512.028 121.933 510.035 138.578 506.063 154.801C498.444 198.706 490.515 242.527 482.726 286.376C476.012 324.134 469.581 361.95 462.513 399.68C457.672 420.969 446.545 440.303 430.58 455.165C414.616 470.027 394.555 479.727 373.011 483.002C367.752 483.629 362.462 483.946 357.166 483.95C290.053 484.017 222.94 484.017 155.828 483.95C130.466 483.9 105.93 474.915 86.5132 458.566C67.0965 442.218 54.0362 419.548 49.618 394.525C36.1804 319.177 22.6297 243.853 8.96597 168.553C6.28034 153.639 3.312 138.811 1.2059 123.784C-2.46105 102.729 2.31093 81.0744 14.4852 63.5244C26.6596 45.9745 45.2529 33.9462 66.2266 30.0525C73.0557 28.7451 79.9959 28.1094 86.9484 28.1546C143.46 27.9941 199.971 27.961 256.483 28.0554ZM210.926 339.643C210.926 354.67 210.926 369.697 210.926 384.738C210.773 388.205 211.343 391.665 212.597 394.899C213.852 398.134 215.764 401.071 218.213 403.525C220.662 405.979 223.593 407.895 226.821 409.152C230.049 410.409 233.503 410.979 236.962 410.826C249.387 410.826 261.812 410.826 274.236 410.826C277.922 411.183 281.642 410.717 285.127 409.462C288.612 408.208 291.777 406.196 294.394 403.57C297.012 400.945 299.017 397.772 300.265 394.278C301.514 390.785 301.975 387.058 301.615 383.364C301.615 353.919 301.616 324.46 301.474 295.015C301.311 293.331 301.67 291.637 302.502 290.165C303.334 288.692 304.599 287.512 306.125 286.786C323.79 276.298 337.551 260.314 345.313 241.266C353.075 222.219 354.413 201.151 349.123 181.272C342.356 156.853 326.286 136.075 304.376 123.414C282.466 110.754 256.469 107.225 231.987 113.586C217.669 116.544 204.289 122.959 193.007 132.274C181.726 141.588 172.884 153.522 167.249 167.038C159.027 188.686 158.548 212.521 165.893 234.484C173.238 256.447 187.954 275.181 207.533 287.495C208.67 288.038 209.613 288.917 210.237 290.013C210.861 291.109 211.136 292.37 211.025 293.627C210.841 309.008 210.926 324.333 210.926 339.671V339.643Z" fill="white"/>
</svg>
