<svg width="512" height="512" viewBox="0 0 512 512" fill="none" xmlns="http://www.w3.org/2000/svg"><g clip-path="url(#clip0_7484_8745)"><g clip-path="url(#clip1_7484_8745)"><g clip-path="url(#clip2_7484_8745)"><path d="M281.964 6.96171C265.893 -2.29974 246.107 -2.29974 230.036 6.96171L46.0365 113.002C29.9271 122.286 20 139.466 20 158.06V353.972C20 372.566 29.9271 389.745 46.0365 399.029L230.036 505.07C246.107 514.331 265.893 514.331 281.964 505.07L465.964 399.029C482.073 389.745 492 372.566 492 353.972V158.06C492 139.466 482.073 122.286 465.964 113.002L281.964 6.96171Z" fill="url(#paint0_linear_7484_8745)"/><path fill-rule="evenodd" clip-rule="evenodd" d="M453.98 133.798L269.98 27.7574C261.327 22.7704 250.673 22.7704 242.02 27.7574L58.0196 133.798C49.3453 138.797 44 148.047 44 158.06V353.972C44 363.984 49.3453 373.234 58.0196 378.233L242.02 484.274C250.673 489.261 261.327 489.261 269.98 484.274L453.98 378.233C462.655 373.234 468 363.984 468 353.972V158.06C468 148.047 462.655 138.797 453.98 133.798ZM281.964 6.96171C265.893 -2.29974 246.107 -2.29974 230.036 6.96171L46.0365 113.002C29.9271 122.286 20 139.466 20 158.06V353.972C20 372.566 29.9271 389.745 46.0365 399.029L230.036 505.07C246.107 514.331 265.893 514.331 281.964 505.07L465.964 399.029C482.073 389.745 492 372.566 492 353.972V158.06C492 139.466 482.073 122.286 465.964 113.002L281.964 6.96171Z" fill="black"/></g><path fill-rule="evenodd" clip-rule="evenodd" d="M256 140C242.745 140 232 150.745 232 164C232 177.255 242.745 188 256 188C269.255 188 280 177.255 280 164C280 150.745 269.255 140 256 140ZM248 164C248 159.582 251.582 156 256 156C260.418 156 264 159.582 264 164C264 168.418 260.418 172 256 172C251.582 172 248 168.418 248 164Z" fill="black"/><path fill-rule="evenodd" clip-rule="evenodd" d="M172 192C172 145.608 209.608 108 256 108C302.392 108 340 145.608 340 192C340 227.061 318.519 257.105 288 269.69V386.67C288 392.391 284.946 397.676 279.989 400.533L263.989 409.753C259.044 412.603 252.956 412.603 248.011 409.753L232.011 400.533C227.054 397.676 224 392.391 224 386.67V372C224 369.878 224.843 367.844 226.343 366.343L236 356.686V355.314L226.343 345.657C224.843 344.157 224 342.122 224 340V332C224 329.878 224.843 327.844 226.343 326.343L236 316.686V315.314L226.343 305.657C224.843 304.157 224 302.122 224 300V269.69C193.481 257.105 172 227.061 172 192ZM256 124C218.445 124 188 154.445 188 192C188 229.555 218.445 260 256 260C293.555 260 324 229.555 324 192C324 154.445 293.555 124 256 124ZM256 276C261.471 276 266.82 275.477 272 274.478V386.67L256 395.89L240 386.67V375.314L249.657 365.657C251.157 364.157 252 362.122 252 360V352C252 349.878 251.157 347.844 249.657 346.343L240 336.686V335.314L249.657 325.657C251.157 324.157 252 322.122 252 320V312C252 309.878 251.157 307.844 249.657 306.343L240 296.686V274.478C245.18 275.477 250.529 276 256 276Z" fill="black"/></g></g><defs><linearGradient id="paint0_linear_7484_8745" x1="393.865" y1="63.2796" x2="99.2043" y2="429.998" gradientUnits="userSpaceOnUse"><stop stop-color="#4DFF88"/><stop offset="1" stop-color="#3DE8CA"/></linearGradient><clipPath id="clip0_7484_8745"><rect width="512" height="512" fill="white"/></clipPath><clipPath id="clip1_7484_8745"><rect width="512" height="512" fill="white"/></clipPath><clipPath id="clip2_7484_8745"><rect width="512" height="512" fill="white"/></clipPath></defs></svg>