<svg width="50" height="50" viewBox="0 0 50 50" fill="none" xmlns="http://www.w3.org/2000/svg">
<rect width="50" height="50" rx="7.84782" fill="url(#paint0_linear_284_5774)"/>
<path d="M39.3517 17.6384C38.9049 17.6384 38.5667 17.9749 38.5667 18.4289V31.5605C38.5667 32.0108 38.9013 32.3509 39.3517 32.3509C39.8021 32.3509 40.1367 32.0145 40.1367 31.5605V18.4289C40.1367 17.9785 39.8021 17.6384 39.3517 17.6384Z" fill="white"/>
<path d="M21.8918 22.545C20.3814 22.545 19.0954 23.7859 19.0954 25.307C19.0954 26.8282 20.3272 28.1233 21.8375 28.1233C23.3478 28.1233 24.6338 26.8825 24.6338 25.3613C24.6338 23.8401 23.4021 22.545 21.8918 22.545Z" fill="white"/>
<path d="M31.0694 22.545C29.5591 22.545 28.273 23.7859 28.273 25.307C28.273 26.8282 29.5048 28.1233 31.0151 28.1233C32.5254 28.1233 33.8115 26.8825 33.8115 25.3613C33.8657 23.8401 32.634 22.545 31.0694 22.545Z" fill="white"/>
<path d="M12.6597 22.545C11.1494 22.545 9.86339 23.7859 9.86339 25.307C9.86339 26.8282 11.0952 28.1233 12.6055 28.1233C14.1158 28.1233 15.4018 26.8825 15.4018 25.3613C15.4018 23.8401 14.17 22.545 12.6597 22.545Z" fill="white"/>
<defs>
<linearGradient id="paint0_linear_284_5774" x1="25" y1="0" x2="25" y2="50" gradientUnits="userSpaceOnUse">
<stop stop-color="#ED194A"/>
<stop offset="1" stop-color="#C30833"/>
</linearGradient>
</defs>
</svg>
