<?xml version="1.0" encoding="UTF-8" standalone="no"?>
<svg version="1.1" viewBox="0 0 2048 2048" width="128" height="128" xmlns="http://www.w3.org/2000/svg">
<path d="M 0 0 L -5 1 L -15 4 L -38 11 L -57 18 L -76 29 L -90 38 L -109 52 L -116 59 L -127 68 L -140 81 L -148 88 L -149 91 L -151 91 L -161 101 L -169 108 L -169 110 L -171 110 L -180 119 L -188 126 L -201 137 L -212 146 L -226 157 L -239 167 L -250 175 L -270 188 L -291 202 L -309 212 L -330 224 L -353 235 L -386 250 L -407 259 L -449 273 L -472 281 L -502 289 L -551 298 L -615 309 L -647 316 L -681 324 L -698 330 L -714 338 L -735 351 L -745 358 L -756 367 L -764 375 L -766 379 L -768 379 L -773 385 L -781 395 L -791 410 L -801 428 L -810 447 L -816 465 L -822 500 L -827 545 L -830 592 L -832 653 L -832 712 L -831 742 L -828 794 L -822 866 L -816 928 L -812 957 L -800 1020 L -789 1072 L -783 1098 L -765 1162 L -751 1207 L -744 1225 L -734 1254 L -720 1290 L -704 1328 L -689 1361 L -668 1403 L -653 1431 L -639 1456 L -620 1488 L -607 1509 L -594 1529 L -584 1544 L -571 1563 L -558 1581 L -544 1600 L -533 1615 L -520 1632 L -507 1648 L -479 1682 L -470 1693 L -460 1704 L -449 1716 L -442 1724 L -432 1734 L -425 1742 L -368 1799 L -351 1815 L -335 1830 L -327 1837 L -314 1849 L -288 1871 L -271 1885 L -261 1893 L -244 1907 L -228 1919 L -215 1929 L -196 1943 L -184 1952 L -168 1963 L -148 1977 L -133 1987 L -112 2000 L -88 2013 L -72 2021 L -52 2030 L -32 2037 L 12 2048 L 60 2048 L 61 2047 L 73 2044 L 100 2037 L 121 2029 L 149 2015 L 167 2005 L 186 1994 L 210 1979 L 231 1965 L 266 1941 L 284 1928 L 295 1920 L 306 1911 L 324 1898 L 338 1887 L 349 1877 L 358 1870 L 369 1860 L 380 1851 L 380 1849 L 382 1849 L 385 1846 L 396 1837 L 403 1830 L 411 1823 L 418 1816 L 426 1809 L 475 1760 L 477 1756 L 479 1756 L 487 1747 L 503 1730 L 510 1722 L 519 1712 L 526 1704 L 538 1691 L 547 1680 L 558 1667 L 566 1656 L 579 1640 L 590 1626 L 606 1605 L 621 1583 L 631 1569 L 645 1549 L 655 1533 L 670 1510 L 685 1485 L 696 1467 L 706 1449 L 730 1405 L 745 1374 L 762 1338 L 774 1310 L 792 1267 L 811 1216 L 827 1166 L 842 1117 L 858 1051 L 870 996 L 875 967 L 881 917 L 886 882 L 891 846 L 894 812 L 896 774 L 896 655 L 895 630 L 892 593 L 888 559 L 877 470 L 872 445 L 865 426 L 857 411 L 847 395 L 834 378 L 814 358 L 800 347 L 785 337 L 766 327 L 750 321 L 727 315 L 693 308 L 650 301 L 597 292 L 570 286 L 548 280 L 515 270 L 487 261 L 459 250 L 438 241 L 414 230 L 382 213 L 358 199 L 347 192 L 330 180 L 312 167 L 300 157 L 286 146 L 271 133 L 263 126 L 251 115 L 240 106 L 228 95 L 200 71 L 189 62 L 174 50 L 158 38 L 142 27 L 127 19 L 115 14 L 95 8 L 71 0 L 0 0 z M 30 622 L 51 623 L 79 627 L 100 633 L 121 641 L 141 652 L 157 663 L 172 676 L 186 690 L 186 692 L 188 692 L 206 716 L 216 734 L 221 745 L 226 758 L 233 784 L 236 798 L 237 808 L 237 840 L 233 865 L 226 891 L 219 909 L 209 928 L 195 949 L 186 959 L 179 967 L 166 980 L 155 989 L 142 998 L 126 1007 L 113 1012 L 114 1024 L 122 1060 L 137 1123 L 156 1208 L 170 1271 L 174 1296 L 176 1310 L 176 1335 L 173 1349 L 166 1359 L 157 1367 L 146 1372 L 140 1374 L 119 1376 L 51 1376 L -32 1377 L -64 1377 L -78 1374 L -85 1370 L -98 1359 L -106 1349 L -110 1341 L -112 1333 L -112 1318 L -107 1288 L -100 1256 L -85 1196 L -69 1124 L -57 1072 L -50 1036 L -47 1011 L -53 1009 L -69 1001 L -81 994 L -93 985 L -103 976 L -111 969 L -120 960 L -131 946 L -142 929 L -152 910 L -160 890 L -166 870 L -169 853 L -170 844 L -170 814 L -167 794 L -161 767 L -154 746 L -137 713 L -126 698 L -119 690 L -108 678 L -93 665 L -77 653 L -56 641 L -38 633 L -16 627 L 3 624 L 30 622 z " transform="translate(991)" style="fill:#ffffff" />
</svg>
