<?xml version="1.0" encoding="UTF-8" standalone="yes"?><svg xmlns="http://www.w3.org/2000/svg" xmlns:svg="http://www.w3.org/2000/svg" version="1.1" id="svg2" width="177.77733" height="177.77733" viewBox="0 0 177.77733 177.77733" style="zoom: 1;"><defs id="defs6"><clipPath clipPathUnits="userSpaceOnUse" id="clipPath16"><path d="M 0,132.333 H 133.333 V 0 H 0 Z" id="path14"></path></clipPath></defs><g id="g8" transform="matrix(1.3333333,0,0,-1.3333333,0,176.444)"><g id="g10"><g id="g12" clip-path="url(#clipPath16)"><g id="g18" transform="translate(113.1494,84.6616)"><path d="M0,0 c-9.621,16.264 -23.704,29.888 -37.254,40.433 c-1.042,0.812 -2.082,1.605 -3.114,2.38 c-1.811,1.355 -3.603,2.654 -5.365,3.896 c-0.518,-0.356 -1.038,-0.718 -1.561,-1.084 c-12.852,-9.012 -27.292,-21.098 -38.564,-35.836 c-2.943,-3.848 -5.67,-7.876 -8.096,-12.078 c-7.45,-12.902 -12.065,-27.441 -14.885,-41.388 c-1.582,-7.824 -2.599,-15.462 -3.235,-22.521 c18.152,-8.633 42.345,-17.26 66.54,-17.26 c23.257,0 46.514,7.972 64.407,16.259 c-1.6,20.036 -6.225,45.304 -18.322,66.257 C0.368,-0.626 0.186,-0.313 0,0 " id="path20" style="fill:#263248;fill-opacity:1;fill-rule:nonzero;stroke:none"></path></g><g id="g22" transform="translate(97.1611,74.4946)"><path d="M0,0 c-6.414,10.842 -15.803,19.925 -24.835,26.955 c-0.696,0.542 -1.388,1.069 -2.077,1.587 c-1.206,0.903 -2.401,1.769 -3.576,2.597 c-0.346,-0.238 -0.694,-0.479 -1.041,-0.723 c-8.569,-6.008 -18.196,-14.065 -25.71,-23.89 c-1.962,-2.566 -3.78,-5.251 -5.397,-8.052 c-4.967,-8.601 -8.043,-18.294 -9.924,-27.593 c-1.055,-5.216 -1.732,-10.308 -2.156,-15.013 c12.102,-5.755 28.231,-11.506 44.361,-11.506 c15.503,-0.001 31.008,5.314 42.937,10.839 C11.516,-31.442 8.433,-14.597 0.367,-0.627 C0.246,-0.418 0.124,-0.209 0,0 " id="path24" style="fill:#7f89a1;fill-opacity:1;fill-rule:nonzero;stroke:none"></path></g><g id="g26" transform="translate(81.6289,65.3379)"><path d="M0,0.75005 c-3.208,5.421 -7.902,9.962 -12.42,13.478 c-0.347,0.27 -0.693,0.534 -1.038,0.793 c-0.604,0.452 -1.2,0.885 -1.787,1.299 c-0.173,-0.12 -0.348,-0.24 -0.521,-0.362 c-4.284,-3.004 -9.097,-7.032 -12.855,-11.945 c-0.981,-1.283 -1.89,-2.626 -2.698,-4.027 c-2.483,-4.299 -4.022,-9.147 -4.962,-13.796 c-0.527,-2.608 -0.867,-5.154 -1.078,-7.506 c6.05,-2.878 14.115,-5.753 22.18,-5.753 c7.752,0 15.504,2.657 21.469,5.42 C5.758,-14.971951 4.215,-6.54795 0.182,0.43605 C0.122,0.54205 0.061,0.64605 0,0.75005 " id="path28" style="fill:#f7971d;fill-opacity:1;fill-rule:nonzero;stroke:none"></path></g></g></g></g></svg>