<svg width="1024" height="1024" viewBox="0 0 1024 1024" fill="none" xmlns="http://www.w3.org/2000/svg">
<rect width="1024" height="1024" rx="176" fill="url(#paint0_linear_202_3)"/>
<path d="M769.175 452.118L370.579 451.678C339.658 451.685 310.006 463.963 288.144 485.812C266.282 507.662 254 537.294 254 568.19V798.71C254 807.537 257.509 816.004 263.755 822.247C270.002 828.49 278.474 831.998 287.308 832H652.94C683.864 831.998 713.52 819.722 735.386 797.872C757.252 776.022 769.536 746.388 769.536 715.488L770 459.631V423.853C769.788 376.523 755.149 330.382 728.034 291.575C700.919 252.767 662.614 223.136 618.222 206.627C573.83 190.118 525.458 187.516 479.548 199.167C433.639 210.817 392.372 236.168 361.243 271.842" stroke="white" stroke-width="32" stroke-linecap="round" stroke-linejoin="round"/>
<path d="M512.001 692C539.615 692 562.001 669.614 562.001 642C562.001 614.386 539.615 592 512.001 592C484.387 592 462.001 614.386 462.001 642C462.001 669.614 484.387 692 512.001 692Z" stroke="white" stroke-width="32"/>
<defs>
<linearGradient id="paint0_linear_202_3" x1="0" y1="0" x2="1024" y2="1024" gradientUnits="userSpaceOnUse">
<stop stop-color="#006DE6"/>
<stop offset="1" stop-color="#00A6FF"/>
</linearGradient>
</defs>
</svg>
