<?xml version="1.0" encoding="utf-8"?>
<!-- Generator: Adobe Illustrator 16.0.0, SVG Export Plug-In . SVG Version: 6.00 Build 0)  -->
<!DOCTYPE svg PUBLIC "-//W3C//DTD SVG 1.1//EN" "http://www.w3.org/Graphics/SVG/1.1/DTD/svg11.dtd">
<svg version="1.1" id="Layer_1" xmlns="http://www.w3.org/2000/svg" xmlns:xlink="http://www.w3.org/1999/xlink" x="0px" y="0px"
	 width="1024px" height="1024px" viewBox="0 0 1024 1024" enable-background="new 0 0 1024 1024" xml:space="preserve">
<linearGradient id="SVGID_1_" gradientUnits="userSpaceOnUse" x1="511.9995" y1="0" x2="511.9995" y2="1024.0005">
	<stop  offset="0" style="stop-color:#50B6FC"/>
	<stop  offset="1" style="stop-color:#5091F9"/>
</linearGradient>
<rect fill="url(#SVGID_1_)" width="1024" height="1024"/>
<g>
	<path fill="#FFFFFF" d="M289.66,474.826c6.887-15.649,25.21-22.769,40.845-15.87c15.627,6.872,22.755,25.203,15.87,40.837
		c-0.199,0.441-0.426,0.818-0.641,1.259l38.354,16.887c0.207-0.427,0.441-0.818,0.641-1.259
		c16.204-36.783-0.541-79.896-37.324-96.094c-36.797-16.197-79.911,0.548-96.101,37.331c-0.191,0.435-0.32,0.882-0.505,1.309"/>
	<path fill="#FFFFFF" d="M513.822,410.622h-0.009v41.754h0.009c86.29,0,156.484,69.917,156.484,155.859
		c0,85.943-70.194,155.853-156.484,155.853c-86.286,0-156.494-69.909-156.494-155.853c0-12.789-0.229-15.741,1.665-29.114
		l-30.9-8.003l-1.863-27.172c-8.167,21.616-10.812,39.855-10.812,64.289c0,108.962,89.008,197.601,198.405,197.601
		c109.395,0,198.402-88.639,198.402-197.601C712.225,499.274,623.217,410.622,513.822,410.622z"/>
	<path fill="#FFFFFF" d="M593.361,427.203L593.361,427.203l-16.907,38.17l0,0c78.893,34.948,114.757,127.313,79.945,205.887
		c-34.805,78.573-127.313,114.075-206.2,79.121c-78.886-34.926-114.751-127.307-79.945-205.873
		c5.186-11.701,6.686-15.123,13.834-26.568l-25.536-19.206l9.297-25.607c-16.225,16.453-26.027,32.074-35.916,54.402
		c-44.129,99.622,1.338,216.734,101.365,261.015c100.013,44.323,217.303-0.683,261.421-100.305
		C738.855,588.609,693.388,471.504,593.361,427.203z"/>
	<g>
		<path fill="#FFFFFF" d="M515.329,514.497c-17.086,0-30.993-13.907-30.993-30.979c0-17.086,13.209-31.143,30.295-31.143
			c0.477,0,1.622,0.007,2.099,0.021v-41.705c-0.477-0.014-0.932-0.071-1.401-0.071c-40.19,0-72.897,32.7-72.897,72.897
			s32.707,72.904,72.897,72.904c0.47,0,0.925-0.063,1.401-0.079"/>
		<path fill="#FFFFFF" d="M512.413,514.532h-0.008v41.912h0.008c28.126,0,50.995,22.884,50.995,50.994
			c0,28.127-22.868,50.995-50.995,50.995c-17.3,0-32.6-8.677-41.826-21.894l-26.028,34.292
			c16.965,18.161,41.094,29.534,67.854,29.534c51.236,0,92.914-41.697,92.914-92.928
			C605.326,556.223,563.648,514.532,512.413,514.532z"/>
	</g>
	<path fill="#FFFFFF" d="M635.949,330.199c-32.955-14.519-67.136-22.599-101.137-24.882l-18.146,41.193
		c34.286,0.292,69.069,7.363,102.388,22.044C750.559,426.463,810.409,580.551,752.5,712.047
		c-57.916,131.475-212.005,191.348-343.493,133.432c-131.489-57.91-191.352-211.998-133.438-343.479
		c5.221-11.887,11.274-23.168,17.996-33.853l-38.66-17.036c-6.509,10.833-12.484,22.122-17.706,33.994
		c-67.22,152.644,2.27,331.515,154.914,398.742c152.643,67.235,331.515-2.276,398.728-154.913
		C858.083,576.283,788.592,397.427,635.949,330.199z"/>
	<path fill="#FFFFFF" d="M514.02,112.61c-96.868,0-178.116,67.903-198.816,158.577h43.32
		c19.683-67.327,81.902-116.665,155.496-116.665c82.209,0,150.247,61.516,160.661,140.928c15.108,7.825,29.584,16.723,43.334,26.583
		v-5.441C718.015,204.123,626.51,112.61,514.02,112.61z"/>
	<path fill="#FFFFFF" d="M510.691,304.555c-36.022,0.398-70.465,7.17-102.389,19.113l0.491,45.02
		c31.348-13.906,65.934-21.823,102.346-22.229c143.681-1.593,261.853,114.012,263.447,257.679
		c1.58,143.666-114.004,261.832-257.671,263.434c-143.667,1.594-261.847-114.006-263.44-257.672
		c-0.142-12.996,0.697-25.764,2.404-38.263l-42.239,0.478c-1.448,12.54-2.223,25.286-2.073,38.248
		c1.838,166.791,139.025,300.963,305.811,299.119c166.778-1.863,300.962-139.035,299.119-305.813
		C814.648,436.876,677.455,302.698,510.691,304.555z"/>
	<g>
		<path opacity="0.55" fill="#FFFFFF" d="M465.585,325.198c1.586-3.058,3.03-6.195,4.233-9.439h-4.233V325.198z"/>
		<path fill="#FFFFFF" d="M411.354,337.198v-14.504c-5.206,2.604-11.061,4.09-17.256,4.09c-21.418,0-38.461-17.42-38.461-38.832
			c0-8.415,1.743-14.276,4.552-22.108l-10.399-0.42v-44.821c-21.922,14.44-36.441,39.194-36.441,67.349
			c0,44.537,36.222,80.75,80.75,80.75c25.984,0,49.089-12.37,63.834-31.504H411.354z"/>
	</g>
</g>
</svg>
