<?xml version="1.0" encoding="UTF-8" standalone="no"?>
<svg
   viewBox="0 0 108 108"
   width="108"
   height="108"
   version="1.1"
   id="svg5"
   xmlns="http://www.w3.org/2000/svg"
   xmlns:svg="http://www.w3.org/2000/svg">
  <title>Sticky Password Manager</title>
  <defs
     id="defs5" />
  <circle
     style="fill:#ffffff;stroke-width:1.76201"
     id="path6"
     cx="54"
     cy="54"
     r="54" />
  <g
     id="g6"
     transform="matrix(1.3433243,0,0,1.3433243,-18.540607,-18.527594)">
    <path
       d="m 64.35,53.11 -9.5,-9.5 c -0.48,-0.48 -1.26,-0.48 -1.75,0 l -9.5,9.5 c -0.48,0.48 -0.48,1.26 0,1.74 l 9.5,9.5 c 0.24,0.24 0.56,0.36 0.87,0.36 0.31,0 0.63,-0.12 0.87,-0.36 l 9.5,-9.5 c 0.23,-0.23 0.36,-0.54 0.36,-0.87 0,-0.33 -0.13,-0.64 -0.36,-0.87 z"
       fill="#000000"
       fill-rule="evenodd"
       stroke="#000000"
       stroke-width="3.62"
       stroke-opacity="0"
       id="path1" />
    <path
       d="m 50.11,67.34 -9.5,-9.5 c -0.48,-0.48 -1.26,-0.48 -1.74,0 l -9.49,9.5 c -0.48,0.48 -0.48,1.26 0,1.75 l 9.49,9.5 c 0.24,0.24 0.56,0.36 0.87,0.36 0.31,0 0.63,-0.12 0.87,-0.36 l 9.5,-9.5 c 0.23,-0.24 0.36,-0.54 0.36,-0.87 0,-0.33 -0.13,-0.64 -0.36,-0.87"
       fill="#00a9e0"
       fill-rule="evenodd"
       stroke="#000000"
       stroke-width="3.62"
       stroke-opacity="0"
       id="path2" />
    <path
       d="m 78.57,38.88 -9.5,-9.49 c -0.48,-0.48 -1.27,-0.48 -1.74,0 l -9.5,9.5 c -0.48,0.48 -0.48,1.26 0,1.74 l 9.5,9.5 c 0.24,0.24 0.55,0.36 0.87,0.36 0.31,0 0.63,-0.12 0.87,-0.36 l 9.5,-9.5 c 0.23,-0.24 0.36,-0.54 0.36,-0.87 0,-0.33 -0.13,-0.64 -0.36,-0.87"
       fill="#d61818"
       fill-rule="evenodd"
       stroke="#000000"
       stroke-width="3.62"
       stroke-opacity="0"
       id="path3" />
    <path
       d="m 50.1,38.86 -9.5,-9.5 c -0.48,-0.48 -1.27,-0.48 -1.74,0 l -9.5,9.5 c -0.48,0.48 -0.48,1.26 0,1.75 l 9.5,9.5 c 0.24,0.24 0.55,0.36 0.87,0.36 0.32,0 0.63,-0.12 0.87,-0.36 l 9.49,-9.5 c 0.23,-0.23 0.37,-0.54 0.37,-0.88 0,-0.33 -0.13,-0.64 -0.37,-0.87"
       fill="#7ab800"
       fill-rule="evenodd"
       stroke="#000000"
       stroke-width="3.62"
       stroke-opacity="0"
       id="path4" />
    <path
       d="m 78.64,67.39 -9.5,-9.49 c -0.48,-0.48 -1.27,-0.48 -1.75,0 l -9.49,9.49 c -0.48,0.48 -0.48,1.26 0,1.75 l 9.49,9.5 c 0.24,0.24 0.55,0.36 0.87,0.36 0.32,0 0.63,-0.12 0.87,-0.36 l 9.5,-9.5 c 0.23,-0.23 0.36,-0.54 0.36,-0.87 0,-0.33 -0.13,-0.64 -0.36,-0.88"
       fill="#0046ad"
       fill-rule="evenodd"
       stroke="#000000"
       stroke-width="3.62"
       stroke-opacity="0"
       id="path5" />
  </g>
</svg>
