<?xml version="1.0" encoding="UTF-8" standalone="no"?>
<svg
   viewBox="0 0 666.66669 666.66669"
   height="666.66669"
   width="666.66669"
   xml:space="preserve"
   id="svg2"
   version="1.1"
   sodipodi:docname="logoQuadrato_03.svg"
   inkscape:export-filename="logoQuadrato_fondo_trasparente.svg"
   inkscape:export-xdpi="480.54"
   inkscape:export-ydpi="480.54"
   xmlns:inkscape="http://www.inkscape.org/namespaces/inkscape"
   xmlns:sodipodi="http://sodipodi.sourceforge.net/DTD/sodipodi-0.dtd"
   xmlns="http://www.w3.org/2000/svg"
   xmlns:svg="http://www.w3.org/2000/svg"
   xmlns:rdf="http://www.w3.org/1999/02/22-rdf-syntax-ns#"
   xmlns:cc="http://creativecommons.org/ns#"
   xmlns:dc="http://purl.org/dc/elements/1.1/"><sodipodi:namedview
     id="namedview1"
     pagecolor="#ffffff"
     bordercolor="#666666"
     borderopacity="1.0"
     inkscape:showpageshadow="2"
     inkscape:pageopacity="0.0"
     inkscape:pagecheckerboard="0"
     inkscape:deskcolor="#d1d1d1"
     showgrid="false" /><metadata
     id="metadata8"><rdf:RDF><cc:Work
         rdf:about=""><dc:format>image/svg+xml</dc:format><dc:type
           rdf:resource="http://purl.org/dc/dcmitype/StillImage" /></cc:Work></rdf:RDF></metadata><defs
     id="defs6"><clipPath
       id="clipPath20"
       clipPathUnits="userSpaceOnUse"><path
         id="path18"
         d="M 0,500 H 500 V 0 H 0 Z" /></clipPath></defs><g
     transform="matrix(1.3333333,0,0,-1.3333333,0,666.66667)"
     id="g10"><g
       id="g14"><g
         clip-path="url(#clipPath20)"
         id="g16"><g
           transform="translate(271.2935,160.3877)"
           id="g22"><path
             id="path24"
             style="fill:#ffffff;fill-opacity:1;fill-rule:nonzero;stroke:none"
             d="m 0,0 c -1.609,22.325 8.191,35.961 27.969,45.722 38.251,18.878 60.677,49.906 65.954,92.756 5.869,47.664 -19.012,94.411 -62.555,117.173 -43.086,22.523 -96.23,15.726 -131.639,-16.836 -62.664,-57.627 -49.157,-155.027 27.378,-192.975 20.369,-10.1 29.516,-24.409 28.827,-47.051 l -0.665,-90.957 c -0.154,-5.219 -0.106,-15.163 -9.273,-15.163 -10.151,0 -9.377,9.863 -9.54,15.055 l -0.2,89.462 c 0.529,15.969 -4.733,25.222 -19.548,32.457 -54.064,26.399 -81.765,81.218 -74.085,143.239 6.547,52.882 50.489,99.204 105.937,111.678 C 14.723,299.442 82.008,262.771 105.332,199.118 129.124,134.186 102.615,62.173 41.647,31.314 23.795,22.279 17.162,11.385 18.236,-8.143 l 0.322,-82.005 c -0.04,-7.051 1.517,-17.418 -8.73,-17.113 -10.808,0.322 -9.425,10.388 -9.563,17.791 z" /></g><g
           transform="translate(353.7485,312.6514)"
           id="g26"><path
             id="path28"
             style="fill:#ffffff;fill-opacity:1;fill-rule:nonzero;stroke:none"
             d="m 0,0 c -1.877,-44.525 -21.488,-76.549 -60.95,-95.686 -6.669,-3.234 -14.311,-8.589 -20.382,0.667 -3.59,11.012 4.853,13.02 11.947,16.465 33.823,16.422 53.209,49.665 50.034,85.561 -2.976,33.636 -27.851,64.073 -60.433,73.944 -42.422,12.853 -86.942,-8.274 -104.044,-49.373 -16.916,-40.655 0.188,-87.587 39.473,-108.165 3.501,-1.835 7.268,-3.688 10.525,-5.194 4.814,-2.226 9.273,-6.641 6.214,-13.097 -3.773,-5.949 -10.158,-4.928 -13.83,-3.573 -34.05,12.558 -56.148,37.094 -65.057,71.953 -14.43,56.456 20.322,113.536 76.31,127.514 C -73.479,115.175 -16.533,80.27 -2.776,22.613 -0.949,14.958 -0.808,6.9 0,0" /></g><g
           transform="translate(302.3062,312.1279)"
           id="g30"><path
             id="path32"
             style="fill:#ffffff;fill-opacity:1;fill-rule:nonzero;stroke:none"
             d="m 0,0 c -0.127,30.031 -24.61,54.313 -54.134,53.687 -28.701,-0.609 -53.155,-25.097 -53.515,-53.591 -0.367,-28.98 24.858,-54.236 54.151,-54.22 C -23.44,-54.107 0.128,-30.263 0,0 m -52.069,72.649 c 39.811,-0.438 72.627,-34.097 72.046,-73.896 -0.592,-40.524 -34.503,-73.024 -75.363,-72.226 -39.888,0.78 -71.077,33.778 -70.68,74.781 0.389,40.156 33.202,71.792 73.997,71.341" /></g><g
           transform="translate(239.5879,212.7441)"
           id="g34"><path
             id="path36"
             style="fill:#ffffff;fill-opacity:1;fill-rule:nonzero;stroke:none"
             d="m 0,0 c 0.214,5.411 -1.726,15.9 9.05,15.9 10.048,0 9.444,-10.235 9.519,-15.42 l -0.015,-181.282 c -0.077,-5.364 0.544,-15.175 -9.095,-15.149 -9.831,-0.56 -10.001,8.323 -9.952,16.165 z" /></g><g
           transform="translate(179.6133,474.2949)"
           id="g38"><path
             id="path40"
             style="fill:none;stroke:#ffffff;stroke-width:17.902;stroke-linecap:round;stroke-linejoin:miter;stroke-miterlimit:10;stroke-dasharray:none;stroke-opacity:1"
             d="M 0,0 C -47.839,0 -84.575,-35.961 -84.575,-82.561" /></g><g
           transform="translate(406.3682,391.7344)"
           id="g42"><path
             id="path44"
             style="fill:none;stroke:#ffffff;stroke-width:17.902;stroke-linecap:round;stroke-linejoin:miter;stroke-miterlimit:10;stroke-dasharray:none;stroke-opacity:1"
             d="M 0,0 C 0,53.184 -40.61,82.561 -84.575,82.561" /></g><g
           transform="translate(321.793,24.8623)"
           id="g46"><path
             id="path48"
             style="fill:none;stroke:#ffffff;stroke-width:17.902;stroke-linecap:round;stroke-linejoin:miter;stroke-miterlimit:10;stroke-dasharray:none;stroke-opacity:1"
             d="M 0,0 C 47.839,0 84.575,35.962 84.575,82.561" /></g><g
           transform="translate(95.0386,107.4229)"
           id="g50"><path
             id="path52"
             style="fill:none;stroke:#ffffff;stroke-width:17.902;stroke-linecap:round;stroke-linejoin:miter;stroke-miterlimit:10;stroke-dasharray:none;stroke-opacity:1"
             d="M 0,0 C 0,-53.183 40.61,-82.561 84.575,-82.561" /></g><g
           transform="translate(272.5391,311.7549)"
           id="g54"><path
             id="path56"
             style="fill:#f68712;fill-opacity:1;fill-rule:nonzero;stroke:none"
             d="m 0,0 c 0,-13.019 -10.553,-23.572 -23.572,-23.572 -13.019,0 -23.573,10.553 -23.573,23.572 0,13.019 10.554,23.572 23.573,23.572 C -10.553,23.572 0,13.019 0,0" /></g><g
           transform="translate(248.9668,288.1826)"
           id="g58"><path
             id="path60"
             style="fill:#ffffff;fill-opacity:1;fill-rule:nonzero;stroke:none"
             d="m 0,0 c -13.019,0 -23.572,10.554 -23.572,23.572 0,13.019 10.553,23.573 23.572,23.573 13.019,0 23.572,-10.554 23.572,-23.573 C 23.572,10.554 13.019,0 0,0 M 1.402,64.451 C -22.017,64.884 -40.659,47.335 -41.213,24.336 -41.76,1.626 -23.248,-17.143 -0.132,-17.313 23.614,-17.489 41.229,-0.094 41.225,23.53 41.222,46.62 24.28,64.029 1.402,64.451" /></g></g></g></g></svg>
