<?xml version="1.0" encoding="UTF-8" standalone="no"?>
<svg
   xmlns:dc="http://purl.org/dc/elements/1.1/"
   xmlns:cc="http://creativecommons.org/ns#"
   xmlns:rdf="http://www.w3.org/1999/02/22-rdf-syntax-ns#"
   xmlns:svg="http://www.w3.org/2000/svg"
   xmlns="http://www.w3.org/2000/svg"
   viewBox="0 0 666.66669 666.66669"
   height="666.66669"
   width="666.66669"
   xml:space="preserve"
   id="svg2"
   version="1.1"><metadata
     id="metadata8"><rdf:RDF><cc:Work
         rdf:about=""><dc:format>image/svg+xml</dc:format><dc:type
           rdf:resource="http://purl.org/dc/dcmitype/StillImage" /></cc:Work></rdf:RDF></metadata><defs
     id="defs6"><clipPath
       id="clipPath18"
       clipPathUnits="userSpaceOnUse"><path
         id="path16"
         d="M 0,500 H 500 V 0 H 0 Z" /></clipPath></defs><g
     transform="matrix(1.3333333,0,0,-1.3333333,0,666.66667)"
     id="g10"><g
       id="g12"><g
         clip-path="url(#clipPath18)"
         id="g14"><g
           transform="translate(271.9302,161.9868)"
           id="g20"><path
             id="path22"
             style="fill:#231f20;fill-opacity:1;fill-rule:nonzero;stroke:none"
             d="m 0,0 c -1.609,22.325 8.191,35.961 27.969,45.722 38.251,18.878 60.677,49.906 65.954,92.756 5.87,47.664 -19.012,94.411 -62.555,117.173 -43.086,22.523 -96.23,15.726 -131.639,-16.836 -62.664,-57.626 -49.156,-155.026 27.378,-192.975 20.369,-10.099 29.516,-24.409 28.827,-47.051 l -0.665,-90.956 c -0.154,-5.22 -0.105,-15.164 -9.272,-15.164 -10.152,0 -9.378,9.864 -9.541,15.055 l -0.2,89.461 c 0.529,15.971 -4.733,25.223 -19.548,32.458 -54.064,26.399 -81.764,81.218 -74.085,143.239 6.547,52.882 50.489,99.204 105.937,111.678 C 14.723,299.443 82.008,262.772 105.332,199.118 129.124,134.186 102.615,62.173 41.647,31.314 23.796,22.279 17.162,11.385 18.236,-8.142 l 0.322,-82.006 c -0.04,-7.051 1.518,-17.418 -8.73,-17.113 -10.808,0.322 -9.425,10.388 -9.563,17.791 z" /></g><g
           transform="translate(354.3853,314.251)"
           id="g24"><path
             id="path26"
             style="fill:#231f20;fill-opacity:1;fill-rule:nonzero;stroke:none"
             d="m 0,0 c -1.877,-44.525 -21.488,-76.549 -60.95,-95.686 -6.669,-3.234 -14.311,-8.59 -20.382,0.667 -3.59,11.012 4.853,13.019 11.948,16.465 33.822,16.422 53.208,49.665 50.033,85.561 -2.976,33.635 -27.851,64.073 -60.433,73.944 -42.422,12.852 -86.942,-8.275 -104.044,-49.374 -16.916,-40.654 0.188,-87.586 39.473,-108.164 3.501,-1.835 7.268,-3.689 10.525,-5.195 4.814,-2.225 9.273,-6.64 6.214,-13.096 -3.773,-5.949 -10.158,-4.928 -13.83,-3.574 -34.05,12.559 -56.148,37.094 -65.057,71.953 -14.43,56.457 20.322,113.537 76.31,127.515 C -73.479,115.174 -16.533,80.27 -2.776,22.613 -0.949,14.958 -0.808,6.9 0,0" /></g><g
           transform="translate(302.9429,313.7275)"
           id="g28"><path
             id="path30"
             style="fill:#231f20;fill-opacity:1;fill-rule:nonzero;stroke:none"
             d="M 0,0 C -0.126,30.031 -24.61,54.312 -54.134,53.687 -82.835,53.078 -107.289,28.589 -107.649,0.095 -108.016,-28.884 -82.791,-54.14 -53.497,-54.124 -23.44,-54.107 0.128,-30.263 0,0 m -52.069,72.649 c 39.811,-0.439 72.627,-34.098 72.046,-73.897 -0.592,-40.524 -34.503,-73.023 -75.363,-72.225 -39.888,0.779 -71.077,33.777 -70.68,74.78 0.389,40.156 33.202,71.793 73.997,71.342" /></g><g
           transform="translate(240.2246,214.3433)"
           id="g32"><path
             id="path34"
             style="fill:#231f20;fill-opacity:1;fill-rule:nonzero;stroke:none"
             d="m 0,0 c 0.214,5.411 -1.726,15.9 9.05,15.9 10.049,0 9.444,-10.235 9.519,-15.42 l -0.014,-181.282 c -0.077,-5.364 0.544,-15.174 -9.096,-15.149 -9.831,-0.56 -10.001,8.324 -9.952,16.165 z" /></g><g
           transform="translate(180.2505,475.8945)"
           id="g36"><path
             id="path38"
             style="fill:none;stroke:#231f20;stroke-width:17.90200043;stroke-linecap:round;stroke-linejoin:miter;stroke-miterlimit:10;stroke-dasharray:none;stroke-opacity:1"
             d="M 0,0 C -47.839,0 -84.575,-35.961 -84.575,-82.561" /></g><g
           transform="translate(407.0049,393.334)"
           id="g40"><path
             id="path42"
             style="fill:none;stroke:#231f20;stroke-width:17.90200043;stroke-linecap:round;stroke-linejoin:miter;stroke-miterlimit:10;stroke-dasharray:none;stroke-opacity:1"
             d="M 0,0 C 0,53.183 -40.61,82.561 -84.575,82.561" /></g><g
           transform="translate(322.4302,26.4619)"
           id="g44"><path
             id="path46"
             style="fill:none;stroke:#231f20;stroke-width:17.90200043;stroke-linecap:round;stroke-linejoin:miter;stroke-miterlimit:10;stroke-dasharray:none;stroke-opacity:1"
             d="M 0,0 C 47.839,0 84.575,35.961 84.575,82.561" /></g><g
           transform="translate(95.6753,109.0225)"
           id="g48"><path
             id="path50"
             style="fill:none;stroke:#231f20;stroke-width:17.90200043;stroke-linecap:round;stroke-linejoin:miter;stroke-miterlimit:10;stroke-dasharray:none;stroke-opacity:1"
             d="M 0,0 C 0,-53.183 40.61,-82.561 84.575,-82.561" /></g><g
           transform="translate(273.1763,313.354)"
           id="g52"><path
             id="path54"
             style="fill:#f68712;fill-opacity:1;fill-rule:nonzero;stroke:none"
             d="m 0,0 c 0,-13.019 -10.554,-23.572 -23.572,-23.572 -13.019,0 -23.573,10.553 -23.573,23.572 0,13.019 10.554,23.572 23.573,23.572 C -10.554,23.572 0,13.019 0,0" /></g><g
           transform="translate(249.6035,289.7817)"
           id="g56"><path
             id="path58"
             style="fill:#231f20;fill-opacity:1;fill-rule:nonzero;stroke:none"
             d="m 0,0 c -13.019,0 -23.572,10.554 -23.572,23.572 0,13.019 10.553,23.573 23.572,23.573 13.019,0 23.573,-10.554 23.573,-23.573 C 23.573,10.554 13.019,0 0,0 M 1.402,64.452 C -22.017,64.884 -40.659,47.335 -41.213,24.336 -41.76,1.626 -23.248,-17.143 -0.132,-17.313 23.614,-17.489 41.229,-0.094 41.225,23.53 41.222,46.621 24.28,64.029 1.402,64.452" /></g></g></g></g></svg>