<?xml version="1.0" encoding="utf-8"?>
<!-- Generator: Adobe Illustrator 25.0.1, SVG Export Plug-In . SVG Version: 6.00 Build 0)  -->
<svg version="1.0" id="katman_1" xmlns="http://www.w3.org/2000/svg" xmlns:xlink="http://www.w3.org/1999/xlink" x="0px" y="0px"
         viewBox="0 0 222.8 140.7" style="enable-background:new 0 0 222.8 140.7;" xml:space="preserve">
<style type="text/css">
        .st0{fill:#F04444;}
        .st1{fill:#101727;}
</style>
<g id="Group_33006" transform="translate(0)">
        <g id="Group_28926" transform="translate(0 0)">
                <g id="Group_28782" transform="translate(0 0)">
                        <path id="Path_35226" class="st0" d="M59.8,101.7c-2.6,0-5.2-0.3-7.7-0.9c-8.7-2-16.3-7.4-21-15c-9.8-15.8-5-36.6,10.8-46.4
                                c1.3-0.8,2.9-0.4,3.7,0.9c0.8,1.3,0.4,2.9-0.9,3.7c0,0,0,0,0,0c-13.3,8.3-17.3,25.7-9.1,39c4,6.4,10.3,10.9,17.6,12.6
                                c7.3,1.7,15,0.5,21.4-3.5c1.3-0.8,2.9-0.4,3.7,0.9c0.8,1.3,0.4,2.9-0.9,3.7C72.2,100,66,101.7,59.8,101.7z"/>
                </g>
                <g id="Group_28783" transform="translate(54.483 48.419)">
                        <ellipse id="Ellipse_248" class="st0" cx="28.8" cy="41.8" rx="2.8" ry="2.8"/>
                </g>
        </g>
        <g id="Group_29002" transform="translate(24.058 15.823)">
                <path id="Path_24206" class="st1" d="M26,51c-0.2-6.2,4.7-11.3,10.9-11.5c0.2,0,0.4,0,0.6,0c3.9-0.1,7.4,1.9,9.5,5.2l-3.7,2.2
                        c-1.2-2-3.4-3.2-5.7-3.1c-3.8-0.2-7,2.7-7.2,6.5c0,0.2,0,0.5,0,0.7c-0.2,3.8,2.7,7,6.4,7.2c0.2,0,0.5,0,0.7,0
                        c2.3,0.1,4.5-1.1,5.7-3.1l3.7,2.2c-2,3.3-5.6,5.3-9.5,5.2c-6.2,0.2-11.3-4.7-11.5-10.9C26,51.3,26,51.2,26,51z"/>
                <path id="Path_24207" class="st1" d="M49.7,39h4.1v23h-4.1V39z"/>
                <path id="Path_24208" class="st1" d="M65.3,58.7c1.4,0.1,2.7-0.5,3.5-1.6l3.3,1.9c-1.6,2.2-4.2,3.5-6.9,3.4
                        c-5.3,0-8.6-3.6-8.6-8.3c-0.2-4.4,3.3-8.2,7.8-8.3c0.2,0,0.4,0,0.6,0c4.7,0,8,3.7,8,8.3c0,0.6-0.1,1.1-0.2,1.7H60.9
                        C61.5,57.9,63.2,58.7,65.3,58.7z M68.9,52.6c-0.3-1.9-2-3.2-3.9-3.2c-2-0.1-3.8,1.2-4.1,3.2H68.9z"/>
                <path id="Path_24209" class="st1" d="M90,46.2L84,62h-4.6l-6-15.7h4.5l3.8,11l3.8-11H90z"/>
                <path id="Path_24210" class="st1" d="M99.1,58.7c1.4,0.1,2.7-0.5,3.5-1.6l3.3,1.9c-1.6,2.2-4.2,3.5-6.9,3.4
                        c-5.3,0-8.6-3.6-8.6-8.3c-0.2-4.4,3.3-8.2,7.8-8.3c0.2,0,0.4,0,0.6,0c4.7,0,8,3.7,8,8.3c0,0.6-0.1,1.1-0.2,1.7H94.7
                        C95.3,57.9,97,58.7,99.1,58.7z M102.7,52.6c-0.3-1.9-2-3.2-3.9-3.2c-2-0.1-3.8,1.2-4.1,3.2H102.7z"/>
                <path id="Path_24211" class="st1" d="M136.8,44.1h-6V62h-4.3V44.1h-5.9v-4.2h16.2L136.8,44.1z"/>
                <path id="Path_24212" class="st1" d="M152.2,46.2V62h-4.1v-1.9c-1.3,1.5-3.2,2.4-5.1,2.3c-4.2,0-7.7-3.6-7.7-8.3s3.5-8.3,7.7-8.3
                        c2-0.1,3.9,0.8,5.1,2.3v-1.9L152.2,46.2z M148.2,54.1c0.1-2.3-1.7-4.3-4-4.4c-0.1,0-0.2,0-0.4,0c-2.3-0.1-4.3,1.8-4.3,4.1
                        c0,0.1,0,0.2,0,0.3c-0.1,2.3,1.7,4.3,4,4.4c0.1,0,0.2,0,0.3,0c2.3,0.1,4.3-1.7,4.4-4.1C148.2,54.4,148.2,54.2,148.2,54.1
                        L148.2,54.1z"/>
                <path id="Path_24213" class="st1" d="M172.8,54.1c0,4.7-3.5,8.3-7.7,8.3c-2,0.1-3.9-0.8-5.1-2.3v8.2h-4.1v-22h4.1v1.9
                        c1.2-1.5,3.1-2.4,5.1-2.3C169.3,45.8,172.8,49.4,172.8,54.1z M168.7,54.1c0.1-2.3-1.7-4.3-4-4.4c-0.1,0-0.2,0-0.4,0
                        c-2.3-0.1-4.3,1.8-4.3,4.1c0,0.1,0,0.2,0,0.3c-0.1,2.3,1.7,4.3,4,4.4c0.1,0,0.2,0,0.3,0c2.3,0.1,4.3-1.7,4.4-4.1
                        C168.7,54.4,168.7,54.2,168.7,54.1L168.7,54.1z"/>
                <path id="Path_24214" class="st1" d="M113.7,62h-4.1V45.8h5.6c3.6-0.2,6.7,2.4,7,6l-4,0.6c-0.3-2.4-2-2.6-2.7-2.5h-1.8L113.7,62z"
                        />
        </g>
</g>
</svg>
