<svg id="b2920033-f258-40b1-9b15-6edcabc6a66f" data-name="artwork" xmlns="http://www.w3.org/2000/svg" width="760" height="372.75" viewBox="0 0 760 372.75">
  <defs>
    <style>
      .a847b0f5-9625-4ea2-92c7-c067a03c7a5a, .b17ca8e5-58d3-4885-b0db-84e30809b5c0, .e8c317ed-a944-4365-8b0d-e03f0104c6da, .eb6036ab-9619-4d19-95fe-7816d647537d {
        fill: none;
      }

      .e8c317ed-a944-4365-8b0d-e03f0104c6da {
        stroke: #151515;
      }

      .a5eef911-cf4e-4640-b6f3-5906275c7962, .a847b0f5-9625-4ea2-92c7-c067a03c7a5a, .e8c317ed-a944-4365-8b0d-e03f0104c6da, .eb6036ab-9619-4d19-95fe-7816d647537d {
        stroke-linecap: round;
        stroke-linejoin: round;
      }

      .a2d1a9a8-e777-4c14-b36e-2624d51e98d1, .b499334e-be18-4af6-b135-5df951beb8e5, .e0725f70-dd34-4a4e-bead-f8babbf32199, .f9329537-4bea-4537-8f80-a48322283984 {
        fill: #151515;
      }

      .e0725f70-dd34-4a4e-bead-f8babbf32199 {
        font-size: 11px;
      }

      .b499334e-be18-4af6-b135-5df951beb8e5, .e0725f70-dd34-4a4e-bead-f8babbf32199 {
        font-family: RedHatText-Medium, Red Hat Text;
        font-weight: 500;
      }

      .a5eef911-cf4e-4640-b6f3-5906275c7962 {
        fill: #fff;
      }

      .a5eef911-cf4e-4640-b6f3-5906275c7962, .a847b0f5-9625-4ea2-92c7-c067a03c7a5a, .eb6036ab-9619-4d19-95fe-7816d647537d {
        stroke: #5b5b5b;
      }

      .a5eef911-cf4e-4640-b6f3-5906275c7962, .eb6036ab-9619-4d19-95fe-7816d647537d {
        stroke-width: 1.5px;
      }

      .a847b0f5-9625-4ea2-92c7-c067a03c7a5a {
        stroke-width: 2px;
      }

      .fc010cc0-aa8a-448b-a572-44f807b7e4cb {
        fill: #06c;
      }

      .a2d1a9a8-e777-4c14-b36e-2624d51e98d1, .b499334e-be18-4af6-b135-5df951beb8e5 {
        font-size: 12px;
      }

      .a2d1a9a8-e777-4c14-b36e-2624d51e98d1 {
        font-family: RedHatText-Bold, Red Hat Text;
        font-weight: 700;
      }

      .a862bebd-cec3-4db5-9cd9-a8a2a2e2e26c {
        fill: #e8e8e8;
      }

      .eb8bfcef-6c5f-4e3d-ae2d-afb78ed91882, .f03473a5-56c9-4b87-ba99-456a8a05b83c {
        font-family: RedHatText-Regular, Red Hat Text;
      }

      .eb8bfcef-6c5f-4e3d-ae2d-afb78ed91882 {
        font-weight: 400;
      }

      .f03473a5-56c9-4b87-ba99-456a8a05b83c {
        font-size: 10px;
        fill: #f3f3f3;
      }
    </style>
  </defs>
  <g>
    <line class="e8c317ed-a944-4365-8b0d-e03f0104c6da" x1="529.5" y1="321" x2="474.314" y2="321"/>
    <polygon class="f9329537-4bea-4537-8f80-a48322283984" points="475.773 316.013 467.138 321 475.773 325.986 475.773 316.013"/>
  </g>
  <g>
    <text class="e0725f70-dd34-4a4e-bead-f8babbf32199" transform="translate(401.989 355.706)">Admin console</text>
    <g>
      <rect class="a5eef911-cf4e-4640-b6f3-5906275c7962" x="415.397" y="301.932" width="48.5" height="37.18"/>
      <line class="a847b0f5-9625-4ea2-92c7-c067a03c7a5a" x1="458.301" y1="307.513" x2="458.301" y2="307.513"/>
      <line class="a847b0f5-9625-4ea2-92c7-c067a03c7a5a" x1="454.57" y1="307.513" x2="454.57" y2="307.513"/>
      <line class="a847b0f5-9625-4ea2-92c7-c067a03c7a5a" x1="450.839" y1="307.513" x2="450.839" y2="307.513"/>
      <line class="eb6036ab-9619-4d19-95fe-7816d647537d" x1="420.993" y1="307.513" x2="435.916" y2="307.513"/>
    </g>
  </g>
  <g>
    <path class="fc010cc0-aa8a-448b-a572-44f807b7e4cb" d="M743.5,17V266h-233V17h233m1-1h-235V267h235V16Z"/>
    <text class="a2d1a9a8-e777-4c14-b36e-2624d51e98d1" transform="translate(529.5 41.104)">Services</text>
  </g>
  <g>
    <path class="fc010cc0-aa8a-448b-a572-44f807b7e4cb" d="M463.75,17V266h-233V17h233m1-1h-235V267h235V16Z"/>
    <text class="a2d1a9a8-e777-4c14-b36e-2624d51e98d1" transform="translate(249.75 41.104)">Workloads</text>
  </g>
  <text class="a2d1a9a8-e777-4c14-b36e-2624d51e98d1" transform="translate(249.75 107.184)">Workloads</text>
  <rect class="a862bebd-cec3-4db5-9cd9-a8a2a2e2e26c" x="249.75" y="56" width="195" height="60"/>
  <text class="b499334e-be18-4af6-b135-5df951beb8e5" transform="translate(289.681 81.908)">keycloak-postgresql<tspan class="eb8bfcef-6c5f-4e3d-ae2d-afb78ed91882"><tspan x="27.102" y="17">(Database)</tspan></tspan></text>
  <rect class="a862bebd-cec3-4db5-9cd9-a8a2a2e2e26c" x="249.75" y="186" width="195" height="60"/>
  <text class="b499334e-be18-4af6-b135-5df951beb8e5" transform="translate(321.798 211.908)">Keycloak<tspan class="eb8bfcef-6c5f-4e3d-ae2d-afb78ed91882"><tspan x="-11.747" y="17">(Stateful Set)</tspan></tspan></text>
  <g>
    <text class="f03473a5-56c9-4b87-ba99-456a8a05b83c" transform="translate(0 355.767)">90_0620</text>
    <rect class="b17ca8e5-58d3-4885-b0db-84e30809b5c0" y="332.75" width="760" height="40"/>
  </g>
  <g>
    <polyline class="e8c317ed-a944-4365-8b0d-e03f0104c6da" points="454.426 216 494.5 216 494.5 151 529.5 151"/>
    <polygon class="f9329537-4bea-4537-8f80-a48322283984" points="455.885 220.986 447.25 216 455.885 211.014 455.885 220.986"/>
  </g>
  <g>
    <polyline class="e8c317ed-a944-4365-8b0d-e03f0104c6da" points="454.426 201 479.5 201 479.5 101 519.824 101"/>
    <polygon class="f9329537-4bea-4537-8f80-a48322283984" points="455.885 205.986 447.25 201 455.885 196.014 455.885 205.986"/>
    <polygon class="f9329537-4bea-4537-8f80-a48322283984" points="518.365 105.986 527 101 518.365 96.014 518.365 105.986"/>
  </g>
  <g>
    <polyline class="e8c317ed-a944-4365-8b0d-e03f0104c6da" points="239.824 201 215.25 201 215.25 101 204.426 101"/>
    <polygon class="f9329537-4bea-4537-8f80-a48322283984" points="238.365 196.014 247 201 238.365 205.986 238.365 196.014"/>
    <polygon class="f9329537-4bea-4537-8f80-a48322283984" points="205.885 96.014 197.25 101 205.885 105.986 205.885 96.014"/>
  </g>
  <g>
    <line class="e8c317ed-a944-4365-8b0d-e03f0104c6da" x1="454.426" y1="231.001" x2="519.824" y2="231.001"/>
    <polygon class="f9329537-4bea-4537-8f80-a48322283984" points="455.885 235.987 447.25 231.001 455.885 226.014 455.885 235.987"/>
    <polygon class="f9329537-4bea-4537-8f80-a48322283984" points="518.365 235.987 527 231.001 518.365 226.014 518.365 235.987"/>
  </g>
  <g>
    <line class="e8c317ed-a944-4365-8b0d-e03f0104c6da" x1="204.426" y1="216" x2="239.824" y2="216"/>
    <polygon class="f9329537-4bea-4537-8f80-a48322283984" points="205.885 220.986 197.25 216 205.885 211.014 205.885 220.986"/>
    <polygon class="f9329537-4bea-4537-8f80-a48322283984" points="238.365 220.986 247 216 238.365 211.014 238.365 220.986"/>
  </g>
  <g>
    <line class="e8c317ed-a944-4365-8b0d-e03f0104c6da" x1="204.426" y1="86" x2="239.824" y2="86"/>
    <polygon class="f9329537-4bea-4537-8f80-a48322283984" points="205.885 90.986 197.25 86 205.885 81.014 205.885 90.986"/>
    <polygon class="f9329537-4bea-4537-8f80-a48322283984" points="238.365 90.986 247 86 238.365 81.014 238.365 90.986"/>
  </g>
  <g>
    <line class="e8c317ed-a944-4365-8b0d-e03f0104c6da" x1="454.426" y1="86" x2="519.824" y2="86"/>
    <polygon class="f9329537-4bea-4537-8f80-a48322283984" points="455.885 90.986 447.25 86 455.885 81.014 455.885 90.986"/>
    <polygon class="f9329537-4bea-4537-8f80-a48322283984" points="518.365 90.986 527 86 518.365 81.014 518.365 90.986"/>
  </g>
  <rect class="a862bebd-cec3-4db5-9cd9-a8a2a2e2e26c" y="56" width="195" height="80"/>
  <text class="b499334e-be18-4af6-b135-5df951beb8e5" transform="translate(42.21 85.408)">keycloak-db-secret<tspan class="eb8bfcef-6c5f-4e3d-ae2d-afb78ed91882"><tspan x="-0.527" y="17">(Database username</tspan><tspan x="16.17" y="30">and password)</tspan></tspan></text>
  <rect class="a862bebd-cec3-4db5-9cd9-a8a2a2e2e26c" y="166" width="195" height="80"/>
  <text class="b499334e-be18-4af6-b135-5df951beb8e5" transform="translate(27.284 195.408)"><tspan xml:space="preserve"> Credentials-&lt;CR-Name&gt;</tspan><tspan class="eb8bfcef-6c5f-4e3d-ae2d-afb78ed91882"><tspan x="0.756" y="17">(Admin console username</tspan><tspan x="31.098" y="30">and password)</tspan></tspan></text>
  <rect class="a862bebd-cec3-4db5-9cd9-a8a2a2e2e26c" x="529.5" y="56" width="195" height="60"/>
  <text class="b499334e-be18-4af6-b135-5df951beb8e5" transform="translate(569.431 90.324)">keycloak-postgresql</text>
  <rect class="a862bebd-cec3-4db5-9cd9-a8a2a2e2e26c" x="529.5" y="186" width="195" height="60"/>
  <text class="b499334e-be18-4af6-b135-5df951beb8e5" transform="translate(572.498 220.324)">keycloak-discovery</text>
  <g>
    <polyline class="e8c317ed-a944-4365-8b0d-e03f0104c6da" points="724.5 151 759.5 151 759.5 321 734.177 321"/>
    <polygon class="f9329537-4bea-4537-8f80-a48322283984" points="735.635 316.013 727 321 735.635 325.986 735.635 316.013"/>
  </g>
  <rect class="a862bebd-cec3-4db5-9cd9-a8a2a2e2e26c" x="529.5" y="291" width="195" height="60"/>
  <text class="b499334e-be18-4af6-b135-5df951beb8e5" transform="translate(583.165 315.908)">Keycloak Route<tspan class="eb8bfcef-6c5f-4e3d-ae2d-afb78ed91882"><tspan x="-13.47" y="17">(Admin console URL)</tspan></tspan></text>
  <rect class="a862bebd-cec3-4db5-9cd9-a8a2a2e2e26c" x="529.5" y="121" width="195" height="60"/>
  <text class="b499334e-be18-4af6-b135-5df951beb8e5" transform="translate(601.548 155.324)">Keycloak</text>
</svg>
