<?xml version="1.0" standalone="no"?>
<!DOCTYPE svg PUBLIC "-//W3C//DTD SVG 1.1//EN" "http://www.w3.org/Graphics/SVG/1.1/DTD/svg11.dtd" >
<svg xmlns="http://www.w3.org/2000/svg">
<metadata>Generated by IcoMoon</metadata>
<defs>
<font id="PatternFlyIcons-webfont" horiz-adv-x="1024">
<font-face units-per-em="1024" ascent="960" descent="-64" />
<missing-glyph horiz-adv-x="1024" />
<glyph unicode="&#x20;" d="" horiz-adv-x="512" />
<glyph unicode="&#xe600;" d="M1024 128v768h-1024v-768h448v-64h-192v-64h512v64h-192v64h448zM128 768h768v-512h-768v512z" />
<glyph unicode="&#xe601;" d="M741.102 404.848l-186.676-186.676c-36.532-36.534-48.79-36.062-84.852 0l-186.676 186.676c-23.334 23.334-15.426 42.426 17.574 42.426h147.408v240.242c-0.002 5.36 0.944 9.778 4.426 13.262 3.482 3.482 7.904 5.226 13.264 5.222h91.634c5.356 0.004 9.778-1.74 13.258-5.222 3.484-3.482 6.028-7.906 6.028-13.262v-240.242h147.042c33 0 40.906-19.090 17.57-42.426zM832 960h-834v-1026h1028v834l-194 192zM896 64h-768v768h640l128-128v-640z" />
<glyph unicode="&#xe602;" d="M514.334-12.222c-251.895 0-456.848 204.901-456.848 456.793 0 251.79 204.953 456.745 456.848 456.745 251.845 0 456.743-204.953 456.743-456.745 0.005-251.893-204.898-456.793-456.743-456.793zM514.334 790.398c-190.77 0-345.922-155.102-345.922-345.826 0-190.816 155.152-345.87 345.922-345.87 190.674 0 345.874 155.054 345.874 345.87 0.002 190.722-155.202 345.826-345.874 345.826zM783.136 544.162c0.002-10.286-3.422-18.855-10.281-25.714l-281.55-281.55c-6.857-6.857-15.431-10.286-25.714-10.286-10.286 0-18.857 3.429-25.714 10.286l-184.162 184.16c-6.857 6.862-10.283 15.433-10.283 25.719-0.002 10.286 3.426 18.857 10.283 25.714l50.206 50.206c6.857 6.857 15.429 10.286 25.714 10.281 10.29 0 18.857-3.424 25.717-10.286l106.626-106.626 205.63 205.63c6.857 6.857 15.429 10.286 25.719 10.286 10.283 0.002 18.855-3.429 25.714-10.286l51.817-51.822c6.855-6.855 10.283-15.426 10.279-25.712z" />
<glyph unicode="&#xe603;" d="M735.608 587.494l10.252 20.556c0 0 35.71 80.126-45.57 104.654-75.518 22.788-353.326 106.618-392.35 118.392l7.25 55.964c4.576 35.348-19.208 72.94-54.554 72.94s-67.712-28.654-72.29-64l-124.346-960h128l50.066 386.534 213.232 61.56-3.67-13.852c0 0-3.628-85.242 103.964-53.022 56.818 17.016 469.532 182.908 469.532 182.908l-289.516 87.366z" />
<glyph unicode="&#xe604;" d="M514.334-12.222c-251.895 0-456.848 204.901-456.848 456.793 0 251.79 204.953 456.745 456.848 456.745 251.845 0 456.743-204.953 456.743-456.745 0.005-251.893-204.898-456.793-456.743-456.793zM514.334 790.398c-190.77 0-345.922-155.102-345.922-345.826 0-190.816 155.152-345.87 345.922-345.87 190.674 0 345.874 155.054 345.874 345.87 0.002 190.722-155.202 345.826-345.874 345.826zM585.143 189.714v314.286c0 5.335-1.714 9.714-5.143 13.143s-7.808 5.143-13.143 5.143h-109.714c-5.335 0-9.714-1.714-13.143-5.143s-5.143-7.808-5.143-13.143v-314.286c0-5.335 1.714-9.714 5.143-13.143s7.808-5.143 13.143-5.143h109.714c5.335 0 9.714 1.714 13.143 5.143s5.143 7.808 5.143 13.143zM585.143 587.429v109.714c0 5.335-1.714 9.714-5.143 13.143s-7.808 5.143-13.143 5.143h-109.714c-5.335 0-9.714-1.714-13.143-5.143s-5.143-7.808-5.143-13.143v-109.714c0-5.335 1.714-9.714 5.143-13.143s7.808-5.143 13.143-5.143h109.714c5.335 0 9.714 1.714 13.143 5.143s5.143 7.808 5.143 13.143z" />
<glyph unicode="&#xe605;" d="M514.334-12.222c-251.895 0-456.848 204.901-456.848 456.793 0 251.79 204.953 456.745 456.848 456.745 251.845 0 456.743-204.953 456.743-456.745 0.005-251.893-204.898-456.793-456.743-456.793zM514.334 790.398c-190.77 0-345.922-155.102-345.922-345.826 0-190.816 155.152-345.87 345.922-345.87 190.674 0 345.874 155.054 345.874 345.87 0.002 190.722-155.202 345.826-345.874 345.826zM585.143 196.571v109.714c0 4.951-1.808 9.237-5.429 12.857s-7.906 5.429-12.857 5.429h-109.714c-4.953 0-9.239-1.808-12.857-5.429s-5.429-7.906-5.429-12.857v-109.714c0-4.951 1.81-9.237 5.429-12.857s7.904-5.429 12.857-5.429h109.714c4.951 0 9.237 1.808 12.857 5.429s5.429 7.906 5.429 12.857zM521.616 345.429c118.345 0 214.286 79.822 214.286 178.286s-95.941 178.286-214.286 178.286c-114.382 0-207.829-74.558-213.963-168.448 0-7.936 6.729-9.838 15.872-9.838s108.073 0 113.143 0c6.096 0 14.475 0.633 17.554 10.571 5.959 26.455 33.87 46.48 67.397 46.48 37.867 0 68.571-25.545 68.571-57.051s-29.717-54.674-68.571-57.051-82.286-7.607-82.286-54.199c0-13.022 0-25.673 0-44.693 0-19.015 9.717-22.343 27.431-22.343s54.853 0 54.853 0z" />
<glyph unicode="&#xe606;" d="M1082 440.571c-10.095 4.952-21.619 7.429-34.571 7.429h-686.857c-25.143 0-52.477-6.762-82-20.286-29.523-13.523-52.477-30-68.857-49.429l-177.59-209.303 95.307 252.405c10.287 27.639 31.899 51.075 64.839 70.313 32.937 19.237 67.291 28.856 103.057 28.856h655.529v146.872c0 0 0 73.143-73.143 73.143s-438.857 0-438.857 0l-36.571 73.143c0 0-36.571 73.143-109.714 73.143-29.523 0-146.286 0-219.429 0s-73.143-72.571-73.143-72.571v-700c0-11.429 0-32 0-32h736.571c25.143 0 52.477 6.762 82 20.286s52.477 30 68.857 49.429l192 226.286c11.809 13.334 17.714 25.905 17.714 37.714 0 11.429-5.048 19.619-15.143 24.571z" horiz-adv-x="1097" />
<glyph unicode="&#xe607;" d="M950.857 667.429v-585.143h-950.857v732c0 0 0 72.571 73.143 72.571s189.905 0 219.429 0c73.143 0 109.714-73.143 109.714-73.143l36.571-73.143c0 0 365.714 0 438.857 0s73.143-73.143 73.143-73.143z" horiz-adv-x="951" />
<glyph unicode="&#xe608;" d="M585.143 210.857c0-5.335-1.808-9.808-5.429-13.429s-7.906-5.429-12.857-5.429h-109.714c-4.953 0-9.239 1.808-12.857 5.429s-5.429 8.094-5.429 13.429v108.571c0 5.335 1.81 9.808 5.429 13.429s7.904 5.429 12.857 5.429h109.714c4.951 0 9.237-1.808 12.857-5.429s5.429-8.094 5.429-13.429v-108.571zM584 424.571c-0.379-3.808-2.379-6.951-6-9.429s-8.094-3.714-13.429-3.714h-105.714c-5.333 0-9.904 1.237-13.714 3.714s-5.714 5.621-5.714 9.429l-9.714 261.143c0 5.333 1.904 9.333 5.714 12 4.953 4.19 9.525 6.286 13.714 6.286h125.714c4.192 0 8.763-2.096 13.714-6.286 3.808-2.667 5.714-6.286 5.714-10.857l-10.286-262.286z" />
<glyph unicode="&#xe609;" d="M928.169 629.849l-234.32 234.32c-3.749 3.662-10.96 6.688-16.201 6.688 0 0-326.482 0-331.545 0-5.104 0-12.281-3.026-15.952-6.688l-234.32-234.32c-3.662-3.671-6.688-10.96-6.688-16.114v-331.381c0-5.241 3.026-12.45 6.688-16.201l234.32-234.322c3.671-3.749 10.96-6.688 16.114-6.688h331.381c5.241 0 12.45 2.939 16.201 6.688l234.322 234.322c3.749 3.751 6.688 10.96 6.688 16.201v331.381c0 5.154-2.939 12.443-6.688 16.114z" />
<glyph unicode="&#xe60a;" d="M207.429 82.286l52 52-134.286 134.286-52-52v-61.143h73.143v-73.143h61.143zM475.429 722.286l237.714-237.714-475.429-475.429h-237.714v237.714l475.429 475.429zM865.714 667.429c0-20.191-7.048-37.334-21.143-51.429l-94.857-94.857-237.714 237.714 94.857 94.286c13.714 14.477 30.857 21.714 51.429 21.714 20.191 0 37.523-7.238 52-21.714l134.286-133.714c14.095-14.857 21.143-32.191 21.143-52z" horiz-adv-x="878" />
<glyph unicode="&#xe60b;" d="M315.431 742.24c-4.887-0.043-9.246-1.975-13.074-5.806l-78.793-78.789c-3.831-3.831-5.762-8.187-5.806-13.077-0.039-4.887 1.829-9.211 5.6-12.983l476.8-476.802c3.771-3.771 8.096-5.634 12.983-5.591 4.885 0.034 9.243 1.963 13.074 5.797l78.791 78.793c3.831 3.831 5.762 8.187 5.803 13.079 0.039 4.887-1.826 9.211-5.598 12.985l-476.8 476.793c-3.771 3.774-8.094 5.639-12.981 5.6zM810.811 644.569c-0.041 4.887-1.975 9.246-5.803 13.077l-78.793 78.789c-3.831 3.831-8.187 5.762-13.074 5.806-4.887 0.039-9.211-1.829-12.985-5.6l-476.8-476.8c-3.771-3.771-5.634-8.096-5.591-12.983 0.034-4.885 1.966-9.243 5.797-13.074l78.791-78.793c3.831-3.831 8.19-5.762 13.079-5.801 4.887-0.039 9.211 1.824 12.983 5.595l476.798 476.8c3.774 3.776 5.639 8.098 5.6 12.985z" />
<glyph unicode="&#xe60c;" d="M576 921.714l438.857-804.571c13.333-24 12.953-48-1.143-72-6.475-11.047-15.333-19.81-26.571-26.286s-23.333-9.714-36.286-9.714h-877.714c-12.953 0-25.047 3.239-36.286 9.714s-20.096 15.239-26.571 26.286c-14.096 24-14.475 48-1.143 72l438.857 804.571c6.475 11.81 15.429 21.143 26.857 28s23.81 10.286 37.143 10.286c13.335 0 25.714-3.429 37.143-10.286s20.379-16.19 26.857-28z" />
<glyph unicode="&#xe60d;" d="M585.143 174.286v108.571c0 5.335-1.808 9.808-5.429 13.429s-7.906 5.429-12.857 5.429h-109.714c-4.953 0-9.239-1.808-12.857-5.429s-5.429-8.094-5.429-13.429v-108.571c0-5.335 1.81-9.808 5.429-13.429s7.904-5.429 12.857-5.429h109.714c4.951 0 9.237 1.808 12.857 5.429s5.429 8.094 5.429 13.429zM584 388l10.286 262.286c0 4.571-1.906 8.19-5.714 10.857-4.951 4.19-9.522 6.286-13.714 6.286h-125.714c-4.19 0-8.761-2.096-13.714-6.286-3.81-2.667-5.714-6.667-5.714-12l9.714-261.143c0-3.808 1.904-6.951 5.714-9.429s8.382-3.714 13.714-3.714h105.714c5.335 0 9.808 1.237 13.429 3.714s5.621 5.621 6 9.429z" />
<glyph unicode="&#xe60e;" d="M622.826 257.264c-22.11 3.518-22.614 64.314-22.614 64.314s64.968 64.316 79.128 150.802c38.090 0 61.618 91.946 23.522 124.296 1.59 34.054 48.96 267.324-190.862 267.324-239.822 0-192.45-233.27-190.864-267.324-38.094-32.35-14.57-124.296 23.522-124.296 14.158-86.486 79.128-150.802 79.128-150.802s-0.504-60.796-22.614-64.314c-71.22-11.332-337.172-128.634-337.172-257.264h896c0 128.63-265.952 245.932-337.174 257.264z" />
<glyph unicode="&#xe60f;" d="M734.994 154.626c-18.952 2.988-19.384 54.654-19.384 54.654s55.688 54.656 67.824 128.152c32.652 0 52.814 78.138 20.164 105.628 1.362 28.94 41.968 227.176-163.598 227.176-205.564 0-164.958-198.236-163.598-227.176-32.654-27.49-12.488-105.628 20.162-105.628 12.134-73.496 67.826-128.152 67.826-128.152s-0.432-51.666-19.384-54.654c-61.048-9.632-289.006-109.316-289.006-218.626h768c0 109.31-227.958 208.994-289.006 218.626zM344.054 137.19c44.094 27.15 97.626 52.308 141.538 67.424-15.752 22.432-33.294 52.936-44.33 89.062-15.406 12.566-27.944 30.532-35.998 52.602-8.066 22.104-11.122 46.852-8.608 69.684 1.804 16.392 6.478 31.666 13.65 45.088-4.35 46.586-7.414 138.034 52.448 204.732 23.214 25.866 52.556 44.46 87.7 55.686-6.274 64.76-39.16 140.77-166.454 140.77-205.564 0-164.958-198.236-163.598-227.176-32.654-27.49-12.488-105.628 20.162-105.628 12.134-73.496 67.826-128.152 67.826-128.152s-0.432-51.666-19.384-54.654c-61.048-9.634-289.006-109.318-289.006-218.628h329.596c4.71 3.074 9.506 6.14 14.458 9.19z" />
<glyph unicode="&#xe610;" d="M896 512h16c26.4 0 48 21.6 48 48v160c0 26.4-21.6 48-48 48h-16v192h-128v-192h-16c-26.4 0-48-21.6-48-48v-160c0-26.4 21.6-48 48-48h16v-576h128v576zM768 704h128v-128h-128v128zM592 128c26.4 0 48 21.6 48 48v160c0 26.4-21.6 48-48 48h-16v576h-128v-576h-16c-26.4 0-48-21.6-48-48v-160c0-26.4 21.6-48 48-48h16v-192h128v192h16zM448 320h128v-128h-128v128zM272 512c26.4 0 48 21.6 48 48v160c0 26.4-21.6 48-48 48h-16v192h-128v-192h-16c-26.4 0-48-21.6-48-48v-160c0-26.4 21.6-48 48-48h16v-576h128v576h16zM128 704h128v-128h-128v128z" />
<glyph unicode="&#xe611;" d="M192-64h640l64 704h-768zM640 832v128h-256v-128h-320v-192l64 64h768l64-64v192h-320zM576 832h-128v64h128v-64z" />
<glyph unicode="&#xe612;" d="M256 896h512v-128h-512zM960 704h-896c-35.2 0-64-28.8-64-64v-320c0-35.2 28.796-64 64-64h192v-256h512v256h192c35.2 0 64 28.8 64 64v320c0 35.2-28.8 64-64 64zM704 64h-384v320h384v-320zM974.4 608c0-25.626-20.774-46.4-46.398-46.4-25.626 0-46.402 20.774-46.402 46.4s20.776 46.4 46.402 46.4c25.626 0 46.398-20.774 46.398-46.4z" />
<glyph unicode="&#xe613;" d="M1024 576h-384l143.53 143.53c-72.53 72.526-168.96 112.47-271.53 112.47-102.57 0-199-39.944-271.53-112.47-72.526-72.53-112.47-168.96-112.47-271.53 0-102.57 39.944-199 112.47-271.53 72.53-72.526 168.96-112.47 271.53-112.47 102.57 0 199 39.944 271.528 112.472 6.056 6.054 11.86 12.292 17.456 18.668l96.32-84.282c-93.846-107.166-231.664-174.858-385.304-174.858-282.77 0-512 229.23-512 512 0 282.77 229.23 512 512 512 141.386 0 269.368-57.326 362.016-149.984l149.984 149.984v-384z" />
<glyph unicode="&#xe614;" d="M192 448c0 12.18 0.704 24.196 2.030 36.022l-184.98 60.104c-5.916-31.14-9.050-63.264-9.050-96.126 0-147.23 62.166-279.922 161.654-373.324l114.284 157.296c-52.124 56.926-83.938 132.758-83.938 216.028zM832 448c0-83.268-31.812-159.102-83.938-216.028l114.284-157.296c99.488 93.402 161.654 226.094 161.654 373.324 0 32.862-3.132 64.986-9.048 96.126l-184.98-60.104c1.324-11.828 2.028-23.842 2.028-36.022zM576 761.592c91.934-18.662 169.544-76.742 214.45-155.826l184.978 60.102c-73.196 155.42-222.24 268.060-399.428 290.156v-194.432zM233.55 605.768c44.906 79.084 122.516 137.164 214.45 155.826v194.43c-177.188-22.096-326.23-134.736-399.426-290.154l184.976-60.102zM644.556 156.672c-40.39-18.408-85.272-28.672-132.556-28.672s-92.166 10.264-132.554 28.67l-114.292-157.31c73.206-40.366 157.336-63.36 246.846-63.36s173.64 22.994 246.848 63.36l-114.292 157.312z" />
<glyph unicode="&#xe615;" d="M574.666 896v-128h192v-576h-574v256h-128v-384h830v832zM598.558 661.574l-103.562-103.562-334.904 333.774c-3.788 3.788-8.146 5.684-13.072 5.684-4.924 0-9.284-1.894-13.072-5.684l-64.792-64.792c-3.79-3.788-5.684-8.148-5.684-13.074s1.894-9.28 5.684-13.070l334.902-333.776-104.648-104.648c-23.334-23.334-15.426-42.426 17.574-42.426h264c51 0 60 8.334 60 60v264c0 33-19.092 40.908-42.426 17.574z" />
<glyph unicode="&#xe616;" d="M384.666 64v128h-192v576h576v-256h128v384h-832v-832zM854.558 403.574l-102.56-102.56-335.906 334.772c-3.788 3.788-8.146 5.684-13.072 5.684-4.924 0-9.284-1.894-13.072-5.684l-64.792-64.792c-3.79-3.788-5.684-8.148-5.684-13.074s1.894-9.28 5.684-13.070l335.902-334.776-105.648-105.648c-23.334-23.334-15.426-42.426 17.574-42.426h264c51 0 60 8.334 60 60v264c0 33-19.092 40.908-42.426 17.574z" />
<glyph unicode="&#xe617;" d="M149.984 810.016c92.648 92.658 220.63 149.984 362.016 149.984 282.77 0 512-229.23 512-512s-229.23-512-512-512c-153.64 0-291.458 67.692-385.304 174.858l96.32 84.284c5.596-6.376 11.4-12.614 17.458-18.668 72.526-72.53 168.956-112.474 271.526-112.474s199 39.944 271.532 112.468c72.522 72.532 112.468 168.962 112.468 271.532s-39.946 199-112.468 271.53c-72.532 72.526-168.962 112.47-271.532 112.47s-199-39.944-271.53-112.47l-154.804-61.198 64.318 151.684zM480 320c-9.334 0-17 3-23 9s-9 13.666-9 23v320c0 9.334 3 17 9 23s13.666 9 23 9h64c9.334 0 17-3 23-9s9-13.666 9-23v-224h162c9.332 0 17-3 23-9s9-13.666 9-23v-64c0-9.334-3-17-9-23s-13.668-9-23-9h-258zM341.574 618.426c23.334-23.334 15.426-42.426-17.574-42.426h-264c-51.666 0-60 9-60 60v264c0 33 19.092 40.908 42.426 17.574l299.148-299.148z" />
</font>
</defs>
</svg>
