<?xml version="1.0" encoding="utf-8"?>
<!-- Generator: Adobe Illustrator 16.0.4, SVG Export Plug-In . SVG Version: 6.00 Build 0)  -->
<svg version="1.2" baseProfile="tiny" id="logo" xmlns="http://www.w3.org/2000/svg" xmlns:xlink="http://www.w3.org/1999/xlink"
	 x="0px" y="0px" width="137px" height="44px" viewBox="0 0 137 44" overflow="visible" xml:space="preserve">
<g id="logo_1_">
	<g id="white">
		<path fill="#FFFFFF" d="M40.505,33.932c-0.846-0.195-1.743-0.315-2.651-0.315c-1.553,0-2.965,0.268-4.008,0.704
			c-0.114,0.056-0.197,0.176-0.197,0.312c0,0.05,0.014,0.101,0.031,0.142c0.124,0.357-0.079,0.745-1.087,0.966
			c-1.494,0.328-2.44,1.873-2.979,2.384c-0.636,0.604-2.426,0.974-2.157,0.614c0.21-0.28,1.018-1.157,1.508-2.103
			c0.438-0.846,0.829-1.087,1.367-1.894c0.156-0.236,0.77-1.069,0.947-1.725c0.201-0.643,0.134-1.448,0.21-1.78
			c0.11-0.48,0.563-1.517,0.596-2.104c0.021-0.333-1.384,0.474-2.05,0.474c-0.666,0-1.315-0.4-1.912-0.428
			c-0.736-0.033-1.208,0.568-1.876,0.463c-0.379-0.061-0.701-0.396-1.365-0.421c-0.948-0.034-2.104,0.526-4.279,0.456
			c-2.137-0.068-4.113-2.702-4.382-3.119c-0.315-0.491-0.702-0.491-1.122-0.107c-0.421,0.387-0.939,0.084-1.087-0.176
			c-0.279-0.489-1.029-1.922-2.191-2.226c-1.605-0.416-2.419,0.89-2.312,1.929c0.107,1.054,0.787,1.349,1.104,1.912
			c0.315,0.559,0.477,0.919,1.07,1.168c0.421,0.177,0.577,0.437,0.453,0.78c-0.111,0.301-0.549,0.371-0.837,0.384
			c-0.61,0.03-1.04-0.136-1.354-0.336c-0.363-0.231-0.659-0.553-0.978-1.1c-0.368-0.604-0.945-0.866-1.62-0.866
			c-0.321,0-0.621,0.084-0.889,0.221c-1.057,0.552-2.313,0.877-3.667,0.877H1.267C4.195,37.7,12.405,43.953,22.074,43.953
			C29.8,43.951,36.594,39.966,40.505,33.932z"/>
	</g>
	<g id="black">
		<g>
			<path fill="#FFFFFF" d="M43.807,32.761h0.198l0.299,0.49h0.192l-0.323-0.501c0.168-0.021,0.295-0.108,0.295-0.309
				c0-0.226-0.133-0.324-0.4-0.324h-0.431v1.134h0.171L43.807,32.761L43.807,32.761z M43.807,32.615v-0.352h0.233
				c0.119,0,0.247,0.025,0.247,0.165c0,0.176-0.129,0.187-0.273,0.187H43.807L43.807,32.615z"/>
			<path fill="#FFFFFF" d="M45.119,32.686c0,0.611-0.496,1.11-1.108,1.11c-0.614,0-1.11-0.499-1.11-1.11s0.496-1.11,1.11-1.11
				C44.623,31.575,45.119,32.074,45.119,32.686z M44.011,31.773c-0.505,0-0.915,0.409-0.915,0.912c0,0.505,0.41,0.912,0.915,0.912
				c0.503,0,0.913-0.407,0.913-0.912C44.922,32.183,44.514,31.773,44.011,31.773z"/>
		</g>
		<g>
			<path d="M40.505,33.934c-0.846-0.194-1.743-0.315-2.651-0.315c-1.553,0-2.965,0.27-4.008,0.702
				c-0.114,0.058-0.197,0.176-0.197,0.314c0,0.048,0.014,0.101,0.031,0.142c0.124,0.357-0.079,0.745-1.087,0.967
				c-1.494,0.327-2.44,1.87-2.979,2.383c-0.636,0.602-2.426,0.974-2.157,0.614c0.21-0.28,1.018-1.157,1.508-2.102
				c0.438-0.845,0.829-1.088,1.367-1.893c0.156-0.238,0.77-1.069,0.947-1.727c0.201-0.643,0.134-1.448,0.21-1.78
				c0.11-0.48,0.563-1.517,0.596-2.104c0.021-0.332-1.384,0.472-2.05,0.472c-0.666,0-1.315-0.398-1.912-0.426
				c-0.736-0.035-1.208,0.568-1.876,0.461c-0.379-0.061-0.701-0.395-1.365-0.421c-0.948-0.034-2.104,0.528-4.279,0.456
				c-2.137-0.068-4.113-2.7-4.382-3.117c-0.315-0.493-0.702-0.493-1.122-0.107c-0.421,0.385-0.939,0.082-1.087-0.176
				c-0.279-0.491-1.029-1.924-2.191-2.225c-1.605-0.419-2.419,0.889-2.312,1.928c0.107,1.052,0.787,1.347,1.104,1.908
				c0.315,0.561,0.477,0.923,1.07,1.173c0.421,0.174,0.577,0.436,0.453,0.779c-0.111,0.301-0.549,0.369-0.837,0.384
				c-0.61,0.03-1.04-0.138-1.354-0.338c-0.363-0.231-0.659-0.553-0.978-1.1c-0.368-0.604-0.945-0.866-1.62-0.866
				c-0.321,0-0.621,0.086-0.889,0.221c-1.057,0.552-2.313,0.877-3.667,0.877H1.267c-0.743-2.203-1.146-4.564-1.146-7.017
				c0-12.127,9.83-21.955,21.953-21.955c12.125,0,21.954,9.828,21.954,21.955C44.028,26.4,42.734,30.496,40.505,33.934z"/>
		</g>
		<path fill="#FFFFFF" d="M55.219,23.384c0-2.012-0.042-3.494-0.122-4.832h3.293l0.14,2.855h0.108
			c0.739-2.116,2.494-3.196,4.117-3.196c0.372,0,0.586,0.013,0.892,0.082v3.582c-0.356-0.068-0.688-0.108-1.146-0.108
			c-1.813,0-3.07,1.154-3.409,2.878c-0.064,0.333-0.099,0.736-0.099,1.146v7.801h-3.805L55.219,23.384z"/>
		<path fill="#FFFFFF" d="M68.239,27.096c0.101,2.726,2.21,3.918,4.646,3.918c1.748,0,3.001-0.273,4.151-0.697l0.561,2.617
			c-1.285,0.547-3.071,0.954-5.255,0.954c-4.885,0-7.746-3.016-7.746-7.624c0-4.149,2.518-8.079,7.358-8.079
			c4.89,0,6.48,4.022,6.48,7.315c0,0.708-0.063,1.273-0.134,1.625L68.239,27.096z M74.852,24.445
			c0.019-1.394-0.588-3.664-3.136-3.664c-2.339,0-3.314,2.125-3.486,3.664H74.852z"/>
		<path fill="#FFFFFF" d="M91.019,27.069c0,0.398-0.026,0.77-0.114,1.11c-0.383,1.646-1.73,2.707-3.283,2.707
			c-2.396,0-3.765-2.021-3.765-4.783c0-2.79,1.358-4.95,3.807-4.95c1.711,0,2.935,1.207,3.27,2.671
			c0.065,0.306,0.086,0.688,0.086,0.99V27.069L91.019,27.069z M94.819,12.761l-3.801-1.072v8.484h-0.064
			c-0.672-1.112-2.156-1.959-4.214-1.959c-3.617,0-6.767,2.993-6.742,8.032c0,4.622,2.844,7.687,6.436,7.687
			c2.17,0,3.983-1.035,4.884-2.719h0.066l0.17,2.382h3.388c-0.07-1.022-0.124-2.679-0.124-4.218V12.761H94.819z"/>
		<path fill="#FFFFFF" d="M104.876,18.196c-1.145,0-2.172,0.33-3.034,0.862c-0.895,0.524-1.622,1.333-2.056,2.17h-0.061v-7.039
			l-1.491-0.44v19.843h1.491v-9.205c0-0.612,0.047-1.036,0.202-1.481c0.644-1.875,2.407-3.411,4.54-3.411
			c3.081,0,4.148,2.471,4.148,5.182v8.915h1.488v-9.078C110.104,18.907,106.302,18.196,104.876,18.196z"/>
		<path fill="#FFFFFF" d="M123.465,30.016c0,1.19,0.049,2.424,0.222,3.575h-1.371l-0.219-2.157h-0.071
			c-0.73,1.16-2.406,2.5-4.798,2.5c-3.028,0-4.438-2.131-4.438-4.139c0-3.473,3.067-5.566,9.191-5.502v-0.402
			c0-1.489-0.29-4.458-3.852-4.435c-1.316,0-2.69,0.353-3.777,1.121l-0.474-1.083c1.376-0.931,3.053-1.3,4.414-1.3
			c4.346,0,5.175,3.262,5.175,5.95v5.872H123.465z M121.979,25.546c-3.277-0.094-7.608,0.402-7.608,4.018
			c0,2.163,1.428,3.136,2.996,3.136c2.51,0,3.935-1.554,4.455-3.02c0.107-0.321,0.157-0.645,0.157-0.9V25.546L121.979,25.546z"/>
		<path fill="#FFFFFF" d="M129.393,15.222v3.317h4.291v1.208h-4.291v9.783c0,1.915,0.594,3.112,2.212,3.112
			c0.777,0,1.323-0.1,1.71-0.236l0.182,1.155c-0.486,0.202-1.17,0.36-2.079,0.36c-1.097,0-2.008-0.346-2.596-1.068
			c-0.684-0.791-0.917-2.054-0.917-3.59v-9.517h-2.54v-1.208h2.54v-2.767L129.393,15.222z"/>
		<g>
			<path fill="#FFFFFF" d="M135.564,32.791h0.198l0.298,0.489h0.193l-0.322-0.502c0.166-0.018,0.294-0.105,0.294-0.308
				c0-0.226-0.134-0.324-0.401-0.324h-0.43v1.134h0.172v-0.489H135.564z M135.564,32.644v-0.351h0.232
				c0.118,0,0.247,0.025,0.247,0.165c0,0.175-0.129,0.186-0.275,0.186H135.564L135.564,32.644z"/>
			<path fill="#FFFFFF" d="M136.879,32.715c0,0.614-0.499,1.109-1.11,1.109s-1.11-0.495-1.11-1.109c0-0.611,0.499-1.109,1.11-1.109
				C136.381,31.605,136.879,32.104,136.879,32.715z M135.769,31.801c-0.505,0-0.914,0.411-0.914,0.914
				c0,0.502,0.409,0.909,0.914,0.909c0.503,0,0.911-0.407,0.911-0.909C136.68,32.212,136.271,31.801,135.769,31.801z"/>
		</g>
		<path d="M26.91,31.919c0.113,0.111,0.308,0.483,0.07,0.952c-0.134,0.249-0.277,0.423-0.534,0.631
			c-0.309,0.245-0.913,0.531-1.742,0.008c-0.444-0.283-0.471-0.379-1.085-0.298c-0.44,0.057-0.614-0.386-0.457-0.756
			c0.158-0.367,0.807-0.666,1.614-0.192c0.362,0.214,0.927,0.664,1.423,0.266c0.206-0.166,0.327-0.273,0.613-0.604
			c0.013-0.015,0.03-0.023,0.051-0.023C26.881,31.902,26.898,31.911,26.91,31.919z"/>
	</g>
	<path id="red" fill="#CC0000" d="M20.367,10.501c-2.536,0.183-2.799,0.457-3.274,0.962c-0.67,0.713-1.553-0.925-1.553-0.925
		c-0.529-0.111-1.171-0.965-0.825-1.763c0.34-0.788,0.97-0.552,1.169-0.306c0.24,0.299,0.753,0.787,1.419,0.771
		c0.665-0.018,1.434-0.158,2.504-0.158c1.085,0,1.815,0.405,1.855,0.753C21.698,10.134,21.576,10.413,20.367,10.501z M23.03,6.31
		c-0.003,0-0.007,0-0.012,0c-0.039,0-0.071-0.029-0.071-0.065c0-0.026,0.017-0.049,0.041-0.061c0.492-0.259,1.225-0.467,2.064-0.551
		c0.252-0.028,0.499-0.04,0.735-0.042c0.042,0,0.084,0,0.126,0c1.408,0.032,2.533,0.59,2.516,1.248
		c-0.017,0.659-1.169,1.167-2.577,1.135c-0.455-0.011-0.883-0.077-1.25-0.183c-0.044-0.011-0.075-0.049-0.075-0.091
		c0-0.044,0.031-0.083,0.075-0.094c0.879-0.203,1.472-0.535,1.43-0.849c-0.054-0.416-1.204-0.643-2.565-0.505
		C23.316,6.269,23.172,6.288,23.03,6.31z M34.464,16.16c-0.218,0.729-0.526,1.661-1.898,2.367c-0.2,0.102-0.277-0.065-0.184-0.223
		c0.518-0.882,0.611-1.104,0.761-1.449c0.211-0.511,0.321-1.233-0.098-2.744c-0.827-2.972-2.548-6.944-3.8-8.231
		c-1.208-1.244-3.397-1.594-5.376-1.086c-0.73,0.188-2.154,0.929-4.799,0.334c-4.576-1.031-5.254,1.261-5.516,2.258
		c-0.261,0.999-0.893,3.835-0.893,3.835c-0.21,1.156-0.485,3.165,6.62,4.52c3.31,0.628,3.478,1.484,3.623,2.1
		c0.264,1.104,0.683,1.734,1.157,2.049c0.473,0.317,0,0.579-0.524,0.63c-1.409,0.147-6.62-1.346-9.702-3.098
		c-2.522-1.541-2.564-2.929-1.987-4.105c-3.809-0.411-6.669,0.357-7.186,2.16c-0.892,3.095,6.803,8.381,15.563,11.034
		c9.195,2.785,18.651,0.842,19.703-4.937C40.404,18.943,38.192,17,34.464,16.16z"/>
</g>
</svg>
