<?xml version="1.0" encoding="utf-8"?>
<!-- Generator: Adobe Illustrator 16.0.0, SVG Export Plug-In . SVG Version: 6.00 Build 0)  -->
<!DOCTYPE svg PUBLIC "-//W3C//DTD SVG 1.1//EN" "http://www.w3.org/Graphics/SVG/1.1/DTD/svg11.dtd">
<svg version="1.1" id="Layer_1" xmlns="http://www.w3.org/2000/svg" xmlns:xlink="http://www.w3.org/1999/xlink" x="0px" y="0px"
	 width="1680px" height="1080px" viewBox="0 0 1680 1080" enable-background="new 0 0 1680 1080" xml:space="preserve">
<rect fill="#383D42" width="1680" height="1080"/>
<g>
	<defs>
		<filter id="Adobe_OpacityMaskFilter" filterUnits="userSpaceOnUse" x="1057" y="597" width="704" height="572">
			<feColorMatrix  type="matrix" values="1 0 0 0 0  0 1 0 0 0  0 0 1 0 0  0 0 0 1 0"/>
		</filter>
	</defs>
	<mask maskUnits="userSpaceOnUse" x="1057" y="597" width="704" height="572" id="SVGID_1_">
		<g filter="url(#Adobe_OpacityMaskFilter)">
			
				<linearGradient id="SVGID_2_" gradientUnits="userSpaceOnUse" x1="1302.4395" y1="-269.9951" x2="1622.4397" y2="22.0046" gradientTransform="matrix(-1 0 0 -1 3112 976.6914)">
				<stop  offset="0" style="stop-color:#000000"/>
				<stop  offset="1" style="stop-color:#FFFFFF"/>
			</linearGradient>
			<rect x="1035" y="573" fill="url(#SVGID_2_)" width="752" height="620"/>
		</g>
	</mask>
	<path mask="url(#SVGID_1_)" fill="#D8D8D8" d="M1761,597c-140,214-410,510-704,572h704V597z"/>
	<defs>
		
			<filter id="Adobe_OpacityMaskFilter_1_" filterUnits="userSpaceOnUse" x="1056.742" y="596.315" width="705.304" height="573.907">
			<feColorMatrix  type="matrix" values="1 0 0 0 0  0 1 0 0 0  0 0 1 0 0  0 0 0 1 0"/>
		</filter>
	</defs>
	<mask maskUnits="userSpaceOnUse" x="1056.742" y="596.315" width="705.304" height="573.907" id="SVGID_3_">
		<g filter="url(#Adobe_OpacityMaskFilter_1_)">
			
				<linearGradient id="SVGID_4_" gradientUnits="userSpaceOnUse" x1="1302.4395" y1="-269.9951" x2="1622.4397" y2="22.0046" gradientTransform="matrix(-1 0 0 -1 3112 976.6914)">
				<stop  offset="0" style="stop-color:#000000"/>
				<stop  offset="1" style="stop-color:#FFFFFF"/>
			</linearGradient>
			<rect x="1035" y="573" fill="url(#SVGID_4_)" width="752" height="620"/>
		</g>
	</mask>
	<path opacity="0.1" mask="url(#SVGID_3_)" fill="none" stroke="#D8D8D8" stroke-width="2.5" stroke-miterlimit="10" d="M1761,597
		c-140,214-410,510-704,572"/>
</g>
<defs>
	<filter id="Adobe_OpacityMaskFilter_2_" filterUnits="userSpaceOnUse" x="168.747" y="365.576" width="1798.615" height="822.631">
		<feColorMatrix  type="matrix" values="1 0 0 0 0  0 1 0 0 0  0 0 1 0 0  0 0 0 1 0"/>
	</filter>
</defs>
<mask maskUnits="userSpaceOnUse" x="168.747" y="365.576" width="1798.615" height="822.631" id="SVGID_5_">
	<g filter="url(#Adobe_OpacityMaskFilter_2_)">
		
			<linearGradient id="SVGID_6_" gradientUnits="userSpaceOnUse" x1="1476.5908" y1="477.5732" x2="2688.6016" y2="21.5689" gradientTransform="matrix(-0.9876 -0.1569 0.1569 -0.9876 3048.3154 1294.3018)">
			<stop  offset="0" style="stop-color:#000000"/>
			<stop  offset="1" style="stop-color:#FFFFFF"/>
		</linearGradient>
		<polygon fill="url(#SVGID_6_)" points="329.208,58.782 1976.554,320.459 1810.26,1367.334 162.914,1105.656 		"/>
	</g>
</mask>
<path mask="url(#SVGID_5_)" fill="#E0E0E0" d="M1967.361,365.576c-393.429,322.269-1126.777,782.925-1798.615,728.856
	c379.652,70.433,1428.387,135.769,1651.069,59.762L1967.361,365.576z"/>
<path fill="#D8D8D8" d="M-114.695,1221h1160.347c80.272-27.337,158.024-70.67,230.989-123.266
	C792.789,983.34-203.837,592.187-368.695,373L-114.695,1221z"/>
<defs>
	<filter id="Adobe_OpacityMaskFilter_3_" filterUnits="userSpaceOnUse" x="-395" y="514.337" width="1423.831" height="829.326">
		<feColorMatrix  type="matrix" values="1 0 0 0 0  0 1 0 0 0  0 0 1 0 0  0 0 0 1 0"/>
	</filter>
</defs>
<mask maskUnits="userSpaceOnUse" x="-395" y="514.337" width="1423.831" height="829.326" id="SVGID_7_">
	<g filter="url(#Adobe_OpacityMaskFilter_3_)">
		
			<linearGradient id="SVGID_8_" gradientUnits="userSpaceOnUse" x1="2111.374" y1="319.9775" x2="3115.3701" y2="81.9786" gradientTransform="matrix(-1.075 0.1117 -0.1167 -1.1224 3229.8789 866.1523)">
			<stop  offset="0" style="stop-color:#000000"/>
			<stop  offset="0.0972" style="stop-color:#060606"/>
			<stop  offset="0.2213" style="stop-color:#151515"/>
			<stop  offset="0.36" style="stop-color:#303030"/>
			<stop  offset="0.5093" style="stop-color:#545454"/>
			<stop  offset="0.6671" style="stop-color:#838383"/>
			<stop  offset="0.8323" style="stop-color:#BDBDBD"/>
			<stop  offset="1" style="stop-color:#FFFFFF"/>
		</linearGradient>
		<polygon fill="url(#SVGID_8_)" points="-543.126,587.599 1129.521,413.746 1223.549,1318.382 -449.1,1492.233 		"/>
	</g>
</mask>
<path mask="url(#SVGID_7_)" fill="#C6C6C5" d="M-395,1343.663c225.178-156.636,836.847-511.283,1423.831-382.832l-17.056-446.355
	C360.896,503.847-136.975,1108.097-395,1343.663z"/>
<path opacity="0.2" fill="none" stroke="#D8D8D8" stroke-width="5" stroke-miterlimit="10" d="M-368.695,373
	c164.858,219.187,1161.484,610.34,1645.336,724.734c154.24,39.423,293.768,67.189,413.359,86.745"/>
<path opacity="0.4" fill="none" stroke="#777D82" stroke-width="3" stroke-miterlimit="10" d="M-218.695,311
	c338,316,1048,836,1440,990"/>
<path opacity="0.1" fill="none" stroke="#C6C6C5" stroke-width="2" stroke-miterlimit="10" d="M1257.069,1089.063
	c124.494-56.997,382.481-291.736,437.979-414.73"/>
<defs>
	<filter id="Adobe_OpacityMaskFilter_4_" filterUnits="userSpaceOnUse" x="535.169" y="-135" width="1423.831" height="829.326">
		<feColorMatrix  type="matrix" values="1 0 0 0 0  0 1 0 0 0  0 0 1 0 0  0 0 0 1 0"/>
	</filter>
</defs>
<mask maskUnits="userSpaceOnUse" x="535.169" y="-135" width="1423.831" height="829.326" id="SVGID_9_">
	<g filter="url(#Adobe_OpacityMaskFilter_4_)">
		
			<linearGradient id="SVGID_10_" gradientUnits="userSpaceOnUse" x1="664.5693" y1="382.668" x2="1668.5647" y2="144.6692" gradientTransform="matrix(1.075 -0.1117 0.1167 1.1224 -117.8789 110.5386)">
			<stop  offset="0" style="stop-color:#000000"/>
			<stop  offset="1" style="stop-color:#FFFFFF"/>
		</linearGradient>
		<polygon fill="url(#SVGID_10_)" points="2107.126,621.064 434.478,794.917 340.452,-109.719 2013.1,-283.57 		"/>
	</g>
</mask>
<path mask="url(#SVGID_9_)" fill="#C6C6C5" d="M1959-135C1733.822,21.636,1122.153,376.284,535.169,247.832l17.055,446.356
	C1203.104,704.816,1700.975,100.567,1959-135z"/>
<path fill="#D8D8D8" d="M1743-27H582.653C502.38,0.337,424.629,43.67,351.665,96.265C835.516,210.66,1832.142,601.813,1997,821
	L1743-27z"/>
<defs>
	<filter id="Adobe_OpacityMaskFilter_5_" filterUnits="userSpaceOnUse" x="-49" y="-47" width="704" height="572">
		<feColorMatrix  type="matrix" values="1 0 0 0 0  0 1 0 0 0  0 0 1 0 0  0 0 0 1 0"/>
	</filter>
</defs>
<mask maskUnits="userSpaceOnUse" x="-49" y="-47" width="704" height="572" id="SVGID_11_">
	<g filter="url(#Adobe_OpacityMaskFilter_5_)">
		<linearGradient id="SVGID_12_" gradientUnits="userSpaceOnUse" x1="-97.5605" y1="-124.686" x2="222.4397" y2="167.3137">
			<stop  offset="0" style="stop-color:#000000"/>
			<stop  offset="1" style="stop-color:#FFFFFF"/>
		</linearGradient>
		<rect x="-75" y="-71" fill="url(#SVGID_12_)" width="752" height="620"/>
	</g>
</mask>
<path mask="url(#SVGID_11_)" fill="#D8D8D8" d="M-49,525C91,311,361,15,655-47H-49V525z"/>
<defs>
	<filter id="Adobe_OpacityMaskFilter_6_" filterUnits="userSpaceOnUse" x="-209" y="-147.691" width="1662" height="1002.691">
		<feColorMatrix  type="matrix" values="1 0 0 0 0  0 1 0 0 0  0 0 1 0 0  0 0 0 1 0"/>
	</filter>
</defs>
<mask maskUnits="userSpaceOnUse" x="-209" y="-147.691" width="1662" height="1002.691" id="SVGID_13_">
	<g filter="url(#Adobe_OpacityMaskFilter_6_)">
		<linearGradient id="SVGID_14_" gradientUnits="userSpaceOnUse" x1="54.2939" y1="584.9688" x2="1266.2927" y2="128.9689">
			<stop  offset="0" style="stop-color:#000000"/>
			<stop  offset="1" style="stop-color:#FFFFFF"/>
		</linearGradient>
		<rect x="-211" y="-159" fill="url(#SVGID_14_)" width="1668" height="1060"/>
	</g>
</mask>
<path mask="url(#SVGID_13_)" fill="#E0E0E0" d="M-209,855C129,475,781-95,1453-147C1067-157,21-57-187,53L-209,855z"/>
<path opacity="0.2" fill="none" stroke="#D8D8D8" stroke-width="5" stroke-miterlimit="10" d="M1997,821
	C1832.142,601.813,835.516,210.66,351.665,96.265C197.423,56.843,57.896,29.076-61.695,9.521"/>
<path opacity="0.4" fill="none" stroke="#777D82" stroke-width="3" stroke-miterlimit="10" d="M1847,883C1509,567,799,47,407-107"/>
<defs>
	<filter id="Adobe_OpacityMaskFilter_7_" filterUnits="userSpaceOnUse" x="-50.046" y="-48.223" width="705.304" height="573.907">
		<feColorMatrix  type="matrix" values="1 0 0 0 0  0 1 0 0 0  0 0 1 0 0  0 0 0 1 0"/>
	</filter>
</defs>
<mask maskUnits="userSpaceOnUse" x="-50.046" y="-48.223" width="705.304" height="573.907" id="SVGID_15_">
	<g filter="url(#Adobe_OpacityMaskFilter_7_)">
		<linearGradient id="SVGID_16_" gradientUnits="userSpaceOnUse" x1="-97.5605" y1="-124.686" x2="222.4397" y2="167.3137">
			<stop  offset="0" style="stop-color:#000000"/>
			<stop  offset="1" style="stop-color:#FFFFFF"/>
		</linearGradient>
		<rect x="-75" y="-71" fill="url(#SVGID_16_)" width="752" height="620"/>
	</g>
</mask>
<path opacity="0.1" mask="url(#SVGID_15_)" fill="none" stroke="#D8D8D8" stroke-width="2.5" stroke-miterlimit="10" d="M-49,525
	C91,311,361,15,655-47"/>
<circle fill="#D8D8D8" cx="1247.084" cy="399.5" r="2.5"/>
<circle fill="#D8D8D8" cx="436.333" cy="117.667" r="2"/>
<circle fill="#D8D8D8" cx="254.667" cy="173.667" r="2"/>
<circle fill="#D8D8D8" cx="375" cy="101.667" r="4"/>
<circle fill="#D8D8D8" cx="351.665" cy="96.265" r="5"/>
</svg>
