<?xml version="1.0" encoding="utf-8"?>
<!-- Generator: Adobe Illustrator 16.0.4, SVG Export Plug-In . SVG Version: 6.00 Build 0)  -->
<!DOCTYPE svg PUBLIC "-//W3C//DTD SVG 1.1//EN" "http://www.w3.org/Graphics/SVG/1.1/DTD/svg11.dtd">
<svg version="1.1" id="Layer_1" xmlns="http://www.w3.org/2000/svg" xmlns:xlink="http://www.w3.org/1999/xlink" x="0px" y="0px"
	 width="800px" height="60px" viewBox="0 0 800 60" enable-background="new 0 0 800 60" xml:space="preserve">
<g>
	<defs>
		<rect id="SVGID_1_" width="800" height="60"/>
	</defs>
	<clipPath id="SVGID_2_">
		<use xlink:href="#SVGID_1_"  overflow="visible"/>
	</clipPath>
	<g clip-path="url(#SVGID_2_)">
		<g>
			<polygon fill="#3E3E3E" points="569.667,60 540.167,60 600.146,0 629.646,0 			"/>
		</g>
		<g>
			<polygon fill="#2B2B2B" points="540.167,60 0,60 0,0 600.146,0 			"/>
		</g>
		<g>
			<g>
				<rect x="668.604" y="-39.785" fill="#3E3E3E" width="123.807" height="0.75"/>
			</g>
			<g>
				<rect x="730.132" y="-39.5" fill="#3E3E3E" width="0.75" height="61.993"/>
			</g>
			<g>
				<polygon fill="#3E3E3E" points="723.146,14.756 722.396,14.756 722.396,-31.299 676.344,-31.295 676.344,-32.045 
					723.146,-32.049 				"/>
			</g>
			<g>
				<polygon fill="#3E3E3E" points="714.657,7.017 714.655,-23.559 684.083,-23.557 684.083,-24.307 715.405,-24.309 715.407,7.017 
									"/>
			</g>
			<g>
				<polygon fill="#3E3E3E" points="707.667,-0.724 706.917,-0.724 706.921,-15.824 691.818,-15.82 691.818,-16.57 707.671,-16.574 
									"/>
			</g>
			<g>
				<polygon fill="#3E3E3E" points="737.871,14.753 737.867,-32.048 784.675,-32.049 784.675,-31.299 738.617,-31.298 
					738.621,14.753 				"/>
			</g>
			<g>
				<polygon fill="#3E3E3E" points="746.356,7.018 745.606,7.018 745.608,-24.308 776.937,-24.312 776.937,-23.562 746.358,-23.558 
									"/>
			</g>
			<g>
				<polygon fill="#3E3E3E" points="753.348,-0.724 753.347,-16.57 769.197,-16.572 769.197,-15.822 754.097,-15.82 754.098,-0.724 
									"/>
			</g>
			<g>
				<rect x="606.707" y="22.115" fill="#3E3E3E" width="123.8" height="0.75"/>
			</g>
			<g>
				
					<rect x="606.706" y="22.115" transform="matrix(4.728238e-05 1 -1 4.728238e-05 691.0651 -646.1172)" fill="#3E3E3E" width="123.801" height="0.75"/>
			</g>
			<g>
				<polygon fill="#3E3E3E" points="660.498,76.652 660.494,30.601 614.446,30.601 614.446,29.851 661.244,29.851 661.248,76.652 
									"/>
			</g>
			<g>
				<polygon fill="#3E3E3E" points="652.758,68.914 652.754,38.34 622.186,38.34 622.186,37.59 653.504,37.59 653.508,68.914 				
					"/>
			</g>
			<g>
				<polygon fill="#3E3E3E" points="645.769,61.176 645.019,61.176 645.02,46.077 629.921,46.074 629.921,45.324 645.77,45.327 				
					"/>
			</g>
			<g>
				<polygon fill="#3E3E3E" points="722.771,15.131 675.969,15.128 675.969,-31.67 676.719,-31.67 676.719,14.378 722.771,14.381 
									"/>
			</g>
			<g>
				<polygon fill="#3E3E3E" points="683.702,7.393 683.707,-23.933 684.457,-23.933 684.452,6.643 715.032,6.642 715.032,7.392 				
					"/>
			</g>
			<g>
				<polygon fill="#3E3E3E" points="691.443,-0.347 691.443,-16.195 692.193,-16.195 692.193,-1.097 707.292,-1.099 707.292,-0.349 
									"/>
			</g>
			<g>
				<polygon fill="#3E3E3E" points="675.972,76.652 675.971,29.85 722.771,29.854 722.771,30.604 676.721,30.6 676.722,76.652 				
					"/>
			</g>
			<g>
				<polygon fill="#3E3E3E" points="684.458,68.917 683.708,68.917 683.71,37.59 715.032,37.593 715.032,38.343 684.46,38.34 				
					"/>
			</g>
			<g>
				<polygon fill="#3E3E3E" points="692.195,61.179 691.445,61.179 691.447,45.327 707.295,45.33 707.295,46.08 692.197,46.077 				
					"/>
			</g>
			<g>
				<polygon fill="#3E3E3E" points="661.245,15.126 614.444,15.126 614.444,14.376 660.495,14.376 660.491,-31.671 661.241,-31.671 
									"/>
			</g>
			<g>
				<polygon fill="#3E3E3E" points="653.509,7.389 622.181,7.389 622.181,6.639 652.759,6.639 652.754,-23.933 653.504,-23.933 				
					"/>
			</g>
			<g>
				<polygon fill="#3E3E3E" points="645.77,-0.349 629.918,-0.349 629.918,-1.099 645.02,-1.099 645.016,-16.195 645.766,-16.195 
									"/>
			</g>
			<g>
				<rect x="544.986" y="83.833" fill="#3E3E3E" width="123.804" height="0.75"/>
			</g>
			<g>
				<rect x="606.514" y="22.308" fill="#3E3E3E" width="0.75" height="62.192"/>
			</g>
			<g>
				<polygon fill="#3E3E3E" points="661.053,76.848 614.249,76.848 614.25,30.047 615,30.047 614.999,76.098 661.053,76.098 				"/>
			</g>
			<g>
				<polygon fill="#3E3E3E" points="621.985,69.109 621.988,37.784 622.738,37.784 622.735,68.359 653.314,68.358 653.314,69.108 
									"/>
			</g>
			<g>
				<polygon fill="#3E3E3E" points="629.725,61.373 629.727,45.521 630.477,45.521 630.475,60.623 645.575,60.619 645.575,61.369 
									"/>
			</g>
			<g>
				<polygon fill="#3E3E3E" points="599.525,76.846 552.725,76.846 552.725,76.096 598.775,76.096 598.771,30.048 599.521,30.048 
									"/>
			</g>
			<g>
				<polygon fill="#3E3E3E" points="591.787,69.11 560.464,69.107 560.464,68.357 591.037,68.36 591.037,37.783 591.787,37.783 				
					"/>
			</g>
			<g>
				<polygon fill="#3E3E3E" points="584.049,61.37 568.198,61.37 568.198,60.62 583.299,60.62 583.299,45.522 584.049,45.522 				
					"/>
			</g>
		</g>
	</g>
</g>
</svg>
