<?xml version="1.0" encoding="utf-8"?>
<!-- Generator: Adobe Illustrator 16.0.4, SVG Export Plug-In . SVG Version: 6.00 Build 0)  -->
<!DOCTYPE svg PUBLIC "-//W3C//DTD SVG 1.1//EN" "http://www.w3.org/Graphics/SVG/1.1/DTD/svg11.dtd">
<svg version="1.1" id="Layer_1" xmlns="http://www.w3.org/2000/svg" xmlns:xlink="http://www.w3.org/1999/xlink" x="0px" y="0px"
	 width="285px" height="12px" viewBox="38 98 285 12" enable-background="new 38 98 285 12" xml:space="preserve">
<g>
	<path fill="#FFFFFF" d="M43.596,109.766l-1.671-3.453h-1.143v3.453H38V99.521h4.581c0.592,0,1.139,0.063,1.63,0.184
		c0.493,0.122,0.915,0.315,1.266,0.578c0.352,0.264,0.622,0.607,0.814,1.031c0.188,0.427,0.282,0.938,0.282,1.545
		c0,0.771-0.165,1.398-0.499,1.889c-0.332,0.486-0.782,0.855-1.35,1.111l2.053,3.906H43.596z M43.464,102.142
		c-0.191-0.204-0.514-0.308-0.964-0.308h-1.718v2.24h1.677c0.471,0,0.803-0.096,0.999-0.293c0.197-0.195,0.296-0.479,0.296-0.848
		C43.752,102.611,43.656,102.348,43.464,102.142z"/>
	<path fill="#FFFFFF" d="M48.477,109.766V99.521h7.843v2.387h-5.032v1.376h3.029v2.343h-3.029v1.756h5.134v2.383H48.477
		L48.477,109.766z"/>
	<path fill="#FFFFFF" d="M66.736,107.021c-0.232,0.662-0.582,1.189-1.051,1.596c-0.47,0.406-1.046,0.695-1.735,0.877
		c-0.687,0.178-1.485,0.271-2.392,0.271h-3.321V99.521h3.584c0.799,0,1.528,0.082,2.18,0.251c0.651,0.165,1.207,0.446,1.661,0.841
		c0.453,0.394,0.805,0.914,1.054,1.558c0.248,0.646,0.373,1.449,0.373,2.415C67.088,105.549,66.971,106.363,66.736,107.021z
		 M64.052,103.418c-0.084-0.344-0.218-0.62-0.401-0.836c-0.187-0.215-0.432-0.373-0.732-0.476c-0.303-0.104-0.673-0.154-1.111-0.154
		h-0.705v5.386h0.615c0.439,0,0.815-0.047,1.128-0.139c0.311-0.09,0.567-0.246,0.767-0.453c0.202-0.209,0.344-0.484,0.432-0.834
		c0.088-0.346,0.132-0.775,0.132-1.281C64.177,104.162,64.135,103.756,64.052,103.418z"/>
	<path fill="#FFFFFF" d="M79.714,109.766v-4.037h-3.189v4.037h-2.897V99.521h2.897v3.733h3.189v-3.733h2.896v10.244H79.714z"/>
	<path fill="#FFFFFF" d="M91.304,109.766l-0.556-1.801h-3.072l-0.557,1.801h-3.043l3.716-10.244h2.869l3.715,10.244H91.304z
		 M89.871,105.037c-0.088-0.332-0.167-0.617-0.234-0.863c-0.069-0.242-0.129-0.463-0.184-0.658c-0.053-0.195-0.1-0.373-0.137-0.533
		c-0.039-0.16-0.074-0.33-0.104-0.506c-0.028,0.176-0.064,0.348-0.103,0.512c-0.038,0.166-0.084,0.348-0.137,0.543
		c-0.054,0.193-0.116,0.412-0.183,0.657c-0.068,0.245-0.146,0.526-0.233,0.848l-0.19,0.675h1.695L89.871,105.037z"/>
	<path fill="#FFFFFF" d="M99.732,101.996v7.77h-2.838v-7.77h-2.868v-2.475h8.574v2.475H99.732z"/>
	<path fill="#FFFFFF" d="M108.968,100.684c-0.097,0.232-0.23,0.438-0.406,0.609c-0.173,0.174-0.374,0.307-0.609,0.404
		c-0.234,0.098-0.487,0.147-0.76,0.147c-0.273,0-0.528-0.049-0.763-0.147c-0.234-0.098-0.437-0.23-0.607-0.405
		c-0.173-0.174-0.308-0.376-0.404-0.609c-0.097-0.233-0.147-0.487-0.147-0.761c0-0.271,0.05-0.527,0.147-0.76
		c0.095-0.232,0.229-0.438,0.404-0.609c0.173-0.172,0.375-0.307,0.609-0.404c0.235-0.099,0.488-0.148,0.762-0.148
		c0.273,0,0.526,0.049,0.761,0.148c0.234,0.096,0.437,0.231,0.609,0.404c0.173,0.172,0.307,0.377,0.405,0.609
		c0.097,0.232,0.146,0.488,0.146,0.762S109.065,100.448,108.968,100.684z M108.604,99.293c-0.078-0.192-0.184-0.354-0.318-0.488
		c-0.135-0.135-0.297-0.239-0.485-0.315c-0.188-0.073-0.388-0.11-0.607-0.11c-0.221,0-0.424,0.037-0.61,0.11
		c-0.187,0.075-0.347,0.179-0.48,0.315c-0.135,0.137-0.241,0.296-0.319,0.488c-0.077,0.188-0.117,0.397-0.117,0.629
		c0,0.23,0.04,0.441,0.117,0.629c0.077,0.191,0.183,0.354,0.319,0.488c0.133,0.134,0.295,0.238,0.48,0.314
		c0.186,0.074,0.389,0.113,0.61,0.113c0.219,0,0.419-0.039,0.607-0.113c0.188-0.073,0.35-0.179,0.485-0.314
		c0.132-0.135,0.239-0.297,0.318-0.488c0.076-0.188,0.116-0.398,0.116-0.629S108.682,99.481,108.604,99.293z M107.534,100.918
		l-0.339-0.703h-0.233v0.703h-0.57V98.83h0.936c0.244,0,0.439,0.053,0.589,0.154c0.15,0.104,0.225,0.279,0.225,0.527
		c0,0.16-0.035,0.287-0.105,0.387c-0.069,0.098-0.159,0.174-0.272,0.227l0.414,0.792L107.534,100.918L107.534,100.918z
		 M107.508,99.365c-0.041-0.041-0.106-0.061-0.198-0.061h-0.35v0.453h0.34c0.095,0,0.164-0.02,0.204-0.059
		c0.041-0.038,0.061-0.096,0.061-0.172C107.564,99.463,107.547,99.41,107.508,99.365z"/>
	<path fill="#FFFFFF" d="M121.415,102.508c-0.183-0.35-0.425-0.624-0.723-0.817c-0.297-0.195-0.681-0.294-1.149-0.294
		c-0.378,0-0.724,0.081-1.024,0.241c-0.303,0.161-0.555,0.387-0.761,0.675c-0.203,0.285-0.361,0.629-0.469,1.024
		c-0.107,0.394-0.16,0.829-0.16,1.31c0,0.459,0.054,0.885,0.16,1.281c0.107,0.393,0.267,0.736,0.477,1.031
		c0.208,0.291,0.466,0.52,0.767,0.684c0.302,0.166,0.646,0.252,1.025,0.252c0.468,0,0.85-0.104,1.148-0.311
		c0.296-0.205,0.582-0.531,0.857-0.996l1.726,1.027c-0.351,0.732-0.837,1.299-1.455,1.705c-0.62,0.406-1.398,0.609-2.335,0.609
		c-0.673,0-1.282-0.125-1.827-0.375c-0.546-0.25-1.02-0.602-1.413-1.062c-0.395-0.457-0.701-1.014-0.914-1.658
		c-0.215-0.654-0.322-1.381-0.322-2.189c0-0.777,0.111-1.494,0.334-2.143c0.228-0.648,0.537-1.205,0.938-1.668
		c0.399-0.464,0.876-0.826,1.433-1.084c0.555-0.258,1.171-0.387,1.841-0.387c0.479,0,0.914,0.057,1.305,0.169
		c0.388,0.112,0.737,0.27,1.045,0.47c0.306,0.199,0.575,0.438,0.805,0.717c0.228,0.277,0.427,0.584,0.591,0.916L121.415,102.508z"/>
	<path fill="#FFFFFF" d="M133.145,106.855c-0.221,0.65-0.529,1.207-0.93,1.658c-0.4,0.455-0.877,0.803-1.434,1.045
		c-0.557,0.246-1.165,0.371-1.83,0.371c-0.673,0-1.286-0.123-1.837-0.363c-0.552-0.234-1.024-0.58-1.418-1.037
		c-0.396-0.455-0.703-1.006-0.923-1.65c-0.22-0.652-0.328-1.393-0.328-2.222c0-0.827,0.109-1.571,0.328-2.227
		c0.22-0.65,0.528-1.204,0.929-1.659c0.4-0.453,0.877-0.803,1.433-1.045c0.556-0.245,1.171-0.367,1.842-0.367
		c0.665,0,1.271,0.121,1.821,0.357c0.551,0.239,1.023,0.585,1.421,1.041c0.394,0.453,0.703,1.004,0.923,1.651
		c0.22,0.651,0.33,1.39,0.33,2.217C133.473,105.459,133.362,106.201,133.145,106.855z M130.693,102.246
		c-0.448-0.567-1.034-0.85-1.754-0.85c-0.724,0-1.3,0.276-1.736,0.834c-0.431,0.557-0.65,1.357-0.65,2.398
		c0,1.043,0.225,1.85,0.672,2.416c0.451,0.568,1.035,0.846,1.756,0.846c0.722,0,1.301-0.273,1.734-0.834
		c0.433-0.553,0.651-1.354,0.651-2.396C131.365,103.618,131.141,102.811,130.693,102.246z"/>
	<path fill="#FFFFFF" d="M143.07,109.766v-3.76c0-0.137,0.002-0.314,0.008-0.527c0.004-0.213,0.008-0.432,0.008-0.658
		s0-0.434,0.006-0.627c0.004-0.195,0.008-0.341,0.008-0.439c-0.078,0.195-0.182,0.455-0.316,0.775
		c-0.132,0.322-0.268,0.629-0.404,0.924L140.295,110l-2.07-4.551c-0.137-0.293-0.271-0.601-0.402-0.924
		c-0.131-0.321-0.234-0.58-0.313-0.776c0,0.097,0.001,0.244,0.007,0.438c0.005,0.195,0.008,0.406,0.008,0.629
		c0,0.224,0.002,0.443,0.006,0.656c0.006,0.217,0.008,0.391,0.008,0.527v3.762h-2.003v-10.24h1.976l2.131,4.637
		c0.068,0.148,0.135,0.3,0.203,0.464c0.068,0.159,0.134,0.319,0.197,0.477c0.063,0.155,0.122,0.3,0.176,0.437
		c0.052,0.137,0.095,0.248,0.124,0.336c0.069-0.193,0.167-0.457,0.294-0.781c0.127-0.327,0.261-0.637,0.396-0.93l2.068-4.637h2.006
		v10.242H143.07L143.07,109.766z"/>
	<path fill="#FFFFFF" d="M155.289,109.766v-3.76c0-0.137,0.002-0.314,0.008-0.527c0.003-0.213,0.006-0.432,0.006-0.658
		s0.002-0.434,0.009-0.627c0.005-0.197,0.006-0.342,0.006-0.441c-0.077,0.195-0.182,0.454-0.315,0.775
		c-0.131,0.322-0.268,0.629-0.405,0.924L152.515,110l-2.071-4.549c-0.137-0.291-0.271-0.602-0.401-0.924
		c-0.131-0.322-0.236-0.58-0.315-0.775c0,0.098,0.002,0.244,0.01,0.441c0.005,0.193,0.006,0.403,0.006,0.627
		s0.002,0.443,0.008,0.656c0.005,0.217,0.01,0.391,0.01,0.529v3.758h-2.008V99.521h1.975l2.133,4.637
		c0.069,0.148,0.136,0.3,0.205,0.464c0.068,0.159,0.133,0.319,0.197,0.477c0.062,0.155,0.121,0.3,0.174,0.437
		c0.056,0.137,0.096,0.248,0.126,0.336c0.067-0.193,0.165-0.457,0.293-0.781c0.127-0.327,0.259-0.637,0.396-0.93l2.068-4.637h2.004
		v10.242H155.289L155.289,109.766z"/>
	<path fill="#FFFFFF" d="M168.098,106.855c-0.219,0.65-0.529,1.207-0.928,1.658c-0.401,0.455-0.879,0.803-1.434,1.045
		c-0.557,0.246-1.168,0.371-1.83,0.371c-0.675,0-1.286-0.123-1.837-0.363c-0.551-0.234-1.024-0.58-1.418-1.037
		c-0.397-0.455-0.702-1.006-0.924-1.65c-0.22-0.652-0.328-1.391-0.328-2.222c0-0.827,0.109-1.571,0.328-2.227
		c0.222-0.65,0.528-1.204,0.931-1.659c0.397-0.453,0.877-0.803,1.431-1.045c0.557-0.245,1.173-0.367,1.845-0.367
		c0.662,0,1.271,0.121,1.82,0.357c0.551,0.239,1.023,0.585,1.422,1.041c0.393,0.453,0.7,1.004,0.92,1.651
		c0.221,0.649,0.328,1.388,0.328,2.216C168.427,105.459,168.319,106.201,168.098,106.855z M165.646,102.246
		c-0.447-0.567-1.033-0.85-1.756-0.85s-1.297,0.276-1.732,0.834c-0.434,0.557-0.652,1.357-0.652,2.398
		c0,1.043,0.226,1.85,0.675,2.416c0.448,0.568,1.033,0.846,1.755,0.846s1.299-0.273,1.733-0.834c0.432-0.553,0.65-1.354,0.65-2.396
		C166.319,103.618,166.096,102.811,165.646,102.246z"/>
	<path fill="#FFFFFF" d="M176.972,109.766l-3.76-5.589c-0.126-0.195-0.264-0.403-0.402-0.622c-0.143-0.219-0.248-0.396-0.314-0.533
		c0,0.098,0.002,0.24,0.007,0.432c0.004,0.189,0.009,0.398,0.009,0.622c0,0.216,0.002,0.431,0.007,0.644
		c0.006,0.214,0.007,0.395,0.007,0.541v4.506h-2.033V99.521h1.979l3.617,5.414c0.124,0.195,0.259,0.4,0.401,0.623
		c0.139,0.223,0.242,0.396,0.313,0.533c0-0.1-0.003-0.242-0.009-0.432s-0.009-0.391-0.009-0.607c0-0.226-0.003-0.443-0.007-0.659
		c-0.007-0.216-0.008-0.396-0.008-0.542v-4.331h2.03v10.243h-1.828V109.766z"/>
	<path fill="#FFFFFF" d="M192.776,108.705c-0.729,0.812-1.748,1.225-3.051,1.225c-0.616,0-1.179-0.107-1.686-0.309
		c-0.515-0.207-0.947-0.504-1.309-0.902c-0.361-0.395-0.64-0.877-0.84-1.453c-0.201-0.574-0.3-1.238-0.3-1.99v-5.754h2.032v5.721
		c0,0.828,0.186,1.482,0.557,1.961c0.375,0.477,0.886,0.719,1.545,0.719c0.655,0,1.172-0.234,1.547-0.703
		c0.377-0.469,0.564-1.113,0.564-1.945v-5.752h2.033v5.721C193.873,106.732,193.506,107.891,192.776,108.705z"/>
	<path fill="#FFFFFF" d="M203.722,107.998c-0.159,0.398-0.403,0.742-0.733,1.029c-0.332,0.285-0.748,0.508-1.253,0.664
		c-0.5,0.156-1.103,0.234-1.806,0.234c-0.857,0-1.64-0.17-2.341-0.498c-0.702-0.332-1.249-0.787-1.64-1.363l1.479-1.314
		c0.363,0.418,0.765,0.717,1.209,0.898c0.442,0.18,0.915,0.27,1.412,0.27c0.618,0,1.066-0.088,1.353-0.264
		c0.288-0.176,0.432-0.461,0.432-0.85c0-0.164-0.027-0.309-0.086-0.43c-0.06-0.121-0.17-0.236-0.33-0.344
		c-0.158-0.105-0.391-0.209-0.691-0.305c-0.304-0.098-0.696-0.203-1.174-0.309c-0.471-0.109-0.898-0.234-1.293-0.381
		c-0.398-0.146-0.735-0.332-1.021-0.557c-0.282-0.225-0.5-0.506-0.658-0.848c-0.154-0.342-0.232-0.766-0.232-1.273
		c0-0.469,0.094-0.886,0.289-1.258c0.188-0.372,0.451-0.685,0.779-0.941c0.329-0.262,0.721-0.457,1.16-0.594
		c0.447-0.137,0.926-0.205,1.432-0.205c0.798,0,1.5,0.143,2.099,0.426c0.601,0.284,1.146,0.684,1.633,1.194l-1.479,1.437
		c-0.331-0.342-0.684-0.603-1.06-0.783c-0.375-0.18-0.8-0.271-1.267-0.271c-0.274,0-0.503,0.027-0.687,0.08
		c-0.185,0.055-0.336,0.125-0.453,0.212c-0.121,0.089-0.2,0.186-0.25,0.292c-0.048,0.107-0.074,0.222-0.074,0.336
		c0,0.165,0.032,0.305,0.098,0.418c0.062,0.111,0.169,0.211,0.326,0.299c0.158,0.088,0.368,0.17,0.628,0.248
		c0.265,0.076,0.6,0.165,1.011,0.264c0.407,0.097,0.815,0.213,1.222,0.343c0.404,0.132,0.772,0.314,1.098,0.546
		c0.325,0.233,0.59,0.531,0.794,0.889c0.209,0.363,0.311,0.822,0.311,1.377C203.951,107.156,203.877,107.598,203.722,107.998z"/>
	<path fill="#FFFFFF" d="M206.119,109.766V99.521h7.094v2.005h-5.062v1.755h2.94v2.004h-2.94v2.477h5.284v2.004H206.119z"/>
	<path fill="#FFFFFF" d="M221.565,109.766l-1.835-3.688h-2.067v3.688h-2.032V99.521h4.769c0.479,0,0.935,0.066,1.363,0.198
		c0.428,0.13,0.804,0.334,1.126,0.606c0.322,0.273,0.578,0.613,0.763,1.019s0.275,0.88,0.275,1.428c0,0.771-0.161,1.401-0.488,1.894
		c-0.325,0.49-0.817,0.863-1.47,1.117l1.958,3.982H221.565L221.565,109.766z M221.429,101.825c-0.261-0.199-0.62-0.299-1.079-0.299
		h-2.685v2.62h2.685c0.977,0,1.472-0.441,1.472-1.324C221.818,102.355,221.688,102.023,221.429,101.825z"/>
	<path fill="#FFFFFF" d="M230.32,109.766V99.521h7.096v2.005h-5.062v1.755h2.938v2.004h-2.938v2.477h5.28v2.004H230.32z"/>
	<path fill="#FFFFFF" d="M245.681,109.766l-0.921-1.549c-0.088-0.158-0.188-0.328-0.301-0.523c-0.111-0.191-0.22-0.379-0.324-0.568
		c-0.1-0.191-0.195-0.369-0.283-0.525c-0.088-0.162-0.156-0.291-0.203-0.389c-0.049,0.098-0.116,0.227-0.199,0.389
		c-0.081,0.158-0.175,0.332-0.278,0.516c-0.104,0.188-0.208,0.377-0.319,0.572c-0.115,0.199-0.221,0.375-0.316,0.529l-0.925,1.549
		h-2.442l3.25-5.238l-3.104-5.002h2.445l0.776,1.316c0.085,0.157,0.187,0.33,0.295,0.521c0.115,0.19,0.224,0.379,0.326,0.569
		c0.104,0.19,0.198,0.366,0.286,0.527c0.087,0.162,0.157,0.291,0.206,0.387c0.047-0.096,0.117-0.227,0.203-0.387
		c0.088-0.16,0.184-0.334,0.283-0.52c0.104-0.185,0.207-0.373,0.315-0.564c0.11-0.188,0.212-0.367,0.31-0.531l0.775-1.316h2.442
		l-3.116,5l3.265,5.238H245.681L245.681,109.766z"/>
	<path fill="#FFFFFF" d="M257.825,104.3c-0.188,0.426-0.444,0.776-0.774,1.048c-0.335,0.271-0.728,0.473-1.183,0.6
		c-0.456,0.123-0.946,0.189-1.476,0.189h-2.257v3.629h-2.033V99.521h4.477c0.479,0,0.933,0.066,1.36,0.198
		c0.432,0.13,0.807,0.334,1.129,0.606c0.323,0.273,0.576,0.613,0.761,1.019c0.186,0.404,0.277,0.88,0.277,1.428
		C258.103,103.367,258.012,103.877,257.825,104.3z M255.595,101.841c-0.271-0.209-0.636-0.313-1.097-0.313h-2.362v2.605h2.393
		c0.976,0,1.468-0.439,1.468-1.317C255.996,102.371,255.861,102.046,255.595,101.841z"/>
	<path fill="#FFFFFF" d="M260.051,109.766V99.521h7.095v2.005h-5.063v1.755h2.94v2.004h-2.94v2.477h5.282v2.004H260.051z"/>
	<path fill="#FFFFFF" d="M275.497,109.766l-1.836-3.688h-2.069v3.688h-2.032V99.521h4.773c0.476,0,0.931,0.066,1.362,0.198
		c0.425,0.13,0.805,0.334,1.127,0.606c0.322,0.273,0.575,0.613,0.762,1.019c0.182,0.405,0.275,0.88,0.275,1.428
		c0,0.771-0.164,1.401-0.49,1.894c-0.325,0.49-0.817,0.863-1.469,1.117l1.959,3.982H275.497L275.497,109.766z M275.359,101.825
		c-0.261-0.199-0.617-0.299-1.075-0.299h-2.688v2.62h2.688c0.977,0,1.466-0.441,1.466-1.324
		C275.748,102.355,275.62,102.023,275.359,101.825z"/>
	<path fill="#FFFFFF" d="M280.154,109.766V99.521h2.033v10.244H280.154z"/>
	<path fill="#FFFFFF" d="M284.98,109.766V99.521h7.097v2.005h-5.062v1.755h2.939v2.004h-2.939v2.477h5.282v2.004H284.98z"/>
	<path fill="#FFFFFF" d="M300.974,109.766l-3.758-5.589c-0.124-0.195-0.262-0.403-0.402-0.622c-0.143-0.219-0.249-0.396-0.315-0.533
		c0,0.098,0.005,0.24,0.009,0.432c0.003,0.191,0.009,0.398,0.009,0.622c0,0.216,0.002,0.431,0.005,0.644
		c0.006,0.214,0.008,0.395,0.008,0.541v4.506H294.5V99.521h1.974l3.616,5.414c0.127,0.195,0.262,0.4,0.402,0.623
		c0.142,0.223,0.244,0.396,0.312,0.533c0-0.1-0.002-0.242-0.008-0.432c-0.005-0.189-0.01-0.391-0.01-0.607
		c0-0.226-0.002-0.443-0.008-0.659c-0.004-0.214-0.006-0.395-0.006-0.542v-4.331h2.031v10.243h-1.831V109.766z"/>
	<path fill="#FFFFFF" d="M311.274,102.508c-0.185-0.35-0.428-0.624-0.723-0.817c-0.298-0.195-0.681-0.294-1.146-0.294
		c-0.384,0-0.727,0.081-1.027,0.241c-0.302,0.161-0.557,0.387-0.757,0.675c-0.209,0.285-0.371,0.629-0.478,1.024
		c-0.106,0.394-0.158,0.829-0.158,1.31c0,0.459,0.052,0.885,0.158,1.281c0.106,0.393,0.269,0.736,0.479,1.031
		c0.209,0.291,0.465,0.52,0.769,0.684c0.299,0.166,0.643,0.252,1.025,0.252c0.469,0,0.85-0.104,1.144-0.311
		c0.299-0.205,0.583-0.531,0.86-0.996l1.727,1.027c-0.352,0.732-0.834,1.299-1.456,1.705c-0.621,0.406-1.396,0.609-2.333,0.609
		c-0.674,0-1.285-0.125-1.829-0.375s-1.019-0.602-1.412-1.062c-0.393-0.457-0.698-1.014-0.914-1.658
		c-0.216-0.654-0.322-1.381-0.322-2.189c0-0.777,0.112-1.494,0.335-2.143c0.227-0.648,0.532-1.205,0.932-1.668
		c0.399-0.464,0.879-0.826,1.434-1.084c0.559-0.258,1.172-0.387,1.845-0.387c0.478,0,0.914,0.057,1.304,0.169
		c0.388,0.112,0.737,0.27,1.044,0.47c0.309,0.199,0.575,0.438,0.804,0.717c0.229,0.277,0.429,0.584,0.594,0.916L311.274,102.508z"/>
	<path fill="#FFFFFF" d="M315.227,109.766V99.521h7.094v2.005h-5.062v1.755h2.941v2.004h-2.941v2.477h5.281v2.004H315.227z"/>
</g>
</svg>
