<?xml version="1.0" encoding="utf-8"?>
<!-- Generator: Adobe Illustrator 16.0.4, SVG Export Plug-In . SVG Version: 6.00 Build 0)  -->
<!DOCTYPE svg PUBLIC "-//W3C//DTD SVG 1.1//EN" "http://www.w3.org/Graphics/SVG/1.1/DTD/svg11.dtd">
<svg version="1.1" id="Layer_1" xmlns="http://www.w3.org/2000/svg" xmlns:xlink="http://www.w3.org/1999/xlink" x="0px" y="0px"
	 width="237px" height="10px" viewBox="0 0 237 10" enable-background="new 0 0 237 10" xml:space="preserve">
<g>
	<path fill="#FFFFFF" d="M4.653,9.793l-1.39-2.871H2.312v2.871H0V1.276h3.808c0.494,0,0.947,0.051,1.356,0.152
		c0.41,0.102,0.761,0.262,1.053,0.48c0.292,0.22,0.518,0.505,0.676,0.857C7.05,3.12,7.129,3.545,7.129,4.05
		c0,0.641-0.138,1.163-0.414,1.569C6.438,6.025,6.064,6.332,5.592,6.543l1.707,3.25H4.653z M4.543,3.454
		c-0.159-0.17-0.428-0.256-0.801-0.256h-1.43V5.06h1.394c0.392,0,0.668-0.08,0.831-0.243C4.7,4.655,4.782,4.419,4.782,4.111
		C4.782,3.844,4.702,3.625,4.543,3.454z"/>
	<path fill="#FFFFFF" d="M8.71,9.793V1.276h6.521V3.26h-4.184v1.144h2.518v1.947h-2.518v1.46h4.269v1.982H8.71z"/>
	<path fill="#FFFFFF" d="M23.891,7.512C23.698,8.06,23.407,8.5,23.017,8.838c-0.391,0.337-0.87,0.578-1.443,0.729
		c-0.57,0.149-1.234,0.226-1.988,0.226h-2.761V1.276h2.979c0.665,0,1.271,0.068,1.812,0.207c0.542,0.138,1.004,0.371,1.381,0.699
		s0.669,0.76,0.876,1.295c0.206,0.536,0.31,1.205,0.31,2.008C24.184,6.287,24.086,6.963,23.891,7.512z M21.66,4.514
		c-0.07-0.285-0.182-0.515-0.334-0.694c-0.155-0.179-0.358-0.31-0.608-0.396c-0.252-0.085-0.56-0.128-0.924-0.128h-0.586v4.478
		h0.512c0.365,0,0.678-0.039,0.937-0.115c0.259-0.076,0.472-0.203,0.638-0.378c0.167-0.174,0.286-0.403,0.359-0.692
		c0.073-0.287,0.109-0.644,0.109-1.065C21.763,5.133,21.729,4.796,21.66,4.514z"/>
	<path fill="#FFFFFF" d="M34.681,9.793V6.436H32.03v3.357h-2.409V1.276h2.409v3.103h2.651V1.276h2.409v8.517H34.681z"/>
	<path fill="#FFFFFF" d="M44.316,9.793l-0.462-1.498H41.3l-0.463,1.498h-2.53l3.09-8.517h2.385l3.089,8.517H44.316z M43.125,5.862
		c-0.073-0.276-0.139-0.515-0.195-0.719c-0.057-0.201-0.107-0.385-0.152-0.547c-0.045-0.162-0.083-0.31-0.115-0.443
		c-0.032-0.133-0.061-0.274-0.086-0.42c-0.023,0.146-0.052,0.288-0.085,0.425c-0.032,0.138-0.07,0.289-0.114,0.451
		c-0.045,0.161-0.096,0.344-0.153,0.547c-0.056,0.203-0.121,0.438-0.194,0.705l-0.158,0.561h1.41L43.125,5.862z"/>
	<path fill="#FFFFFF" d="M51.324,3.333v6.459h-2.36V3.333h-2.385V1.276h7.129v2.057H51.324z"/>
	<path fill="#FFFFFF" d="M59.002,2.241c-0.081,0.194-0.192,0.363-0.337,0.506c-0.144,0.144-0.311,0.255-0.506,0.337
		c-0.195,0.081-0.405,0.122-0.632,0.122c-0.227,0-0.438-0.041-0.633-0.122s-0.364-0.192-0.507-0.337
		c-0.143-0.144-0.255-0.312-0.335-0.506c-0.082-0.194-0.123-0.405-0.123-0.632s0.041-0.439,0.123-0.633
		c0.079-0.194,0.191-0.363,0.335-0.506c0.144-0.143,0.312-0.255,0.507-0.336c0.195-0.082,0.406-0.123,0.633-0.123
		c0.227,0,0.438,0.041,0.632,0.123c0.194,0.08,0.363,0.192,0.506,0.336c0.144,0.143,0.255,0.312,0.337,0.506
		c0.081,0.193,0.122,0.406,0.122,0.633C59.124,1.836,59.083,2.046,59.002,2.241z M58.7,1.084c-0.065-0.159-0.153-0.293-0.265-0.405
		c-0.112-0.112-0.247-0.199-0.403-0.262c-0.156-0.062-0.323-0.093-0.504-0.093c-0.184,0-0.352,0.031-0.507,0.093
		c-0.156,0.062-0.289,0.148-0.4,0.262c-0.112,0.112-0.2,0.246-0.266,0.405c-0.064,0.157-0.097,0.331-0.097,0.524
		c0,0.191,0.032,0.366,0.097,0.523c0.065,0.159,0.153,0.293,0.266,0.405c0.111,0.111,0.245,0.199,0.4,0.262
		c0.155,0.062,0.323,0.093,0.507,0.093c0.181,0,0.348-0.031,0.504-0.093c0.157-0.062,0.291-0.149,0.403-0.262
		c0.111-0.112,0.199-0.246,0.265-0.405c0.064-0.157,0.097-0.332,0.097-0.523C58.796,1.416,58.764,1.242,58.7,1.084z M57.81,2.437
		l-0.282-0.584h-0.194v0.584H56.86V0.701h0.778c0.203,0,0.366,0.044,0.49,0.129c0.125,0.086,0.187,0.232,0.187,0.438
		c0,0.133-0.029,0.239-0.087,0.321c-0.057,0.081-0.132,0.144-0.227,0.188l0.344,0.659L57.81,2.437L57.81,2.437z M57.788,1.146
		c-0.033-0.034-0.088-0.051-0.164-0.051h-0.291v0.376h0.283c0.079,0,0.136-0.016,0.169-0.048c0.035-0.033,0.051-0.08,0.051-0.143
		C57.836,1.226,57.821,1.182,57.788,1.146z"/>
	<path fill="#FFFFFF" d="M69.351,3.759c-0.153-0.291-0.354-0.52-0.601-0.681c-0.248-0.162-0.566-0.244-0.955-0.244
		c-0.315,0-0.601,0.067-0.852,0.2c-0.252,0.135-0.462,0.321-0.633,0.561c-0.169,0.238-0.3,0.523-0.389,0.852
		c-0.089,0.327-0.134,0.69-0.134,1.089c0,0.381,0.045,0.735,0.134,1.063c0.089,0.329,0.221,0.614,0.396,0.858
		c0.173,0.242,0.387,0.434,0.637,0.57c0.251,0.139,0.537,0.209,0.853,0.209c0.39,0,0.707-0.086,0.954-0.257
		c0.247-0.17,0.484-0.444,0.713-0.828l1.435,0.853c-0.292,0.609-0.695,1.082-1.21,1.418c-0.516,0.338-1.162,0.506-1.941,0.506
		c-0.56,0-1.066-0.104-1.52-0.311c-0.455-0.207-0.847-0.5-1.175-0.882s-0.582-0.842-0.76-1.381
		c-0.179-0.541-0.268-1.146-0.268-1.819c0-0.647,0.093-1.243,0.278-1.782c0.188-0.539,0.446-1.002,0.779-1.387
		c0.332-0.385,0.729-0.686,1.191-0.9c0.462-0.214,0.974-0.322,1.532-0.322c0.397,0,0.759,0.047,1.084,0.14
		c0.323,0.094,0.613,0.224,0.869,0.391c0.255,0.166,0.478,0.364,0.67,0.596c0.19,0.231,0.354,0.485,0.491,0.761L69.351,3.759z"/>
	<path fill="#FFFFFF" d="M79.101,7.371c-0.182,0.543-0.439,1.004-0.772,1.381S77.6,9.418,77.137,9.621
		c-0.462,0.203-0.968,0.307-1.521,0.307c-0.56,0-1.068-0.102-1.526-0.301c-0.459-0.196-0.852-0.483-1.18-0.863
		c-0.329-0.378-0.584-0.836-0.767-1.374C71.96,6.85,71.87,6.235,71.87,5.545c0-0.688,0.091-1.306,0.273-1.85
		c0.183-0.541,0.439-1.002,0.773-1.38c0.332-0.377,0.729-0.667,1.191-0.869c0.462-0.203,0.973-0.305,1.532-0.305
		c0.552,0,1.057,0.1,1.515,0.298c0.458,0.198,0.851,0.486,1.181,0.864c0.327,0.377,0.584,0.836,0.766,1.374
		c0.183,0.541,0.273,1.154,0.273,1.843C79.374,6.211,79.284,6.828,79.101,7.371z M77.064,3.54c-0.372-0.471-0.859-0.706-1.459-0.706
		c-0.601,0-1.08,0.231-1.442,0.694c-0.36,0.461-0.541,1.127-0.541,1.993c0,0.868,0.187,1.538,0.559,2.009
		c0.374,0.471,0.86,0.705,1.46,0.705s1.081-0.23,1.442-0.693c0.36-0.461,0.541-1.127,0.541-1.994S77.437,4.01,77.064,3.54z"/>
	<path fill="#FFFFFF" d="M87.355,9.793V6.666c0-0.113,0.002-0.26,0.007-0.438c0.003-0.177,0.006-0.36,0.006-0.546
		c0-0.188,0.001-0.361,0.006-0.523c0.004-0.162,0.006-0.283,0.006-0.365c-0.064,0.162-0.151,0.378-0.262,0.645
		c-0.109,0.269-0.222,0.524-0.336,0.769L85.05,9.989l-1.722-3.784c-0.113-0.244-0.225-0.5-0.334-0.769
		c-0.109-0.267-0.196-0.482-0.261-0.645c0,0.081,0.001,0.203,0.006,0.365c0.004,0.162,0.006,0.338,0.006,0.523
		s0.003,0.369,0.006,0.546c0.005,0.18,0.007,0.325,0.007,0.438v3.127h-1.666V1.276h1.643l1.771,3.854
		c0.057,0.123,0.112,0.25,0.169,0.385c0.057,0.134,0.111,0.266,0.164,0.396c0.052,0.129,0.101,0.25,0.146,0.365
		c0.044,0.112,0.079,0.206,0.103,0.279c0.058-0.162,0.138-0.38,0.244-0.651s0.217-0.528,0.33-0.772l1.719-3.855h1.667v8.516H87.355
		L87.355,9.793z"/>
	<path fill="#FFFFFF" d="M97.513,9.793V6.666c0-0.113,0.002-0.26,0.007-0.438c0.003-0.177,0.006-0.36,0.006-0.546
		c0-0.188,0.001-0.361,0.006-0.523c0.004-0.163,0.006-0.284,0.006-0.366c-0.065,0.162-0.152,0.377-0.262,0.645
		c-0.109,0.268-0.222,0.523-0.336,0.768l-1.732,3.783l-1.723-3.783c-0.113-0.242-0.225-0.5-0.333-0.768
		c-0.109-0.268-0.197-0.482-0.262-0.645c0,0.081,0.002,0.203,0.007,0.366c0.005,0.161,0.006,0.336,0.006,0.522
		s0.002,0.369,0.006,0.546c0.005,0.18,0.008,0.325,0.008,0.439v3.125h-1.669V1.276h1.642l1.773,3.854
		c0.057,0.123,0.112,0.25,0.169,0.385c0.057,0.134,0.111,0.266,0.164,0.396c0.052,0.129,0.101,0.25,0.145,0.365
		c0.045,0.112,0.079,0.206,0.104,0.279c0.056-0.162,0.137-0.38,0.243-0.651c0.106-0.271,0.216-0.528,0.329-0.772l1.72-3.855h1.667
		v8.516H97.513L97.513,9.793z"/>
	<path fill="#FFFFFF" d="M108.163,7.371c-0.183,0.543-0.44,1.004-0.772,1.381c-0.333,0.377-0.73,0.666-1.192,0.869
		c-0.461,0.203-0.969,0.307-1.52,0.307c-0.561,0-1.069-0.102-1.527-0.301c-0.458-0.196-0.852-0.483-1.18-0.863
		c-0.329-0.378-0.584-0.836-0.767-1.374c-0.183-0.54-0.273-1.154-0.273-1.845c0-0.688,0.091-1.306,0.273-1.85
		c0.183-0.541,0.439-1.002,0.773-1.38c0.331-0.377,0.729-0.667,1.19-0.869c0.463-0.203,0.975-0.305,1.533-0.305
		c0.552,0,1.057,0.1,1.515,0.298c0.458,0.198,0.851,0.486,1.181,0.864c0.327,0.377,0.583,0.836,0.766,1.374
		c0.184,0.541,0.273,1.154,0.273,1.843C108.436,6.211,108.346,6.828,108.163,7.371z M106.124,3.54
		c-0.372-0.471-0.859-0.706-1.46-0.706c-0.6,0-1.079,0.231-1.441,0.694c-0.36,0.461-0.541,1.127-0.541,1.993
		c0,0.868,0.187,1.538,0.56,2.009s0.859,0.705,1.459,0.705c0.601,0,1.081-0.23,1.442-0.693c0.36-0.461,0.541-1.127,0.541-1.994
		S106.498,4.01,106.124,3.54z"/>
	<path fill="#FFFFFF" d="M115.54,9.793l-3.125-4.648c-0.106-0.162-0.219-0.334-0.336-0.517c-0.117-0.182-0.205-0.329-0.261-0.443
		c0,0.08,0.002,0.2,0.006,0.358c0.003,0.158,0.006,0.331,0.006,0.517c0,0.179,0.002,0.358,0.006,0.535
		c0.005,0.179,0.006,0.329,0.006,0.45v3.748h-1.69V1.276h1.643l3.008,4.501c0.104,0.162,0.216,0.334,0.334,0.518
		c0.116,0.183,0.202,0.33,0.261,0.443c0-0.082-0.003-0.201-0.007-0.359c-0.005-0.157-0.007-0.325-0.007-0.504
		c0-0.188-0.002-0.369-0.006-0.547c-0.005-0.18-0.007-0.33-0.007-0.451V1.276h1.69v8.517H115.54z"/>
	<path fill="#FFFFFF" d="M128.68,8.91c-0.605,0.676-1.453,1.018-2.537,1.018c-0.512,0-0.979-0.088-1.402-0.256
		c-0.426-0.172-0.787-0.42-1.086-0.75c-0.301-0.328-0.533-0.731-0.699-1.209c-0.166-0.479-0.25-1.03-0.25-1.654V1.276h1.691v4.757
		c0,0.688,0.154,1.231,0.463,1.629c0.311,0.396,0.736,0.597,1.283,0.597c0.545,0,0.975-0.194,1.287-0.583
		c0.312-0.391,0.469-0.928,0.469-1.618V1.275h1.691v4.756C129.592,7.272,129.287,8.232,128.68,8.91z"/>
	<path fill="#FFFFFF" d="M137.779,8.322c-0.131,0.332-0.334,0.617-0.609,0.856c-0.275,0.237-0.621,0.424-1.041,0.553
		c-0.416,0.131-0.918,0.195-1.502,0.195c-0.713,0-1.363-0.142-1.947-0.414c-0.582-0.276-1.037-0.654-1.361-1.134l1.229-1.094
		c0.301,0.349,0.635,0.599,1.004,0.748c0.369,0.15,0.762,0.225,1.174,0.225c0.514,0,0.887-0.073,1.125-0.221
		c0.24-0.146,0.359-0.382,0.359-0.705c0-0.138-0.023-0.258-0.072-0.358s-0.141-0.195-0.273-0.285
		c-0.133-0.089-0.326-0.174-0.576-0.255c-0.252-0.08-0.578-0.167-0.975-0.256c-0.391-0.09-0.748-0.194-1.076-0.316
		c-0.33-0.122-0.611-0.275-0.848-0.462c-0.234-0.187-0.416-0.422-0.547-0.705c-0.129-0.284-0.193-0.637-0.193-1.06
		c0-0.389,0.078-0.736,0.238-1.045c0.156-0.309,0.375-0.57,0.65-0.784c0.273-0.216,0.598-0.38,0.965-0.494
		c0.371-0.113,0.768-0.17,1.188-0.17c0.664,0,1.248,0.119,1.746,0.355s0.951,0.568,1.357,0.993l-1.23,1.195
		c-0.275-0.285-0.568-0.502-0.881-0.652c-0.311-0.149-0.664-0.225-1.053-0.225c-0.227,0-0.418,0.022-0.57,0.066
		c-0.154,0.045-0.279,0.104-0.377,0.176c-0.1,0.074-0.166,0.154-0.207,0.243c-0.041,0.09-0.062,0.184-0.062,0.279
		c0,0.138,0.027,0.253,0.08,0.347c0.053,0.093,0.143,0.176,0.271,0.249c0.131,0.073,0.307,0.142,0.523,0.206
		c0.221,0.064,0.498,0.138,0.84,0.219c0.34,0.081,0.678,0.177,1.016,0.286c0.336,0.109,0.641,0.261,0.912,0.454
		c0.271,0.194,0.492,0.441,0.662,0.74c0.172,0.301,0.256,0.682,0.256,1.143C137.971,7.623,137.908,7.99,137.779,8.322z"/>
	<path fill="#FFFFFF" d="M139.773,9.793V1.276h5.898v1.666h-4.209v1.46h2.445v1.666h-2.445v2.057h4.393v1.668H139.773z"/>
	<path fill="#FFFFFF" d="M152.615,9.793l-1.525-3.066h-1.719v3.066h-1.689V1.276h3.965c0.398,0,0.775,0.055,1.133,0.164
		c0.355,0.109,0.668,0.278,0.936,0.505c0.268,0.228,0.48,0.509,0.633,0.846c0.154,0.337,0.23,0.732,0.23,1.187
		c0,0.641-0.135,1.165-0.406,1.575c-0.271,0.407-0.68,0.719-1.223,0.93l1.629,3.31H152.615L152.615,9.793z M152.502,3.191
		c-0.217-0.166-0.516-0.249-0.898-0.249h-2.232v2.179h2.232c0.814,0,1.223-0.367,1.223-1.102
		C152.826,3.632,152.717,3.355,152.502,3.191z"/>
	<path fill="#FFFFFF" d="M159.893,9.793V1.276h5.9v1.666h-4.209v1.46h2.443v1.666h-2.443v2.057h4.391v1.668H159.893z"/>
	<path fill="#FFFFFF" d="M172.664,9.793l-0.766-1.289c-0.072-0.131-0.156-0.274-0.25-0.434c-0.092-0.158-0.182-0.316-0.268-0.474
		c-0.084-0.158-0.164-0.306-0.236-0.438c-0.074-0.134-0.131-0.24-0.17-0.322c-0.041,0.082-0.096,0.188-0.164,0.322
		c-0.068,0.133-0.146,0.278-0.23,0.432c-0.086,0.154-0.174,0.312-0.268,0.475s-0.182,0.309-0.262,0.439l-0.768,1.289h-2.031
		l2.701-4.356l-2.58-4.159h2.033l0.645,1.095c0.072,0.13,0.154,0.274,0.248,0.432c0.094,0.158,0.184,0.315,0.268,0.474
		c0.086,0.158,0.164,0.304,0.238,0.438c0.072,0.134,0.129,0.241,0.17,0.322c0.039-0.081,0.098-0.188,0.17-0.322
		c0.072-0.134,0.152-0.278,0.236-0.432c0.086-0.154,0.172-0.311,0.262-0.469c0.09-0.158,0.176-0.306,0.256-0.443l0.645-1.095h2.031
		l-2.59,4.159l2.713,4.356H172.664z"/>
	<path fill="#FFFFFF" d="M182.762,5.248c-0.156,0.354-0.369,0.645-0.645,0.871c-0.277,0.226-0.605,0.393-0.982,0.498
		c-0.379,0.104-0.787,0.156-1.227,0.156h-1.877v3.02h-1.691V1.276h3.723c0.396,0,0.775,0.055,1.131,0.164
		c0.357,0.109,0.67,0.278,0.938,0.505c0.268,0.228,0.48,0.509,0.633,0.846c0.154,0.337,0.23,0.732,0.23,1.187
		C182.992,4.473,182.916,4.896,182.762,5.248z M180.906,3.203c-0.225-0.173-0.527-0.26-0.91-0.26h-1.965v2.165h1.988
		c0.812,0,1.221-0.365,1.221-1.095C181.24,3.645,181.129,3.374,180.906,3.203z"/>
	<path fill="#FFFFFF" d="M184.611,9.793V1.276h5.898v1.666h-4.209v1.46h2.445v1.666h-2.445v2.057h4.393v1.668H184.611z"/>
	<path fill="#FFFFFF" d="M197.453,9.793l-1.525-3.066h-1.719v3.066h-1.691V1.276h3.969c0.395,0,0.773,0.055,1.131,0.164
		c0.355,0.109,0.67,0.278,0.938,0.505c0.268,0.228,0.479,0.509,0.633,0.846c0.152,0.337,0.23,0.732,0.23,1.187
		c0,0.641-0.137,1.165-0.408,1.575c-0.271,0.407-0.68,0.719-1.221,0.93l1.629,3.31H197.453L197.453,9.793z M197.34,3.191
		c-0.217-0.166-0.514-0.249-0.895-0.249h-2.234v2.179h2.234c0.812,0,1.219-0.367,1.219-1.102
		C197.662,3.632,197.557,3.355,197.34,3.191z"/>
	<path fill="#FFFFFF" d="M201.326,9.793V1.276h1.689v8.517H201.326z"/>
	<path fill="#FFFFFF" d="M205.338,9.793V1.276h5.902v1.666h-4.211v1.46h2.445v1.666h-2.445v2.057h4.391v1.668H205.338z"/>
	<path fill="#FFFFFF" d="M218.635,9.793l-3.125-4.648c-0.104-0.162-0.219-0.334-0.336-0.517c-0.117-0.182-0.205-0.329-0.26-0.443
		c0,0.08,0.002,0.2,0.006,0.358c0.004,0.158,0.006,0.331,0.006,0.517c0,0.179,0.002,0.358,0.006,0.535
		c0.004,0.179,0.006,0.329,0.006,0.45v3.748h-1.688V1.276h1.641l3.008,4.501c0.105,0.162,0.217,0.334,0.334,0.518
		c0.117,0.183,0.203,0.33,0.26,0.443c0-0.082-0.002-0.201-0.006-0.359c-0.004-0.157-0.008-0.325-0.008-0.504
		c0-0.188-0.002-0.369-0.006-0.547c-0.004-0.179-0.006-0.329-0.006-0.451V1.276h1.691v8.517H218.635z"/>
	<path fill="#FFFFFF" d="M227.199,3.759c-0.154-0.291-0.355-0.52-0.602-0.681c-0.248-0.162-0.566-0.244-0.953-0.244
		c-0.318,0-0.602,0.067-0.854,0.2c-0.25,0.135-0.463,0.321-0.631,0.561c-0.172,0.238-0.305,0.523-0.393,0.852
		c-0.09,0.327-0.133,0.69-0.133,1.089c0,0.381,0.043,0.735,0.133,1.063c0.088,0.329,0.223,0.614,0.396,0.858
		c0.174,0.242,0.387,0.434,0.639,0.57c0.25,0.139,0.535,0.209,0.854,0.209c0.389,0,0.707-0.086,0.951-0.257
		c0.248-0.17,0.484-0.444,0.715-0.828l1.436,0.853c-0.293,0.609-0.695,1.082-1.211,1.418c-0.516,0.338-1.162,0.506-1.939,0.506
		c-0.561,0-1.068-0.104-1.521-0.311s-0.846-0.5-1.174-0.882s-0.582-0.842-0.76-1.381c-0.18-0.541-0.268-1.146-0.268-1.819
		c0-0.647,0.092-1.243,0.279-1.782c0.186-0.539,0.443-1.002,0.775-1.387c0.332-0.385,0.73-0.686,1.191-0.9
		c0.463-0.215,0.975-0.322,1.533-0.322c0.396,0,0.76,0.047,1.084,0.14c0.324,0.094,0.613,0.224,0.869,0.391
		c0.256,0.166,0.479,0.364,0.668,0.596c0.191,0.231,0.355,0.485,0.494,0.761L227.199,3.759z"/>
	<path fill="#FFFFFF" d="M230.484,9.793V1.276h5.898v1.666h-4.207v1.46h2.445v1.666h-2.445v2.057h4.391v1.668H230.484z"/>
</g>
</svg>
