<?xml version="1.0" encoding="UTF-8" standalone="no"?>
<!-- Generator: Adobe Illustrator 16.0.0, SVG Export Plug-In . SVG Version: 6.00 Build 0)  -->

<svg
   xmlns:dc="http://purl.org/dc/elements/1.1/"
   xmlns:cc="http://creativecommons.org/ns#"
   xmlns:rdf="http://www.w3.org/1999/02/22-rdf-syntax-ns#"
   xmlns:svg="http://www.w3.org/2000/svg"
   xmlns="http://www.w3.org/2000/svg"
   xmlns:xlink="http://www.w3.org/1999/xlink"
   xmlns:sodipodi="http://sodipodi.sourceforge.net/DTD/sodipodi-0.dtd"
   xmlns:inkscape="http://www.inkscape.org/namespaces/inkscape"
   version="1.1"
   id="Layer_1"
   x="0px"
   y="0px"
   width="120"
   height="20"
   viewBox="-3.268 0.083 120 20"
   enable-background="new -3.268 0.083 325.403 77.333"
   xml:space="preserve"
   inkscape:version="0.48.5 r10040"
   sodipodi:docname="brand.svg"><metadata
     id="metadata7046"><rdf:RDF><cc:Work
         rdf:about=""><dc:format>image/svg+xml</dc:format><dc:type
           rdf:resource="http://purl.org/dc/dcmitype/StillImage" /><dc:title></dc:title></cc:Work></rdf:RDF></metadata><defs
     id="defs7044"><linearGradient
       inkscape:collect="always"
       xlink:href="#SVGID_1_"
       id="linearGradient7503"
       gradientUnits="userSpaceOnUse"
       gradientTransform="matrix(1,0,0,-1,86,-956.167)"
       x1="-85.7192"
       y1="-1070.1299"
       x2="-23.0562"
       y2="-1070.1299" /><linearGradient
       inkscape:collect="always"
       xlink:href="#SVGID_2_"
       id="linearGradient7505"
       gradientUnits="userSpaceOnUse"
       gradientTransform="matrix(1,0,0,-1,-302,-242.667)"
       x1="334.32031"
       y1="-357.21579"
       x2="326.04669"
       y2="-357.21579" /><linearGradient
       inkscape:collect="always"
       xlink:href="#SVGID_3_"
       id="linearGradient7507"
       gradientUnits="userSpaceOnUse"
       gradientTransform="matrix(1,0,0,-1,86,-956.167)"
       x1="-58.8633"
       y1="-1076.7139"
       x2="-51.862999"
       y2="-1057.2131" /><linearGradient
       inkscape:collect="always"
       xlink:href="#SVGID_4_"
       id="linearGradient7509"
       gradientUnits="userSpaceOnUse"
       gradientTransform="matrix(1,0,0,-1,86,-956.167)"
       x1="-75.903801"
       y1="-1064.3447"
       x2="-45.0681"
       y2="-1056.6775" /><linearGradient
       inkscape:collect="always"
       xlink:href="#SVGID_5_"
       id="linearGradient7511"
       gradientUnits="userSpaceOnUse"
       gradientTransform="matrix(1,0,0,-1,86,-956.167)"
       x1="-72.945801"
       y1="-1040.1738"
       x2="-64.320503"
       y2="-1082.4258" /><linearGradient
       inkscape:collect="always"
       xlink:href="#SVGID_14_"
       id="linearGradient7513"
       gradientUnits="userSpaceOnUse"
       gradientTransform="matrix(1,0,0,-1,86,-956.167)"
       x1="-66.2808"
       y1="-1035.334"
       x2="-66.2808"
       y2="-1045.5018" /><linearGradient
       inkscape:collect="always"
       xlink:href="#SVGID_15_"
       id="linearGradient7515"
       gradientUnits="userSpaceOnUse"
       gradientTransform="matrix(1,0,0,-1,86,-956.167)"
       x1="-55.5112"
       y1="-1087.1055"
       x2="-55.5112"
       y2="-1087.1055" /></defs><sodipodi:namedview
     pagecolor="#000000"
     bordercolor="#666666"
     borderopacity="1"
     objecttolerance="10"
     gridtolerance="10"
     guidetolerance="10"
     inkscape:pageopacity="1"
     inkscape:pageshadow="2"
     inkscape:window-width="2048"
     inkscape:window-height="1128"
     id="namedview7042"
     showgrid="false"
     inkscape:zoom="14.357581"
     inkscape:cx="52.748537"
     inkscape:cy="-1.6861514"
     inkscape:window-x="0"
     inkscape:window-y="24"
     inkscape:window-maximized="1"
     inkscape:current-layer="g6865" /><g
     id="g6865"
     transform="matrix(0.14866632,0,0,0.14866632,14.719196,8.4313349)"><linearGradient
       id="SVGID_1_"
       gradientUnits="userSpaceOnUse"
       x1="-85.7192"
       y1="-1070.1299"
       x2="-23.0562"
       y2="-1070.1299"
       gradientTransform="matrix(1,0,0,-1,86,-956.167)"><stop
         offset="0"
         style="stop-color:#FDFDFD"
         id="stop6874" /><stop
         offset="0.1452"
         style="stop-color:#F4F5F5"
         id="stop6876" /><stop
         offset="0.6844"
         style="stop-color:#D9DBDB"
         id="stop6878" /><stop
         offset="1"
         style="stop-color:#CFD1D1"
         id="stop6880" /></linearGradient><linearGradient
       id="SVGID_2_"
       gradientUnits="userSpaceOnUse"
       x1="334.32031"
       y1="-357.21579"
       x2="326.04669"
       y2="-357.21579"
       gradientTransform="matrix(1,0,0,-1,-302,-242.667)"><stop
         offset="0"
         style="stop-color:#E6E6E6"
         id="stop6885" /><stop
         offset="1"
         style="stop-color:#B2B3B3"
         id="stop6887" /></linearGradient><linearGradient
       id="SVGID_3_"
       gradientUnits="userSpaceOnUse"
       x1="-58.8633"
       y1="-1076.7139"
       x2="-51.862999"
       y2="-1057.2131"
       gradientTransform="matrix(1,0,0,-1,86,-956.167)"><stop
         offset="0"
         style="stop-color:#F6F6F6"
         id="stop6892" /><stop
         offset="1"
         style="stop-color:#B2B3B3"
         id="stop6894" /></linearGradient><linearGradient
       id="SVGID_4_"
       gradientUnits="userSpaceOnUse"
       x1="-75.903801"
       y1="-1064.3447"
       x2="-45.0681"
       y2="-1056.6775"
       gradientTransform="matrix(1,0,0,-1,86,-956.167)"><stop
         offset="0"
         style="stop-color:#B8D7E9"
         id="stop6911" /><stop
         offset="0.3324"
         style="stop-color:#CCE3F1"
         id="stop6913" /><stop
         offset="0.6937"
         style="stop-color:#DAEBF7"
         id="stop6915" /><stop
         offset="1"
         style="stop-color:#DFEEF9"
         id="stop6917" /></linearGradient><linearGradient
       id="SVGID_5_"
       gradientUnits="userSpaceOnUse"
       x1="-72.945801"
       y1="-1040.1738"
       x2="-64.320503"
       y2="-1082.4258"
       gradientTransform="matrix(1,0,0,-1,86,-956.167)"><stop
         offset="0"
         style="stop-color:#F1F9FE"
         id="stop6922" /><stop
         offset="0.4254"
         style="stop-color:#E9F5FD"
         id="stop6924" /><stop
         offset="1"
         style="stop-color:#E4F3FD"
         id="stop6926" /></linearGradient><g
       id="g6936"
       transform="matrix(2.0385634,0,0,2.0385634,-80.240752,-88.764594)"><linearGradient
         id="SVGID_6_"
         gradientUnits="userSpaceOnUse"
         x1="35.512199"
         y1="-1053"
         x2="35.512199"
         y2="-1103.885"
         gradientTransform="matrix(1,0,0,-1,86,-956.167)"><stop
           offset="0"
           style="stop-color:#FFFFFE"
           id="stop6939" /><stop
           offset="0.4815"
           style="stop-color:#F2F1F1"
           id="stop6941" /><stop
           offset="1"
           style="stop-color:#E9E7E8"
           id="stop6943" /></linearGradient><path
         d="m 127.54,48.914 h -11.599 c 0.303,2.346 1.01,3.92 2.117,4.725 1.107,0.805 2.943,1.205 5.506,1.205 3.432,0 7.43,-0.238 11.99,-0.717 l 0.912,5.994 c -3.346,1.607 -8.015,2.411 -14.01,2.411 -6.038,0 -10.339,-1.304 -12.901,-3.909 -2.563,-2.607 -3.845,-6.907 -3.845,-12.902 0,-6.299 1.248,-10.707 3.746,-13.228 2.498,-2.519 6.701,-3.779 12.609,-3.779 5.344,0 9.209,0.923 11.599,2.769 2.389,1.848 3.605,4.66 3.649,8.439 0,2.997 -0.771,5.245 -2.313,6.744 -1.541,1.498 -4.029,2.248 -7.46,2.248 z m -11.794,-5.8 h 9.122 c 1.173,0 1.966,-0.282 2.378,-0.847 0.413,-0.564 0.619,-1.394 0.619,-2.479 0,-1.52 -0.391,-2.574 -1.172,-3.16 -0.782,-0.586 -2.216,-0.88 -4.301,-0.88 -2.477,0 -4.171,0.489 -5.083,1.466 -0.912,0.981 -1.433,2.946 -1.563,5.9 z"
         id="path6945"
         inkscape:connector-curvature="0"
         style="fill:url(#SVGID_6_)" /><linearGradient
         id="SVGID_7_"
         gradientUnits="userSpaceOnUse"
         x1="69.1362"
         y1="-1053"
         x2="69.1362"
         y2="-1103.8832"
         gradientTransform="matrix(1,0,0,-1,86,-956.167)"><stop
           offset="0"
           style="stop-color:#FFFFFE"
           id="stop6948" /><stop
           offset="0.4815"
           style="stop-color:#F2F1F1"
           id="stop6950" /><stop
           offset="1"
           style="stop-color:#E9E7E8"
           id="stop6952" /></linearGradient><path
         d="m 172.957,29.626 -11.402,32.581 c -0.609,1.736 -1.359,3.344 -2.248,4.82 -0.892,1.478 -2.031,2.897 -3.422,4.27 -1.391,1.368 -3.117,2.378 -5.18,3.029 -2.064,0.652 -4.355,0.824 -6.875,0.521 l -0.781,-5.672 c 2.605,-0.693 4.647,-1.597 6.125,-2.701 1.477,-1.107 2.627,-2.599 3.453,-4.466 l 0.131,-0.262 h -1.825 c -1.607,0 -2.649,-0.781 -3.128,-2.349 l -10.49,-29.775 h 10.295 l 5.995,20.786 c 0.391,1.521 0.717,3.128 0.978,4.819 h 0.847 c 0.13,-0.521 0.347,-1.336 0.651,-2.44 0.304,-1.104 0.521,-1.897 0.652,-2.379 l 5.93,-20.786 10.294,0.004 0,0 z"
         id="path6954"
         inkscape:connector-curvature="0"
         style="fill:url(#SVGID_7_)" /><linearGradient
         id="SVGID_8_"
         gradientUnits="userSpaceOnUse"
         x1="100.2241"
         y1="-1053"
         x2="100.2241"
         y2="-1103.885"
         gradientTransform="matrix(1,0,0,-1,86,-956.167)"><stop
           offset="0"
           style="stop-color:#FFFFFE"
           id="stop6957" /><stop
           offset="0.4815"
           style="stop-color:#F2F1F1"
           id="stop6959" /><stop
           offset="1"
           style="stop-color:#E9E7E8"
           id="stop6961" /></linearGradient><path
         d="m 199.644,54.127 0.851,6.256 c -3.306,1.434 -7.451,2.149 -12.446,2.149 -5.906,0 -10.064,-1.271 -12.479,-3.812 -2.411,-2.541 -3.615,-6.896 -3.615,-13.062 0,-6.215 1.216,-10.59 3.646,-13.131 2.436,-2.541 6.625,-3.812 12.575,-3.812 4.865,0 8.818,0.674 11.859,2.021 l -1.042,5.994 c -4.692,-0.086 -7.756,-0.131 -9.188,-0.131 -2.953,0 -4.984,0.631 -6.093,1.891 -1.106,1.26 -1.662,3.646 -1.662,7.168 0,3.518 0.556,5.906 1.662,7.167 1.106,1.261 3.14,1.89 6.093,1.89 3.778,-0.002 7.057,-0.197 9.839,-0.588 z"
         id="path6963"
         inkscape:connector-curvature="0"
         style="fill:url(#SVGID_8_)" /><linearGradient
         id="SVGID_9_"
         gradientUnits="userSpaceOnUse"
         x1="150.97121"
         y1="-1053"
         x2="150.97121"
         y2="-1103.886"
         gradientTransform="matrix(1,0,0,-1,86,-956.167)"><stop
           offset="0"
           style="stop-color:#FFFFFE"
           id="stop6966" /><stop
           offset="0.4815"
           style="stop-color:#F2F1F1"
           id="stop6968" /><stop
           offset="1"
           style="stop-color:#E9E7E8"
           id="stop6970" /></linearGradient><path
         d="m 237.004,28.714 c 5.996,0 10.241,1.293 12.74,3.877 2.497,2.585 3.746,6.962 3.746,13.13 0,6.17 -1.249,10.523 -3.746,13.064 -2.499,2.542 -6.744,3.812 -12.74,3.812 -6.038,0 -10.308,-1.271 -12.804,-3.812 -2.499,-2.541 -3.747,-6.896 -3.747,-13.064 0,-6.211 1.248,-10.599 3.747,-13.162 2.496,-2.563 6.766,-3.845 12.804,-3.845 z m 0,7.233 c -2.562,0 -4.278,0.65 -5.146,1.954 -0.871,1.304 -1.305,3.91 -1.305,7.82 0,3.822 0.434,6.385 1.305,7.688 0.867,1.303 2.584,1.955 5.146,1.955 2.478,0 4.16,-0.652 5.052,-1.955 0.889,-1.304 1.336,-3.866 1.336,-7.688 0,-3.865 -0.437,-6.462 -1.305,-7.788 -0.869,-1.324 -2.565,-1.986 -5.083,-1.986 z"
         id="path6972"
         inkscape:connector-curvature="0"
         style="fill:url(#SVGID_9_)" /><linearGradient
         id="SVGID_10_"
         gradientUnits="userSpaceOnUse"
         x1="184.87891"
         y1="-1053"
         x2="184.87891"
         y2="-1103.885"
         gradientTransform="matrix(1,0,0,-1,86,-956.167)"><stop
           offset="0"
           style="stop-color:#FFFFFE"
           id="stop6975" /><stop
           offset="0.4815"
           style="stop-color:#F2F1F1"
           id="stop6977" /><stop
           offset="1"
           style="stop-color:#E9E7E8"
           id="stop6979" /></linearGradient><path
         d="m 257.883,36.794 -0.911,-6.517 c 5.776,-1.043 11.358,-1.563 16.745,-1.563 4.345,0 7.537,0.88 9.578,2.64 2.043,1.759 3.063,4.811 3.063,9.154 V 61.75 h -7.625 l -0.979,-4.887 c -3.217,3.779 -7.168,5.669 -11.857,5.669 -3.086,0 -5.604,-0.814 -7.561,-2.443 -1.957,-1.629 -2.936,-3.897 -2.936,-6.81 v -3.258 c 0,-2.562 0.869,-4.562 2.607,-5.994 1.735,-1.437 4.146,-2.15 7.23,-2.15 h 11.47 v -1.434 c -0.045,-1.65 -0.424,-2.759 -1.142,-3.324 -0.717,-0.563 -2.097,-0.847 -4.14,-0.847 -3.552,0 -8.069,0.175 -13.542,0.522 z m 7.037,13.944 v 1.238 c 0,2.215 1.261,3.319 3.779,3.319 2.606,0 5.278,-1.042 8.016,-3.127 v -4.496 h -8.666 c -2.086,0.047 -3.129,1.068 -3.129,3.066 z"
         id="path6981"
         inkscape:connector-curvature="0"
         style="fill:url(#SVGID_10_)" /><linearGradient
         id="SVGID_11_"
         gradientUnits="userSpaceOnUse"
         x1="5.9375"
         y1="-1053"
         x2="5.9375"
         y2="-1103.882"
         gradientTransform="matrix(1,0,0,-1,86,-956.167)"><stop
           offset="0"
           style="stop-color:#FFFFFE"
           id="stop6984" /><stop
           offset="0.4815"
           style="stop-color:#F2F1F1"
           id="stop6986" /><stop
           offset="1"
           style="stop-color:#E9E7E8"
           id="stop6988" /></linearGradient><path
         d="m 98.519,47.415 c -0.913,-1.563 -1.912,-2.714 -2.997,-3.454 v -0.13 c 1.303,-0.868 2.302,-1.89 2.997,-3.062 L 106.86,29.623 H 96.043 l -7.95,11.208 h -2.997 c 0.303,-1.781 0.455,-3.736 0.455,-5.865 v -18.83 h -2.992 l -6.651,9.482 v 36.13 h 9.644 v -10.1 c 0,-1.26 -0.152,-2.866 -0.455,-4.821 h 3.062 L 97.15,61.75 h 10.816 L 98.519,47.415 z"
         id="path6990"
         inkscape:connector-curvature="0"
         style="fill:url(#SVGID_11_)" /><linearGradient
         id="SVGID_12_"
         gradientUnits="userSpaceOnUse"
         x1="125.3193"
         y1="-1053"
         x2="125.3193"
         y2="-1103.884"
         gradientTransform="matrix(1,0,0,-1,86,-956.167)"><stop
           offset="0"
           style="stop-color:#FFFFFE"
           id="stop6993" /><stop
           offset="0.4815"
           style="stop-color:#F2F1F1"
           id="stop6995" /><stop
           offset="1"
           style="stop-color:#E9E7E8"
           id="stop6997" /></linearGradient><path
         d="m 218.679,54.518 h -2.607 c -2.434,0 -3.646,-1.086 -3.646,-3.258 V 16.138 h -3.014 l -6.563,9.36 V 53.67 c 0,2.824 0.823,5.008 2.477,6.549 1.65,1.542 3.91,2.313 6.777,2.313 3.475,0 6.035,-0.435 7.688,-1.304 l -1.112,-6.71 z"
         id="path6999"
         inkscape:connector-curvature="0"
         style="fill:url(#SVGID_12_)" /><linearGradient
         id="SVGID_13_"
         gradientUnits="userSpaceOnUse"
         x1="220.1055"
         y1="-1053"
         x2="220.1055"
         y2="-1103.882"
         gradientTransform="matrix(1,0,0,-1,86,-956.167)"><stop
           offset="0"
           style="stop-color:#FFFFFE"
           id="stop7002" /><stop
           offset="0.4815"
           style="stop-color:#F2F1F1"
           id="stop7004" /><stop
           offset="1"
           style="stop-color:#E9E7E8"
           id="stop7006" /></linearGradient><path
         d="m 312.684,47.415 c -0.909,-1.563 -1.909,-2.714 -2.998,-3.454 v -0.13 c 1.306,-0.868 2.306,-1.89 2.998,-3.062 l 8.343,-11.146 H 310.21 l -7.949,11.208 h -2.996 c 0.303,-1.781 0.455,-3.736 0.455,-5.865 v -18.83 h -2.99 l -6.651,9.484 v 36.13 h 9.646 v -10.1 c 0,-1.26 -0.154,-2.867 -0.457,-4.822 h 3.062 l 8.992,14.922 h 10.813 l -9.451,-14.335 z"
         id="path7008"
         inkscape:connector-curvature="0"
         style="fill:url(#SVGID_13_)" /></g><linearGradient
       id="SVGID_14_"
       gradientUnits="userSpaceOnUse"
       x1="-66.2808"
       y1="-1035.334"
       x2="-66.2808"
       y2="-1045.5018"
       gradientTransform="matrix(1,0,0,-1,86,-956.167)"><stop
         offset="0"
         style="stop-color:#00639A"
         id="stop7011" /><stop
         offset="0.2355"
         style="stop-color:#00578A"
         id="stop7013" /><stop
         offset="0.507"
         style="stop-color:#004D7B"
         id="stop7015" /><stop
         offset="0.7167"
         style="stop-color:#004773"
         id="stop7017" /><stop
         offset="1"
         style="stop-color:#00446E"
         id="stop7019" /></linearGradient><linearGradient
       id="SVGID_15_"
       gradientUnits="userSpaceOnUse"
       x1="-55.5112"
       y1="-1087.1055"
       x2="-55.5112"
       y2="-1087.1055"
       gradientTransform="matrix(1,0,0,-1,86,-956.167)"><stop
         offset="0"
         style="stop-color:#F6F6F6"
         id="stop7034" /><stop
         offset="0.5386"
         style="stop-color:#E4E4E4"
         id="stop7036" /><stop
         offset="1"
         style="stop-color:#DADADA"
         id="stop7038" /></linearGradient><g
       id="g7182"
       transform="matrix(3.3533283,0,0,3.3533283,-113.29645,-57.295274)"><g
         id="g6867"><path
           style="fill:none;stroke:#ffffff;stroke-width:7;stroke-linecap:round;stroke-linejoin:round;stroke-miterlimit:10"
           inkscape:connector-curvature="0"
           id="path6869"
           d="m 62.944,34.438 c -7.205,5 -14.688,3.682 -23.183,-3.358 -4.897,-4.059 -11.15,-2.771 -15.411,-1.454 -2.648,0.82 -6.324,0.744 -9.518,0.075 C 0.854,26.771 3.903,35.739 6.493,43.716 11.25,58.356 3.257,61.747 0.51,56.531 c -1.766,6.615 7.138,8.572 10.937,7.701 6.006,-1.377 14.051,-2.153 19.043,-0.627 9.544,2.916 13.125,0.513 11.542,-2.57 -0.52,-1.012 -0.229,-2.446 0.583,-3.126 2.834,-2.374 5.295,-0.373 8.007,-1.947 2.108,-1.226 2.077,-3.927 -1.19,-5.463 -1.731,-0.813 -1.649,-2.881 0.184,-3.84 3.73,-1.952 8.75,-1.036 10,-5.138 0.447,-1.469 1.699,-5.159 3.328,-7.083 z"
           stroke-miterlimit="10" /><path
           style="fill:none;stroke:#ffffff;stroke-width:7;stroke-linecap:round;stroke-linejoin:round;stroke-miterlimit:10"
           inkscape:connector-curvature="0"
           id="path6871"
           d="M 29.615,8.753 C 28.563,8.159 25.341,6.141 24.536,5.689 23.73,5.236 21.813,3.808 19.717,3.808 c -2.096,0 -4.014,1.428 -4.819,1.881 -0.805,0.452 -4.027,2.471 -5.079,3.064 -0.805,0.454 -3.724,2.037 -3.724,6.34 0,1.309 0,3.564 0,4.521 0,2.843 1.597,4.979 4.479,6.44 0.983,0.499 1.762,1.329 1.762,3.468 0,0.943 0.352,1.161 0.918,1.161 h 0.68 c 0.625,0 0.965,0.235 0.965,1.256 0,0.562 0,2.062 0,2.062 v 37.2 l 2.713,2.779 h 1.244 l 5.682,-5.819 v -34.16 c 0,0 0,-1.5 0,-2.062 0,-1.021 0.34,-1.256 0.965,-1.256 h 0.68 c 0.566,0 0.918,-0.218 0.918,-1.161 0,-2.139 0.778,-2.969 1.762,-3.468 2.882,-1.462 4.479,-3.598 4.479,-6.44 0,-0.956 0,-3.212 0,-4.521 C 33.339,10.79 30.42,9.207 29.615,8.753 z"
           stroke-miterlimit="10" /></g><path
         style="fill:url(#linearGradient7503)"
         inkscape:connector-curvature="0"
         id="path6882"
         d="m 62.944,34.438 c -7.205,5 -14.688,3.682 -23.183,-3.358 -4.897,-4.059 -11.15,-2.771 -15.411,-1.454 -2.648,0.82 -6.324,0.744 -9.518,0.075 C 0.854,26.771 3.903,35.739 6.493,43.716 11.25,58.356 3.257,61.747 0.51,56.531 c -1.766,6.615 7.138,8.572 10.937,7.701 6.006,-1.377 14.051,-2.153 19.043,-0.627 9.544,2.916 13.125,0.513 11.542,-2.57 -0.52,-1.012 -0.229,-2.446 0.583,-3.126 2.834,-2.374 5.295,-0.373 8.007,-1.947 2.108,-1.226 2.077,-3.927 -1.19,-5.463 -1.731,-0.813 -1.649,-2.881 0.184,-3.84 3.73,-1.952 8.75,-1.036 10,-5.138 0.447,-1.469 1.699,-5.159 3.328,-7.083 z" /><path
         style="fill:url(#linearGradient7505)"
         inkscape:connector-curvature="0"
         id="path6889"
         d="m 26.991,32.645 c 0,4.983 0.741,22.798 4.538,30.405 L 22.795,62.856 V 31.383 l 4.196,1.262 z" /><path
         style="fill:url(#linearGradient7507)"
         inkscape:connector-curvature="0"
         id="path6896"
         d="M 7.364,44.396 C 4.602,36.938 0.855,27.771 14.833,30.701 c 3.193,0.669 6.869,0.745 9.518,-0.075 4.261,-1.317 9.972,-2.444 14.514,1.521 8.875,7.748 16.875,8.292 24.08,3.292 -1.63,1.924 -3.106,5.563 -3.33,7.083 -0.189,1.293 -1.134,1.873 -2.382,2.379 -18.519,7.52 -15.394,-5.307 -21.352,-9.48 -3.158,-2.214 -7.733,-2.09 -11.247,-0.812 -3.171,1.153 -6.437,0.864 -9.833,-0.396 C 9.134,32.105 5.326,33.217 7.364,44.396 z" /><line
         style="fill:none;stroke:#ffffff;stroke-width:3.5;stroke-miterlimit:10"
         id="line6898"
         y2="31.938"
         x2="24.634001"
         y1="63.160999"
         x1="24.634001"
         stroke-miterlimit="10" /><g
         style="opacity:0.75"
         id="g6900"><path
           style="fill:#ffffff"
           inkscape:connector-curvature="0"
           id="path6902"
           d="m 31.691,30.336 c 2.719,0 4.941,0.747 6.795,2.284 5.541,4.592 10.63,6.823 15.557,6.823 1.473,0 2.934,-0.208 4.373,-0.615 -0.317,0.854 -0.559,1.602 -0.714,2.111 -0.432,1.414 -1.598,1.811 -4.357,2.437 -1.463,0.332 -3.121,0.708 -4.656,1.513 -1.577,0.824 -2.536,2.322 -2.503,3.908 0.032,1.51 0.928,2.822 2.396,3.514 1.153,0.541 1.478,1.135 1.487,1.373 0.012,0.26 -0.343,0.487 -0.45,0.551 -0.597,0.348 -1.181,0.412 -2.051,0.412 -0.16,0 -0.321,-0.002 -0.482,-0.004 -0.179,-0.002 -0.356,-0.004 -0.535,-0.004 -1.632,0 -3.393,0.211 -5.219,1.74 -1.545,1.294 -2.019,3.742 -1.078,5.573 0.137,0.267 0.141,0.405 0.149,0.407 -0.093,0.127 -0.771,0.565 -2.586,0.565 -1.776,0 -4.107,-0.426 -6.741,-1.229 -2.005,-0.612 -4.512,-0.924 -7.451,-0.924 -3.827,0 -8.428,0.554 -12.624,1.516 -0.412,0.094 -0.934,0.145 -1.509,0.145 -1.875,0 -4.187,-0.543 -5.673,-1.595 1.674,-0.011 3.264,-0.886 4.366,-2.403 1.341,-1.845 3.15,-6.289 0.213,-15.33 L 8.317,42.854 C 7.039,38.917 5.447,34.021 6.776,32.19 c 0.508,-0.699 1.636,-1.053 3.354,-1.053 1.188,0 2.632,0.177 4.295,0.525 1.76,0.369 3.618,0.563 5.375,0.563 1.944,0 3.676,-0.231 5.144,-0.686 1.664,-0.518 4.176,-1.203 6.747,-1.203 m 0,-2 c -2.663,0 -5.243,0.641 -7.34,1.29 -1.324,0.41 -2.904,0.596 -4.553,0.596 -1.649,0 -3.367,-0.187 -4.965,-0.521 -1.854,-0.389 -3.409,-0.568 -4.704,-0.568 -8.474,0 -5.881,7.664 -3.635,14.583 3.376,10.393 0.327,15.117 -2.708,15.117 -1.241,0 -2.479,-0.789 -3.276,-2.302 -1.506,5.643 4.751,7.896 8.98,7.896 0.729,0 1.397,-0.067 1.956,-0.194 3.684,-0.844 8.134,-1.463 12.177,-1.463 2.549,0 4.936,0.246 6.866,0.836 3.037,0.931 5.472,1.318 7.326,1.318 3.975,0 5.295,-1.785 4.216,-3.888 -0.52,-1.013 -0.229,-2.446 0.583,-3.126 1.375,-1.152 2.663,-1.274 3.935,-1.274 0.34,0 0.679,0.009 1.018,0.009 1.005,0 2.011,-0.076 3.055,-0.682 2.108,-1.227 2.077,-3.927 -1.19,-5.463 -1.731,-0.814 -1.649,-2.881 0.184,-3.84 3.73,-1.952 8.75,-1.036 10,-5.139 0.448,-1.472 1.7,-5.161 3.33,-7.083 -2.906,2.017 -5.857,3.005 -8.902,3.005 -4.504,0 -9.211,-2.163 -14.28,-6.364 -2.489,-2.06 -5.325,-2.743 -8.073,-2.743 l 0,0 z m 31.253,6.102 h 0.005 -0.005 z" /></g><path
         style="fill:none;stroke:#034672;stroke-width:2;stroke-linecap:round;stroke-linejoin:round;stroke-miterlimit:10"
         inkscape:connector-curvature="0"
         id="path6904"
         d="m 62.944,34.438 c -7.205,5 -14.688,3.682 -23.183,-3.358 -4.897,-4.059 -11.15,-2.771 -15.411,-1.454 -2.648,0.82 -6.324,0.744 -9.518,0.075 C 0.854,26.771 3.903,35.739 6.493,43.716 11.25,58.356 3.257,61.747 0.51,56.531 c -1.766,6.615 7.138,8.572 10.937,7.701 6.006,-1.377 14.051,-2.153 19.043,-0.627 9.544,2.916 13.125,0.513 11.542,-2.57 -0.52,-1.012 -0.229,-2.446 0.583,-3.126 2.834,-2.374 5.295,-0.373 8.007,-1.947 2.108,-1.226 2.077,-3.927 -1.19,-5.463 -1.731,-0.813 -1.649,-2.881 0.184,-3.84 3.73,-1.952 8.75,-1.036 10,-5.138 0.447,-1.469 1.699,-5.159 3.328,-7.083 z"
         stroke-miterlimit="10" /><path
         style="fill:#034672"
         inkscape:connector-curvature="0"
         id="path6906"
         d="M 7.364,43.396 C 4.602,35.938 0.855,26.771 14.833,29.701 c 3.193,0.669 6.869,0.745 9.518,-0.075 4.261,-1.317 9.972,-2.444 14.514,1.521 8.875,7.748 16.875,8.292 24.08,3.292 -1.63,1.924 -3.106,5.563 -3.33,7.083 -0.189,1.293 -1.116,1.916 -2.382,2.379 C 44.114,48.696 43.109,38.416 37.151,34.236 33.993,32.022 28.148,32.328 24.634,33.606 21.463,34.759 18.197,34.47 14.801,33.21 9.134,31.105 5.326,32.217 7.364,43.396 z" /><path
         style="fill:#ffffff"
         inkscape:connector-curvature="0"
         id="path6908"
         d="M 29.615,8.753 C 28.563,8.159 25.341,6.141 24.536,5.689 23.73,5.236 21.813,3.808 19.717,3.808 c -2.096,0 -4.014,1.428 -4.819,1.881 -0.805,0.452 -4.027,2.471 -5.079,3.064 -0.805,0.454 -3.724,2.037 -3.724,6.34 0,1.309 0,3.564 0,4.521 0,2.843 1.597,4.979 4.479,6.44 0.983,0.499 1.762,1.329 1.762,3.468 0,0.943 0.352,1.161 0.918,1.161 h 0.68 c 0.625,0 0.965,0.235 0.965,1.256 0,0.562 0,2.062 0,2.062 v 37.2 l 2.713,2.779 h 1.244 l 5.682,-5.819 v -34.16 c 0,0 0,-1.5 0,-2.062 0,-1.021 0.34,-1.256 0.965,-1.256 h 0.68 c 0.566,0 0.918,-0.218 0.918,-1.161 0,-2.139 0.778,-2.969 1.762,-3.468 2.882,-1.462 4.479,-3.598 4.479,-6.44 0,-0.956 0,-3.212 0,-4.521 C 33.339,10.79 30.42,9.207 29.615,8.753 z" /><path
         style="fill:url(#linearGradient7509)"
         inkscape:connector-curvature="0"
         id="path6919"
         d="M 29.615,8.753 C 28.563,8.159 25.341,6.141 24.536,5.689 23.73,5.236 21.813,3.808 19.717,3.808 v 69.29 l 4.819,-4.936 v -34.16 c 0,0 0,-1.5 0,-2.062 0,-1.021 0.34,-1.256 0.965,-1.256 h 0.68 c 0.566,0 0.918,-0.218 0.918,-1.161 0,-2.139 0.778,-2.969 1.762,-3.468 2.882,-1.462 4.479,-3.598 4.479,-6.44 0,-0.956 0,-3.212 0,-4.521 C 33.339,10.79 30.42,9.207 29.615,8.753 z" /><path
         style="fill:url(#linearGradient7511)"
         inkscape:connector-curvature="0"
         id="path6928"
         d="m 19.717,3.808 c -2.097,0 -4.014,1.428 -4.819,1.881 -0.805,0.452 -4.027,2.471 -5.079,3.064 -0.805,0.454 -3.724,2.037 -3.724,6.34 0,1.309 0,3.564 0,4.521 0,2.843 1.597,4.979 4.479,6.44 0.983,0.499 1.762,1.329 1.762,3.468 0,0.943 0.352,1.161 0.918,1.161 h 0.68 c 0.625,0 0.965,0.235 0.965,1.256 0,0.562 0,2.062 0,2.062 v 37.2 l 2.713,2.779 h 1.244 l 0.862,-0.883 -0.001,-69.289 0,0 z" /><path
         style="fill:none;stroke:#ffffff;stroke-width:2;stroke-miterlimit:10"
         inkscape:connector-curvature="0"
         id="path6930"
         d="m 19.427,3.808 c 1.908,0.938 3.431,1.966 4.236,2.419 0.805,0.452 4.027,2.471 5.079,3.064 0.805,0.454 3.724,2.037 3.724,6.34 0,1.309 0,2.806 0,3.762 0,2.843 -1.597,4.979 -4.479,6.44 -0.983,0.499 -1.762,1.431 -1.762,3.569 v 1.238"
         stroke-miterlimit="10" /><path
         style="fill:none;stroke:#034672;stroke-width:2;stroke-miterlimit:10"
         inkscape:connector-curvature="0"
         id="path6932"
         d="M 29.615,8.753 C 28.563,8.159 25.341,6.141 24.536,5.689 23.73,5.236 21.813,3.808 19.717,3.808 c -2.096,0 -4.014,1.428 -4.819,1.881 -0.805,0.452 -4.027,2.471 -5.079,3.064 -0.805,0.454 -3.724,2.037 -3.724,6.34 0,1.309 0,3.564 0,4.521 0,2.843 1.597,4.979 4.479,6.44 0.983,0.499 1.762,1.329 1.762,3.468 0,0.943 0.352,1.161 0.918,1.161 h 0.68 c 0.625,0 0.965,0.235 0.965,1.256 0,0.562 0,2.062 0,2.062 v 37.2 l 2.713,2.779 h 1.244 l 5.682,-5.819 v -34.16 c 0,0 0,-1.5 0,-2.062 0,-1.021 0.34,-1.256 0.965,-1.256 h 0.68 c 0.566,0 0.918,-0.218 0.918,-1.161 0,-2.139 0.778,-2.969 1.762,-3.468 2.882,-1.462 4.479,-3.598 4.479,-6.44 0,-0.956 0,-3.212 0,-4.521 C 33.339,10.79 30.42,9.207 29.615,8.753 z"
         stroke-miterlimit="10" /><path
         style="fill:#e9f6fe;stroke:#034672;stroke-width:2;stroke-miterlimit:10"
         inkscape:connector-curvature="0"
         id="path6934"
         d="M 34.536,34.001"
         stroke-miterlimit="10" /><polygon
         style="fill:url(#linearGradient7513)"
         id="polygon7021"
         points="28.771,11.704 19.719,13.729 10.667,11.704 9.667,15.443 19.719,20.501 29.771,15.443 " /><polyline
         style="opacity:0.2"
         id="polyline7023"
         points="19.719,20.501 29.771,15.443 28.771,11.704 19.719,13.729  "
         enable-background="new    " /><path
         style="fill:#034672"
         inkscape:connector-curvature="0"
         id="path7025"
         d="m 14.801,33.209 c 3.396,1.261 6.662,1.55 9.833,0.396 l -0.283,-2.223 c -2.648,0.82 -6.324,0.744 -9.518,0.075 l -0.032,1.752 z" /><path
         style="fill:#034672"
         inkscape:connector-curvature="0"
         id="path7027"
         d="m 19.446,32.856 c -0.403,2.757 1.896,4.707 1.896,7.619 3.849,-4.335 -1.073,-5.797 -1.896,-7.619 z" /><path
         style="fill:#034672"
         inkscape:connector-curvature="0"
         id="path7029"
         d="m 19.399,33.043 c -0.118,3.207 -0.402,5.581 -1.741,7.247 -2.419,-4.737 0.687,-6.32 1.741,-7.247 z" /><circle
         d="m 21.021,33.021 c 0,0.880342 -0.713658,1.594 -1.594,1.594 -0.880342,0 -1.594,-0.713658 -1.594,-1.594 0,-0.880342 0.713658,-1.594 1.594,-1.594 0.880342,0 1.594,0.713658 1.594,1.594 z"
         style="fill:#034672"
         sodipodi:ry="1.594"
         sodipodi:rx="1.594"
         sodipodi:cy="33.021"
         sodipodi:cx="19.427"
         id="circle7031"
         r="1.594"
         cy="33.021"
         cx="19.427" /><path
         style="fill:url(#linearGradient7515)"
         inkscape:connector-curvature="0"
         id="path7040"
         d="M 30.489,63.605" /></g></g></svg>