<svg xmlns="http://www.w3.org/2000/svg" viewBox="107 108 166 162">
    <path fill="#E24329" d="M265.264 174.372l-.213-.558-21.199-55.309c-.424-1.084-1.186-1.997-2.177-2.627-.988-.634-2.148-.933-3.323-.87-1.169.062-2.292.489-3.208 1.218-.91.736-1.567 1.73-1.875 2.853l-14.313 43.807h-57.91l-14.313-43.807c-.309-1.123-.966-2.118-1.875-2.853-.916-.729-2.04-1.156-3.208-1.218-1.176-.063-2.335.236-3.323.87-.992.63-1.754 1.543-2.177 2.627l-21.199 55.312-.213.555c-6.282 16.385-.93 34.908 13.059 45.488.026.016.049.036.075.056l.188.141 32.29 24.174 15.972 12.09 9.72 7.349c2.341 1.773 5.578 1.773 7.92 0l9.72-7.349 15.968-12.09 32.481-24.315c.03-.023.056-.043.086-.066 13.978-10.58 19.327-29.096 13.049-45.478z"/>
    <path fill="#FC6D26" d="M265.264 174.372l-.213-.558c-10.518 2.161-20.204 6.61-28.499 12.816-.134.098-25.204 19.058-46.551 35.197 15.85 11.985 29.647 22.404 29.647 22.404l32.482-24.315c.03-.023.056-.043.085-.066 13.978-10.58 19.328-29.096 13.05-45.478z"/>
    <path fill="#FCA326" d="M160.35 244.231l15.971 12.09 9.72 7.349c2.341 1.773 5.578 1.773 7.92 0l9.72-7.349 15.968-12.09s-13.798-10.419-29.648-22.404c-15.853 11.985-29.651 22.404-29.651 22.404z"/>
    <path fill="#FC6D26" d="M143.446 186.63c-8.291-6.203-17.975-10.655-28.495-12.813l-.214.555c-6.281 16.385-.929 34.908 13.06 45.488.026.016.049.036.075.056l.187.141 32.291 24.174s13.798-10.419 29.651-22.404c-21.347-16.14-46.42-35.099-46.555-35.197z"/>
</svg>
