<svg viewBox="0 -9.5 256 256" xmlns="http://www.w3.org/2000/svg">
    <path d="M74.84,106.89L33.97,121.76c.52,6.55,1.65,13.02,3.24,19.37l38.82-14.14c-1.24-6.55-1.69-13.32-1.18-20.1" fill="#DA2430"/>
    <path d="M255.44,61.7c-2.85-5.88-6.15-11.56-9.97-16.91l-40.86,14.87c4.76,4.86,8.74,10.33,12.01,16.18l38.82-14.13z" fill="#DA2430"/>
    <path d="M182.95,61.46c-5.14-4.46-10.95-8.31-17.41-11.32C127.6,32.45,82.33,48.9,64.64,86.86c-1,2.14-1.88,4.3-2.65,6.49-2.21,6.42-3.5,12.99-3.99,19.55l-24.6,8.95-15.83,5.85c0-.03,0-.06,0-.09l-.43.16C15.44,108.52,18.72,88.45,27.53,69.55c1.15-2.48,2.38-4.89,3.69-7.25C60.27,8.19,126.38-14.43,182.14,11.97c11.54,5.47,21.77,12.64,30.56,21.07,5.91,5.47,11.18,11.49,15.78,17.94l-40.86,14.87c-.21-.21-.42-.43-.63-.64l-.11.04c-1.26-1.31-2.56-2.58-3.92-3.8z" fill="#DA2430"/>
    <path d="M19.26,193.9l-.06.02C10.7,181.95,4.51,168.5.94,154.35l38.82-14.14.01.0c.01.04.02.08.03.13l.25-.09.01.02c1.99,10.56,6.14,20.63,12.2,29.49,2.31,3.29,4.89,6.41,7.72,9.32l-.15.06c.1.1.2.2.3.3l-40.49,14.97c-.12-.17-.24-.34-.36-.52z" fill="#E82429"/>
    <path d="M173.47,183.45c-21.05,13.02-48.05,15.53-72.11,4.31-8.51-3.97-15.93-9.34-22.12-15.69l-40.77,14.84c.1.15.21.29.31.44l-.02.01c11.21,16.02,26.5,29.41,45.27,38.3,40.47,19.16,86.39,12.5,119.63-13.29,14.89-11.15,27.32-26.01,35.71-44.02,8.82-18.9,12.07-38.96,10.51-58.38l-1.14.41c-.01-.21-.03-.42-.04-.63l-40.49,14.96.0.0c-.64,8.92-2.86,17.88-6.81,26.46-6.31,13.75-16.16,24.71-27.94,32.27z" fill="#DA2430"/>
    <path d="M218.55,75.13l.61-.22v0c6.39,13.14,10.29,27.43,11.45,42.06l-40.77,14.83c.01-.1.01-.2.02-.3l-.77.28c1.11-15.09-2.27-30.09-9.43-43.12l38.55-14.25.0-.0c.12.24.23.49.35.73z" fill="#E82429"/>
</svg>
