<?xml version="1.0" encoding="UTF-8"?>
<svg version="1.1" xmlns="http://www.w3.org/2000/svg" width="1200" height="630">
<path d="M0 0 C396 0 792 0 1200 0 C1200 207.9 1200 415.8 1200 630 C804 630 408 630 0 630 C0 422.1 0 214.2 0 0 Z " fill="#AA3630" transform="translate(0,0)"/>
<path d="M0 0 C3.98561154 2.62688033 6.23980531 5.28191592 7.75 9.8125 C8.44713817 13.8289665 8.58989988 17.29733179 6.57421875 20.93359375 C2.6237988 25.77026544 -2.10880676 28.77442283 -7.4140625 31.96484375 C-11.28192452 34.48481446 -14.54545953 37.47823782 -17.91015625 40.625 C-20.01496436 42.59276718 -22.17169086 44.45708178 -24.375 46.3125 C-51.11217839 69.85399969 -67.31312959 107.27133469 -70.10058594 142.43310547 C-72.69871215 183.80784087 -61.03151089 223.58078821 -34.03125 255.4296875 C-31.81442911 257.93531956 -29.54807974 260.38131172 -27.25 262.8125 C-26.50363281 263.62332031 -25.75726563 264.43414062 -24.98828125 265.26953125 C-1.12069544 290.32063371 36.11883587 307.09676725 70.65951538 308.17372131 C73.77924363 308.22383009 76.89660211 308.22886857 80.01660156 308.20361328 C82.38144114 308.18745599 84.74458477 308.20361686 87.109375 308.22265625 C97.03121337 308.2370207 106.08257002 307.21150773 115.75 304.8125 C117.1117334 304.47605469 117.1117334 304.47605469 118.50097656 304.1328125 C120.87197034 303.5106034 123.21709049 302.83724861 125.5625 302.125 C126.39652344 301.87226318 127.23054687 301.61952637 128.08984375 301.35913086 C139.44467938 297.79252039 150.25920799 293.08733339 160.375 286.8125 C165.27501715 283.84812499 168.07225107 282.83357777 173.75 283.8125 C179.09740414 285.76635921 182.20618143 288.72486287 184.75 293.8125 C185.12364646 299.41719691 184.95860998 302.99958503 181.75 307.8125 C177.22894498 311.9831389 172.44594697 314.86524563 167 317.6875 C166.16436523 318.12094727 165.32873047 318.55439453 164.46777344 319.00097656 C152.42113745 325.13092203 140.1742995 329.62018319 127.125 333.125 C125.78550293 333.48899902 125.78550293 333.48899902 124.41894531 333.86035156 C109.87688315 337.56797433 95.24150727 338.25550919 80.3125 338.25 C79.43870697 338.25073517 78.56491394 338.25147034 77.66464233 338.25222778 C62.87773768 338.21970094 49.02316823 336.90964211 34.75 332.8125 C33.84878418 332.56081055 32.94756836 332.30912109 32.01904297 332.04980469 C7.76381577 325.10226168 -15.1356334 313.36274425 -34.25 296.8125 C-35.03117187 296.14089844 -35.81234375 295.46929687 -36.6171875 294.77734375 C-39.20539306 292.49922672 -41.73466075 290.17085872 -44.25 287.8125 C-44.74902832 287.3474707 -45.24805664 286.88244141 -45.76220703 286.40332031 C-72.23906885 261.53284647 -90.06141063 227.34854555 -97.25 191.8125 C-97.52714844 190.55179688 -97.80429688 189.29109375 -98.08984375 187.9921875 C-102.42776468 166.33458793 -101.76524138 142.38153561 -97.25 120.8125 C-97.11078125 120.10206543 -96.9715625 119.39163086 -96.828125 118.65966797 C-87.62994887 72.16842357 -59.69982158 31.98907546 -21.25 4.8125 C-20.25484375 4.10609375 -19.2596875 3.3996875 -18.234375 2.671875 C-11.85622732 -1.51500722 -7.41142922 -2.70802222 0 0 Z " fill="#FEFDFD" transform="translate(238.25,145.1875)"/>
<path d="M0 0 C10.09050241 7.38735865 16.27081228 17.22173724 19.1875 29.3125 C20.37443265 44.1568655 18.13848944 57.05466534 9.1875 69.3125 C4.28434895 74.69980421 -1.08752339 78.55143237 -7.8125 81.3125 C-8.86630859 81.84423828 -8.86630859 81.84423828 -9.94140625 82.38671875 C-18.32896803 85.09127949 -30.74739739 84.99169622 -38.6875 81.125 C-42.42657092 78.88582255 -45.41080843 76.14724297 -48.8125 73.3125 C-49.1425 87.1725 -49.4725 101.0325 -49.8125 115.3125 C-57.0725 115.3125 -64.3325 115.3125 -71.8125 115.3125 C-71.8125 76.0425 -71.8125 36.7725 -71.8125 -3.6875 C-64.5525 -3.6875 -57.2925 -3.6875 -49.8125 -3.6875 C-49.4825 -1.0475 -49.1525 1.5925 -48.8125 4.3125 C-47.843125 3.405 -46.87375 2.4975 -45.875 1.5625 C-32.5973438 -9.85304588 -14.47884171 -8.94647878 0 0 Z " fill="#FEFDFC" transform="translate(1041.8125,272.6875)"/>
<path d="M0 0 C2.52389669 1.87803565 4.71868483 3.81787245 7 6 C7.33 3.36 7.66 0.72 8 -2 C15.26 -2 22.52 -2 30 -2 C30 26.05 30 54.1 30 83 C22.74 83 15.48 83 8 83 C7.505 79.04 7.505 79.04 7 75 C5.5459375 76.36125 5.5459375 76.36125 4.0625 77.75 C-5.51005455 85.73343482 -14.95973347 86.00814255 -27 85 C-36.40783209 83.73827252 -44.09121333 78.38674551 -50.33203125 71.3828125 C-59.53135639 59.33323263 -62.30359584 46.98771085 -61 32 C-58.6809777 20.09754818 -52.05906931 8.90998679 -42 2 C-29.77658334 -5.07962594 -12.63558094 -7.91222336 0 0 Z " fill="#FEFCFC" transform="translate(920,271)"/>
<path d="M0 0 C4.73536756 3.90912144 8.70705485 8.59317848 12.125 13.6875 C12.125 14.3475 12.125 15.0075 12.125 15.6875 C10.41259766 16.92431641 10.41259766 16.92431641 8.0390625 18.2890625 C7.19085938 18.77890625 6.34265625 19.26875 5.46875 19.7734375 C4.5715625 20.28132813 3.674375 20.78921875 2.75 21.3125 C1.41582031 22.0859375 1.41582031 22.0859375 0.0546875 22.875 C-6.60205853 26.6875 -6.60205853 26.6875 -8.875 26.6875 C-9.555625 25.65625 -10.23625 24.625 -10.9375 23.5625 C-15.48786723 16.90573133 -22.98335047 12.69979062 -30.80078125 11.08203125 C-42.40339466 9.59300462 -52.46324777 10.63040515 -62.1875 17.5 C-70.03228889 23.91700523 -75.31630825 31.51188973 -76.875 41.6875 C-77.7069129 54.26165898 -76.71468522 64.83701061 -68.4375 74.9765625 C-62.78537681 81.16563739 -55.36426534 86.12433058 -46.83544922 86.86450195 C-31.41482594 87.47403649 -31.41482594 87.47403649 -17.74609375 81.05078125 C-15.875 79.6875 -15.875 79.6875 -13.875 79.6875 C-13.875 79.0275 -13.875 78.3675 -13.875 77.6875 C-13.215 77.6875 -12.555 77.6875 -11.875 77.6875 C-11.565625 77.06875 -11.25625 76.45 -10.9375 75.8125 C-10.25 74.4375 -9.5625 73.0625 -8.875 71.6875 C-5.7914232 72.31933093 -3.46122008 73.35938344 -0.765625 74.97265625 C-0.01152344 75.42060547 0.74257813 75.86855469 1.51953125 76.33007812 C2.29683594 76.79865234 3.07414062 77.26722656 3.875 77.75 C4.66777344 78.22244141 5.46054687 78.69488281 6.27734375 79.18164062 C8.2293111 80.34576573 10.17835805 81.51449902 12.125 82.6875 C4.54286614 96.74891188 -7.55234594 105.02007684 -22.58349609 109.8671875 C-28.1360312 111.25099687 -33.55209286 111.3242253 -39.25 111.25 C-40.4359375 111.23976807 -41.621875 111.22953613 -42.84375 111.21899414 C-51.76220386 111.00277064 -58.92207187 109.96315083 -66.875 105.6875 C-67.82761719 105.19121094 -68.78023438 104.69492187 -69.76171875 104.18359375 C-84.12663071 95.86917469 -93.56951271 83.24222409 -98.875 67.6875 C-99.23464844 66.65367187 -99.59429687 65.61984375 -99.96484375 64.5546875 C-101.12106056 59.64200665 -101.2175667 55.0297286 -101.1875 50 C-101.18186035 49.02047363 -101.1762207 48.04094727 -101.17041016 47.03173828 C-100.86901087 29.0522262 -93.76316646 14.1824491 -80.9375 1.625 C-57.47926368 -18.35646194 -24.47116955 -17.75523965 0 0 Z " fill="#FDFCFC" transform="translate(368.875,245.3125)"/>
<path d="M0 0 C10.81960381 6.54386803 18.34530698 16.19654973 22.17993164 28.22851562 C23.16267784 32.37705809 23.11368195 36.42657396 23.0078125 40.66796875 C23.00265625 41.52519531 22.9975 42.38242187 22.9921875 43.265625 C22.91298405 49.5127972 22.91298405 49.5127972 21.7578125 50.66796875 C19.79412097 50.76197545 17.82702051 50.78540256 15.86108398 50.78149414 C14.59985214 50.78141861 13.3386203 50.78134308 12.03916931 50.78126526 C10.65241456 50.77615785 9.26566021 50.77094184 7.87890625 50.765625 C6.46786041 50.76376076 5.05681393 50.76233689 3.64576721 50.76133728 C-0.07459285 50.75751254 -3.7949141 50.74768265 -7.51525879 50.7366333 C-11.30899531 50.72641823 -15.10273808 50.72183946 -18.89648438 50.71679688 C-26.34506981 50.70606033 -33.79362322 50.68898445 -41.2421875 50.66796875 C-40.63267628 51.9548613 -40.01524775 53.23800583 -39.39453125 54.51953125 C-39.05156006 55.23447754 -38.70858887 55.94942383 -38.35522461 56.68603516 C-35.8686148 61.11382599 -31.92130655 63.16102648 -27.2421875 64.66796875 C-19.3797594 65.70023934 -10.50285049 66.33699892 -3.7421875 61.73046875 C-2.55475154 60.73387071 -1.38252758 59.71812888 -0.2421875 58.66796875 C0.4178125 58.33796875 1.0778125 58.00796875 1.7578125 57.66796875 C3.54541016 58.47241211 3.54541016 58.47241211 5.671875 59.7578125 C6.43242188 60.21220703 7.19296875 60.66660156 7.9765625 61.13476562 C8.770625 61.62009766 9.5646875 62.10542969 10.3828125 62.60546875 C11.18460938 63.08693359 11.98640625 63.56839844 12.8125 64.06445312 C14.79869792 65.2585364 16.78008792 66.45992076 18.7578125 67.66796875 C13.89670597 76.65554513 5.30097475 81.70456573 -4.2421875 84.66796875 C-14.48631759 87.61235678 -29.32779611 87.35625602 -39 82.921875 C-40.10988281 82.30119141 -40.10988281 82.30119141 -41.2421875 81.66796875 C-42.41394531 81.03181641 -42.41394531 81.03181641 -43.609375 80.3828125 C-54.84486629 73.59233881 -60.32360953 64.00676294 -64.5546875 51.91796875 C-67.23355994 39.22583523 -65.31513346 26.80203566 -58.4296875 15.85546875 C-45.06495995 -2.60851894 -21.20993983 -9.88505029 0 0 Z " fill="#FDFAFA" transform="translate(681.2421875,270.33203125)"/>
<path d="M0 0 C1.38699097 0.01244751 1.38699097 0.01244751 2.80200195 0.02514648 C9.70793867 0.19604637 15.5195236 1.01396332 21.625 4.4375 C22.49253906 4.92347656 23.36007812 5.40945313 24.25390625 5.91015625 C30.73660143 9.99686275 34.84591676 14.81930853 38.625 21.4375 C39.38683594 22.70980469 39.38683594 22.70980469 40.1640625 24.0078125 C45.52297257 34.51606632 43.625 41.31874143 43.625 54.4375 C22.505 54.4375 1.385 54.4375 -20.375 54.4375 C-16.20320554 62.83397634 -16.20320554 62.83397634 -9.30078125 67.625 C-1.67470285 69.74278946 8.19302542 70.13829782 15.4375 66.625 C17.87365927 64.95312599 20.26126943 63.21029793 22.625 61.4375 C27.905 64.4075 33.185 67.3775 38.625 70.4375 C38.625 74.45073076 37.19928684 75.69100785 34.59375 78.59765625 C25.87281613 86.74757659 15.61149314 90.00429576 3.9375 89.875 C2.47993286 89.86146484 2.47993286 89.86146484 0.99291992 89.84765625 C-12.93667628 89.5134295 -23.66506257 85.40587109 -33.47265625 75.26953125 C-41.20587645 65.99295075 -43.55117667 55.98077726 -43.625 44.1875 C-43.645625 43.37925781 -43.66625 42.57101562 -43.6875 41.73828125 C-43.76119034 30.22416624 -38.90289971 19.94289216 -31 11.625 C-22.00942837 3.24562952 -12.19273357 -0.1413231 0 0 Z " fill="#FDFBFB" transform="translate(477.375,266.5625)"/>
<path d="M0 0 C29.04 0 58.08 0 88 0 C88 7.26 88 14.52 88 22 C77.44 22 66.88 22 56 22 C56 54.01 56 86.02 56 119 C48.08 119 40.16 119 32 119 C32 86.99 32 54.98 32 22 C21.44 22 10.88 22 0 22 C0 14.74 0 7.48 0 0 Z " fill="#FDFBFB" transform="translate(779,235)"/>
<path d="M0 0 C7.92 0 15.84 0 24 0 C26.73847647 6.16157205 29.13769377 12.06503248 31.1875 18.4375 C31.78643122 20.26475913 32.38676351 22.09155945 32.98828125 23.91796875 C33.30748535 24.88782715 33.62668945 25.85768555 33.95556641 26.85693359 C35.88689236 32.66896967 37.87876422 38.45999853 39.875 44.25 C40.26840576 45.39911865 40.66181152 46.5482373 41.06713867 47.73217773 C41.61785034 49.32654663 41.61785034 49.32654663 42.1796875 50.953125 C42.50694824 51.90348633 42.83420898 52.85384766 43.17138672 53.83300781 C43.81076718 55.94674016 43.81076718 55.94674016 45 57 C46.85743426 51.77198871 48.71142589 46.54276667 50.5625 41.3125 C50.97225571 40.15476074 50.97225571 40.15476074 51.39028931 38.97363281 C55.03900386 28.65504706 58.62938965 18.32232701 62.03149414 7.91918945 C63.91236191 2.17527618 63.91236191 2.17527618 65 0 C72.92 0 80.84 0 89 0 C88.25402746 3.72986268 87.47416275 6.66046628 86.12890625 10.14453125 C85.72792725 11.19141113 85.32694824 12.23829102 84.91381836 13.31689453 C84.4678833 14.47044434 84.02194824 15.62399414 83.5625 16.8125 C82.57425788 19.38884839 81.5870808 21.96557942 80.6015625 24.54296875 C80.32946457 25.25376587 80.05736664 25.96456299 79.77702332 26.69689941 C77.26212025 33.2811868 74.79674739 39.88361749 72.3359375 46.48828125 C71.52010266 48.675375 70.70426606 50.8624681 69.88842773 53.04956055 C68.6627903 56.3358975 67.43836775 59.62266279 66.21755981 62.91079712 C65.06383737 66.01734375 63.90540745 69.12209893 62.74609375 72.2265625 C62.39755341 73.16909378 62.04901306 74.11162506 61.68991089 75.0827179 C61.36483551 75.95083603 61.03976013 76.81895416 60.70483398 77.71337891 C60.42268539 78.47196198 60.1405368 79.23054504 59.84983826 80.01211548 C59 82 59 82 57 85 C54.47802734 85.34057617 54.47802734 85.34057617 51.3359375 85.29296875 C50.21445312 85.28330078 49.09296875 85.27363281 47.9375 85.26367188 C46.1740625 85.2259668 46.1740625 85.2259668 44.375 85.1875 C43.19164062 85.17396484 42.00828125 85.16042969 40.7890625 85.14648438 C37.85892461 85.11103916 34.92968541 85.06162769 32 85 C30.83981809 81.971364 29.67967177 78.94271436 28.51953125 75.9140625 C28.15477692 74.96186325 27.79002258 74.009664 27.41421509 73.02861023 C25.39224169 67.74998516 23.37068688 62.4712003 21.34985352 57.19213867 C16.1303733 43.55686133 16.1303733 43.55686133 10.89772034 29.92663574 C9.6889036 26.78224422 8.4817099 23.63723103 7.27474976 20.49212646 C6.71896123 19.0452328 6.16234792 17.59865567 5.60488892 16.15240479 C4.83737253 14.16099051 4.07266515 12.16851933 3.30859375 10.17578125 C2.88376709 9.07145752 2.45894043 7.96713379 2.02124023 6.8293457 C1 4 1 4 0 0 Z " fill="#FEFCFC" transform="translate(524,269)"/>
<path d="M0 0 C47.68318966 0 47.68318966 0 58.80078125 10.62890625 C63.85698515 16.08026641 67.68240482 22.2360723 68.1875 29.8125 C68 32 68 32 67 33 C64.41507439 33.40426348 61.84653604 33.75393278 59.25 34.0625 C58.53328125 34.15337891 57.8165625 34.24425781 57.078125 34.33789062 C53.36548356 34.79173374 49.74069516 35.1104536 46 35 C45.608125 33.7625 45.21625 32.525 44.8125 31.25 C43.33050669 27.28162929 41.65650816 25.2853176 38 23 C32.90098049 21.30032683 27.35900683 21.41223129 22 21 C22 42.78 22 64.56 22 87 C14.74 87 7.48 87 0 87 C0 58.29 0 29.58 0 0 Z " fill="#FEFCFC" transform="translate(720,267)"/>
<path d="M0 0 C7.26 0 14.52 0 22 0 C22 40.92 22 81.84 22 124 C14.74 124 7.48 124 0 124 C0 83.08 0 42.16 0 0 Z " fill="#FEFDFD" transform="translate(396,230)"/>
<path d="M0 0 C5.55823574 4.35870196 8.53911745 8.97898687 9.4296875 16.01953125 C9.75937905 24.01888938 8.7185028 30.16981683 4.015625 36.74609375 C-1.2844057 42.04612445 -6.91550704 44.17591966 -14.359375 44.18359375 C-20.4041284 44.03558314 -25.27704006 43.76018697 -29.984375 39.74609375 C-36.43822232 32.79914349 -38.53709974 26.55028021 -38.35546875 17.10546875 C-37.67909588 10.9825143 -35.47546433 6.20649204 -31.08203125 1.8671875 C-21.63716823 -5.65607191 -10.28308519 -6.49777627 0 0 Z " fill="#AB3933" transform="translate(1029.984375,291.25390625)"/>
<path d="M0 0 C5.46345458 3.40861547 9.43701471 8.30785422 11.375 14.4375 C12.21366954 22.24154077 12.46770905 29.81219746 8.01171875 36.56640625 C4.03660109 41.11075316 -0.85448692 45.18181012 -6.96875 45.74609375 C-15.90914423 46.12529128 -22.61942011 45.68841377 -29.625 39.4375 C-35.49730306 32.24392875 -36.38831184 25.47980943 -35.625 16.4375 C-34.1238846 9.75370148 -30.70962951 4.82235685 -25.375 0.625 C-18.53615597 -3.43717052 -7.19357788 -3.19405968 0 0 Z " fill="#AA3832" transform="translate(916.625,289.5625)"/>
<path d="M0 0 C5.67507225 2.00296668 9.30675089 5.61350179 12 11 C12.42866527 16.46548215 11.63451736 20.1851924 9 25 C3.90341916 29.72366029 0.5590492 30.35238533 -6.234375 30.28125 C-11.12826017 29.78356676 -13.6775622 27.45468158 -16.875 23.9375 C-18.6472895 19.3098552 -18.63954548 14.8864149 -18 10 C-14.36063216 2.30133726 -8.35210269 -1.35575214 0 0 Z " fill="#FDFBFB" transform="translate(451,406)"/>
<path d="M0 0 C3.95892463 2.33898887 7.33506554 5.42813378 9.625 9.4375 C10.12 12.4075 10.12 12.4075 10.625 15.4375 C-3.565 15.4375 -17.755 15.4375 -32.375 15.4375 C-28.98451714 6.39621239 -28.98451714 6.39621239 -25.5 3.5625 C-24.84257812 3.00820313 -24.18515625 2.45390625 -23.5078125 1.8828125 C-16.69768891 -2.73210642 -7.53947334 -3.38477319 0 0 Z " fill="#AD3B35" transform="translate(488.375,287.5625)"/>
<path d="M0 0 C3.75210191 2.84845433 6.27429567 6.43593298 8.23828125 10.69921875 C8.23828125 11.68921875 8.23828125 12.67921875 8.23828125 13.69921875 C-5.95171875 13.69921875 -20.14171875 13.69921875 -34.76171875 13.69921875 C-32.30171157 6.31919721 -29.16279695 1.79218995 -22.51171875 -2.30078125 C-14.3724574 -4.47125094 -7.43618782 -4.13912209 0 0 Z " fill="#AD3A34" transform="translate(673.76171875,289.30078125)"/>
</svg>
