<svg xmlns="http://www.w3.org/2000/svg" viewBox="0 0 32 32">
  <defs>
    <style>
      .ac4e1fda-441f-45c3-89b5-eabc007f54ca {
        fill: #e1306c;
      }

      .a7c172c4-b213-4581-937c-bb042fd94b3e {
        fill: #fff;
      }
    </style>
  </defs>
  <g id="a864479b-0561-4117-aa66-744aa86c5250" data-name="Instagram">
    <g id="bb9ebb9e-2d15-4e72-a42a-7eff89494a26" data-name="Black and white">
      <rect class="ac4e1fda-441f-45c3-89b5-eabc007f54ca" width="32" height="32" rx="1.19"/>
    </g>
    <g>
      <path class="a7c172c4-b213-4581-937c-bb042fd94b3e" d="M16,6.09c-2.69,0-3,0-4.09.06a7.18,7.18,0,0,0-2.4.46,5,5,0,0,0-2.9,2.9,7.18,7.18,0,0,0-.46,2.4C6.1,13,6.09,13.31,6.09,16s0,3,.06,4.09a7.18,7.18,0,0,0,.46,2.4,5,5,0,0,0,2.9,2.9,7.18,7.18,0,0,0,2.4.46c1.06,0,1.4.06,4.09.06s3,0,4.09-.06a7.18,7.18,0,0,0,2.4-.46,5,5,0,0,0,2.9-2.9,7.18,7.18,0,0,0,.46-2.4c0-1.06.06-1.4.06-4.09s0-3-.06-4.09a7.18,7.18,0,0,0-.46-2.4,5,5,0,0,0-2.9-2.9,7.18,7.18,0,0,0-2.4-.46C19,6.1,18.69,6.09,16,6.09Zm0,1.79c2.65,0,3,0,4,0a5.73,5.73,0,0,1,1.84.34A3,3,0,0,1,23,9a3,3,0,0,1,.75,1.14A5.73,5.73,0,0,1,24.07,12c0,1,.05,1.35.05,4s0,3-.05,4a5.73,5.73,0,0,1-.34,1.84,3.38,3.38,0,0,1-1.89,1.89,5.73,5.73,0,0,1-1.84.34c-1,0-1.35.05-4,.05s-3,0-4-.05a5.73,5.73,0,0,1-1.84-.34A3,3,0,0,1,9,23a3,3,0,0,1-.75-1.14A5.73,5.73,0,0,1,7.93,20c0-1,0-1.35,0-4s0-3,0-4a5.73,5.73,0,0,1,.34-1.84A3,3,0,0,1,9,9a3,3,0,0,1,1.14-.75A5.73,5.73,0,0,1,12,7.93c1,0,1.35,0,4,0"/>
      <path class="a7c172c4-b213-4581-937c-bb042fd94b3e" d="M16,19.3A3.3,3.3,0,1,1,19.3,16,3.3,3.3,0,0,1,16,19.3Zm0-8.39A5.09,5.09,0,1,0,21.09,16,5.09,5.09,0,0,0,16,10.91Z"/>
      <path class="a7c172c4-b213-4581-937c-bb042fd94b3e" d="M22.48,10.71a1.19,1.19,0,1,1-1.19-1.19,1.19,1.19,0,0,1,1.19,1.19Z"/>
    </g>
  </g>
</svg>
