<svg xmlns="http://www.w3.org/2000/svg" viewBox="0 0 32 32">
  <defs>
    <style>
      .a975829d-e85a-4fdc-b46a-16eba47b4e8e {
        fill: #2867b2;
      }

      .b17912fc-cab5-4688-935b-8aa15b250003 {
        fill: #fff;
      }
    </style>
  </defs>
  <g id="adf29cd2-f5a2-4433-a836-7d0b8cd64c5d" data-name="LinkedIn">
    <g>
      <rect class="a975829d-e85a-4fdc-b46a-16eba47b4e8e" width="32" height="32" rx="1.19"/>
      <g>
        <polygon class="b17912fc-cab5-4688-935b-8aa15b250003" points="10.47 25.5 6.46 25.5 6.46 12.59 10.47 12.59 10.47 25.5 10.47 25.5"/>
        <path class="b17912fc-cab5-4688-935b-8aa15b250003" d="M8.46,10.83A2.33,2.33,0,1,1,10.79,8.5a2.33,2.33,0,0,1-2.33,2.33Z"/>
        <path class="b17912fc-cab5-4688-935b-8aa15b250003" d="M25.5,25.5h-4V19.22c0-1.49,0-3.42-2.09-3.42S17,17.43,17,19.11V25.5H13V12.59h3.84v1.76h.06a4.21,4.21,0,0,1,3.8-2.08c4.06,0,4.81,2.67,4.81,6.15V25.5Z"/>
      </g>
    </g>
  </g>
</svg>