<svg xmlns="http://www.w3.org/2000/svg" viewBox="0 0 32 32">
  <defs>
    <style>
      .b42551c7-a511-4544-a371-f6e3883f7abd {
        fill: #fff;
        fill-rule: evenodd;
      }
    </style>
  </defs>
  <g id="f00b56ab-1ecb-4d94-b704-cf429e3c78a4" data-name="GitHub">
    <g>
      <rect width="32" height="32" rx="1.19"/>
      <path class="b42551c7-a511-4544-a371-f6e3883f7abd" d="M16,5.13a11.06,11.06,0,0,0-3.5,21.55c.56.1.76-.24.76-.53s0-1,0-1.88c-3.07.67-3.72-1.48-3.72-1.48a2.91,2.91,0,0,0-1.23-1.62c-1-.69.08-.67.08-.67a2.32,2.32,0,0,1,1.69,1.14,2.36,2.36,0,0,0,3.22.92,2.36,2.36,0,0,1,.7-1.48c-2.45-.28-5-1.23-5-5.47a4.29,4.29,0,0,1,1.13-3,4,4,0,0,1,.11-2.93s.93-.3,3,1.13a10.55,10.55,0,0,1,5.54,0c2.11-1.43,3-1.13,3-1.13a4,4,0,0,1,.11,2.93,4.25,4.25,0,0,1,1.13,3c0,4.25-2.58,5.18-5.05,5.46a2.62,2.62,0,0,1,.75,2.05c0,1.47,0,2.67,0,3s.2.64.76.53A11.06,11.06,0,0,0,16,5.13Z"/>
    </g>
  </g>
</svg>