<svg xmlns="http://www.w3.org/2000/svg" viewBox="0 0 32 32">
  <defs>
    <style>
      .b48eca1a-55ea-4187-8747-2a0a7c0905ff {
        fill: #1da1f2;
      }

      .a0fa0208-710f-4171-b935-86383a49537b {
        fill: #fff;
      }
    </style>
  </defs>
  <g id="e43e3b03-e423-44e8-9d4d-c8c1f8f88064" data-name="Twitter">
    <g>
      <rect class="b48eca1a-55ea-4187-8747-2a0a7c0905ff" width="32" height="32" rx="1.19"/>
      <path class="a0fa0208-710f-4171-b935-86383a49537b" d="M24.42,11.5c0,.18,0,.37,0,.56A12.25,12.25,0,0,1,5.58,22.37,8.72,8.72,0,0,0,12,20.59a4.3,4.3,0,0,1-4-3,4.28,4.28,0,0,0,.81.07,4.22,4.22,0,0,0,1.13-.15A4.29,4.29,0,0,1,6.43,13.3v-.05a4.4,4.4,0,0,0,2,.54A4.31,4.31,0,0,1,7,8a12.26,12.26,0,0,0,8.88,4.5,4,4,0,0,1-.11-1,4.3,4.3,0,0,1,7.44-3,8.59,8.59,0,0,0,2.73-1A4.31,4.31,0,0,1,24.09,10a8.86,8.86,0,0,0,2.47-.68,8.72,8.72,0,0,1-2.14,2.23Z"/>
    </g>
  </g>
</svg>