<?xml version="1.0" encoding="UTF-8" standalone="no"?>
<!DOCTYPE svg PUBLIC "-//W3C//DTD SVG 1.1//EN" "http://www.w3.org/Graphics/SVG/1.1/DTD/svg11.dtd">
<svg width="100%" height="100%" viewBox="0 0 32 32" version="1.1" xmlns="http://www.w3.org/2000/svg" xmlns:xlink="http://www.w3.org/1999/xlink" xml:space="preserve" xmlns:serif="http://www.serif.com/" style="fill-rule:evenodd;clip-rule:evenodd;stroke-linejoin:round;stroke-miterlimit:2;">
    <g transform="matrix(0.321739,0,0,0.321739,-0.234299,0.0972928)">
        <path d="M64.38,23.5C67.556,24.99 70.436,27.044 72.88,29.56L88.62,23.83C80.176,12.044 66.537,5.037 52.039,5.037C27.353,5.037 7.039,25.351 7.039,50.037C7.039,51.183 7.083,52.328 7.17,53.47L22.91,47.74C24.033,32.597 36.806,20.737 51.99,20.737C56.273,20.737 60.503,21.68 64.38,23.5" style="fill:rgb(238,0,0);fill-rule:nonzero;"/>
        <path d="M16,58.19L1,63.63C2.371,69.099 4.744,74.267 8,78.87L23.7,73.16C19.696,69.029 16.99,63.813 15.92,58.16" style="fill:rgb(238,0,0);fill-rule:nonzero;"/>
        <path d="M81.16,52.25C80.904,55.75 80.009,59.173 78.52,62.35C71.736,76.878 54.205,83.258 39.67,76.49C36.487,75.027 33.599,72.994 31.15,70.49L15.45,76.21C23.88,88.016 37.524,95.039 52.032,95.039C69.504,95.039 85.459,84.851 92.81,69C96.075,61.982 97.454,54.233 96.81,46.52L81.16,52.25Z" style="fill:rgb(238,0,0);fill-rule:nonzero;"/>
        <path d="M85,33L70,38.45C72.851,43.476 74.153,49.236 73.74,55L89.44,49.29C88.992,43.63 87.486,38.104 85,33" style="fill:rgb(238,0,0);fill-rule:nonzero;"/>
        <path d="M29.46,45.36L13.72,51.09C13.94,53.604 14.368,56.096 15,58.54L30,53.1C29.501,50.552 29.346,47.949 29.54,45.36" style="fill:rgb(204,0,0);fill-rule:nonzero;"/>
        <path d="M99,28C97.903,25.724 96.619,23.543 95.16,21.48L79.43,27.18C81.238,29.04 82.791,31.132 84.05,33.4L99,28Z" style="fill:rgb(204,0,0);fill-rule:nonzero;"/>
        <path d="M15.45,76.17C16.671,77.879 18.007,79.503 19.45,81.03L36.54,74.79C34.578,73.561 32.769,72.105 31.15,70.45L15.45,76.17ZM96.86,46.54L81.16,52.25C80.985,54.545 80.539,56.81 79.83,59L96.92,52.76C97.04,50.684 97.02,48.603 96.86,46.53" style="fill:rgb(204,0,0);fill-rule:nonzero;"/>
        <path d="M29.4,48.52C29.36,47.466 29.38,46.411 29.46,45.36L13.72,51.09C13.8,52.09 13.93,53.09 14.08,54.09L29.4,48.52Z" style="fill:rgb(163,0,0);fill-rule:nonzero;"/>
        <path d="M96.72,23.82C96.22,23.01 95.72,22.22 95.16,21.44L79.43,27.18C80.116,27.884 80.764,28.626 81.37,29.4L96.72,23.82Z" style="fill:rgb(163,0,0);fill-rule:nonzero;"/>
    </g>
</svg>
