<?xml version="1.0" encoding="UTF-8"?>
<svg id="Layer_1" xmlns="http://www.w3.org/2000/svg" version="1.1" viewBox="0 0 224 277">
  <!-- Generator: Adobe Illustrator 29.1.0, SVG Export Plug-In . SVG Version: 2.1.0 Build 142)  -->
  <defs>
    <style>
      .st0 {
        fill: #231f20;
      }
    </style>
  </defs>
  <path class="st0" d="M94,50.9h36.5V18.6c0-1.8-1.4-3.2-3.2-3.2H20.6c-1.7,0-3.2,1.4-3.2,3.2v29.2c0,1.7,1.4,3.2,3.2,3.2h73.4Z"/>
  <path class="st0" d="M204.3,15.4h-11.9c0,0-.2,0-.2.1l-61.7,35.4h0c-.6.2-1.2.4-1.7.7l-34.8,20v171.1l32,18.6c1.6.8,3.4.2,4.2-1.4.2-.4.3-.9.3-1.3V50.9h73.4c1.7,0,3.2-1.4,3.2-3.2v-29.2c0-1.6-1.2-3-2.8-3.2Z"/>
</svg>