<svg id="Guides" xmlns="http://www.w3.org/2000/svg" xmlns:xlink="http://www.w3.org/1999/xlink" viewBox="0 0 128 128"><defs><style>.cls-1{fill:none;}.cls-2{clip-path:url(#clip-path);}.cls-3{fill:#4d4d4d;}.cls-4{fill:#e1e1e1;}.cls-5{fill:#c8c8c8;}.cls-6{fill:#c2c2c2;}.cls-7{fill:#c7c7c7;}.cls-8{fill:#cecece;}.cls-9{fill:#d3d3d3;}.cls-10{fill:#c6c6c6;}.cls-11{fill:#d5d5d5;}.cls-12{fill:#d0d0d0;}.cls-13{fill:#bfbfbf;}.cls-14{fill:#d9d9d9;}.cls-15{fill:#d4d4d4;}.cls-16{fill:#d8d8d8;}.cls-17{fill:#e2e2e2;}.cls-18{fill:#e4e4e4;}.cls-19{fill:#dedede;}.cls-20{fill:#c5c5c5;}.cls-21{fill:#d1d1d1;}.cls-22{fill:#ddd;}.cls-23{fill:#e3e3e3;}.cls-24{fill:#00b8e3;}.cls-25{fill:#33c6e9;}.cls-26{fill:#008aaa;}</style><clipPath id="clip-path"><rect class="cls-1" x="0.02" y="-0.02" width="127.98" height="127.98"/></clipPath></defs><title>keycloak_deliverables</title><g class="cls-2"><path class="cls-3" d="M109.62,38a1,1,0,0,1-.83-0.47l-14.44-25A1,1,0,0,0,93.51,12H34.59a1,1,0,0,0-.83.47l-15,26a0,0,0,0,0,0,0L4.31,63.5a1,1,0,0,0,0,1l14.45,25,15,26a1,1,0,0,0,.83.47H93.51a1,1,0,0,0,.84-0.47l14.45-25a1,1,0,0,1,.83-0.47h18a1.08,1.08,0,0,0,1.08-1.08V39.06A1.08,1.08,0,0,0,127.61,38h-18Z"/><path class="cls-1" d="M127.61,38H19.6a1,1,0,0,0-.83.47s0,0,0,0l-0.53.92L11.62,50.85,4.31,63.5a1,1,0,0,0,0,1L5.9,67.21,18.76,89.49a1,1,0,0,0,.84.48h108a1.07,1.07,0,0,0,1.06-1.07V39.06A1.08,1.08,0,0,0,127.61,38Z"/><path class="cls-4" d="M22,61.35L5.9,67.21,4.31,64.46a1,1,0,0,1,0-1l7.31-12.66Z"/><polygon class="cls-5" points="118.06 66.03 128.69 64.51 128.69 76.85 118.06 66.03"/><path class="cls-6" d="M118.05,66l10.64,10.82V88.9A1.07,1.07,0,0,1,127.63,90H115.25Z"/><polygon class="cls-7" points="118.06 66.03 115.25 89.97 100.37 89.97 95.86 79.11 118.06 66.03"/><polygon class="cls-8" points="118.06 66.03 128.69 53.08 128.69 64.51 118.06 66.03"/><path class="cls-9" d="M128.69,39.06v14L118.05,66l-8-28h17.58A1.08,1.08,0,0,1,128.69,39.06Z"/><polygon class="cls-10" points="100.37 89.97 92.52 89.97 90.48 87.05 95.86 79.11 100.37 89.97"/><polygon class="cls-11" points="118.06 66.03 88.61 53.58 104.1 37.98 110.03 37.98 118.06 66.03"/><path class="cls-12" d="M88.61,53.58l7.25,25.52L118.05,66Z"/><polygon class="cls-13" points="92.52 89.97 90.39 89.97 90.48 87.05 92.52 89.97"/><polygon class="cls-14" points="104.1 37.98 88.61 53.58 85.82 39.63 91.8 37.98 104.1 37.98"/><path class="cls-15" d="M88.61,53.58L52.88,61.82,90.48,87.05Z"/><path class="cls-12" d="M88.61,53.58l1.87,33.47,5.37-7.95Z"/><path class="cls-14" d="M85.82,39.63L52.88,61.82l35.74-8.24Z"/><polygon class="cls-16" points="52.88 61.82 37.38 89.97 28.56 89.97 22.04 61.35 52.88 61.82"/><path class="cls-17" d="M37,38L22,61.35l-3.81-22,0.53-.92s0,0,0,0A1,1,0,0,1,19.6,38H37Z"/><path class="cls-16" d="M28.56,90h-9a1,1,0,0,1-.84-0.48L5.9,67.21,22,61.35Z"/><polygon class="cls-18" points="22.04 61.35 11.62 50.84 18.23 39.39 22.04 61.35"/><polygon class="cls-19" points="69.2 37.98 58.89 37.98 43.11 37.98 52.88 61.82 85.82 39.63 75.89 37.98 69.2 37.98"/><polygon class="cls-19" points="39.03 37.98 37 37.98 22.04 61.35 52.88 61.82 43.11 37.98 39.03 37.98"/><polygon class="cls-20" points="83.31 89.97 89.06 89.97 90.39 89.97 90.48 87.05 83.31 89.97"/><polygon class="cls-12" points="90.48 87.05 52.88 61.82 59.65 89.97 69.2 89.97 83.31 89.97 90.48 87.05"/><polygon class="cls-21" points="37.38 89.97 39.03 89.97 58.89 89.97 59.65 89.97 52.88 61.82 37.38 89.97"/><polygon class="cls-22" points="85.92 37.98 85.82 39.63 91.8 37.98 89.06 37.98 85.92 37.98"/><polygon class="cls-23" points="75.89 37.98 85.82 39.63 84.9 37.98 75.89 37.98"/><polygon class="cls-17" points="84.9 37.98 85.82 39.63 85.92 37.98 84.9 37.98"/><path class="cls-24" d="M58.8,38.43L44.27,63.59a0.85,0.85,0,0,0-.1.41H34L54,29.46a0.78,0.78,0,0,1,.3.29l0,0,4.52,7.85A0.87,0.87,0,0,1,58.8,38.43Z"/><path class="cls-25" d="M58.78,90.45l-4.51,7.82a0.88,0.88,0,0,1-.31.29L34,64H44.16a0.77,0.77,0,0,0,.1.39,0.09,0.09,0,0,0,0,0l14.5,25.14A0.85,0.85,0,0,1,58.78,90.45Z"/><path class="cls-26" d="M54,29.46L34,64h0l-5,8.66L24.25,64.4a0.77,0.77,0,0,1-.1-0.39,0.85,0.85,0,0,1,.1-0.41l4.83-8.38L43.78,29.79a0.85,0.85,0,0,1,.74-0.44h9A0.89,0.89,0,0,1,54,29.46Z"/><path class="cls-24" d="M54,98.55a0.89,0.89,0,0,1-.43.11h-9a0.85,0.85,0,0,1-.74-0.44L30.35,75,29,72.67,34,64Z"/><path class="cls-26" d="M94.05,64L74.1,98.55a0.93,0.93,0,0,1-.3-0.29l0,0L69.27,90.4a0.87,0.87,0,0,1,0-.8L83.79,64.44A0.84,0.84,0,0,0,83.91,64H94.05Z"/><path class="cls-24" d="M103.92,64a0.84,0.84,0,0,1-.12.44L84.27,98.26a0.86,0.86,0,0,1-.73.4h-9a0.93,0.93,0,0,1-.44-0.11L94.05,64l5-8.65,4.75,8.23A0.84,0.84,0,0,1,103.92,64Z"/><path class="cls-24" d="M94.05,64H83.91a0.84,0.84,0,0,0-.12-0.43L69.29,38.44a0.85,0.85,0,0,1,0-.87l4.52-7.82a0.93,0.93,0,0,1,.3-0.29Z"/><path class="cls-25" d="M99.05,55.34h0l-5,8.65L74.1,29.46a0.93,0.93,0,0,1,.44-0.11h9a0.86,0.86,0,0,1,.73.4Z"/></g></svg>