<svg id="Guides" xmlns="http://www.w3.org/2000/svg" xmlns:xlink="http://www.w3.org/1999/xlink" viewBox="0 0 256 256"><defs><style>.cls-1{fill:none;}.cls-2{clip-path:url(#clip-path);}.cls-3{fill:#4d4d4d;}.cls-4{fill:#e1e1e1;}.cls-5{fill:#c8c8c8;}.cls-6{fill:#c2c2c2;}.cls-7{fill:#c7c7c7;}.cls-8{fill:#cecece;}.cls-9{fill:#d3d3d3;}.cls-10{fill:#c6c6c6;}.cls-11{fill:#d5d5d5;}.cls-12{fill:#d0d0d0;}.cls-13{fill:#bfbfbf;}.cls-14{fill:#d9d9d9;}.cls-15{fill:#d4d4d4;}.cls-16{fill:#d8d8d8;}.cls-17{fill:#e2e2e2;}.cls-18{fill:#e4e4e4;}.cls-19{fill:#dedede;}.cls-20{fill:#c5c5c5;}.cls-21{fill:#d1d1d1;}.cls-22{fill:#ddd;}.cls-23{fill:#e3e3e3;}.cls-24{fill:#00b8e3;}.cls-25{fill:#33c6e9;}.cls-26{fill:#008aaa;}</style><clipPath id="clip-path"><rect class="cls-1" x="0.02" y="0.02" width="255.98" height="255.98"/></clipPath></defs><title>keycloak_deliverables</title><g class="cls-2"><path class="cls-3" d="M219.24,76a1.9,1.9,0,0,1-1.66-.95L188.7,25A2,2,0,0,0,187,24H69.18a1.9,1.9,0,0,0-1.66.95l-30,52a0,0,0,0,0,0,0L8.6,127.05a1.94,1.94,0,0,0,0,1.91L37.5,179l30,52a1.9,1.9,0,0,0,1.66.95H187a2,2,0,0,0,1.68-.95L217.6,181a1.9,1.9,0,0,1,1.66-.95h36a2.16,2.16,0,0,0,2.16-2.16V78.17A2.16,2.16,0,0,0,255.22,76h-36Z"/><path class="cls-1" d="M255.23,76h-216a2,2,0,0,0-1.66.93s0,0,0,0l-1.07,1.85L23.22,101.75,8.61,127.06a1.9,1.9,0,0,0,0,1.92l3.17,5.5L37.51,179a1.92,1.92,0,0,0,1.67,1H255.26a2.14,2.14,0,0,0,2.12-2.14V78.18A2.16,2.16,0,0,0,255.23,76Z"/><path class="cls-4" d="M44.06,122.76L11.78,134.48,8.61,129a1.9,1.9,0,0,1,0-1.92l14.61-25.31Z"/><polygon class="cls-5" points="236.11 132.11 257.38 129.07 257.38 153.75 236.11 132.11"/><path class="cls-6" d="M236.11,132.11l21.27,21.64v24.1a2.14,2.14,0,0,1-2.12,2.14H230.5Z"/><polygon class="cls-7" points="236.11 132.11 230.5 179.99 200.74 179.99 191.71 158.27 236.11 132.11"/><polygon class="cls-8" points="236.11 132.11 257.38 106.21 257.38 129.07 236.11 132.11"/><path class="cls-9" d="M257.38,78.17v28l-21.27,25.9L220.06,76h35.16A2.16,2.16,0,0,1,257.38,78.17Z"/><polygon class="cls-10" points="200.74 179.99 185.03 179.99 180.96 174.16 191.71 158.27 200.74 179.99"/><polygon class="cls-11" points="236.11 132.11 177.22 107.22 208.19 76.02 220.06 76.02 236.11 132.11"/><path class="cls-12" d="M177.22,107.22l14.49,51.05,44.4-26.16Z"/><polygon class="cls-13" points="185.03 179.99 180.77 179.99 180.96 174.16 185.03 179.99"/><polygon class="cls-14" points="208.19 76.02 177.22 107.22 171.63 79.31 183.59 76.02 208.19 76.02"/><path class="cls-15" d="M177.22,107.22L105.74,123.7,181,174.16Z"/><path class="cls-12" d="M177.22,107.22L181,174.16l10.75-15.89Z"/><path class="cls-14" d="M171.63,79.31L105.74,123.7l71.48-16.48Z"/><polygon class="cls-16" points="105.74 123.7 74.76 179.99 57.11 179.99 44.06 122.76 105.74 123.7"/><path class="cls-17" d="M74,76L44.06,122.76,36.44,78.83,37.51,77s0,0,0,0A2,2,0,0,1,39.18,76H74Z"/><path class="cls-16" d="M57.11,180H39.18a1.92,1.92,0,0,1-1.67-1L11.78,134.48l32.28-11.72Z"/><polygon class="cls-18" points="44.06 122.76 23.22 101.74 36.44 78.83 44.06 122.76"/><polygon class="cls-19" points="138.4 76.02 117.78 76.02 86.2 76.02 105.74 123.7 171.63 79.31 151.77 76.02 138.4 76.02"/><polygon class="cls-19" points="78.06 76.02 73.98 76.02 44.06 122.76 105.74 123.7 86.2 76.02 78.06 76.02"/><polygon class="cls-20" points="166.62 179.99 178.12 179.99 180.77 179.99 180.96 174.16 166.62 179.99"/><polygon class="cls-12" points="180.96 174.16 105.74 123.7 119.29 179.99 138.4 179.99 166.62 179.99 180.96 174.16"/><polygon class="cls-21" points="74.76 179.99 78.06 179.99 117.78 179.99 119.29 179.99 105.74 123.7 74.76 179.99"/><polygon class="cls-22" points="171.83 76.02 171.63 79.31 183.59 76.02 178.12 76.02 171.83 76.02"/><polygon class="cls-23" points="151.77 76.02 171.63 79.31 169.79 76.02 151.77 76.02"/><polygon class="cls-17" points="169.79 76.02 171.63 79.31 171.83 76.02 169.79 76.02"/><path class="cls-24" d="M117.58,76.91L88.52,127.24a1.69,1.69,0,0,0-.21.82H68L107.91,59a1.57,1.57,0,0,1,.59.58l0.05,0.05,9,15.7A1.74,1.74,0,0,1,117.58,76.91Z"/><path class="cls-25" d="M117.55,181l-9,15.63a1.75,1.75,0,0,1-.61.58L68,128.08v0H88.31a1.54,1.54,0,0,0,.19.79,0.18,0.18,0,0,0,0,.09l29,50.29A1.7,1.7,0,0,1,117.55,181Z"/><path class="cls-26" d="M107.91,59L68,128.06h0v0L58,145.4l-9.55-16.56a1.54,1.54,0,0,1-.19-0.79,1.69,1.69,0,0,1,.21-0.82l9.67-16.75L87.54,59.62A1.7,1.7,0,0,1,89,58.75h18A1.79,1.79,0,0,1,107.91,59Z"/><path class="cls-24" d="M107.91,197.16a1.79,1.79,0,0,1-.86.23H89a1.7,1.7,0,0,1-1.49-.87L60.69,150,58,145.4l10-17.33Z"/><path class="cls-26" d="M188.1,128.06l-39.9,69.1a1.87,1.87,0,0,1-.59-0.58l0-.05-9-15.67a1.74,1.74,0,0,1,0-1.61l29-50.32a1.69,1.69,0,0,0,.24-0.87H188.1Z"/><path class="cls-24" d="M207.84,128.06a1.69,1.69,0,0,1-.24.87l-39.06,67.65a1.71,1.71,0,0,1-1.45.8h-18a1.86,1.86,0,0,1-.87-0.23l39.9-69.1,10-17.31,9.49,16.45A1.68,1.68,0,0,1,207.84,128.06Z"/><path class="cls-24" d="M188.1,128.06H167.82a1.68,1.68,0,0,0-.24-0.86l-29-50.27a1.7,1.7,0,0,1,0-1.73l9-15.65A1.87,1.87,0,0,1,148.2,59Z"/><path class="cls-25" d="M198.1,110.73v0l-10,17.31L148.2,59a1.86,1.86,0,0,1,.87-0.23h18a1.71,1.71,0,0,1,1.45.8Z"/></g></svg>