<?xml version="1.0" encoding="utf-8"?>
<!-- Generator: Adobe Illustrator 19.2.1, SVG Export Plug-In . SVG Version: 6.00 Build 0)  -->
<svg version="1.0" xmlns="http://www.w3.org/2000/svg" xmlns:xlink="http://www.w3.org/1999/xlink" x="0px" y="0px"
	 viewBox="0 0 1024 494" style="enable-background:new 0 0 1024 494;" xml:space="preserve">
<style type="text/css">
	.st0{fill:#FFFFFF;}
</style>
<g id="grid">
</g>
<g id="Layer_1">
	<g>
		<path d="M719.7,359.1L703,388L719.7,359.1c0.1-0.1,0.2-0.3,0.2-0.4C719.8,358.9,719.8,359,719.7,359.1z M599.6,375.4l-7.3,12.6
			L599.6,375.4c0-0.1,0.1-0.1,0.1-0.2C599.7,375.2,599.7,375.3,599.6,375.4z M564.5,388.8c0.2,0,0.3,0.1,0.5,0.1c0,0,0.1,0,0.1,0
			C564.9,388.9,564.7,388.9,564.5,388.8z M527,388.8c0.1,0,0.3,0.1,0.5,0.1c0.2,0,0.5,0,0.7-0.1C527.8,388.9,527.4,388.9,527,388.8z
			"/>
		<path d="M284.2,357.8c-0.1,0.3-0.1,0.6,0,0.9C284.1,358.4,284.1,358.1,284.2,357.8z M691.1,309.5H481.5c0,0,0.1,0,0.1,0h209.5
			C691.1,309.5,691.1,309.5,691.1,309.5z M697,307.9c-0.1-0.1-0.2-0.2-0.2-0.4C696.8,307.7,696.9,307.8,697,307.9l23.9,41.4
			L697,307.9z"/>
	</g>
	<g>
		<path class="st0" d="M691.1,309.5H481.5c0,0,0.1,0,0.1,0h209.5C691.1,309.5,691.1,309.5,691.1,309.5z M599.6,375.4l-7.3,12.6
			L599.6,375.4c0-0.1,0.1-0.1,0.1-0.2C599.7,375.2,599.7,375.3,599.6,375.4z M284.2,357.8c-0.1,0.3-0.1,0.6,0,0.9
			C284.1,358.4,284.1,358.1,284.2,357.8z"/>
		<path d="M691.1,304.5H483.5l0,0L691.1,304.5c0.2,0,0.5,0,0.7,0C691.5,304.5,691.3,304.5,691.1,304.5z M599.6,375.4l-7.3,12.6
			L599.6,375.4c0-0.1,0.1-0.1,0.1-0.2C599.7,375.2,599.7,375.3,599.6,375.4z M719.7,359.1L703,388L719.7,359.1
			c0.1-0.1,0.2-0.3,0.2-0.4C719.8,358.9,719.8,359,719.7,359.1z"/>
		<path d="M724.9,357.8c0-0.2,0-0.4-0.1-0.6c0-0.1,0-0.3-0.1-0.4c0-0.2-0.1-0.3-0.1-0.4c0,0,0,0,0,0c0-0.1-0.1-0.2-0.1-0.2
			c0-0.1-0.1-0.2-0.1-0.3c0-0.1-0.1-0.1-0.1-0.2c-0.1-0.2-0.2-0.4-0.2-0.5c0-0.1-0.1-0.2-0.1-0.3L697,308c-0.1-0.1-0.2-0.3-0.2-0.4
			c-0.8-1.1-1.8-2-3-2.5c-0.4-0.2-0.8-0.3-1.3-0.4c-0.2,0-0.4-0.1-0.7-0.1c-0.2,0-0.4,0-0.7,0H483.5l0,0l-26.1-45.3
			c-1.2-2.1-3.5-3.4-5.9-3.4H341.1c-2.4,0-4.7,1.3-5.9,3.4L280,354.8c-0.1,0.1-0.2,0.3-0.2,0.4c-0.1,0.3-0.2,0.5-0.3,0.8
			c-0.1,0.3-0.2,0.7-0.3,1.1c-0.1,0.6-0.1,1.2,0,1.9c0,0.3,0.1,0.5,0.1,0.8c0,0.2,0.1,0.3,0.1,0.5c0.2,0.5,0.4,0.9,0.6,1.4l27,46.8
			l28.1,48.7c1.2,2.1,3.5,3.4,5.9,3.4h110.4c2.4,0,4.7-1.3,5.9-3.4l26.2-45.3h207.6c2.4,0,4.7-1.3,5.9-3.4l27.1-46.9
			c0.1-0.1,0.1-0.2,0.2-0.4c0.1-0.1,0.1-0.3,0.2-0.4l0.1-0.4c0.3-0.7,0.4-1.5,0.4-2.2C724.9,358.1,724.9,357.9,724.9,357.8z
			 M284.2,358.7c-0.1-0.3-0.1-0.6,0-0.9c0,0,0,0,0,0c0-0.2,0.1-0.3,0.2-0.4v0l27.1-46.9c0.3-0.5,0.9-0.9,1.5-0.9h30.5l-26,45.1
			c-0.6,1-0.9,2.1-0.9,3.3c0,1.2,0.3,2.2,0.8,3.2l26.4,45.8H313c-0.6,0-1.2-0.3-1.5-0.9l-27.1-46.9
			C284.3,359,284.2,358.9,284.2,358.7z M386.6,406.9c0,0.2-0.1,0.4-0.2,0.5l-8.5,14.6c-0.1,0.2-0.3,0.4-0.6,0.5
			c-0.2,0.1-0.5,0.2-0.8,0.2h-16.9c-0.6,0-1.1-0.3-1.4-0.8l-36.6-63.4c-0.1-0.2-0.2-0.5-0.2-0.7s0.1-0.5,0.2-0.8l36.6-63.3
			c0.3-0.5,0.8-0.8,1.4-0.8h16.9c0.3,0,0.6,0.1,0.8,0.2c0.2,0.1,0.4,0.3,0.6,0.5l0,0l8.5,14.7c0.2,0.3,0.2,0.7,0.1,1.1
			c0,0.2-0.1,0.3-0.1,0.5l-27.2,47.1c-0.1,0.2-0.2,0.5-0.2,0.8s0,0.5,0.2,0.7c0,0,0,0,0,0.1l27.2,47.1
			C386.6,406.2,386.7,406.6,386.6,406.9z M401.7,403.5c-0.6,1.1-0.8,2.2-0.8,3.4h-9.3c0.1-1.2-0.2-2.5-0.9-3.6l-26.2-45.4l26.2-45.4
			c0-0.1,0.1-0.1,0.1-0.2c0.4-0.9,0.7-1.8,0.7-2.8h9.3c0,1,0.3,2.1,0.9,3l26.2,45.4l-26.2,45.5C401.7,403.4,401.7,403.5,401.7,403.5
			z M434.2,422.1c-0.3,0.5-0.8,0.8-1.4,0.8H416c-0.3,0-0.6-0.1-0.8-0.2c-0.2-0.1-0.4-0.3-0.6-0.5l0,0l-8.5-14.7
			c0-0.1-0.1-0.1-0.1-0.2c0-0.1,0-0.2,0-0.2c0-0.1,0-0.2,0-0.3c0-0.3,0.1-0.5,0.2-0.8l27.2-47.1c0.2-0.2,0.2-0.5,0.2-0.8
			c0-0.3-0.1-0.6-0.2-0.8L406.1,310c-0.1-0.1-0.1-0.3-0.2-0.5c0,0,0,0,0,0c0-0.1,0-0.2,0-0.2c0-0.3,0.1-0.6,0.2-0.9l8.5-14.7
			c0.1-0.2,0.3-0.4,0.6-0.5c0.2-0.1,0.5-0.2,0.8-0.2h16.9c0.6,0,1.1,0.3,1.4,0.8l36.6,63.4c0.1,0.2,0.2,0.5,0.2,0.8
			c0,0.3-0.1,0.6-0.2,0.8L434.2,422.1z M719.9,358.7c0,0.1-0.1,0.3-0.2,0.4L703,388c0,0,0,0.1-0.1,0.1c0,0,0,0.1-0.1,0.1
			c-0.1,0.1-0.1,0.1-0.2,0.2c-0.3,0.3-0.8,0.5-1.2,0.5c-0.6,0-1.2-0.3-1.5-0.9l-7.3-12.6c-0.3-0.6-0.9-0.9-1.6-0.9h-16.7
			c-0.6,0-1.2,0.3-1.6,0.9l-7.3,12.6c0,0.1-0.1,0.2-0.1,0.2c0,0.1-0.1,0.1-0.2,0.2c-0.1,0.1-0.2,0.2-0.4,0.3c-0.1,0-0.1,0.1-0.2,0.1
			c-0.2,0.1-0.5,0.1-0.7,0.1s-0.5,0-0.7-0.1c-0.1,0-0.1-0.1-0.2-0.1c-0.1-0.1-0.3-0.2-0.4-0.3c-0.1-0.1-0.2-0.2-0.3-0.4l-7.2-12.3
			l-0.2-0.3c-0.3-0.6-0.9-0.9-1.6-0.9h-5c-0.6,0-1.2,0.3-1.6,0.9l-7.3,12.6c-0.1,0.2-0.2,0.3-0.3,0.4c-0.1,0.1-0.2,0.2-0.4,0.3
			c-0.1,0-0.1,0.1-0.2,0.1c-0.2,0.1-0.4,0.1-0.7,0.1c-0.2,0-0.5,0-0.7-0.1c-0.1,0-0.1-0.1-0.2-0.1c-0.1-0.1-0.3-0.2-0.4-0.3
			c-0.1-0.1-0.2-0.2-0.3-0.4l-7.3-12.6c-0.3-0.6-0.9-0.9-1.5-0.9h-26.6c-0.5,0-0.9,0.2-1.3,0.5c-0.1,0.1-0.1,0.1-0.2,0.2
			s-0.1,0.1-0.1,0.2l-7.3,12.6c0,0.1-0.1,0.2-0.1,0.2c0,0.1-0.1,0.1-0.2,0.2c-0.1,0.1-0.2,0.2-0.4,0.3c-0.1,0-0.1,0.1-0.2,0.1
			c-0.2,0.1-0.5,0.1-0.7,0.1c-0.2,0-0.5,0-0.7-0.1c-0.1,0-0.1-0.1-0.2-0.1c-0.1-0.1-0.3-0.2-0.4-0.3c-0.1-0.1-0.1-0.1-0.2-0.2
			c0-0.1-0.1-0.1-0.1-0.2l-7.3-12.6c-0.3-0.6-0.9-0.9-1.6-0.9h-5c-0.6,0-1.2,0.3-1.5,0.9l-7.3,12.6c-0.1,0.2-0.2,0.3-0.3,0.4
			c-0.1,0.1-0.2,0.2-0.4,0.3c-0.1,0-0.1,0.1-0.2,0.1c-0.1,0-0.2,0.1-0.3,0.1c-0.1,0-0.2,0-0.3,0c0,0,0,0,0,0c0,0-0.1,0-0.1,0
			c-0.2,0-0.3,0-0.5-0.1c-0.1,0-0.3-0.1-0.4-0.2c-0.1-0.1-0.3-0.2-0.4-0.3c-0.1-0.1-0.1-0.1-0.2-0.2c-0.1-0.1-0.1-0.1-0.1-0.2
			l-7.3-12.6c-0.3-0.6-0.9-0.9-1.5-0.9h-16.7c-0.6,0-1.2,0.3-1.6,0.9L529,388c-0.1,0.2-0.2,0.3-0.3,0.4c-0.1,0.1-0.2,0.2-0.3,0.2
			c-0.1,0.1-0.2,0.1-0.3,0.1c-0.2,0.1-0.4,0.1-0.7,0.1c-0.2,0-0.3,0-0.5-0.1c-0.2,0-0.3-0.1-0.4-0.2c-0.1-0.1-0.3-0.2-0.4-0.3
			c-0.1-0.1-0.1-0.1-0.2-0.2c0-0.1-0.1-0.1-0.1-0.2l-7.3-12.6c-0.3-0.6-0.9-0.9-1.5-0.9h-16.7c-0.6,0-1.2,0.3-1.6,0.9L481.1,406
			c-0.3,0.6-0.9,0.9-1.6,0.9h-30.9l26.4-45.7c0.6-1,0.9-2.2,0.9-3.3c0-1.2-0.3-2.3-0.9-3.3l-26-45h242c0,0,0.1,0,0.1,0
			c0,0,0.1,0,0.1,0c0.1,0,0.2,0,0.2,0c0.1,0,0.2,0,0.2,0.1c0.2,0.1,0.4,0.2,0.6,0.4c0.1,0,0.1,0.1,0.2,0.2c0,0.1,0.1,0.1,0.1,0.2
			l27.1,46.9c0.1,0.1,0.1,0.3,0.2,0.4c0,0.1,0.1,0.2,0.1,0.3c0,0.1,0,0.2,0,0.3C719.9,358.4,719.9,358.6,719.9,358.7z"/>
	</g>
	<path d="M262,87.7h-34.2c-0.7,0-1.2-0.3-1.6-0.9l-27.4-47.5c-0.3-0.6-0.9-0.9-1.6-0.9H85.3c-0.7,0-1.3,0.3-1.6,0.9L55.3,88.6
		c0,0,0,0,0,0l-27.4,47.5c-0.3,0.5-0.3,1.2,0,1.8l27.4,47.5l28.5,49.4c0.3,0.6,0.9,0.9,1.6,0.9h111.9c0.7,0,1.3-0.3,1.6-0.9
		l27.4-47.5c0.3-0.6,0.9-0.9,1.6-0.9H262c1.1,0,2-0.9,2-2.1V89.8C264,88.7,263.1,87.7,262,87.7z M103.7,137.9
		C103.7,137.9,103.7,137.9,103.7,137.9l27.6,47.8c0.3,0.5,0.3,1.1,0,1.6l-8.6,14.8c-0.1,0.2-0.3,0.4-0.6,0.5
		c-0.2,0.1-0.5,0.2-0.8,0.2h-17.1c-0.6,0-1.1-0.3-1.4-0.8l-37.1-64.2c-0.1-0.2-0.2-0.5-0.2-0.8c0-0.3,0.1-0.6,0.2-0.8l37.1-64.2
		c0.3-0.5,0.8-0.8,1.4-0.8h17.1c0.3,0,0.6,0.1,0.8,0.2c0.2,0.1,0.4,0.3,0.6,0.5l0.1,0.1l8.6,14.9c0.2,0.5,0.2,1,0,1.5l-27.6,47.8
		c-0.1,0.2-0.2,0.5-0.2,0.8C103.5,137.4,103.5,137.7,103.7,137.9z M216.7,138l-37.1,64.2c-0.3,0.5-0.8,0.8-1.4,0.8h-17.1
		c-0.3,0-0.6-0.1-0.8-0.2c-0.2-0.1-0.4-0.3-0.6-0.5l0,0l-8.6-14.9c-0.2-0.5-0.2-1.1,0-1.5l27.5-47.8c0.2-0.2,0.2-0.5,0.2-0.8
		c0-0.3-0.1-0.6-0.2-0.8l-27.5-47.7c-0.3-0.5-0.3-1.1,0-1.6l8.6-14.9c0.1-0.2,0.3-0.4,0.6-0.5c0.2-0.1,0.5-0.2,0.8-0.2h17.1
		c0.6,0,1.1,0.3,1.4,0.8l37.1,64.2c0.2,0.2,0.2,0.5,0.2,0.8C217,137.4,216.9,137.7,216.7,138z"/>
	<path d="M995.5,186.4h-12.6h-10.6c-0.3,0-0.6-0.1-0.8-0.4l-1.8-2.5l-5-6.7l-13.5-18.2l-7.6-10.2c-0.4-0.5-1.1-0.5-1.5-0.1l-7.9,8.8
		l-0.9,1c-0.2,0.2-0.2,0.4-0.2,0.6v4.2v7.8v14.6c0,0.5-0.4,1-1,1h-20.1c-0.5,0-1-0.4-1-1v-4.5v-36.6v-39.7v-3.4v-0.8V88.8
		c0-0.5,0.4-1,1-1H932c0.5,0,1,0.4,1,1v10v10.8v16.2c0,0.9,1.1,1.3,1.7,0.7l11.1-12l16.5-17.9l7.7-8.4c0.2-0.2,0.4-0.3,0.7-0.3h1.9
		h13.7h9c0.6,0,1,0.5,1,1c0,0.2-0.1,0.4-0.2,0.6l-11.1,12.3l-18.4,20.5l-7.7,8.5c-0.3,0.3-0.3,0.8-0.1,1.2c2.2,3,5.4,7.5,9.6,13.4
		c2.5,3.6,5.4,7.7,8.7,12.3c0.4,0.5,0.7,1,1.1,1.5c2.4,3.3,4.6,6.4,6.6,9.2c2.5,3.6,4.8,6.8,6.9,9.7c1.8,2.5,3.4,4.8,4.8,6.7
		C996.7,185.5,996.2,186.4,995.5,186.4z"/>
	<path d="M903.2,185l-0.2-0.4L889,152.1l-7.4-17.2l-6.6-15.3l-13.4-31.1c-0.1-0.4-0.5-0.6-0.9-0.6h-20c-0.4,0-0.7,0.2-0.9,0.6
		l-25.8,59.8l0,0l0,0.1l0,0l-3.3,7.8l-0.2,0.5l-0.4,1l-0.4,0.8v0l-10,23.2L798,185c-0.3,0.6,0.2,1.4,0.9,1.4h21.3
		c0.4,0,0.7-0.2,0.9-0.6c0,0,0,0,0,0l7.4-17.3l1.2-2.8c0.2-0.4,0.5-0.6,0.9-0.6h40c0.4,0,0.7,0.2,0.9,0.6l8.2,19.2v0l0.4,1
		c0.1,0.4,0.5,0.6,0.9,0.6h21.3C903,186.4,903.5,185.7,903.2,185z M861.5,145.8h-21.7c-0.7,0-1.2-0.7-0.9-1.3l2.5-5.9l8.4-19.3
		c0.3-0.8,1.5-0.8,1.8,0l4.7,10.9l4.7,11l1.4,3.3C862.6,145.1,862.2,145.8,861.5,145.8z"/>
	<path d="M802.4,131.1C802.4,131,802.4,131,802.4,131.1c-0.5-5.5-1.8-10.6-3.9-15.4c-2.5-5.7-6.1-10.9-10.8-15.5
		c-2-1.9-4-3.7-6.2-5.2c-8.7-6.3-18.9-9.4-30.6-9.4c-4.1,0-8,0.4-11.7,1.2h0c-6.4,1.3-12.3,3.8-17.6,7.4c-2.6,1.8-5.1,3.8-7.4,6.1
		c-7.5,7.3-12.2,16-14,26l-0.7,1.1l0.5,0.7v0c-0.4,2.8-0.6,5.6-0.6,8.6c0,13,4,24.1,12.1,33.3c0.9,1,1.8,2,2.8,3
		c2.5,2.5,5.2,4.6,8,6.4c8.3,5.4,17.9,8.2,28.8,8.2c1.2,0,2.4,0,3.6-0.1c10.5-0.6,19.8-3.9,27.8-9.9c1.9-1.4,3.7-2.9,5.4-4.6
		c0,0,0,0,0.1,0c4-3.9,7.1-8.2,9.5-12.8c0.7-1.4,1.4-2.9,2-4.4c2.3-5.8,3.4-12.2,3.4-19C802.6,134.6,802.5,132.8,802.4,131.1z
		 M776.5,152.2c-1.3,2.4-2.9,4.7-4.8,6.8c-0.3,0.3-0.6,0.6-0.9,0.9c-2.1,2.1-4.4,3.9-6.8,5.2c-3.9,2.1-8.3,3.1-13.1,3.1
		c-4.6,0-8.9-1-12.7-2.9c-2-1-3.8-2.3-5.6-3.8c-0.9-0.8-1.7-1.6-2.5-2.5c-5.7-6.2-8.5-13.6-8.5-22.4c0-0.3,0-0.5,0-0.8
		c0.1-8.5,3-15.7,8.5-21.7c4.1-4.5,8.9-7.4,14.4-8.6c2-0.4,4.1-0.7,6.4-0.7c8.2,0,15.2,3.1,20.8,9.3c0.3,0.3,0.6,0.7,0.9,1
		c5.1,6,7.6,13.2,7.6,21.5C780.2,142.4,779,147.6,776.5,152.2z"/>
	<path d="M698,166.8h-37.7h-2.4c-0.5,0-1-0.4-1-1v-42.6V118V94.3v-5.5c0-0.4-0.2-0.7-0.6-0.9c-0.1-0.1-0.3-0.1-0.4-0.1h-11.1h-8.9
		c-0.5,0-1,0.4-1,1v9.1v26.2v61.2v0.1c0,0.5,0.4,1,1,1h5h20.4H698c0.5,0,1-0.4,1-1v-11.5v-6.2C698.9,167.2,698.5,166.8,698,166.8z"
		/>
	<path d="M589,85.8c-1.6-0.1-3.2-0.2-4.8-0.2c-14.5,0-26.7,4.9-36.7,14.7c-1.8,1.8-3.5,3.7-5,5.6v0c-6.7,8.7-10,19-10,31
		c0,6.8,1.1,13.1,3.2,18.8c1.3,3.4,2.9,6.6,4.9,9.6v0c0,0,0,0,0,0c0,0,0,0,0,0c1.9,2.8,4,5.4,6.5,7.8c3,2.9,6.3,5.4,9.8,7.5h0
		c0.9,0.5,1.8,1,2.7,1.5c0.7,0.3,1.3,0.6,2,0.9h0l0,0c0,0,0,0,0,0c6.8,3,14.4,4.5,22.9,4.5c2.5,0,4.9-0.2,7.3-0.5h0c0,0,0,0,0,0
		c1.5-0.2,3-0.5,4.5-0.9c8.3-2,16-6.2,22.9-12.7c1.4-1.3,2.8-2.7,4.1-4.1c0.3-0.4,0.3-1,0-1.3l-12.7-13.1c-0.2-0.2-0.5-0.3-0.9-0.3
		c-0.2,0-0.4,0.2-0.6,0.3c-3.4,4-7.3,7-11.6,9c-4.3,2-9,3-14.2,3c-3.6,0-6.9-0.6-10-1.7c-3.8-1.4-7.1-3.6-10.2-6.6
		c-2.9-2.9-5.1-6.3-6.4-10.2c-1.3-3.5-1.9-7.5-1.9-11.8c0-8.5,2.5-15.4,7.6-20.7c0.4-0.4,0.8-0.8,1.2-1.1c5.9-5.4,12.9-8.1,21.2-8.1
		c3,0,5.9,0.4,8.7,1.1c6.3,1.7,11.8,5.4,16.6,11c0.4,0.4,1.1,0.5,1.4,0l12.4-14c0.3-0.4,0.3-0.9,0-1.3
		C614.5,92.8,602.7,86.9,589,85.8z"/>
	<path d="M533.4,95.8l3.7-6.5c0.4-0.6-0.1-1.4-0.8-1.4h-13.5h-8.1c-0.3,0-0.7,0.2-0.8,0.5L494.3,122l0,0v0l-1,0.8l-0.8,0.6
		c-0.2-0.1-0.3-0.2-0.4-0.4l-0.3-0.6l-0.5-0.8l-19.3-33.3c-0.2-0.3-0.5-0.5-0.8-0.5h-21.6c-0.7,0-1.2,0.8-0.8,1.4l9.4,16.4l17,29.6
		l6.8,11.9c0.1,0.1,0.1,0.3,0.1,0.5v17.2v13v7.5c0,0.5,0.4,1,1,1h0.1h15.2h4.7c0.5,0,1-0.4,1-1v-8.3v-2.6v-3.3v-23.5
		c0-0.2,0-0.3,0.1-0.5l4.8-8.5l18.3-32.1l3.8-6.5L533.4,95.8L533.4,95.8z"/>
	<path d="M440.8,166.9h-48.7c-0.5,0-1-0.4-1-1v-9.4v-9.2c0-0.5,0.4-1,1-1h42.2c0.5,0,1-0.4,1-1v-16.8c0-0.5-0.4-1-1-1h-42.2
		c-0.5,0-1-0.4-1-1v-8.4v-10c0-0.5,0.4-1,1-1h4.4h23.7h9.8h9.3c0.5,0,1-0.4,1-1V95.5v-6.7c0-0.5-0.4-1-1-1h-12.4h-7.6h-12.5h-1.7
		h-4.6h-30.3c-0.5,0-1,0.4-1,1v16.9V155v5v25.5c0,0.5,0.4,1,1,1h10h48.6h7.5h4.5c0.5,0,1-0.4,1-1v-10.9v-6.6
		C441.8,167.4,441.4,166.9,440.8,166.9z"/>
	<path d="M357.9,183.7c-2.5-3.5-5.6-7.8-9.1-12.8c-2.8-3.9-5.9-8.3-9.4-13.1c-0.1-0.2-0.2-0.3-0.3-0.5c-8.6-12-14.5-20.4-18-25.2
		c-0.3-0.4-0.2-0.9,0.1-1.2l8.8-9.7v0l7.2-8l6.9-7.7l14.3-15.9c0.6-0.6,0.1-1.6-0.7-1.6h-16.2h-8.4c-0.3,0-0.5,0.1-0.7,0.3
		l-15.3,16.6l-20,21.8c-0.6,0.7-1.7,0.2-1.7-0.7v-30v-7c0-0.5-0.4-1-1-1h-6.9H284h-9.6c-0.5,0-1,0.4-1,1v0.1v16v31.8v34.4v14.3
		c0,0.5,0.4,1,1,1h14.1h5.7h0.3c0.5,0,1-0.4,1-1v-26.6c0-0.2,0.1-0.5,0.2-0.6l4.2-4.7l4.7-5.2c0.4-0.4,1.1-0.4,1.5,0.1l13.9,18.7
		l10,13.4l4,5.4c0.2,0.2,0.5,0.4,0.8,0.4h3.5H358c0.8,0,1.2-0.9,0.8-1.5C358.5,184.5,358.2,184.1,357.9,183.7z"/>
</g>
</svg>
