<?xml version="1.0" encoding="utf-8"?>
<!-- Generator: Adobe Illustrator 19.2.1, SVG Export Plug-In . SVG Version: 6.00 Build 0)  -->
<svg version="1.0" xmlns="http://www.w3.org/2000/svg" xmlns:xlink="http://www.w3.org/1999/xlink" x="0px" y="0px"
	 viewBox="0 0 1024 494" style="enable-background:new 0 0 1024 494;" xml:space="preserve">
<style type="text/css">
	.st0{fill:#4D4D4D;}
	.st1{fill:#AFAFAF;}
</style>
<g id="grid">
</g>
<g id="Layer_1">
	<path class="st0" d="M263.4,88.3c-0.4-0.4-0.9-0.6-1.5-0.6h-34.2c-0.7,0-1.2-0.3-1.6-0.9l-27.4-47.5c-0.3-0.6-0.9-0.9-1.6-0.9H85.3
		c-0.7,0-1.3,0.3-1.6,0.9L55.3,88.6c0,0,0,0,0,0c0,0,0,0,0,0v0l-1,1.8l-26.4,45.8c-0.2,0.3-0.2,0.6-0.2,0.9c0,0,0,0,0,0
		c0,0.2,0,0.5,0.1,0.7c0,0.1,0.1,0.2,0.1,0.2l3,5.2l24.4,42.3l0.1,0.1l28.4,49.3c0.3,0.6,0.9,0.9,1.6,0.9h111.9
		c0.7,0,1.3-0.3,1.6-0.9l27.4-47.5c0.3-0.6,0.9-0.9,1.6-0.9H262c0,0,0.1,0,0.1,0c0,0,0.1,0,0.1,0c0.5,0,0.9-0.3,1.2-0.6
		c0.1-0.1,0.2-0.2,0.2-0.3c0,0,0,0,0,0c0.1-0.1,0.1-0.2,0.2-0.3c0.1-0.2,0.2-0.5,0.2-0.8V89.8C264,89.2,263.8,88.7,263.4,88.3z
		 M131.2,187.4l-8.6,14.8c-0.1,0.2-0.3,0.4-0.6,0.5c-0.2,0.1-0.5,0.2-0.8,0.2h-17.1c-0.6,0-1.1-0.3-1.4-0.8l-9.1-15.7L77.3,158
		l-2.5-4.4l-9.1-15.7c-0.1-0.2-0.2-0.5-0.2-0.8c0-0.3,0.1-0.6,0.2-0.8l9.2-15.9l18.9-32.7l9-15.6c0.3-0.5,0.8-0.8,1.4-0.8h17.1
		c0.3,0,0.6,0.1,0.8,0.2c0.2,0.1,0.4,0.3,0.6,0.5l0.1,0.1l8.6,14.9c0.1,0.2,0.2,0.5,0.2,0.7c0,0.3-0.1,0.6-0.2,0.8l-27.6,47.8
		c-0.1,0.2-0.2,0.5-0.2,0.8c0,0.3,0,0.5,0.2,0.8c0,0,0,0,0,0.1l27.5,47.7c0.1,0.2,0.2,0.5,0.2,0.7
		C131.5,186.8,131.4,187.1,131.2,187.4z M179.7,202.2c-0.3,0.5-0.8,0.8-1.4,0.8h-17.1c-0.3,0-0.6-0.1-0.8-0.2
		c-0.2-0.1-0.4-0.3-0.6-0.5l0,0l-8.6-14.9c-0.1-0.3-0.2-0.5-0.2-0.8c0-0.2,0.1-0.5,0.2-0.7l27.5-47.8c0.2-0.2,0.2-0.5,0.2-0.8
		c0-0.3-0.1-0.6-0.2-0.8l-27.5-47.7c-0.2-0.3-0.2-0.6-0.2-0.9c0-0.3,0.1-0.5,0.2-0.8l8.6-14.9c0.1-0.2,0.3-0.4,0.6-0.5
		c0.2-0.1,0.5-0.2,0.8-0.2h17.1c0.6,0,1.1,0.3,1.4,0.8l9,15.6l19,33v0l9,15.6c0.2,0.2,0.2,0.5,0.2,0.8c0,0.3-0.1,0.6-0.2,0.8
		l-28,48.5L179.7,202.2z"/>
	<path class="st1" d="M996.3,184.9c-1.4-2-3-4.2-4.8-6.7c-2-2.9-4.3-6.1-6.9-9.7c-2-2.9-4.2-5.9-6.6-9.2c-0.3-0.5-0.7-1-1.1-1.5
		c-3.3-4.6-6.2-8.7-8.7-12.3c-4.2-5.9-7.4-10.4-9.6-13.4c-0.3-0.4-0.2-0.9,0.1-1.2l7.7-8.5l18.5-20.5l11.1-12.3
		c0.1-0.2,0.2-0.4,0.2-0.6c0-0.5-0.4-1-1-1h-24.6c-0.3,0-0.5,0.1-0.7,0.3l-7.7,8.4l-16.5,17.9l-11.1,12c-0.6,0.7-1.7,0.2-1.7-0.6
		v-37c0-0.5-0.4-1-1-1h-20.1c-0.5,0-1,0.4-1,1v96.6c0,0.5,0.4,1,1,1H932c0.5,0,1-0.4,1-1v-26.6c0-0.2,0.1-0.5,0.2-0.6l0.9-1l7.9-8.8
		c0.4-0.4,1.1-0.4,1.5,0.1l7.6,10.2l13.5,18.2l5,6.7l1.8,2.5c0.2,0.2,0.5,0.4,0.8,0.4h23.3C996.2,186.4,996.7,185.5,996.3,184.9z
		 M903.2,185l-0.2-0.4L889,152.1l-7.4-17.2l-6.6-15.3l-13.4-31.1c-0.1-0.4-0.5-0.6-0.9-0.6h-20c-0.4,0-0.7,0.2-0.9,0.6l-25.8,59.8
		l0,0l0,0.1l0,0l-3.3,7.8l-0.2,0.5l-0.4,1l-0.4,0.8v0l-10,23.2L798,185c-0.3,0.6,0.2,1.4,0.9,1.4h21.3c0.4,0,0.7-0.2,0.9-0.6
		c0,0,0,0,0,0l7.4-17.3l1.2-2.8c0.2-0.4,0.5-0.6,0.9-0.6h40c0.4,0,0.7,0.2,0.9,0.6l8.2,19.2v0l0.4,1c0.1,0.4,0.5,0.6,0.9,0.6h21.3
		C903,186.4,903.5,185.7,903.2,185z M861.5,145.8h-21.7c-0.7,0-1.2-0.7-0.9-1.3l2.5-5.9l8.4-19.3c0.3-0.8,1.5-0.8,1.8,0l4.7,10.9
		l4.7,11l1.4,3.3C862.6,145.1,862.2,145.8,861.5,145.8z M802.4,131.1C802.4,131,802.4,131,802.4,131.1c-0.5-5.5-1.8-10.6-3.9-15.4
		c-2.5-5.7-6.1-10.9-10.8-15.5c-2-1.9-4-3.7-6.2-5.2c-8.7-6.3-18.9-9.4-30.6-9.4c-4.1,0-8,0.4-11.7,1.2h0
		c-6.4,1.3-12.3,3.8-17.6,7.4c-2.6,1.8-5.1,3.8-7.4,6.1c-7.5,7.3-12.2,16-14,26l-0.7,1.1l0.5,0.7v0c-0.4,2.8-0.6,5.6-0.6,8.6
		c0,13,4,24.1,12.1,33.3c0.9,1,1.8,2,2.8,3c2.5,2.5,5.2,4.6,8,6.4c8.3,5.4,17.9,8.2,28.8,8.2c1.2,0,2.4,0,3.6-0.1
		c10.5-0.6,19.8-3.9,27.8-9.9c1.9-1.4,3.7-2.9,5.4-4.6c0,0,0,0,0.1,0c4-3.9,7.1-8.2,9.5-12.8c0.7-1.4,1.4-2.9,2-4.4
		c2.3-5.8,3.4-12.2,3.4-19C802.6,134.6,802.5,132.8,802.4,131.1z M776.5,152.2c-1.3,2.4-2.9,4.7-4.8,6.8c-0.3,0.3-0.6,0.6-0.9,0.9
		c-2.1,2.1-4.4,3.9-6.8,5.2c-3.9,2.1-8.3,3.1-13.1,3.1c-4.6,0-8.9-1-12.7-2.9c-2-1-3.8-2.3-5.6-3.8c-0.9-0.8-1.7-1.6-2.5-2.5
		c-5.7-6.2-8.5-13.6-8.5-22.4c0-0.3,0-0.5,0-0.8c0.1-8.5,3-15.7,8.5-21.7c4.1-4.5,8.9-7.4,14.4-8.6c2-0.4,4.1-0.7,6.4-0.7
		c8.2,0,15.2,3.1,20.8,9.3c0.3,0.3,0.6,0.7,0.9,1c5.1,6,7.6,13.2,7.6,21.5C780.2,142.4,779,147.6,776.5,152.2z M698,166.8h-40.1
		c-0.5,0-1-0.4-1-0.9v-77c0-0.4-0.2-0.7-0.5-0.9c-0.1-0.1-0.3-0.1-0.4-0.1h-20c-0.5,0-1,0.4-1,1v96.6c0,0.5,0.4,1,1,1h62
		c0.5,0,1-0.4,1-1v-17.7C698.9,167.2,698.5,166.8,698,166.8z M563.9,114.7c5.9-5.4,12.9-8.1,21.2-8.1c3,0,5.9,0.4,8.7,1.1
		c6.3,1.7,11.8,5.4,16.6,11c0.4,0.4,1.1,0.5,1.4,0l12.4-14c0.3-0.4,0.3-0.9,0-1.3c-9.7-10.6-21.4-16.5-35.2-17.6
		c-1.6-0.1-3.2-0.2-4.8-0.2c-14.5,0-26.7,4.9-36.7,14.7c-1.8,1.8-3.5,3.6-5,5.6v0c-6.7,8.7-10,19-10,31c0,6.8,1.1,13.1,3.2,18.8
		c1.3,3.4,2.9,6.6,4.9,9.7v0c0,0,0,0,0,0c0,0,0,0,0,0c1.9,2.8,4,5.4,6.5,7.8c3,2.9,6.3,5.4,9.8,7.5h0c0.9,0.5,1.8,1,2.7,1.5
		c0.7,0.3,1.3,0.6,2,0.9h0l0,0c0,0,0,0,0,0c6.8,3,14.4,4.5,22.9,4.5c2.5,0,4.9-0.2,7.3-0.5h0c0,0,0,0,0,0c1.5-0.2,3-0.5,4.5-0.9
		c8.3-2,16-6.2,22.9-12.7c1.4-1.3,2.8-2.7,4.1-4.2c0.3-0.4,0.3-1,0-1.3l-12.7-13.1c-0.2-0.2-0.5-0.3-0.8-0.3
		c-0.2,0.1-0.4,0.2-0.6,0.4c-3.4,4-7.3,7-11.6,9c-4.3,2-9,3-14.2,3c-3.5,0-6.9-0.6-10-1.7c-3.8-1.4-7.1-3.6-10.2-6.6
		c-2.9-2.9-5.1-6.3-6.4-10.2c-1.3-3.5-1.9-7.5-1.9-11.8c0-8.5,2.5-15.5,7.7-20.7C563.1,115.5,563.5,115.1,563.9,114.7z M536.3,87.9
		h-21.6c-0.3,0-0.6,0.2-0.8,0.5L494.3,122l0,0v0l-1,0.8l-0.8,0.6c-0.2-0.1-0.3-0.2-0.4-0.4l-0.3-0.6l-0.5-0.8l-19.3-33.3
		c-0.2-0.3-0.5-0.5-0.8-0.5h-21.6c-0.7,0-1.2,0.8-0.8,1.4l9.4,16.4l17,29.6l6.8,11.9c0.1,0.2,0.1,0.3,0.1,0.5v37.7c0,0.5,0.4,1,1,1
		h20c0.5,0,1-0.4,1-1v-37.7c0-0.2,0-0.3,0.1-0.5l4.8-8.5l18.4-32.1l3.8-6.5l2.5-4.4v0l3.7-6.5C537.5,88.7,537,87.9,536.3,87.9z
		 M440.8,166.9h-48.7c-0.5,0-1-0.4-1-1v-18.5c0-0.5,0.4-1,1-1h42.2c0.5,0,1-0.4,1-1v-16.8c0-0.5-0.4-1-1-1h-42.2c-0.5,0-1-0.4-1-1
		v-18.4c0-0.5,0.4-1,1-1h47.1c0.5,0,1-0.4,1-1V88.8c0-0.5-0.4-1-1-1h-69.1c-0.5,0-1,0.4-1,1v96.6c0,0.5,0.4,1,1,1h70.7
		c0.5,0,1-0.4,1-1v-17.5C441.8,167.4,441.4,166.9,440.8,166.9z M358.7,184.9c-0.3-0.4-0.5-0.8-0.8-1.2c-2.5-3.5-5.5-7.8-9.1-12.8
		c-2.8-3.9-5.9-8.3-9.3-13.1c-0.1-0.2-0.2-0.3-0.4-0.5c-8.5-12-14.5-20.4-18-25.2c-0.3-0.4-0.2-0.9,0.1-1.2l8.8-9.7v0l7.2-8l7-7.7
		l14.3-15.9c0.6-0.6,0.1-1.6-0.7-1.6h-24.6c-0.3,0-0.5,0.1-0.7,0.3l-15.2,16.6l-20,21.8c-0.6,0.7-1.7,0.2-1.7-0.6v-37
		c0-0.5-0.4-1-1-1h-20c-0.5,0-1,0.4-1,1v96.6c0,0.5,0.4,1,1,1h20c0.5,0,1-0.4,1-1v-26.6c0-0.2,0.1-0.5,0.2-0.6l4.2-4.7l4.6-5.2
		c0.4-0.4,1.1-0.4,1.5,0.1l13.9,18.7l10,13.4l4,5.4c0.2,0.2,0.5,0.4,0.8,0.4H358C358.7,186.4,359.2,185.5,358.7,184.9z M74.7,153.6
		l-9.1-15.7c-0.1-0.2-0.2-0.5-0.2-0.8c0-0.3,0.1-0.6,0.2-0.8l9.2-15.9l18.9-32.7H56.8c-0.7,0-1.2,0.3-1.6,0.9c0,0,0,0,0,0l0,0
		l-1,1.8l-12.5,21.8l-13.9,24c-0.2,0.3-0.2,0.6-0.2,0.9c0,0,0,0,0,0c0,0.2,0,0.5,0.1,0.7c0,0.1,0.1,0.2,0.1,0.2l3,5.2l24.4,42.3
		c0,0,0,0.1,0.1,0.1c0.3,0.5,0.9,0.8,1.5,0.8h36.9L77.3,158L74.7,153.6z M263.4,88.3c-0.4-0.4-0.9-0.6-1.5-0.6h-73.3l19,33v0l9,15.6
		c0.2,0.2,0.2,0.5,0.2,0.8c0,0.3-0.1,0.6-0.2,0.8l-28,48.5h73.3c0,0,0.1,0,0.1,0c0.5,0,0.9-0.3,1.2-0.6c0.1-0.1,0.2-0.2,0.2-0.3
		c0,0,0,0,0,0c0.1-0.1,0.1-0.2,0.2-0.3c0.1-0.2,0.2-0.5,0.2-0.8V89.8C264,89.2,263.8,88.7,263.4,88.3z M151.2,88.6
		c-0.2-0.3-0.2-0.6-0.2-0.9h-19.5c0,0.3-0.1,0.6-0.2,0.8l-27.6,47.8c-0.1,0.2-0.2,0.5-0.2,0.8c0,0.3,0,0.5,0.2,0.8c0,0,0,0,0,0.1
		l27.5,47.7c0.1,0.2,0.2,0.5,0.2,0.7H151c0-0.2,0.1-0.5,0.2-0.7l27.5-47.8c0.2-0.2,0.2-0.5,0.2-0.8c0-0.3-0.1-0.6-0.2-0.8
		L151.2,88.6z"/>
	<path class="st0" d="M719.9,358c0-0.1,0-0.2-0.1-0.3c0-0.1-0.1-0.3-0.2-0.4l-27.1-46.9c0-0.1-0.1-0.1-0.1-0.2
		c-0.1-0.1-0.1-0.1-0.2-0.2c-0.2-0.2-0.4-0.3-0.6-0.4c-0.1,0-0.1-0.1-0.2-0.1c-0.1,0-0.2,0-0.2,0c-0.1,0-0.1,0-0.2,0H481.6
		c0,0-0.1,0-0.1,0c-0.6,0-1.1-0.4-1.4-0.9L453,261.8c-0.3-0.6-0.9-0.9-1.6-0.9H341.1c-0.6,0-1.2,0.3-1.6,0.9l-28.1,48.7l-27.1,46.9
		v0c-0.1,0.1-0.1,0.3-0.2,0.4c0,0,0,0,0,0c-0.1,0.3-0.1,0.6,0,0.9c0,0.1,0.1,0.3,0.2,0.4l55.2,95.6c0.3,0.6,0.9,0.9,1.6,0.9h110.4
		c0.6,0,1.2-0.3,1.6-0.9l27.1-46.9c0.3-0.6,0.9-0.9,1.6-0.9h209.4c0.6,0,1.2-0.3,1.5-0.9l10.4-18l16.7-28.8c0.1-0.1,0.1-0.3,0.2-0.4
		c0-0.2,0.1-0.3,0.1-0.5C719.9,358.2,719.9,358.1,719.9,358z M386.4,407.4l-8.5,14.6c-0.1,0.2-0.3,0.4-0.6,0.5
		c-0.2,0.1-0.5,0.2-0.8,0.2h-16.9c-0.6,0-1.1-0.3-1.4-0.8l-8.7-15.1l-16.4-28.5l-2.5-4.3l-8.9-15.5c-0.1-0.2-0.2-0.5-0.2-0.7
		s0.1-0.5,0.2-0.8l9-15.7l18.4-31.9l9.1-15.8c0.3-0.5,0.8-0.8,1.4-0.8h16.9c0.3,0,0.6,0.1,0.8,0.2c0.2,0.1,0.4,0.3,0.6,0.5l0,0
		l8.5,14.7c0.2,0.3,0.2,0.7,0.1,1.1c0,0.2-0.1,0.3-0.1,0.5l-27.2,47.1c-0.1,0.2-0.2,0.5-0.2,0.8s0,0.5,0.2,0.7c0,0,0,0,0,0.1
		l27.2,47.1c0.2,0.3,0.3,0.7,0.2,1.1C386.6,407.1,386.5,407.3,386.4,407.4z M434.2,422.1c-0.3,0.5-0.8,0.8-1.4,0.8H416
		c-0.3,0-0.6-0.1-0.8-0.2c-0.2-0.1-0.4-0.3-0.6-0.5l0,0l-8.5-14.7c-0.1-0.1-0.1-0.3-0.1-0.4c-0.1-0.4,0-0.7,0.2-1.1l27.2-47.1
		c0.2-0.2,0.2-0.5,0.2-0.8c0-0.3-0.1-0.6-0.2-0.8L406.1,310c-0.1-0.1-0.1-0.3-0.2-0.5c-0.1-0.4,0-0.8,0.2-1.2l8.5-14.7
		c0.1-0.2,0.3-0.4,0.6-0.5c0.2-0.1,0.5-0.2,0.8-0.2h16.9c0.6,0,1.1,0.3,1.4,0.8l9.1,15.8l18.6,32.1v0l8.9,15.4
		c0.1,0.2,0.2,0.5,0.2,0.8c0,0.3-0.1,0.6-0.2,0.8L443,406.9L434.2,422.1z"/>
	<path class="st1" d="M333.2,378.5l-2.5-4.3l-8.9-15.5c-0.1-0.2-0.2-0.5-0.2-0.7s0.1-0.5,0.2-0.8l9-15.7l18.4-31.9H313
		c-0.6,0-1.2,0.4-1.5,0.9l-27.1,46.9v0c-0.1,0.1-0.1,0.3-0.2,0.4c0,0,0,0,0,0c-0.1,0.3-0.1,0.6,0,0.9c0,0.1,0.1,0.3,0.2,0.4
		l27.1,46.9c0.3,0.6,0.9,0.9,1.5,0.9h36.6L333.2,378.5z M719.9,358c0-0.1,0-0.2-0.1-0.3c0-0.1-0.1-0.3-0.2-0.4l-27.1-46.9
		c0-0.1-0.1-0.1-0.1-0.2c-0.1-0.1-0.1-0.1-0.2-0.2c-0.2-0.2-0.4-0.3-0.6-0.4c-0.1,0-0.1-0.1-0.2-0.1c-0.1,0-0.2,0-0.2,0
		c-0.1,0-0.1,0-0.2,0H443.3l18.6,32.1v0l8.9,15.4c0.1,0.2,0.2,0.5,0.2,0.8c0,0.3-0.1,0.6-0.2,0.8L443,406.9h36.6
		c0.6,0,1.2-0.3,1.6-0.9l17.7-30.7c0.3-0.6,0.9-0.9,1.6-0.9H517c0.7,0,1.2,0.3,1.5,0.9l7.3,12.6c0.7,1.2,2.4,1.2,3.1,0l7.3-12.6
		c0.3-0.6,0.9-0.9,1.6-0.9h16.7c0.6,0,1.2,0.3,1.5,0.9l7.3,12.6c0.7,1.2,2.4,1.2,3.1,0l7.3-12.6c0.3-0.6,0.9-0.9,1.5-0.9h5
		c0.7,0,1.2,0.3,1.6,0.9l7.3,12.6c0.7,1.2,2.4,1.2,3.1,0l7.3-12.6c0.3-0.6,0.9-0.9,1.5-0.9h26.6c0.6,0,1.2,0.3,1.5,0.9l7.3,12.6
		c0.7,1.2,2.4,1.2,3.1,0l7.3-12.6c0.3-0.6,0.9-0.9,1.6-0.9h5c0.7,0,1.2,0.3,1.6,0.9l0.2,0.3l7.2,12.3c0.7,1.2,2.4,1.2,3.1,0
		l7.3-12.6c0.3-0.6,0.9-0.9,1.6-0.9h16.7c0.6,0,1.2,0.3,1.6,0.9l7.3,12.6c0.7,1.2,2.4,1.2,3.1,0l16.6-28.8c0.1-0.1,0.2-0.3,0.2-0.4
		c0-0.2,0.1-0.3,0.1-0.5C719.9,358.2,719.9,358.1,719.9,358z M406.1,310c-0.1-0.1-0.1-0.3-0.2-0.5h-19.3c0,0.2-0.1,0.3-0.1,0.5
		l-27.2,47.1c-0.1,0.2-0.2,0.5-0.2,0.8s0,0.5,0.2,0.7c0,0,0,0,0,0.1l27.2,47.1c0.2,0.3,0.3,0.7,0.2,1.1h19.3c-0.1-0.4,0-0.7,0.2-1.1
		l27.2-47.1c0.2-0.2,0.2-0.5,0.2-0.8c0-0.3-0.1-0.6-0.2-0.8L406.1,310z"/>
</g>
</svg>
