<svg id="Guides" xmlns="http://www.w3.org/2000/svg" xmlns:xlink="http://www.w3.org/1999/xlink" viewBox="0 0 100 100"><defs><style>.cls-1{fill:none;}.cls-2{fill:#4d4d4d;}.cls-3{clip-path:url(#clip-path);}.cls-4{fill:url(#linear-gradient);}.cls-5{fill:#e1e1e1;}.cls-6{fill:#585858;}.cls-7{fill:#696969;}.cls-8{fill:#5e5e5e;}.cls-9{fill:#6d6d6d;}.cls-10{fill:#636363;}.cls-11{fill:#737373;}.cls-12{fill:#757575;}.cls-13{fill:#646464;}.cls-14{fill:#6c6c6c;}.cls-15{fill:#606060;}.cls-16{fill:#707070;}.cls-17{fill:#767676;}.cls-18{fill:#797979;}.cls-19{fill:#7f7f7f;}.cls-20{fill:#868686;}.cls-21{fill:#8a8a8a;}.cls-22{fill:#7d7d7d;}.cls-23{fill:#919191;}.cls-24{fill:#858585;}.cls-25{fill:#929292;}.cls-26{fill:#898989;}.cls-27{fill:#8f8f8f;}.cls-28{fill:#999;}.cls-29{fill:#979797;}.cls-30{fill:#9f9f9f;}.cls-31{fill:#a6a6a6;}.cls-32{fill:#a0a0a0;}.cls-33{fill:#9b9b9b;}.cls-34{fill:#9d9d9d;}.cls-35{fill:#a3a3a3;}.cls-36{fill:#aaa;}.cls-37{fill:#a9a9a9;}.cls-38{fill:#989898;}.cls-39{fill:#b1b1b1;}.cls-40{fill:#9e9e9e;}.cls-41{fill:#a4a4a4;}.cls-42{fill:#aeaeae;}.cls-43{fill:#ababab;}.cls-44{fill:#b4b4b4;}.cls-45{fill:#a2a2a2;}.cls-46{fill:#bcbcbc;}.cls-47{fill:#b8b8b8;}.cls-48{fill:#b0b0b0;}.cls-49{fill:#b9b9b9;}.cls-50{fill:#bfbfbf;}.cls-51{fill:#b5b5b5;}.cls-52{fill:#bdbdbd;}.cls-53{fill:#b6b6b6;}.cls-54{fill:#c3c3c3;}.cls-55{fill:#c9c9c9;}.cls-56{fill:#bbb;}.cls-57{fill:#c1c1c1;}.cls-58{fill:#c6c6c6;}.cls-59{fill:#cdcdcd;}.cls-60{fill:#ccc;}.cls-61{fill:#c2c2c2;}.cls-62{fill:#c8c8c8;}.cls-63{fill:#c7c7c7;}.cls-64{fill:#cecece;}.cls-65{fill:#d3d3d3;}.cls-66{fill:#d5d5d5;}.cls-67{fill:#d0d0d0;}.cls-68{fill:#d9d9d9;}.cls-69{fill:#d4d4d4;}.cls-70{fill:#d8d8d8;}.cls-71{fill:#e2e2e2;}.cls-72{fill:#e4e4e4;}.cls-73{fill:#dedede;}.cls-74{fill:#c5c5c5;}.cls-75{fill:#d1d1d1;}.cls-76{fill:#cbcbcb;}.cls-77{fill:#d7d7d7;}.cls-78{fill:#ddd;}.cls-79{fill:#e3e3e3;}.cls-80{fill:#00b8e3;}.cls-81{fill:#33c6e9;}.cls-82{fill:#008aaa;}</style><clipPath id="clip-path"><path class="cls-1" d="M95.1,54.6H92.93a0.09,0.09,0,0,1-.07,0l-0.17-.23-0.46-.62L91,52l-0.71-1a0.09,0.09,0,0,0-.14,0l-0.74.82L89.29,52a0.09,0.09,0,0,0,0,.06v2.48a0.09,0.09,0,0,1-.09.09H87.31a0.09,0.09,0,0,1-.09-0.09v-9a0.09,0.09,0,0,1,.09-0.09h1.87a0.09,0.09,0,0,1,.09.09v3.45a0.09,0.09,0,0,0,.16.06l1-1.12L92,46.22l0.72-.78a0.09,0.09,0,0,1,.07,0h2.3a0.09,0.09,0,0,1,.09.09,0.1,0.1,0,0,1,0,.06l-1,1.15-1.72,1.91-0.72.8a0.09,0.09,0,0,0,0,.11l0.89,1.25,0.81,1.15,0.1,0.14,0.62,0.86,0.64,0.9,0.45,0.63A0.09,0.09,0,0,1,95.1,54.6Zm-8.61-.13a0.09,0.09,0,0,1-.08.13h-2a0.09,0.09,0,0,1-.08-0.06l0-.09h0l-0.77-1.79a0.09,0.09,0,0,0-.08-0.06H79.72a0.09,0.09,0,0,0-.08.06l-0.11.27-0.69,1.61h0a0.09,0.09,0,0,1-.08.05h-2a0.09,0.09,0,0,1-.08-0.13l0.14-.32L77.75,52h0l0-.08,0-.09,0,0L78.16,51h0l2.41-5.57a0.09,0.09,0,0,1,.08-0.06h1.87a0.09,0.09,0,0,1,.08.06l1.25,2.9,0.62,1.43,0.69,1.6,1.31,3Zm-3.81-3.79-0.13-.31-0.44-1-0.44-1a0.09,0.09,0,0,0-.17,0l-0.78,1.8-0.24.55a0.09,0.09,0,0,0,.08.13h2A0.09,0.09,0,0,0,82.68,50.68Zm-5.89,1a3.93,3.93,0,0,1-.18.41,4.61,4.61,0,0,1-.89,1.19h0a4.91,4.91,0,0,1-.5.43,4.67,4.67,0,0,1-2.59.92H72.28a4.8,4.8,0,0,1-2.69-.76,4.88,4.88,0,0,1-.74-0.6l-0.26-.28a4.54,4.54,0,0,1-1.13-3.11,5.22,5.22,0,0,1,.06-0.8h0l0-.06,0.07-.1a4.46,4.46,0,0,1,1.31-2.42A4.89,4.89,0,0,1,69.55,46a4.52,4.52,0,0,1,1.64-.69h0a5.28,5.28,0,0,1,1.09-.11,4.72,4.72,0,0,1,3.43,1.36,4.5,4.5,0,0,1,1.37,2.88h0c0,0.17,0,.33,0,0.51A4.83,4.83,0,0,1,76.79,51.72ZM75,49.95a3,3,0,0,0-.71-2l-0.08-.09A2.52,2.52,0,0,0,72.29,47a2.78,2.78,0,0,0-.59.06,2.53,2.53,0,0,0-1.35.8,3,3,0,0,0-.79,2s0,0,0,.07A3,3,0,0,0,70.35,52a2.62,2.62,0,0,0,.24.23,2.52,2.52,0,0,0,.52.36,2.69,2.69,0,0,0,2.4,0,2.61,2.61,0,0,0,.64-0.48L74.23,52a3,3,0,0,0,.44-0.63A3.08,3.08,0,0,0,75,49.95Zm-7.67,2.82H63.61a0.09,0.09,0,0,1-.09-0.09V45.5a0.09,0.09,0,0,0-.05-0.08H61.56a0.09,0.09,0,0,0-.09.09v9h0a0.09,0.09,0,0,0,.09.09h5.79a0.09,0.09,0,0,0,.09-0.09V52.86A0.09,0.09,0,0,0,67.35,52.77ZM57.18,45.21l-0.45,0a4.72,4.72,0,0,0-3.43,1.37,4.93,4.93,0,0,0-.46.52h0A4.59,4.59,0,0,0,51.9,50a5,5,0,0,0,.3,1.75,4.28,4.28,0,0,0,.46.9h0a4.54,4.54,0,0,0,.61.73,4.65,4.65,0,0,0,.92.7h0l0.25,0.14,0.19,0.09h0a5.25,5.25,0,0,0,2.13.42,4.75,4.75,0,0,0,.68,0h0l0.42-.08A4.77,4.77,0,0,0,60,53.39c0.13-.12.26-0.25,0.38-0.39a0.09,0.09,0,0,0,0-.13l-1.19-1.22a0.09,0.09,0,0,0-.08,0l-0.05,0a3,3,0,0,1-2.41,1.12,2.68,2.68,0,0,1-.93-0.16,2.61,2.61,0,0,1-1-.62,2.51,2.51,0,0,1-.6-1,3.26,3.26,0,0,1-.18-1.1A2.66,2.66,0,0,1,54.73,48l0.11-.11a2.82,2.82,0,0,1,2-.76,3,3,0,0,1,2.35,1.13,0.09,0.09,0,0,0,.13,0L60.46,47a0.09,0.09,0,0,0,0-.12A4.83,4.83,0,0,0,57.18,45.21ZM52,46.15l0.35-.61a0.09,0.09,0,0,0-.08-0.13h-2a0.09,0.09,0,0,0-.08,0l-1.83,3.14h0l-0.1.07-0.07.06,0,0,0-.05,0-.08-1.8-3.11a0.09,0.09,0,0,0-.08,0h-2a0.09,0.09,0,0,0-.08.13L45,47.07l1.58,2.76,0.64,1.11a0.09,0.09,0,0,1,0,0v3.52a0.09,0.09,0,0,0,.09.09h1.87a0.09,0.09,0,0,0,.09-0.09V51a0.09,0.09,0,0,1,0,0l0.45-.79,1.71-3,0.35-.61L52,46.15h0Zm-8.63,6.63H38.82a0.09,0.09,0,0,1-.09-0.09V51a0.09,0.09,0,0,1,.09-0.09h3.94a0.09,0.09,0,0,0,.09-0.09V49.22a0.09,0.09,0,0,0-.09-0.09H38.82A0.09,0.09,0,0,1,38.73,49V47.32a0.09,0.09,0,0,1,.09-0.09h4.4a0.09,0.09,0,0,0,.09-0.09V45.5a0.09,0.09,0,0,0-.09-0.09H36.77a0.09,0.09,0,0,0-.09.09v9a0.09,0.09,0,0,0,.09.09h6.59a0.09,0.09,0,0,0,.09-0.09V52.87A0.09,0.09,0,0,0,43.36,52.78Zm-7.74,1.56-0.85-1.2L33.9,51.92l0,0-1.68-2.35a0.09,0.09,0,0,1,0-.11L33,48.51h0l0.67-.75L34.34,47l1.33-1.48a0.09,0.09,0,0,0-.07-0.15h-2.3a0.09,0.09,0,0,0-.07,0L31.82,47,30,49a0.09,0.09,0,0,1-.16-0.06V45.5a0.09,0.09,0,0,0-.09-0.09H27.83a0.09,0.09,0,0,0-.09.09h0v9a0.09,0.09,0,0,0,.09.09H29.7a0.09,0.09,0,0,0,.09-0.09V52a0.09,0.09,0,0,1,0-.06l0.39-.44,0.43-.48a0.09,0.09,0,0,1,.14,0l1.3,1.75L33,54.06l0.37,0.5a0.09,0.09,0,0,0,.07,0h2.17a0.09,0.09,0,0,0,.07-0.14Zm-9-8.95H7.54a0.17,0.17,0,0,0-.15.08h0l-0.09.16-1.17,2L4.83,49.92a0.17,0.17,0,0,0,0,.17l0.28,0.49,2.28,3.95a0.17,0.17,0,0,0,.15.09H26.68a0.19,0.19,0,0,0,.19-0.19V45.59A0.19,0.19,0,0,0,26.67,45.4Z"/></clipPath><linearGradient id="linear-gradient" x1="4.6" y1="50.14" x2="95.74" y2="50.14" gradientUnits="userSpaceOnUse"><stop offset="0" stop-color="#e6e6e6"/><stop offset="1" stop-color="#595959"/></linearGradient></defs><title>keycloak_deliverables</title><path class="cls-2" d="M23.49,45.39a0.17,0.17,0,0,1-.15-0.08l-2.56-4.44a0.17,0.17,0,0,0-.15-0.08H10.19a0.17,0.17,0,0,0-.15.08l-2.66,4.6h0L4.83,49.92a0.17,0.17,0,0,0,0,.17l2.56,4.43L10,59.12a0.17,0.17,0,0,0,.15.08H20.63a0.17,0.17,0,0,0,.15-0.08l2.56-4.44a0.17,0.17,0,0,1,.15-0.08h3.19a0.19,0.19,0,0,0,.19-0.19V45.59a0.19,0.19,0,0,0-.19-0.19H23.49Z"/><g class="cls-3"><rect class="cls-4" x="4.6" y="43.98" width="91.14" height="12.31"/></g><path class="cls-5" d="M8,49.54l-2.86,1-0.28-.49a0.17,0.17,0,0,1,0-.17l1.29-2.24Z"/><path class="cls-6" d="M95.1,54.6H93.92l-1.08-.68,1.88-.09,0.45,0.63A0.09,0.09,0,0,1,95.1,54.6Z"/><path class="cls-6" d="M93.92,54.6h-1a0.09,0.09,0,0,1-.07,0l-0.17-.23,0.16-.41Z"/><path class="cls-7" d="M95.17,45.5a0.1,0.1,0,0,1,0,.06l-1,1.15L94,46.06Z"/><path class="cls-8" d="M94.73,53.83l-1.88.09,1.24-1Z"/><path class="cls-9" d="M95.17,45.5L94,46.06l0.19-.65h0.84A0.09,0.09,0,0,1,95.17,45.5Z"/><path class="cls-10" d="M94.09,52.92l-1.24,1,0.63-1.86Z"/><polygon class="cls-11" points="94.24 45.41 94.05 46.06 92.95 45.41 94.24 45.41"/><path class="cls-12" d="M89.27,45.5v0.93l-2.05.16V45.5a0.09,0.09,0,0,1,.09-0.09h1.87A0.09,0.09,0,0,1,89.27,45.5Z"/><path class="cls-12" d="M94,46.06L92,46.22l0.72-.78a0.09,0.09,0,0,1,.07,0H93Z"/><path class="cls-13" d="M93.47,52.06l-0.63,1.86-0.62-.21L91,52l1.6-1.23,0.81,1.15Z"/><polygon class="cls-9" points="89.27 46.43 89.27 47.44 87.22 46.66 87.22 46.59 89.27 46.43"/><polygon class="cls-9" points="94.11 46.7 92.39 48.62 90.46 47.89 91.99 46.22 94.05 46.06 94.11 46.7"/><path class="cls-14" d="M92.56,50.78L91,52l-0.71-1a0.09,0.09,0,0,0-.14,0l-0.74.82L87.22,47V46.66l2.05,0.78v1.51a0.09,0.09,0,0,0,.16.06l1-1.12,1.93,0.73-0.72.8a0.09,0.09,0,0,0,0,.11Z"/><polygon class="cls-15" points="92.84 53.92 92.69 54.33 92.22 53.71 92.84 53.92"/><path class="cls-16" d="M89.38,51.87L89.29,52a0.09,0.09,0,0,0,0,.06v0.39l-2.05-1.74V47Z"/><path class="cls-10" d="M86.5,54.47a0.09,0.09,0,0,1-.08.13h-0.3l0.36-.17Z"/><path class="cls-10" d="M89.27,53.14v1.36a0.09,0.09,0,0,1-.09.09H87.31a0.09,0.09,0,0,1-.09-0.09V54.09Z"/><path class="cls-9" d="M86.48,54.43l-0.36.17H84.43a0.09,0.09,0,0,1-.08-0.06l0-.09h0l0.86-3.06Z"/><polygon class="cls-9" points="89.27 52.42 89.27 53.14 87.22 54.09 87.22 50.68 89.27 52.42"/><path class="cls-17" d="M85.17,51.4l-0.86,3.06-0.77-1.79a0.09,0.09,0,0,0-.08-0.06H79.72a0.09,0.09,0,0,0-.08.06l-0.11.27-1.74-1,0-.09,3.3-1H82.6a0.09,0.09,0,0,0,.08-0.13l-0.13-.31,1.92-.59Z"/><path class="cls-18" d="M81.13,50.81l-3.3,1,0,0,2.89-1.64-0.24.55a0.09,0.09,0,0,0,.08.13h0.56Z"/><polygon class="cls-18" points="84.47 49.79 82.55 50.38 82.11 49.35 83.86 48.36 84.47 49.79"/><polygon class="cls-12" points="79.52 52.93 78.83 54.54 78.83 54.55 77.75 51.98 77.75 51.98 77.79 51.91 79.52 52.93"/><path class="cls-19" d="M83.86,48.36l-1.74,1-0.44-1a0.09,0.09,0,0,0-.17,0l-0.78,1.8-2.89,1.64L78.16,51h0l3.19-5.63h1.17a0.09,0.09,0,0,1,.08.06Z"/><path class="cls-20" d="M76.73,48a4.55,4.55,0,0,1,.36,1.43Z"/><path class="cls-20" d="M81.35,45.41L78.16,51l2.41-5.57a0.09,0.09,0,0,1,.08-0.06h0.7Z"/><path class="cls-21" d="M77.11,49.94a4.83,4.83,0,0,1-.32,1.78l-2.12-.31A3.08,3.08,0,0,0,75,49.95a3,3,0,0,0-.71-2l0.83-1.88a4.77,4.77,0,0,1,.58.49,4.53,4.53,0,0,1,1,1.44l0.36,1.43h0C77.1,49.6,77.11,49.77,77.11,49.94Z"/><path class="cls-22" d="M74.76,52.6l1.85-.47a4.61,4.61,0,0,1-.89,1.19Z"/><path class="cls-22" d="M78.83,54.55a0.09,0.09,0,0,1-.08.05H77.41l-0.59-.45L77.75,52Z"/><path class="cls-18" d="M74.76,52.6l1,0.73h0a4.91,4.91,0,0,1-.5.43Z"/><path class="cls-18" d="M77.41,54.6H76.76a0.09,0.09,0,0,1-.08-0.13l0.14-.32Z"/><path class="cls-20" d="M76.79,51.72a3.93,3.93,0,0,1-.18.41l-1.85.47-0.61-.47L74.23,52a3,3,0,0,0,.44-0.63Z"/><path class="cls-22" d="M75.21,53.76a4.67,4.67,0,0,1-2.59.92l2.14-2.08Z"/><path class="cls-23" d="M75.14,46.07l-0.83,1.88-0.08-.09A2.52,2.52,0,0,0,72.29,47a2.78,2.78,0,0,0-.59.06L71.19,45.3a5.28,5.28,0,0,1,1.09-.11A4.76,4.76,0,0,1,75.14,46.07Z"/><path class="cls-24" d="M74.76,52.6l-2.14,2.08H72.28a4.8,4.8,0,0,1-2.69-.76l0.24-1.29h1.27a2.69,2.69,0,0,0,2.4,0h1.25Z"/><path class="cls-25" d="M71.7,47a2.53,2.53,0,0,0-1.35.8,3,3,0,0,0-.79,2l-2-.78,0,0,0.07-.1,2-3a4.52,4.52,0,0,1,1.64-.69h0Z"/><path class="cls-26" d="M70.59,52.27a2.52,2.52,0,0,0,.52.36H69.84Z"/><path class="cls-26" d="M74.76,52.6H73.51a2.61,2.61,0,0,0,.64-0.48Z"/><path class="cls-27" d="M70.59,52.27l-0.75.37-2.32-3.5h0l0-.06,0,0,2,0.78s0,0,0,.07A3,3,0,0,0,70.35,52,2.62,2.62,0,0,0,70.59,52.27Z"/><path class="cls-28" d="M69.55,46l-2,3a4.46,4.46,0,0,1,1.31-2.42A4.89,4.89,0,0,1,69.55,46Z"/><path class="cls-26" d="M63.93,54.6l3.51-1.16v1.07a0.09,0.09,0,0,1-.09.09H63.93Z"/><path class="cls-26" d="M69.84,52.64L69.6,53.93a4.88,4.88,0,0,1-.74-0.6l-0.26-.28Z"/><path class="cls-23" d="M67.44,52.86v0.57L63.93,54.6H62l1.81-1.83h3.51A0.09,0.09,0,0,1,67.44,52.86Z"/><path class="cls-23" d="M69.84,52.64l-1.24.41a4.54,4.54,0,0,1-1.13-3.11,5.22,5.22,0,0,1,.06-0.8Z"/><path class="cls-29" d="M63.84,52.77L62,54.6H61.56a0.09,0.09,0,0,1-.09-0.09h0l2.05-5.79v4a0.09,0.09,0,0,0,.09.09h0.22Z"/><path class="cls-30" d="M63.52,45.5V46l-0.05-.59A0.09,0.09,0,0,1,63.52,45.5Z"/><path class="cls-31" d="M60.46,46.86a0.09,0.09,0,0,1,0,.12l-1.15,1.31a0.09,0.09,0,0,1-.13,0,3.06,3.06,0,0,0-1.55-1l-0.45-2A4.83,4.83,0,0,1,60.46,46.86Z"/><path class="cls-31" d="M62.4,45.41l-0.92.94V45.5a0.09,0.09,0,0,1,.09-0.09H62.4Z"/><path class="cls-32" d="M63.52,46v2.21l-2.05.57V46.35l0.92-.94h1.07Z"/><path class="cls-33" d="M60.4,52.88a0.09,0.09,0,0,1,0,.13c-0.13.14-.25,0.27-0.38,0.39l-0.88-1.76a0.09,0.09,0,0,1,.08,0Z"/><polygon class="cls-33" points="63.52 48.22 63.52 48.7 61.47 54.5 61.47 48.79 63.52 48.22"/><path class="cls-28" d="M60,53.39a4.77,4.77,0,0,1-2.14,1.18L58,52.51a3.14,3.14,0,0,0,1.08-.84l0.05,0Z"/><path class="cls-34" d="M58,52.51l-0.12,2.07-0.42.08h0l-2.81-.37h0l-0.19-.09,1.3-1.57a2.68,2.68,0,0,0,.93.16A3.13,3.13,0,0,0,58,52.51Z"/><path class="cls-35" d="M55.75,52.63l-1.3,1.57-0.25-.14h0l-1.53-1.43h0a4.28,4.28,0,0,1-.46-0.9l2-.68a2.51,2.51,0,0,0,.6,1A2.61,2.61,0,0,0,55.75,52.63Z"/><polygon class="cls-36" points="51.34 46.35 51.99 46.15 51.76 46.56 51.34 46.35"/><path class="cls-36" d="M57.63,47.26a3,3,0,0,0-.81-0.11,2.82,2.82,0,0,0-2,.76L54.73,48l-1.89-.93h0a4.93,4.93,0,0,1,.46-0.52,4.72,4.72,0,0,1,3.43-1.37l0.45,0Z"/><polygon class="cls-37" points="51.34 46.35 51.76 46.56 51.41 47.17 51.34 46.35"/><path class="cls-37" d="M54,49.95a3.26,3.26,0,0,0,.18,1.1l-2,.68A5,5,0,0,1,51.9,50a4.59,4.59,0,0,1,.94-2.89L54.73,48A2.66,2.66,0,0,0,54,49.95Z"/><polygon class="cls-38" points="54.64 54.28 54.64 54.28 54.64 54.28 54.64 54.28"/><path class="cls-38" d="M57.46,54.65a4.75,4.75,0,0,1-.68,0,5.25,5.25,0,0,1-2.13-.42Z"/><path class="cls-39" d="M52.34,45.54L52,46.15l-0.66.2L51,45.41h1.26A0.09,0.09,0,0,1,52.34,45.54Z"/><polygon class="cls-40" points="49.24 53.49 49.24 53.73 48.77 53.43 49.24 53.49"/><path class="cls-34" d="M49.24,53.73v0.77a0.09,0.09,0,0,1-.09.09H48.71l0.06-1.17Z"/><polygon class="cls-41" points="48.77 53.43 49.24 53.19 49.24 53.49 48.77 53.43"/><path class="cls-41" d="M54.2,54.06a4.65,4.65,0,0,1-.92-0.7,4.54,4.54,0,0,1-.61-0.73Z"/><polygon class="cls-42" points="51.41 47.17 49.7 50.16 48.03 48.83 48.17 48.73 48.25 48.67 48.34 48.6 48.34 48.59 48.34 48.59 51.34 46.35 51.41 47.17"/><path class="cls-43" d="M49.7,50.16l-0.45.79a0.09,0.09,0,0,0,0,0v2.2l-0.46.24L48,48.83Z"/><path class="cls-44" d="M48.13,48.69l0,0L48,48.83l0.07-.19Z"/><path class="cls-44" d="M51.34,46.35l-3,2.24,1.83-3.14a0.09,0.09,0,0,1,.08,0H51Z"/><polygon class="cls-45" points="48.77 53.43 48.71 54.6 47.29 54.6 48.77 53.43"/><path class="cls-46" d="M43.31,45.5v0.63l-1.25-.72h1.16A0.09,0.09,0,0,1,43.31,45.5Z"/><path class="cls-46" d="M48.06,48.56l0,0.27L45,47.07l-0.87-1.53a0.09,0.09,0,0,1,.08-0.13h2a0.09,0.09,0,0,1,.08,0Z"/><polygon class="cls-47" points="48.1 48.64 48.03 48.83 48.06 48.56 48.1 48.64"/><path class="cls-37" d="M48.77,53.43L47.29,54.6h0a0.09,0.09,0,0,1-.09-0.09v-0.7Z"/><path class="cls-48" d="M47.19,52.59V51a0.09,0.09,0,0,0,0,0l-0.64-1.11,1.49-1,0.74,4.59Z"/><path class="cls-42" d="M42.94,54.6l0.51-1.11v1a0.09,0.09,0,0,1-.09.09H42.94Z"/><polygon class="cls-42" points="48.77 53.43 47.19 53.81 47.19 52.59 48.77 53.43"/><path class="cls-49" d="M43.31,46.12v1a0.09,0.09,0,0,1-.09.09H42.35l-1-1.83h0.7Z"/><polygon class="cls-49" points="48.03 48.83 46.54 49.83 44.96 47.07 48.03 48.83"/><polygon class="cls-50" points="42.35 47.23 41.44 47.23 40.08 45.48 40.19 45.41 41.35 45.41 42.35 47.23"/><path class="cls-51" d="M43.45,52.87v0.62L42.94,54.6h-0.7L36.9,52l1.84-.2v0.87a0.09,0.09,0,0,0,.09.09h4.54A0.09,0.09,0,0,1,43.45,52.87Z"/><polygon class="cls-52" points="41.44 47.23 39.23 47.23 40.08 45.48 41.44 47.23"/><path class="cls-52" d="M42.85,49.22v1.57a0.09,0.09,0,0,1-.09.09H38.82a0.09,0.09,0,0,0-.09.09v0.85L36.9,52l1.84-3.77V49a0.09,0.09,0,0,0,.09.09h3.94A0.09,0.09,0,0,1,42.85,49.22Z"/><polygon class="cls-53" points="42.24 54.6 37.71 54.6 36.9 52.02 42.24 54.6"/><path class="cls-54" d="M40.08,45.48l-0.85,1.75H38.82a0.09,0.09,0,0,0-.09.09v0.93L36.9,52l-0.22-.35v-4.6Z"/><path class="cls-55" d="M35.67,45.56L34.34,47l-0.25-1.63H35.6A0.09,0.09,0,0,1,35.67,45.56Z"/><path class="cls-55" d="M40.08,45.48l-3.4,1.59V45.5a0.09,0.09,0,0,1,.09-0.09H39.6Z"/><path class="cls-56" d="M34.77,53.15l0.85,1.2-2.08-.54Z"/><path class="cls-56" d="M37.71,54.6H36.77a0.09,0.09,0,0,1-.09-0.09V52.13L36.9,52Z"/><path class="cls-53" d="M35.63,54.6H33.78l-0.24-.8,2.08,0.54,0.08,0.11A0.09,0.09,0,0,1,35.63,54.6Z"/><path class="cls-57" d="M33.9,51.92l0.87,1.23-1.23.65,0.32-1.92Z"/><polygon class="cls-57" points="36.9 52.02 36.68 52.13 36.68 51.67 36.9 52.02"/><path class="cls-58" d="M33.87,51.88L33.54,53.8l-1.47-1-1.3-1.75a0.09,0.09,0,0,0-.14,0l-0.43.48-2.33-1.58L33,48.51l-0.82.91a0.09,0.09,0,0,0,0,.11Z"/><path class="cls-47" d="M33.78,54.6H33.46a0.09,0.09,0,0,1-.07,0L33,54.06l0.53-.26Z"/><polygon class="cls-59" points="28.79 45.73 29.79 45.49 29.79 46.15 28.79 45.73"/><path class="cls-59" d="M34.34,47l-0.65.72L31.82,47l1.42-1.55a0.09,0.09,0,0,1,.07,0h0.79Z"/><path class="cls-60" d="M33.69,47.75L33,48.5h0l-5.14,1.44,0.91-4.22,1,0.42v2.8A0.09,0.09,0,0,0,30,49l1.87-2Z"/><path class="cls-61" d="M27.87,49.95l2.33,1.58L29.82,52a0.09,0.09,0,0,0,0,.06v2.48a0.09,0.09,0,0,1-.09.09h0Z"/><polygon class="cls-61" points="33.55 53.8 33.01 54.06 32.08 52.8 33.55 53.8"/><polygon class="cls-62" points="24.98 50.36 26.86 50.09 26.86 52.28 24.98 50.36"/><polygon class="cls-62" points="29.68 54.6 29.14 54.6 27.74 53.17 27.74 49.97 27.88 49.95 29.68 54.6"/><path class="cls-61" d="M25,50.36l1.88,1.92v2.13a0.19,0.19,0,0,1-.19.19H24.48Z"/><path class="cls-61" d="M29.14,54.6H27.83a0.09,0.09,0,0,1-.09-0.09V53.17Z"/><polygon class="cls-63" points="24.98 50.36 24.48 54.6 21.85 54.6 21.05 52.68 24.98 50.36"/><polygon class="cls-64" points="24.98 50.36 26.86 48.07 26.86 50.09 24.98 50.36"/><polygon class="cls-64" points="28.79 45.73 27.88 49.95 27.74 49.97 27.74 47 28.79 45.73"/><path class="cls-65" d="M26.86,45.59v2.48L25,50.36l-1.42-5h3.11A0.19,0.19,0,0,1,26.86,45.59Z"/><polygon class="cls-65" points="28.79 45.73 27.74 47 27.74 45.51 28.79 45.73"/><polygon class="cls-58" points="21.85 54.6 20.46 54.6 20.09 54.09 21.05 52.68 21.85 54.6"/><polygon class="cls-66" points="24.98 50.36 19.76 48.16 22.51 45.4 23.56 45.4 24.98 50.36"/><path class="cls-67" d="M19.76,48.16L21,52.68,25,50.36Z"/><polygon class="cls-50" points="20.46 54.6 20.08 54.6 20.09 54.09 20.46 54.6"/><polygon class="cls-68" points="22.51 45.4 19.76 48.16 19.27 45.69 20.33 45.4 22.51 45.4"/><path class="cls-69" d="M19.76,48.16l-6.33,1.46,6.66,4.47Z"/><path class="cls-67" d="M19.76,48.16l0.33,5.93,1-1.41Z"/><path class="cls-68" d="M19.27,45.69l-5.84,3.93,6.33-1.46Z"/><polygon class="cls-70" points="13.43 49.62 10.69 54.6 9.13 54.6 7.97 49.53 13.43 49.62"/><path class="cls-71" d="M10.62,45.4L8,49.54,7.29,45.64l0.09-.16h0a0.17,0.17,0,0,1,.15-0.08h3.08Z"/><path class="cls-70" d="M9.13,54.6H7.54a0.17,0.17,0,0,1-.15-0.09L5.11,50.57l2.86-1Z"/><polygon class="cls-72" points="7.97 49.53 6.12 47.67 7.29 45.64 7.97 49.53"/><polygon class="cls-73" points="16.32 45.4 14.5 45.4 11.7 45.4 13.43 49.62 19.27 45.69 17.51 45.4 16.32 45.4"/><polygon class="cls-73" points="10.98 45.4 10.62 45.4 7.97 49.53 13.43 49.62 11.7 45.4 10.98 45.4"/><polygon class="cls-74" points="18.82 54.6 19.84 54.6 20.08 54.6 20.09 54.09 18.82 54.6"/><polygon class="cls-67" points="20.09 54.09 13.43 49.62 14.63 54.6 16.32 54.6 18.82 54.6 20.09 54.09"/><polygon class="cls-75" points="10.69 54.6 10.98 54.6 14.5 54.6 14.63 54.6 13.43 49.62 10.69 54.6"/><polygon class="cls-62" points="40.19 45.41 40.08 45.48 40.03 45.41 40.19 45.41"/><polygon class="cls-76" points="40.08 45.48 39.6 45.41 40.03 45.41 40.08 45.48"/><path class="cls-75" d="M29.79,45.49l-1,.23,0.28-.32H29.7A0.09,0.09,0,0,1,29.79,45.49Z"/><polygon class="cls-77" points="29.06 45.41 28.79 45.73 28.73 45.41 29.06 45.41"/><path class="cls-68" d="M28.79,45.73l-1-.22h0a0.09,0.09,0,0,1,.09-0.09h0.9Z"/><polygon class="cls-78" points="19.29 45.4 19.27 45.69 20.33 45.4 19.84 45.4 19.29 45.4"/><polygon class="cls-79" points="17.51 45.4 19.27 45.69 19.11 45.4 17.51 45.4"/><polygon class="cls-71" points="19.11 45.4 19.27 45.69 19.29 45.4 19.11 45.4"/><path class="cls-80" d="M14.48,45.47l-2.57,4.46a0.15,0.15,0,0,0,0,.07H10.09l3.53-6.12,0.05,0.05h0l0.8,1.39A0.15,0.15,0,0,1,14.48,45.47Z"/><path class="cls-81" d="M14.48,54.69l-0.8,1.38-0.05.05L10.09,50h1.8a0.14,0.14,0,0,0,0,.07h0l2.57,4.45A0.15,0.15,0,0,1,14.48,54.69Z"/><path class="cls-82" d="M13.63,43.89L10.09,50h0L9.21,51.54,8.36,50.07a0.14,0.14,0,0,1,0-.07,0.15,0.15,0,0,1,0-.07l0.86-1.48,2.6-4.5A0.15,0.15,0,0,1,12,43.87h1.6Z"/><path class="cls-80" d="M13.63,56.12l-0.08,0H12a0.15,0.15,0,0,1-.13-0.08L9.44,51.95l-0.24-.41L10.09,50Z"/><path class="cls-82" d="M20.73,50l-3.53,6.12-0.05-.05h0l-0.8-1.39a0.15,0.15,0,0,1,0-.14l2.57-4.46a0.15,0.15,0,0,0,0-.08h1.8Z"/><path class="cls-80" d="M22.48,50a0.15,0.15,0,0,1,0,.08l-3.46,6a0.15,0.15,0,0,1-.13.07h-1.6l-0.08,0L20.73,50l0.89-1.53,0.84,1.46A0.15,0.15,0,0,1,22.48,50Z"/><path class="cls-80" d="M20.73,50h-1.8a0.15,0.15,0,0,0,0-.08l-2.57-4.45a0.15,0.15,0,0,1,0-.15l0.8-1.39,0.05-.05Z"/><path class="cls-81" d="M21.61,48.47h0L20.73,50l-3.53-6.12,0.08,0h1.6a0.15,0.15,0,0,1,.13.07Z"/></svg>