<svg id="Guides" xmlns="http://www.w3.org/2000/svg" xmlns:xlink="http://www.w3.org/1999/xlink" viewBox="0 0 64 64"><defs><style>.cls-1{fill:none;}.cls-2{clip-path:url(#clip-path);}.cls-3{fill:#4d4d4d;}.cls-4{fill:#e1e1e1;}.cls-5{fill:#c8c8c8;}.cls-6{fill:#c2c2c2;}.cls-7{fill:#c7c7c7;}.cls-8{fill:#cecece;}.cls-9{fill:#d3d3d3;}.cls-10{fill:#c6c6c6;}.cls-11{fill:#d5d5d5;}.cls-12{fill:#d0d0d0;}.cls-13{fill:#bfbfbf;}.cls-14{fill:#d9d9d9;}.cls-15{fill:#d4d4d4;}.cls-16{fill:#d8d8d8;}.cls-17{fill:#e2e2e2;}.cls-18{fill:#e4e4e4;}.cls-19{fill:#dedede;}.cls-20{fill:#c5c5c5;}.cls-21{fill:#d1d1d1;}.cls-22{fill:#ddd;}.cls-23{fill:#e3e3e3;}.cls-24{fill:#00b8e3;}.cls-25{fill:#33c6e9;}.cls-26{fill:#008aaa;}</style><clipPath id="clip-path"><rect class="cls-1" x="0.01" width="63.99" height="63.99"/></clipPath></defs><title>keycloak_deliverables</title><g class="cls-2"><path class="cls-3" d="M54.81,19a0.47,0.47,0,0,1-.41-0.24L47.18,6.24A0.49,0.49,0,0,0,46.76,6H17.3a0.47,0.47,0,0,0-.41.24l-7.5,13h0L2.15,31.76a0.48,0.48,0,0,0,0,.48L9.38,44.75l7.5,13a0.47,0.47,0,0,0,.41.24H46.76a0.49,0.49,0,0,0,.42-0.24L54.4,45.23A0.47,0.47,0,0,1,54.82,45h9a0.54,0.54,0,0,0,.54-0.54V19.54A0.54,0.54,0,0,0,63.81,19h-9Z"/><path class="cls-1" d="M63.81,19H9.8a0.49,0.49,0,0,0-.41.23h0l-0.27.46-3.3,5.73L2.16,31.76a0.48,0.48,0,0,0,0,.48l0.79,1.38L9.38,44.75A0.48,0.48,0,0,0,9.8,45h54a0.53,0.53,0,0,0,.53-0.53V19.54A0.54,0.54,0,0,0,63.81,19Z"/><path class="cls-4" d="M11,30.68L2.95,33.61,2.16,32.24a0.48,0.48,0,0,1,0-.48l3.65-6.33Z"/><polygon class="cls-5" points="59.03 33.02 64.35 32.26 64.35 38.43 59.03 33.02"/><path class="cls-6" d="M59,33l5.32,5.41v6a0.53,0.53,0,0,1-.53.53H57.63Z"/><polygon class="cls-7" points="59.03 33.02 57.63 44.99 50.19 44.99 47.93 39.56 59.03 33.02"/><polygon class="cls-8" points="59.03 33.02 64.35 26.55 64.35 32.26 59.03 33.02"/><path class="cls-9" d="M64.35,19.54v7L59,33,55,19h8.79A0.54,0.54,0,0,1,64.35,19.54Z"/><polygon class="cls-10" points="50.19 44.99 46.26 44.99 45.24 43.53 47.93 39.56 50.19 44.99"/><polygon class="cls-11" points="59.03 33.02 44.3 26.8 52.05 19 55.02 19 59.03 33.02"/><path class="cls-12" d="M44.31,26.8l3.62,12.76L59,33Z"/><polygon class="cls-13" points="46.26 44.99 45.19 44.99 45.24 43.53 46.26 44.99"/><polygon class="cls-14" points="52.05 19 44.3 26.8 42.91 19.82 45.9 19 52.05 19"/><path class="cls-15" d="M44.31,26.8L26.44,30.92l18.8,12.61Z"/><path class="cls-12" d="M44.31,26.8l0.94,16.74,2.69-4Z"/><path class="cls-14" d="M42.91,19.82L26.44,30.92,44.31,26.8Z"/><polygon class="cls-16" points="26.44 30.92 18.69 44.99 14.28 44.99 11.02 30.68 26.44 30.92"/><path class="cls-17" d="M18.5,19L11,30.68l-1.91-11,0.27-.46h0A0.49,0.49,0,0,1,9.8,19h8.7Z"/><path class="cls-16" d="M14.28,45H9.8a0.48,0.48,0,0,1-.42-0.24L2.95,33.61,11,30.68Z"/><polygon class="cls-18" points="11.02 30.68 5.81 25.43 9.11 19.7 11.02 30.68"/><polygon class="cls-19" points="34.6 19 29.45 19 21.55 19 26.44 30.92 42.91 19.82 37.94 19 34.6 19"/><polygon class="cls-19" points="19.52 19 18.5 19 11.02 30.68 26.44 30.92 21.55 19 19.52 19"/><polygon class="cls-20" points="41.66 44.99 44.53 44.99 45.19 44.99 45.24 43.53 41.66 44.99"/><polygon class="cls-12" points="45.24 43.53 26.44 30.92 29.83 44.99 34.6 44.99 41.66 44.99 45.24 43.53"/><polygon class="cls-21" points="18.69 44.99 19.52 44.99 29.45 44.99 29.83 44.99 26.44 30.92 18.69 44.99"/><polygon class="cls-22" points="42.96 19 42.91 19.82 45.9 19 44.53 19 42.96 19"/><polygon class="cls-23" points="37.94 19 42.91 19.82 42.45 19 37.94 19"/><polygon class="cls-17" points="42.45 19 42.91 19.82 42.96 19 42.45 19"/><path class="cls-24" d="M29.4,19.22L22.13,31.8a0.42,0.42,0,0,0-.05.21H17L27,14.74a0.39,0.39,0,0,1,.15.14h0l2.26,3.93A0.44,0.44,0,0,1,29.4,19.22Z"/><path class="cls-25" d="M29.39,45.23l-2.26,3.91a0.44,0.44,0,0,1-.15.14L17,32h5.07a0.39,0.39,0,0,0,0,.2v0L29.39,44.8A0.43,0.43,0,0,1,29.39,45.23Z"/><path class="cls-26" d="M27,14.74L17,32h0l-2.5,4.33-2.39-4.14a0.39,0.39,0,0,1,0-.2,0.42,0.42,0,0,1,.05-0.21l2.42-4.19L21.89,14.9a0.42,0.42,0,0,1,.37-0.22h4.51A0.45,0.45,0,0,1,27,14.74Z"/><path class="cls-24" d="M27,49.28a0.45,0.45,0,0,1-.21.06H22.26a0.42,0.42,0,0,1-.37-0.22L15.17,37.5l-0.66-1.15L17,32Z"/><path class="cls-26" d="M47,32l-10,17.27a0.47,0.47,0,0,1-.15-0.14h0l-2.26-3.92a0.44,0.44,0,0,1,0-.4l7.26-12.58A0.42,0.42,0,0,0,42,32H47Z"/><path class="cls-24" d="M52,32a0.42,0.42,0,0,1-.06.22L42.14,49.14a0.43,0.43,0,0,1-.36.2h-4.5a0.46,0.46,0,0,1-.22-0.06L47,32l2.5-4.33,2.37,4.11A0.42,0.42,0,0,1,52,32Z"/><path class="cls-24" d="M47,32H42a0.42,0.42,0,0,0-.06-0.21L34.64,19.23a0.43,0.43,0,0,1,0-.43l2.26-3.91a0.47,0.47,0,0,1,.15-0.14Z"/><path class="cls-25" d="M49.53,27.68h0L47,32l-10-17.27a0.46,0.46,0,0,1,.22-0.06h4.5a0.43,0.43,0,0,1,.36.2Z"/></g></svg>