<svg id="Guides" xmlns="http://www.w3.org/2000/svg" xmlns:xlink="http://www.w3.org/1999/xlink" viewBox="0 0 32 32"><defs><style>.cls-1{fill:none;}.cls-2{clip-path:url(#clip-path);}.cls-3{fill:#4d4d4d;}.cls-4{fill:#e1e1e1;}.cls-5{fill:#c8c8c8;}.cls-6{fill:#c2c2c2;}.cls-7{fill:#c7c7c7;}.cls-8{fill:#cecece;}.cls-9{fill:#d3d3d3;}.cls-10{fill:#c6c6c6;}.cls-11{fill:#d5d5d5;}.cls-12{fill:#d0d0d0;}.cls-13{fill:#bfbfbf;}.cls-14{fill:#d9d9d9;}.cls-15{fill:#d4d4d4;}.cls-16{fill:#d8d8d8;}.cls-17{fill:#e2e2e2;}.cls-18{fill:#e4e4e4;}.cls-19{fill:#dedede;}.cls-20{fill:#c5c5c5;}.cls-21{fill:#d1d1d1;}.cls-22{fill:#ddd;}.cls-23{fill:#e3e3e3;}.cls-24{fill:#00b8e3;}.cls-25{fill:#33c6e9;}.cls-26{fill:#008aaa;}</style><clipPath id="clip-path"><rect class="cls-1" x="-0.01" width="32" height="32"/></clipPath></defs><title>keycloak_deliverables</title><g class="cls-2"><path class="cls-3" d="M27.39,9.5a0.24,0.24,0,0,1-.21-0.12L23.57,3.12A0.24,0.24,0,0,0,23.36,3H8.63a0.24,0.24,0,0,0-.21.12L4.68,9.62h0L1.06,15.88a0.24,0.24,0,0,0,0,.24l3.61,6.26,3.75,6.5a0.24,0.24,0,0,0,.21.12H23.36a0.24,0.24,0,0,0,.21-0.12l3.61-6.26a0.24,0.24,0,0,1,.21-0.12h4.5a0.27,0.27,0,0,0,.27-0.27V9.77a0.27,0.27,0,0,0-.27-0.27h-4.5Z"/><path class="cls-1" d="M31.89,9.5h-27a0.24,0.24,0,0,0-.21.12h0l-0.13.23L2.89,12.72,1.06,15.88a0.24,0.24,0,0,0,0,.24l0.4,0.69,3.22,5.57a0.24,0.24,0,0,0,.21.12h27a0.27,0.27,0,0,0,.27-0.27V9.77A0.27,0.27,0,0,0,31.89,9.5Z"/><path class="cls-4" d="M5.49,15.34l-4,1.46-0.4-.69a0.24,0.24,0,0,1,0-.24l1.83-3.16Z"/><polygon class="cls-5" points="29.5 16.51 32.16 16.13 32.16 19.22 29.5 16.51"/><path class="cls-6" d="M29.5,16.51l2.66,2.7v3a0.27,0.27,0,0,1-.27.27H28.8Z"/><polygon class="cls-7" points="29.5 16.51 28.8 22.5 25.08 22.5 23.95 19.78 29.5 16.51"/><polygon class="cls-8" points="29.5 16.51 32.16 13.27 32.16 16.13 29.5 16.51"/><path class="cls-9" d="M32.16,9.77v3.5L29.5,16.51l-2-7h4.4A0.27,0.27,0,0,1,32.16,9.77Z"/><polygon class="cls-10" points="25.08 22.5 23.11 22.5 22.61 21.77 23.95 19.78 25.08 22.5"/><polygon class="cls-11" points="29.5 16.51 22.14 13.4 26.01 9.5 27.49 9.5 29.5 16.51"/><path class="cls-12" d="M22.14,13.4l1.81,6.38,5.55-3.27Z"/><polygon class="cls-13" points="23.11 22.5 22.58 22.5 22.61 21.77 23.11 22.5"/><polygon class="cls-14" points="26.01 9.5 22.14 13.4 21.44 9.91 22.93 9.5 26.01 9.5"/><path class="cls-15" d="M22.14,13.4L13.2,15.46l9.4,6.31Z"/><path class="cls-12" d="M22.14,13.4l0.47,8.37,1.34-2Z"/><path class="cls-14" d="M21.44,9.91L13.2,15.46l8.93-2.06Z"/><polygon class="cls-16" points="13.2 15.46 9.33 22.5 7.12 22.5 5.49 15.34 13.2 15.46"/><path class="cls-17" d="M9.23,9.5L5.49,15.34l-1-5.49,0.13-.23h0A0.24,0.24,0,0,1,4.88,9.5H9.23Z"/><path class="cls-16" d="M7.12,22.5H4.88a0.24,0.24,0,0,1-.21-0.12L1.46,16.81l4-1.46Z"/><polygon class="cls-18" points="5.49 15.34 2.89 12.71 4.54 9.85 5.49 15.34"/><polygon class="cls-19" points="17.29 9.5 14.71 9.5 10.76 9.5 13.2 15.46 21.44 9.91 18.96 9.5 17.29 9.5"/><polygon class="cls-19" points="9.74 9.5 9.23 9.5 5.49 15.34 13.2 15.46 10.76 9.5 9.74 9.5"/><polygon class="cls-20" points="20.81 22.5 22.25 22.5 22.58 22.5 22.61 21.77 20.81 22.5"/><polygon class="cls-12" points="22.61 21.77 13.2 15.46 14.9 22.5 17.29 22.5 20.81 22.5 22.61 21.77"/><polygon class="cls-21" points="9.33 22.5 9.74 22.5 14.71 22.5 14.9 22.5 13.2 15.46 9.33 22.5"/><polygon class="cls-22" points="21.46 9.5 21.44 9.91 22.93 9.5 22.25 9.5 21.46 9.5"/><polygon class="cls-23" points="18.96 9.5 21.44 9.91 21.21 9.5 18.96 9.5"/><polygon class="cls-17" points="21.21 9.5 21.44 9.91 21.46 9.5 21.21 9.5"/><path class="cls-24" d="M14.68,9.61L11.05,15.9a0.21,0.21,0,0,0,0,.1H8.49l5-8.64a0.2,0.2,0,0,1,.07.07h0l1.13,2A0.22,0.22,0,0,1,14.68,9.61Z"/><path class="cls-25" d="M14.68,22.62l-1.13,2a0.22,0.22,0,0,1-.08.07L8.49,16H11a0.19,0.19,0,0,0,0,.1h0l3.63,6.29A0.21,0.21,0,0,1,14.68,22.62Z"/><path class="cls-26" d="M13.47,7.37L8.49,16h0L7.24,18.17,6,16.1A0.19,0.19,0,0,1,6,16a0.21,0.21,0,0,1,0-.1l1.21-2.09,3.67-6.36a0.21,0.21,0,0,1,.19-0.11h2.25Z"/><path class="cls-24" d="M13.47,24.64l-0.11,0H11.11a0.21,0.21,0,0,1-.19-0.11L7.57,18.75l-0.33-.58L8.49,16Z"/><path class="cls-26" d="M23.5,16l-5,8.64a0.23,0.23,0,0,1-.07-0.07h0l-1.13-2a0.22,0.22,0,0,1,0-.2l3.63-6.29A0.21,0.21,0,0,0,21,16H23.5Z"/><path class="cls-24" d="M26,16a0.21,0.21,0,0,1,0,.11l-4.88,8.46a0.21,0.21,0,0,1-.18.1H18.62a0.23,0.23,0,0,1-.11,0l5-8.64,1.25-2.16,1.19,2.06A0.21,0.21,0,0,1,26,16Z"/><path class="cls-24" d="M23.5,16H21a0.21,0.21,0,0,0,0-.11L17.31,9.61a0.21,0.21,0,0,1,0-.22l1.13-2a0.23,0.23,0,0,1,.07-0.07Z"/><path class="cls-25" d="M24.75,13.84h0L23.5,16l-5-8.64a0.23,0.23,0,0,1,.11,0h2.25a0.21,0.21,0,0,1,.18.1Z"/></g></svg>