<svg id="Guides" xmlns="http://www.w3.org/2000/svg" xmlns:xlink="http://www.w3.org/1999/xlink" viewBox="0 0 450 450"><defs><style>.cls-1{fill:none;}.cls-2{fill:#4d4d4d;}.cls-3{clip-path:url(#clip-path);}.cls-4{fill:url(#linear-gradient);}.cls-5{fill:#e1e1e1;}.cls-6{fill:#585858;}.cls-7{fill:#696969;}.cls-8{fill:#5e5e5e;}.cls-9{fill:#6d6d6d;}.cls-10{fill:#636363;}.cls-11{fill:#737373;}.cls-12{fill:#757575;}.cls-13{fill:#646464;}.cls-14{fill:#6c6c6c;}.cls-15{fill:#606060;}.cls-16{fill:#707070;}.cls-17{fill:#767676;}.cls-18{fill:#797979;}.cls-19{fill:#7f7f7f;}.cls-20{fill:#868686;}.cls-21{fill:#8a8a8a;}.cls-22{fill:#7d7d7d;}.cls-23{fill:#919191;}.cls-24{fill:#858585;}.cls-25{fill:#929292;}.cls-26{fill:#898989;}.cls-27{fill:#8f8f8f;}.cls-28{fill:#999;}.cls-29{fill:#979797;}.cls-30{fill:#9f9f9f;}.cls-31{fill:#a6a6a6;}.cls-32{fill:#a0a0a0;}.cls-33{fill:#9b9b9b;}.cls-34{fill:#9d9d9d;}.cls-35{fill:#a3a3a3;}.cls-36{fill:#aaa;}.cls-37{fill:#a9a9a9;}.cls-38{fill:#989898;}.cls-39{fill:#b1b1b1;}.cls-40{fill:#9e9e9e;}.cls-41{fill:#a4a4a4;}.cls-42{fill:#aeaeae;}.cls-43{fill:#ababab;}.cls-44{fill:#b4b4b4;}.cls-45{fill:#a2a2a2;}.cls-46{fill:#bcbcbc;}.cls-47{fill:#b8b8b8;}.cls-48{fill:#b0b0b0;}.cls-49{fill:#b9b9b9;}.cls-50{fill:#bfbfbf;}.cls-51{fill:#b5b5b5;}.cls-52{fill:#bdbdbd;}.cls-53{fill:#b6b6b6;}.cls-54{fill:#c3c3c3;}.cls-55{fill:#c9c9c9;}.cls-56{fill:#bbb;}.cls-57{fill:#c1c1c1;}.cls-58{fill:#c6c6c6;}.cls-59{fill:#cdcdcd;}.cls-60{fill:#ccc;}.cls-61{fill:#c2c2c2;}.cls-62{fill:#c8c8c8;}.cls-63{fill:#c7c7c7;}.cls-64{fill:#cecece;}.cls-65{fill:#d3d3d3;}.cls-66{fill:#d5d5d5;}.cls-67{fill:#d0d0d0;}.cls-68{fill:#d9d9d9;}.cls-69{fill:#d4d4d4;}.cls-70{fill:#d8d8d8;}.cls-71{fill:#e2e2e2;}.cls-72{fill:#e4e4e4;}.cls-73{fill:#dedede;}.cls-74{fill:#c5c5c5;}.cls-75{fill:#d1d1d1;}.cls-76{fill:#cbcbcb;}.cls-77{fill:#d7d7d7;}.cls-78{fill:#ddd;}.cls-79{fill:#e3e3e3;}.cls-80{fill:#00b8e3;}.cls-81{fill:#33c6e9;}.cls-82{fill:#008aaa;}</style><clipPath id="clip-path"><path class="cls-1" d="M428,245.69h-9.77a0.42,0.42,0,0,1-.33-0.17l-0.76-1L415,241.7,409.32,234l-3.18-4.28a0.41,0.41,0,0,0-.63,0l-3.33,3.71-0.38.43a0.4,0.4,0,0,0-.1.27v11.16a0.41,0.41,0,0,1-.41.41h-8.42a0.41,0.41,0,0,1-.41-0.41V204.74a0.4,0.4,0,0,1,.41-0.41h8.42a0.41,0.41,0,0,1,.41.41v15.53a0.4,0.4,0,0,0,.7.28l4.65-5L414,208l3.24-3.52a0.41,0.41,0,0,1,.3-0.13h10.34a0.4,0.4,0,0,1,.41.42,0.46,0.46,0,0,1-.1.25l-4.66,5.17-7.74,8.61-3.23,3.58a0.4,0.4,0,0,0,0,.5l4,5.63,3.66,5.16,0.45,0.63,2.77,3.88,2.89,4.06,2,2.82A0.41,0.41,0,0,1,428,245.69Zm-38.72-.57a0.41,0.41,0,0,1-.37.57h-8.94a0.4,0.4,0,0,1-.37-0.25l-0.18-.4h0l-3.46-8a0.4,0.4,0,0,0-.37-0.25h-16.8a0.41,0.41,0,0,0-.38.25l-0.52,1.2-3.12,7.25h0a0.41,0.41,0,0,1-.36.23h-8.94a0.41,0.41,0,0,1-.37-0.57l0.62-1.44,4.22-9.76h0l0.15-.34,0.18-.41,0.08-.2,1.4-3.25v0h0l10.84-25.09a0.41,0.41,0,0,1,.37-0.25h8.4a0.4,0.4,0,0,1,.37.25l5.64,13,2.79,6.44,3.12,7.21,5.9,13.66Zm-17.16-17-0.59-1.38-2-4.63-2-4.57a0.41,0.41,0,0,0-.75,0l-3.51,8.11-1.07,2.48a0.4,0.4,0,0,0,.37.56h9.13A0.4,0.4,0,0,0,372.07,228.08Zm-26.51,4.66a17.7,17.7,0,0,1-.83,1.84,20.76,20.76,0,0,1-4,5.37l0,0a22.08,22.08,0,0,1-2.26,1.94,21,21,0,0,1-11.68,4.14c-0.5,0-1,0-1.51,0a21.6,21.6,0,0,1-12.1-3.42,22,22,0,0,1-3.34-2.7c-0.41-.41-0.81-0.82-1.18-1.24a20.43,20.43,0,0,1-5.1-14,23.47,23.47,0,0,1,.27-3.6h0l-0.19-.28,0.3-.45a20.05,20.05,0,0,1,5.89-10.91A22,22,0,0,1,313,207a20.33,20.33,0,0,1,7.39-3.09h0a23.77,23.77,0,0,1,4.92-.49,21.25,21.25,0,0,1,15.45,6.13,20.25,20.25,0,0,1,6.17,12.94h0c0.07,0.74.1,1.51,0.1,2.28A21.76,21.76,0,0,1,345.56,232.74Zm-8-8a13.54,13.54,0,0,0-3.18-9,5.22,5.22,0,0,0-.36-0.43,11.34,11.34,0,0,0-8.73-3.9,12.49,12.49,0,0,0-2.67.28,11.4,11.4,0,0,0-6.06,3.62,13.44,13.44,0,0,0-3.55,9.12c0,0.11,0,.21,0,0.32a13.41,13.41,0,0,0,3.56,9.41,11.78,11.78,0,0,0,1.07,1,11.35,11.35,0,0,0,2.33,1.6,12.09,12.09,0,0,0,10.81-.09,11.76,11.76,0,0,0,2.87-2.18l0.36-.38a13.42,13.42,0,0,0,2-2.83A13.84,13.84,0,0,0,337.59,224.77Zm-34.51,12.69H286.25a0.4,0.4,0,0,1-.41-0.4V204.74a0.4,0.4,0,0,0-.23-0.36,0.35,0.35,0,0,0-.17,0H277a0.4,0.4,0,0,0-.41.41v40.55a0.41,0.41,0,0,0,.41.41h26a0.41,0.41,0,0,0,.41-0.41v-7.42A0.41,0.41,0,0,0,303.07,237.46Zm-45.76-34c-0.67-.05-1.34-0.08-2-0.08a21.24,21.24,0,0,0-15.42,6.15,22.18,22.18,0,0,0-2.08,2.35h0a20.67,20.67,0,0,0-4.22,13,22.27,22.27,0,0,0,1.35,7.89,19.26,19.26,0,0,0,2.08,4.05h0a20.42,20.42,0,0,0,2.74,3.28,20.93,20.93,0,0,0,4.13,3.14h0c0.37,0.21.75,0.42,1.13,0.61s0.56,0.27.85,0.39h0a23.61,23.61,0,0,0,9.6,1.88,21.39,21.39,0,0,0,3.07-.22h0c0.64-.09,1.27-0.21,1.9-0.36a21.44,21.44,0,0,0,9.63-5.32c0.58-.54,1.16-1.12,1.73-1.74a0.41,0.41,0,0,0,0-.56l-5.34-5.49a0.39,0.39,0,0,0-.36-0.12,0.44,0.44,0,0,0-.24.14,13.55,13.55,0,0,1-10.84,5,12.05,12.05,0,0,1-4.18-.71,11.73,11.73,0,0,1-4.28-2.79,11.29,11.29,0,0,1-2.7-4.3,14.68,14.68,0,0,1-.79-5,12,12,0,0,1,3.21-8.7l0.49-.47a12.68,12.68,0,0,1,8.91-3.4,13.35,13.35,0,0,1,10.59,5.08,0.4,0.4,0,0,0,.61,0l5.19-5.89a0.42,0.42,0,0,0,0-.55A21.73,21.73,0,0,0,257.32,203.46ZM234,207.67l1.57-2.74a0.4,0.4,0,0,0-.35-0.61h-9.07a0.41,0.41,0,0,0-.35.2l-8.22,14.15h0l-0.44.32-0.33.25a0.42,0.42,0,0,1-.17-0.16l-0.14-.23-0.21-.35-8.12-14a0.41,0.41,0,0,0-.35-0.2h-9.07a0.41,0.41,0,0,0-.35.61l3.93,6.88,7.12,12.44,2.87,5a0.41,0.41,0,0,1,.06.2v15.82a0.41,0.41,0,0,0,.41.41h8.42a0.41,0.41,0,0,0,.41-0.41V229.46a0.41,0.41,0,0,1,.06-0.2l2-3.55,7.7-13.46,1.57-2.74,1-1.83h0Zm-38.85,29.85H174.7a0.41,0.41,0,0,1-.41-0.41v-7.77a0.41,0.41,0,0,1,.41-0.41h17.71a0.41,0.41,0,0,0,.41-0.41v-7.06a0.41,0.41,0,0,0-.41-0.41H174.7a0.41,0.41,0,0,1-.41-0.41V213a0.41,0.41,0,0,1,.41-0.41h19.78a0.41,0.41,0,0,0,.41-0.41v-7.41a0.41,0.41,0,0,0-.41-0.41h-29a0.4,0.4,0,0,0-.41.41v40.55a0.41,0.41,0,0,0,.41.41h29.66a0.41,0.41,0,0,0,.41-0.41v-7.36A0.41,0.41,0,0,0,195.13,237.52Zm-34.82,7-3.84-5.38-3.93-5.52-0.14-.21q-5.38-7.57-7.54-10.58a0.4,0.4,0,0,1,0-.5l3.69-4.09h0l3-3.37,2.92-3.24,6-6.66a0.4,0.4,0,0,0-.3-0.67H149.88a0.41,0.41,0,0,0-.3.13l-6.4,7-8.4,9.13a0.4,0.4,0,0,1-.7-0.28V204.73a0.4,0.4,0,0,0-.41-0.4h-8.42a0.4,0.4,0,0,0-.41.41v40.55a0.41,0.41,0,0,0,.41.41h8.42a0.41,0.41,0,0,0,.41-0.41V234.13a0.4,0.4,0,0,1,.1-0.27l1.75-2,2-2.17a0.41,0.41,0,0,1,.63,0l5.84,7.85,4.19,5.65,1.68,2.27a0.4,0.4,0,0,0,.32.17h9.78a0.41,0.41,0,0,0,.33-0.65ZM120,204.28H33.93a0.78,0.78,0,0,0-.66.37s0,0,0,0l-0.43.74-5.27,9.13-5.82,10.09a0.76,0.76,0,0,0,0,.76L23,227.58l10.25,17.76a0.77,0.77,0,0,0,.67.39H120a0.85,0.85,0,0,0,.85-0.85V205.14A0.86,0.86,0,0,0,120,204.28Z"/></clipPath><linearGradient id="linear-gradient" x1="20.71" y1="225.61" x2="430.83" y2="225.61" gradientUnits="userSpaceOnUse"><stop offset="0" stop-color="#e6e6e6"/><stop offset="1" stop-color="#595959"/></linearGradient></defs><title>keycloak_deliverables</title><path class="cls-2" d="M105.69,204.28a0.76,0.76,0,0,1-.66-0.38l-11.51-20a0.78,0.78,0,0,0-.67-0.38h-47a0.76,0.76,0,0,0-.66.38l-12,20.71h0l-11.52,20a0.77,0.77,0,0,0,0,.76l11.52,19.95,12,20.73a0.76,0.76,0,0,0,.66.38h47a0.78,0.78,0,0,0,.67-0.38l11.52-20a0.76,0.76,0,0,1,.66-0.38H120a0.86,0.86,0,0,0,.86-0.86V205.14a0.86,0.86,0,0,0-.86-0.86H105.69Z"/><g class="cls-3"><rect class="cls-4" x="20.71" y="197.91" width="410.13" height="55.4"/></g><path class="cls-5" d="M35.87,222.91L23,227.58l-1.27-2.19a0.76,0.76,0,0,1,0-.76l5.82-10.09Z"/><path class="cls-6" d="M428,245.69h-5.31l-4.85-3,8.47-.43,2,2.82A0.41,0.41,0,0,1,428,245.69Z"/><path class="cls-6" d="M422.64,245.69h-4.46a0.42,0.42,0,0,1-.33-0.17l-0.76-1,0.71-1.84Z"/><path class="cls-7" d="M428.24,204.75a0.46,0.46,0,0,1-.1.25l-4.66,5.17-0.29-2.9Z"/><path class="cls-8" d="M426.27,242.23l-8.47.43,5.58-4.49Z"/><path class="cls-9" d="M428.24,204.75l-5,2.52,0.86-2.94h3.78A0.4,0.4,0,0,1,428.24,204.75Z"/><path class="cls-10" d="M423.38,238.16l-5.58,4.49,2.81-8.37Z"/><polygon class="cls-11" points="424.05 204.33 423.19 207.27 418.29 204.33 424.05 204.33"/><path class="cls-12" d="M401.71,204.73v4.19l-9.23.72v-4.9a0.4,0.4,0,0,1,.41-0.41h8.42A0.41,0.41,0,0,1,401.71,204.73Z"/><path class="cls-12" d="M423.19,207.27L414,208l3.24-3.52a0.41,0.41,0,0,1,.3-0.13h0.79Z"/><path class="cls-13" d="M420.61,234.28l-2.81,8.37-2.79-1L409.32,234l7.19-5.55,3.66,5.16Z"/><polygon class="cls-9" points="401.7 208.92 401.7 213.47 392.48 209.97 392.48 209.64 401.7 208.92"/><polygon class="cls-9" points="423.48 210.17 415.74 218.78 407.06 215.5 413.97 207.98 423.19 207.27 423.48 210.17"/><path class="cls-14" d="M416.5,228.49L409.32,234l-3.18-4.28a0.41,0.41,0,0,0-.63,0l-3.33,3.71-9.71-22V210l9.23,3.49v6.8a0.4,0.4,0,0,0,.7.28l4.65-5,8.69,3.29-3.23,3.58a0.4,0.4,0,0,0,0,.5Z"/><polygon class="cls-15" points="417.8 242.65 417.09 244.49 415 241.7 417.8 242.65"/><path class="cls-16" d="M402.19,233.43l-0.38.43a0.4,0.4,0,0,0-.1.27v1.75L392.48,228V211.39Z"/><path class="cls-10" d="M389.23,245.12a0.41,0.41,0,0,1-.37.57h-1.35l1.64-.76Z"/><path class="cls-10" d="M401.71,239.14v6.14a0.41,0.41,0,0,1-.41.41h-8.42a0.41,0.41,0,0,1-.41-0.41V243.4Z"/><path class="cls-9" d="M389.15,244.93l-1.64.76h-7.59a0.4,0.4,0,0,1-.37-0.25l-0.18-.4h0l3.88-13.76Z"/><polygon class="cls-9" points="401.7 235.88 401.7 239.14 392.48 243.4 392.48 228.04 401.7 235.88"/><path class="cls-17" d="M383.25,231.28L379.37,245l-3.46-8a0.4,0.4,0,0,0-.37-0.25h-16.8a0.41,0.41,0,0,0-.38.25l-0.52,1.2L350,233.57l0.18-.41,14.87-4.52h6.62a0.4,0.4,0,0,0,.37-0.56l-0.59-1.38,8.65-2.63Z"/><path class="cls-18" d="M365.08,228.64l-14.87,4.52,0.08-.2,13-7.36-1.07,2.48a0.4,0.4,0,0,0,.37.56h2.5Z"/><polygon class="cls-18" points="380.13 224.06 371.48 226.7 369.5 222.07 377.35 217.62 380.13 224.06"/><path class="cls-12" d="M357.85,238.2l-3.12,7.25h0l-4.84-11.53h0l0.15-.34Z"/><path class="cls-19" d="M377.35,217.62l-7.85,4.45-2-4.57a0.41,0.41,0,0,0-.75,0l-3.51,8.11-13,7.36,1.4-3.25v0h0l14.36-25.33h5.25a0.4,0.4,0,0,1,.37.25Z"/><path class="cls-20" d="M345.26,216a20.46,20.46,0,0,1,1.63,6.44Z"/><path class="cls-20" d="M366.08,204.33l-14.36,25.33,10.84-25.09a0.41,0.41,0,0,1,.37-0.25h3.15Z"/><path class="cls-21" d="M347,224.74a21.76,21.76,0,0,1-1.43,8l-9.52-1.4a13.84,13.84,0,0,0,1.55-6.57,13.54,13.54,0,0,0-3.18-9l3.72-8.44a21.47,21.47,0,0,1,2.6,2.19,20.37,20.37,0,0,1,4.54,6.5l1.63,6.44h0C347,223.2,347,224,347,224.74Z"/><path class="cls-22" d="M336.42,236.69l8.32-2.1a20.76,20.76,0,0,1-4,5.37Z"/><path class="cls-22" d="M354.72,245.46a0.41,0.41,0,0,1-.36.23h-6l-2.65-2,4.22-9.76Z"/><path class="cls-18" d="M336.42,236.69l4.33,3.27,0,0a22.08,22.08,0,0,1-2.26,1.94Z"/><path class="cls-18" d="M348.32,245.69h-2.9a0.41,0.41,0,0,1-.37-0.57l0.62-1.44Z"/><path class="cls-20" d="M345.56,232.74a17.7,17.7,0,0,1-.83,1.84l-8.32,2.1-2.74-2.13,0.36-.38a13.42,13.42,0,0,0,2-2.83Z"/><path class="cls-22" d="M338.46,241.92a21,21,0,0,1-11.68,4.14l9.63-9.37Z"/><path class="cls-23" d="M338.12,207.32l-3.72,8.44a5.22,5.22,0,0,0-.36-0.43,11.34,11.34,0,0,0-8.73-3.9,12.49,12.49,0,0,0-2.67.28l-2.29-7.85a23.77,23.77,0,0,1,4.92-.49A21.44,21.44,0,0,1,338.12,207.32Z"/><path class="cls-24" d="M336.42,236.69l-9.63,9.37c-0.5,0-1,0-1.51,0a21.6,21.6,0,0,1-12.1-3.42l1.08-5.8,5.73,0a12.09,12.09,0,0,0,10.81-.09Z"/><path class="cls-25" d="M322.64,211.71a11.4,11.4,0,0,0-6.06,3.62,13.44,13.44,0,0,0-3.55,9.12l-9.17-3.5-0.21-.08,0.3-.45L313,207a20.33,20.33,0,0,1,7.39-3.09h0Z"/><path class="cls-26" d="M317.66,235.22a11.35,11.35,0,0,0,2.33,1.6l-5.73,0Z"/><path class="cls-26" d="M336.42,236.69l-5.62,0a11.76,11.76,0,0,0,2.87-2.18Z"/><path class="cls-27" d="M317.66,235.22l-3.4,1.65-10.43-15.73h0l-0.19-.28,0.21,0.08,9.17,3.5c0,0.11,0,.21,0,0.32a13.41,13.41,0,0,0,3.56,9.41A11.78,11.78,0,0,0,317.66,235.22Z"/><path class="cls-28" d="M313,207l-9,13.45a20.05,20.05,0,0,1,5.89-10.91A22,22,0,0,1,313,207Z"/><path class="cls-26" d="M287.69,245.69l15.79-5.24v4.83a0.41,0.41,0,0,1-.41.41H287.69Z"/><path class="cls-26" d="M314.26,236.88l-1.08,5.8a22,22,0,0,1-3.34-2.7c-0.41-.41-0.81-0.82-1.18-1.24Z"/><path class="cls-23" d="M303.48,237.87v2.59l-15.79,5.24h-8.55l8.13-8.23h15.81A0.41,0.41,0,0,1,303.48,237.87Z"/><path class="cls-23" d="M314.26,236.88l-5.6,1.86a20.43,20.43,0,0,1-5.1-14,23.47,23.47,0,0,1,.27-3.6Z"/><path class="cls-29" d="M287.26,237.46l-8.13,8.23H277a0.41,0.41,0,0,1-.41-0.41v0l9.23-26.08v17.89a0.4,0.4,0,0,0,.41.4h1Z"/><path class="cls-30" d="M285.85,204.73V207l-0.23-2.67A0.4,0.4,0,0,1,285.85,204.73Z"/><path class="cls-31" d="M272.08,210.85a0.42,0.42,0,0,1,0,.55l-5.19,5.89a0.4,0.4,0,0,1-.61,0,13.78,13.78,0,0,0-7-4.61l-2-9.21A21.73,21.73,0,0,1,272.08,210.85Z"/><path class="cls-31" d="M280.78,204.33l-4.16,4.23v-3.82a0.4,0.4,0,0,1,.41-0.41h3.75Z"/><path class="cls-32" d="M285.85,207v10l-9.23,2.55v-11l4.16-4.23h4.66a0.35,0.35,0,0,1,.17,0Z"/><path class="cls-33" d="M271.82,238a0.41,0.41,0,0,1,0,.56c-0.56.62-1.14,1.2-1.73,1.74l-4-7.92a0.39,0.39,0,0,1,.36.12Z"/><polygon class="cls-33" points="285.85 217 285.85 219.17 276.62 245.25 276.62 219.55 285.85 217"/><path class="cls-28" d="M270.11,240.26a21.44,21.44,0,0,1-9.63,5.32l0.54-9.3a14.11,14.11,0,0,0,4.86-3.79,0.44,0.44,0,0,1,.24-0.14Z"/><path class="cls-34" d="M261,236.28l-0.54,9.3c-0.63.15-1.26,0.28-1.9,0.36h0l-12.67-1.66h0q-0.43-.19-0.85-0.39l5.85-7.07a12.05,12.05,0,0,0,4.18.71A14.09,14.09,0,0,0,261,236.28Z"/><path class="cls-35" d="M250.86,236.81L245,243.88c-0.39-.19-0.76-0.4-1.13-0.61h0L237,236.85h0a19.26,19.26,0,0,1-2.08-4.05l9-3a11.29,11.29,0,0,0,2.7,4.3A11.73,11.73,0,0,0,250.86,236.81Z"/><polygon class="cls-36" points="231.03 208.57 233.97 207.68 232.93 209.51 231.03 208.57"/><path class="cls-36" d="M259.34,212.67a13.67,13.67,0,0,0-3.64-.47,12.68,12.68,0,0,0-8.91,3.4l-0.49.47-8.52-4.18h0a22.18,22.18,0,0,1,2.08-2.35,21.24,21.24,0,0,1,15.42-6.15c0.69,0,1.36,0,2,.08Z"/><polygon class="cls-37" points="231.03 208.57 232.93 209.51 231.35 212.25 231.03 208.57"/><path class="cls-37" d="M243.09,224.77a14.68,14.68,0,0,0,.79,5l-9,3a22.27,22.27,0,0,1-1.35-7.89,20.67,20.67,0,0,1,4.22-13l8.52,4.18A12,12,0,0,0,243.09,224.77Z"/><path class="cls-38" d="M245.88,244.27h0Z"/><path class="cls-38" d="M258.56,245.94a21.39,21.39,0,0,1-3.07.22,23.61,23.61,0,0,1-9.6-1.88Z"/><path class="cls-39" d="M235.54,204.93L234,207.67l-3,.9-1.49-4.24h5.65A0.4,0.4,0,0,1,235.54,204.93Z"/><polygon class="cls-40" points="221.57 240.73 221.57 241.81 219.48 240.42 221.57 240.73"/><path class="cls-34" d="M221.57,241.81v3.48a0.41,0.41,0,0,1-.41.41h-2l0.28-5.27Z"/><polygon class="cls-41" points="219.48 240.42 221.57 239.34 221.57 240.73 219.48 240.42"/><path class="cls-41" d="M243.88,243.27a20.93,20.93,0,0,1-4.13-3.14,20.42,20.42,0,0,1-2.74-3.28Z"/><polygon class="cls-42" points="231.35 212.25 223.65 225.71 216.13 219.75 216.78 219.26 217.11 219.01 217.55 218.69 217.55 218.68 217.55 218.67 231.03 208.57 231.35 212.25"/><path class="cls-43" d="M223.65,225.71l-2,3.55a0.41,0.41,0,0,0-.06.2v9.88l-2.09,1.07-3.35-20.67Z"/><path class="cls-44" d="M216.6,219.11a0.42,0.42,0,0,0,.17.16l-0.65.48,0.34-.87Z"/><path class="cls-44" d="M231,208.57l-13.47,10.1,8.22-14.15a0.41,0.41,0,0,1,.35-0.2h3.42Z"/><polygon class="cls-45" points="219.48 240.42 219.2 245.69 212.81 245.69 219.48 240.42"/><path class="cls-46" d="M194.89,204.73v2.82l-5.62-3.23h5.21A0.41,0.41,0,0,1,194.89,204.73Z"/><path class="cls-46" d="M216.26,218.52l-0.13,1.22-13.83-7.94-3.93-6.88a0.41,0.41,0,0,1,.35-0.61h9.07a0.41,0.41,0,0,1,.35.2Z"/><polygon class="cls-47" points="216.47 218.87 216.13 219.75 216.26 218.52 216.47 218.87"/><path class="cls-37" d="M219.48,240.42l-6.67,5.27h-0.06a0.41,0.41,0,0,1-.41-0.41v-3.14Z"/><path class="cls-48" d="M212.34,236.68v-7.21a0.41,0.41,0,0,0-.06-0.2l-2.87-5,6.71-4.5,3.35,20.67Z"/><path class="cls-42" d="M193.24,245.69l2.3-5v4.57a0.41,0.41,0,0,1-.41.41h-1.89Z"/><polygon class="cls-42" points="219.48 240.42 212.34 242.15 212.34 236.68 219.48 240.42"/><path class="cls-49" d="M194.89,207.55v4.59a0.41,0.41,0,0,1-.41.41h-3.9l-4.48-8.22h3.17Z"/><polygon class="cls-49" points="216.13 219.75 209.42 224.25 202.3 211.81 216.13 219.75"/><polygon class="cls-50" points="190.58 212.55 186.49 212.55 180.37 204.66 180.85 204.33 186.1 204.33 190.58 212.55"/><path class="cls-51" d="M195.53,237.93v2.79l-2.3,5h-3.15L166,234.08l8.26-.89v3.93a0.41,0.41,0,0,0,.41.41h20.43A0.41,0.41,0,0,1,195.53,237.93Z"/><polygon class="cls-52" points="186.49 212.55 176.53 212.55 180.37 204.66 186.49 212.55"/><path class="cls-52" d="M192.82,221.48v7.06a0.41,0.41,0,0,1-.41.41H174.7a0.41,0.41,0,0,0-.41.41v3.84l-8.26.89,8.26-16.94v3.53a0.41,0.41,0,0,0,.41.41h17.71A0.41,0.41,0,0,1,192.82,221.48Z"/><polygon class="cls-53" points="190.09 245.69 169.69 245.69 166.03 234.08 190.09 245.69"/><path class="cls-54" d="M180.37,204.66l-3.84,7.89H174.7a0.41,0.41,0,0,0-.41.41v4.18L166,234.08l-1-1.59V211.81Z"/><path class="cls-55" d="M160.51,205l-6,6.66-1.11-7.33h6.79A0.4,0.4,0,0,1,160.51,205Z"/><path class="cls-55" d="M180.37,204.66l-15.31,7.14v-7.08a0.4,0.4,0,0,1,.41-0.41h12.74Z"/><path class="cls-56" d="M156.47,239.17l3.84,5.38L151,242.09Z"/><path class="cls-56" d="M169.69,245.69h-4.22a0.41,0.41,0,0,1-.41-0.41V234.6l1-.52Z"/><path class="cls-53" d="M160.33,245.69H152l-1.08-3.6,9.35,2.45,0.36,0.5A0.41,0.41,0,0,1,160.33,245.69Z"/><path class="cls-57" d="M152.54,233.65l3.93,5.52L151,242.09l1.44-8.65Z"/><polygon class="cls-57" points="166.03 234.08 165.06 234.6 165.06 232.5 166.03 234.08"/><path class="cls-58" d="M152.4,233.44L151,242.09l-6.6-4.48-5.84-7.85a0.41,0.41,0,0,0-.63,0l-2,2.17-10.49-7.12,23.13-6.5-3.69,4.09a0.4,0.4,0,0,0,0,.5Q147,225.87,152.4,233.44Z"/><path class="cls-47" d="M152,245.69h-1.48a0.4,0.4,0,0,1-.32-0.17l-1.68-2.27,2.41-1.16Z"/><polygon class="cls-59" points="129.54 205.78 134.08 204.73 134.08 207.66 129.54 205.78"/><path class="cls-59" d="M154.52,211.66l-2.92,3.24-8.43-3.48,6.4-7a0.41,0.41,0,0,1,.3-0.13h3.54Z"/><path class="cls-60" d="M151.61,214.9l-3,3.37h0l-23.13,6.5,4.1-19,4.54,1.88v12.61a0.4,0.4,0,0,0,.7.28l8.4-9.13Z"/><path class="cls-61" d="M125.44,224.77l10.49,7.12-1.75,2a0.4,0.4,0,0,0-.1.27v11.16a0.41,0.41,0,0,1-.41.41h-0.12Z"/><polygon class="cls-61" points="150.95 242.09 148.55 243.26 144.35 237.61 150.95 242.09"/><polygon class="cls-62" points="112.41 226.64 120.89 225.43 120.89 235.26 112.41 226.64"/><polygon class="cls-62" points="133.56 245.69 131.16 245.69 124.85 239.28 124.85 224.85 125.44 224.77 133.56 245.69"/><path class="cls-61" d="M112.41,226.64l8.48,8.62v9.61a0.85,0.85,0,0,1-.85.85h-9.87Z"/><path class="cls-61" d="M131.16,245.69h-5.9a0.41,0.41,0,0,1-.41-0.41v-6Z"/><polygon class="cls-63" points="112.41 226.64 110.17 245.72 98.31 245.72 94.72 237.06 112.41 226.64"/><polygon class="cls-64" points="112.41 226.64 120.89 216.31 120.89 225.43 112.41 226.64"/><polygon class="cls-64" points="129.54 205.78 125.44 224.77 124.85 224.85 124.85 211.49 129.54 205.78"/><path class="cls-65" d="M120.89,205.14v11.17l-8.48,10.32L106,204.28h14A0.86,0.86,0,0,1,120.89,205.14Z"/><polygon class="cls-65" points="129.54 205.78 124.85 211.49 124.85 204.78 129.54 205.78"/><polygon class="cls-58" points="98.31 245.72 92.05 245.72 90.43 243.39 94.72 237.06 98.31 245.72"/><polygon class="cls-66" points="112.41 226.64 88.94 216.71 101.28 204.28 106.01 204.28 112.41 226.64"/><path class="cls-67" d="M88.94,216.71l5.78,20.35,17.69-10.43Z"/><polygon class="cls-50" points="92.05 245.72 90.36 245.72 90.43 243.39 92.05 245.72"/><polygon class="cls-68" points="101.28 204.28 88.94 216.71 86.71 205.59 91.48 204.28 101.28 204.28"/><path class="cls-69" d="M88.94,216.71l-28.49,6.57,30,20.11Z"/><path class="cls-67" d="M88.94,216.71l1.49,26.68,4.28-6.33Z"/><path class="cls-68" d="M86.71,205.59L60.45,223.28l28.49-6.57Z"/><polygon class="cls-70" points="60.45 223.28 48.1 245.72 41.07 245.72 35.87 222.91 60.45 223.28"/><path class="cls-71" d="M47.8,204.28L35.87,222.91l-3-17.51,0.43-.74s0,0,0,0a0.78,0.78,0,0,1,.66-0.37H47.8Z"/><path class="cls-70" d="M41.07,245.72H33.93a0.77,0.77,0,0,1-.67-0.39L23,227.58l12.87-4.67Z"/><polygon class="cls-72" points="35.87 222.91 27.56 214.53 32.83 205.4 35.87 222.91"/><polygon class="cls-73" points="73.47 204.28 65.25 204.28 52.67 204.28 60.45 223.28 86.71 205.59 78.8 204.28 73.47 204.28"/><polygon class="cls-73" points="49.42 204.28 47.8 204.28 35.87 222.91 60.45 223.28 52.67 204.28 49.42 204.28"/><polygon class="cls-74" points="84.72 245.72 89.3 245.72 90.36 245.72 90.43 243.39 84.72 245.72"/><polygon class="cls-67" points="90.43 243.39 60.45 223.28 65.85 245.72 73.47 245.72 84.72 245.72 90.43 243.39"/><polygon class="cls-75" points="48.1 245.72 49.42 245.72 65.25 245.72 65.85 245.72 60.45 223.28 48.1 245.72"/><polygon class="cls-62" points="180.85 204.33 180.37 204.66 180.14 204.33 180.85 204.33"/><polygon class="cls-76" points="180.37 204.66 178.21 204.33 180.14 204.33 180.37 204.66"/><path class="cls-75" d="M134.08,204.73l-4.54,1.05,1.24-1.45h2.89A0.4,0.4,0,0,1,134.08,204.73Z"/><polygon class="cls-77" points="130.78 204.33 129.54 205.78 129.28 204.33 130.78 204.33"/><path class="cls-68" d="M129.54,205.78l-4.69-1v0a0.4,0.4,0,0,1,.41-0.41h4Z"/><polygon class="cls-78" points="86.79 204.28 86.71 205.59 91.48 204.28 89.3 204.28 86.79 204.28"/><polygon class="cls-79" points="78.8 204.28 86.71 205.59 85.98 204.28 78.8 204.28"/><polygon class="cls-71" points="85.98 204.28 86.71 205.59 86.79 204.28 85.98 204.28"/><path class="cls-80" d="M65.17,204.64L53.59,224.69a0.67,0.67,0,0,0-.08.33H45.43l15.89-27.53a0.63,0.63,0,0,1,.24.23l0,0,3.6,6.26A0.69,0.69,0,0,1,65.17,204.64Z"/><path class="cls-81" d="M65.16,246.1l-3.6,6.23a0.7,0.7,0,0,1-.24.23L45.42,225h8.08a0.62,0.62,0,0,0,.08.31,0.07,0.07,0,0,0,0,0l11.56,20A0.68,0.68,0,0,1,65.16,246.1Z"/><path class="cls-82" d="M61.32,197.49L45.43,225h0l-4,6.91-3.8-6.6a0.62,0.62,0,0,1-.08-0.31,0.67,0.67,0,0,1,.08-0.33L41.49,218,53.2,197.74a0.68,0.68,0,0,1,.59-0.35H61A0.71,0.71,0,0,1,61.32,197.49Z"/><path class="cls-80" d="M61.32,252.56a0.71,0.71,0,0,1-.34.09H53.79a0.68,0.68,0,0,1-.59-0.35L42.5,233.77l-1.06-1.84,4-6.91Z"/><path class="cls-82" d="M93.28,225l-15.9,27.54a0.74,0.74,0,0,1-.24-0.23v0l-3.6-6.24a0.69,0.69,0,0,1,0-.64L85.1,225.37a0.67,0.67,0,0,0,.1-0.35h8.08Z"/><path class="cls-80" d="M101.14,225a0.67,0.67,0,0,1-.1.35l-15.57,27a0.68,0.68,0,0,1-.58.32H77.72a0.74,0.74,0,0,1-.35-0.09L93.28,225l4-6.9,3.78,6.56A0.67,0.67,0,0,1,101.14,225Z"/><path class="cls-80" d="M93.28,225H85.19a0.67,0.67,0,0,0-.1-0.34l-11.56-20a0.68,0.68,0,0,1,0-.69l3.6-6.24a0.74,0.74,0,0,1,.24-0.23Z"/><path class="cls-81" d="M97.26,218.11h0l-4,6.9-15.9-27.53a0.74,0.74,0,0,1,.35-0.09H84.9a0.68,0.68,0,0,1,.58.32Z"/></svg>