<svg id="Guides" xmlns="http://www.w3.org/2000/svg" xmlns:xlink="http://www.w3.org/1999/xlink" viewBox="0 0 16 16"><defs><style>.cls-1{fill:none;}.cls-2{clip-path:url(#clip-path);}.cls-3{fill:#4d4d4d;}.cls-4{fill:#e1e1e1;}.cls-5{fill:#c8c8c8;}.cls-6{fill:#c2c2c2;}.cls-7{fill:#c7c7c7;}.cls-8{fill:#cecece;}.cls-9{fill:#d3d3d3;}.cls-10{fill:#c6c6c6;}.cls-11{fill:#d5d5d5;}.cls-12{fill:#d0d0d0;}.cls-13{fill:#bfbfbf;}.cls-14{fill:#d9d9d9;}.cls-15{fill:#d4d4d4;}.cls-16{fill:#d8d8d8;}.cls-17{fill:#e2e2e2;}.cls-18{fill:#e4e4e4;}.cls-19{fill:#dedede;}.cls-20{fill:#c5c5c5;}.cls-21{fill:#d1d1d1;}.cls-22{fill:#ddd;}.cls-23{fill:#e3e3e3;}.cls-24{fill:#00b8e3;}.cls-25{fill:#33c6e9;}.cls-26{fill:#008aaa;}</style><clipPath id="clip-path"><rect class="cls-1" y="0.01" width="15.98" height="15.98"/></clipPath></defs><title>keycloak_deliverables</title><g class="cls-2"><path class="cls-3" d="M13.69,4.76a0.12,0.12,0,0,1-.1-0.06l-1.8-3.13a0.12,0.12,0,0,0-.1-0.06H4.32a0.12,0.12,0,0,0-.1.06L2.34,4.82h0L0.54,7.95a0.12,0.12,0,0,0,0,.12l1.8,3.13,1.87,3.25a0.12,0.12,0,0,0,.1.06h7.36a0.12,0.12,0,0,0,.1-0.06l1.8-3.13a0.12,0.12,0,0,1,.1-0.06h2.25a0.14,0.14,0,0,0,.14-0.14V4.89a0.14,0.14,0,0,0-.14-0.14H13.69Z"/><path class="cls-1" d="M15.94,4.76H2.45a0.12,0.12,0,0,0-.1.06h0l-0.07.12L1.45,6.37,0.54,7.95a0.12,0.12,0,0,0,0,.12l0.2,0.34,1.61,2.78a0.12,0.12,0,0,0,.1.06H15.94a0.13,0.13,0,0,0,.13-0.13V4.89A0.13,0.13,0,0,0,15.94,4.76Z"/><path class="cls-4" d="M2.75,7.68l-2,.73-0.2-.34a0.12,0.12,0,0,1,0-.12L1.45,6.37Z"/><polygon class="cls-5" points="14.74 8.26 16.07 8.07 16.07 9.61 14.74 8.26"/><path class="cls-6" d="M14.74,8.26l1.33,1.35v1.51a0.13,0.13,0,0,1-.13.13H14.39Z"/><polygon class="cls-7" points="14.74 8.26 14.39 11.25 12.53 11.25 11.97 9.9 14.74 8.26"/><polygon class="cls-8" points="14.74 8.26 16.07 6.64 16.07 8.07 14.74 8.26"/><path class="cls-9" d="M16.07,4.89V6.64L14.74,8.26l-1-3.5h2.2A0.13,0.13,0,0,1,16.07,4.89Z"/><polygon class="cls-10" points="12.53 11.25 11.55 11.25 11.3 10.89 11.97 9.9 12.53 11.25"/><polygon class="cls-11" points="14.74 8.26 11.06 6.71 13 4.76 13.74 4.76 14.74 8.26"/><path class="cls-12" d="M11.06,6.71L12,9.9l2.77-1.63Z"/><polygon class="cls-13" points="11.55 11.25 11.29 11.25 11.3 10.89 11.55 11.25"/><polygon class="cls-14" points="13 4.76 11.06 6.71 10.72 4.96 11.46 4.76 13 4.76"/><path class="cls-15" d="M11.06,6.71l-4.46,1,4.7,3.15Z"/><path class="cls-12" d="M11.06,6.71l0.23,4.18L12,9.9Z"/><path class="cls-14" d="M10.72,5L6.6,7.74l4.46-1Z"/><polygon class="cls-16" points="6.6 7.74 4.67 11.25 3.56 11.25 2.75 7.68 6.6 7.74"/><path class="cls-17" d="M4.62,4.76L2.75,7.68,2.27,4.94l0.07-.12h0a0.12,0.12,0,0,1,.1-0.06H4.62Z"/><path class="cls-16" d="M3.57,11.25H2.45a0.12,0.12,0,0,1-.1-0.06L0.73,8.41l2-.73Z"/><polygon class="cls-18" points="2.75 7.68 1.45 6.37 2.27 4.93 2.75 7.68"/><polygon class="cls-19" points="8.64 4.76 7.35 4.76 5.38 4.76 6.6 7.74 10.72 4.96 9.48 4.76 8.64 4.76"/><polygon class="cls-19" points="4.87 4.76 4.62 4.76 2.75 7.68 6.6 7.74 5.38 4.76 4.87 4.76"/><polygon class="cls-20" points="10.4 11.25 11.12 11.25 11.29 11.25 11.3 10.89 10.4 11.25"/><polygon class="cls-12" points="11.3 10.89 6.6 7.74 7.45 11.25 8.64 11.25 10.4 11.25 11.3 10.89"/><polygon class="cls-21" points="4.67 11.25 4.87 11.25 7.35 11.25 7.45 11.25 6.6 7.74 4.67 11.25"/><polygon class="cls-22" points="10.73 4.76 10.72 4.96 11.46 4.76 11.12 4.76 10.73 4.76"/><polygon class="cls-23" points="9.48 4.76 10.72 4.96 10.6 4.76 9.48 4.76"/><polygon class="cls-17" points="10.6 4.76 10.72 4.96 10.73 4.76 10.6 4.76"/><path class="cls-24" d="M7.34,4.82L5.53,8a0.11,0.11,0,0,0,0,.05H4.25L6.74,3.7l0,0h0l0.56,1A0.11,0.11,0,0,1,7.34,4.82Z"/><path class="cls-25" d="M7.34,11.31l-0.56,1,0,0L4.25,8H5.51a0.1,0.1,0,0,0,0,0h0L7.34,11.2A0.11,0.11,0,0,1,7.34,11.31Z"/><path class="cls-26" d="M6.74,3.7L4.25,8h0L3.62,9.09,3,8.06A0.1,0.1,0,0,1,3,8,0.11,0.11,0,0,1,3,8l0.6-1L5.47,3.74a0.11,0.11,0,0,1,.09-0.05H6.74Z"/><path class="cls-24" d="M6.74,12.32H5.56a0.11,0.11,0,0,1-.09-0.05L3.79,9.38,3.62,9.09,4.25,8Z"/><path class="cls-26" d="M11.74,8L9.25,12.32l0,0h0l-0.56-1a0.11,0.11,0,0,1,0-.1l1.81-3.14a0.11,0.11,0,0,0,0-.05h1.27Z"/><path class="cls-24" d="M13,8a0.11,0.11,0,0,1,0,.05l-2.44,4.22a0.11,0.11,0,0,1-.09.05H9.25L11.74,8l0.62-1.08L13,8A0.1,0.1,0,0,1,13,8Z"/><path class="cls-24" d="M11.74,8H10.48a0.1,0.1,0,0,0,0-.05L8.65,4.82a0.11,0.11,0,0,1,0-.11l0.56-1,0,0Z"/><path class="cls-25" d="M12.37,6.93h0L11.74,8,9.25,3.7h1.18a0.11,0.11,0,0,1,.09.05Z"/></g></svg>