<svg id="Guides" xmlns="http://www.w3.org/2000/svg" xmlns:xlink="http://www.w3.org/1999/xlink" viewBox="0 0 200 200"><defs><style>.cls-1{fill:none;}.cls-2{fill:#4d4d4d;}.cls-3{clip-path:url(#clip-path);}.cls-4{fill:url(#linear-gradient);}.cls-5{fill:#e1e1e1;}.cls-6{fill:#585858;}.cls-7{fill:#696969;}.cls-8{fill:#5e5e5e;}.cls-9{fill:#6d6d6d;}.cls-10{fill:#636363;}.cls-11{fill:#737373;}.cls-12{fill:#757575;}.cls-13{fill:#646464;}.cls-14{fill:#6c6c6c;}.cls-15{fill:#606060;}.cls-16{fill:#707070;}.cls-17{fill:#767676;}.cls-18{fill:#797979;}.cls-19{fill:#7f7f7f;}.cls-20{fill:#868686;}.cls-21{fill:#8a8a8a;}.cls-22{fill:#7d7d7d;}.cls-23{fill:#919191;}.cls-24{fill:#858585;}.cls-25{fill:#929292;}.cls-26{fill:#898989;}.cls-27{fill:#8f8f8f;}.cls-28{fill:#999;}.cls-29{fill:#979797;}.cls-30{fill:#9f9f9f;}.cls-31{fill:#a6a6a6;}.cls-32{fill:#a0a0a0;}.cls-33{fill:#9b9b9b;}.cls-34{fill:#9d9d9d;}.cls-35{fill:#a3a3a3;}.cls-36{fill:#aaa;}.cls-37{fill:#a9a9a9;}.cls-38{fill:#989898;}.cls-39{fill:#b1b1b1;}.cls-40{fill:#9e9e9e;}.cls-41{fill:#a4a4a4;}.cls-42{fill:#aeaeae;}.cls-43{fill:#ababab;}.cls-44{fill:#b4b4b4;}.cls-45{fill:#a2a2a2;}.cls-46{fill:#bcbcbc;}.cls-47{fill:#b8b8b8;}.cls-48{fill:#b0b0b0;}.cls-49{fill:#b9b9b9;}.cls-50{fill:#bfbfbf;}.cls-51{fill:#b5b5b5;}.cls-52{fill:#bdbdbd;}.cls-53{fill:#b6b6b6;}.cls-54{fill:#c3c3c3;}.cls-55{fill:#c9c9c9;}.cls-56{fill:#bbb;}.cls-57{fill:#c1c1c1;}.cls-58{fill:#c6c6c6;}.cls-59{fill:#cdcdcd;}.cls-60{fill:#ccc;}.cls-61{fill:#c2c2c2;}.cls-62{fill:#c8c8c8;}.cls-63{fill:#c7c7c7;}.cls-64{fill:#cecece;}.cls-65{fill:#d3d3d3;}.cls-66{fill:#d5d5d5;}.cls-67{fill:#d0d0d0;}.cls-68{fill:#d9d9d9;}.cls-69{fill:#d4d4d4;}.cls-70{fill:#d8d8d8;}.cls-71{fill:#e2e2e2;}.cls-72{fill:#e4e4e4;}.cls-73{fill:#dedede;}.cls-74{fill:#c5c5c5;}.cls-75{fill:#d1d1d1;}.cls-76{fill:#cbcbcb;}.cls-77{fill:#d7d7d7;}.cls-78{fill:#ddd;}.cls-79{fill:#e3e3e3;}.cls-80{fill:#00b8e3;}.cls-81{fill:#33c6e9;}.cls-82{fill:#008aaa;}</style><clipPath id="clip-path"><path class="cls-1" d="M193.75,109.56h-4.51a0.19,0.19,0,0,1-.15-0.08l-0.35-.48-1-1.29-2.63-3.54-1.47-2a0.19,0.19,0,0,0-.29,0l-1.54,1.71-0.17.2a0.18,0.18,0,0,0,0,.12v5.16a0.19,0.19,0,0,1-.19.19h-3.89a0.19,0.19,0,0,1-.19-0.19V90.64a0.19,0.19,0,0,1,.19-0.19h3.89a0.19,0.19,0,0,1,.19.19v7.18a0.19,0.19,0,0,0,.32.13l2.15-2.33,3.19-3.47,1.5-1.63a0.19,0.19,0,0,1,.14-0.06h4.77a0.19,0.19,0,0,1,.19.19,0.21,0.21,0,0,1,0,.12l-2.15,2.39-3.58,4-1.49,1.65a0.18,0.18,0,0,0,0,.23l1.86,2.6,1.69,2.38,0.21,0.29,1.28,1.79L193,108l0.93,1.3A0.19,0.19,0,0,1,193.75,109.56Zm-17.89-.26a0.19,0.19,0,0,1-.17.26h-4.13a0.18,0.18,0,0,1-.17-0.11l-0.08-.18h0l-1.6-3.71a0.18,0.18,0,0,0-.17-0.11h-7.76a0.19,0.19,0,0,0-.17.11l-0.24.55-1.44,3.35h0a0.19,0.19,0,0,1-.17.11h-4.13a0.19,0.19,0,0,1-.17-0.26l0.29-.66,1.95-4.51h0l0.07-.16,0.08-.19,0-.09,0.65-1.5h0l5-11.59a0.19,0.19,0,0,1,.17-0.11h3.88a0.18,0.18,0,0,1,.17.11l2.6,6,1.29,3,1.44,3.33,2.73,6.31Zm-7.93-7.87-0.27-.64-0.91-2.14-0.91-2.11a0.19,0.19,0,0,0-.35,0l-1.62,3.75-0.5,1.14a0.19,0.19,0,0,0,.17.26h4.22A0.19,0.19,0,0,0,167.94,101.42Zm-12.25,2.15a8.18,8.18,0,0,1-.38.85,9.59,9.59,0,0,1-1.85,2.48h0a10.2,10.2,0,0,1-1,.9,9.7,9.7,0,0,1-5.39,1.91l-0.7,0a10,10,0,0,1-5.59-1.58,10.15,10.15,0,0,1-1.54-1.25c-0.19-.19-0.37-0.38-0.54-0.57a9.44,9.44,0,0,1-2.35-6.46,10.84,10.84,0,0,1,.12-1.66h0l-0.09-.13,0.14-.21a9.26,9.26,0,0,1,2.72-5,10.17,10.17,0,0,1,1.44-1.18A9.39,9.39,0,0,1,144,90.24h0a11,11,0,0,1,2.27-.23,9.81,9.81,0,0,1,7.13,2.83,9.35,9.35,0,0,1,2.85,6h0c0,0.34,0,.7,0,1.05A10,10,0,0,1,155.69,103.58ZM152,99.9a6.26,6.26,0,0,0-1.47-4.16l-0.17-.2a5.24,5.24,0,0,0-4-1.8,5.77,5.77,0,0,0-1.23.13,5.26,5.26,0,0,0-2.8,1.67,6.21,6.21,0,0,0-1.64,4.21c0,0.05,0,.1,0,0.15a6.2,6.2,0,0,0,1.64,4.35,5.44,5.44,0,0,0,.5.48,5.24,5.24,0,0,0,1.08.74,5.59,5.59,0,0,0,5,0,5.43,5.43,0,0,0,1.33-1l0.17-.17a6.2,6.2,0,0,0,.92-1.31A6.39,6.39,0,0,0,152,99.9Zm-15.94,5.86h-7.77a0.19,0.19,0,0,1-.19-0.18V90.64a0.18,0.18,0,0,0-.11-0.17l-0.08,0H124a0.19,0.19,0,0,0-.19.19v18.73a0.19,0.19,0,0,0,.19.19h12a0.19,0.19,0,0,0,.19-0.19v-3.43A0.19,0.19,0,0,0,136.06,105.76Zm-21.14-15.7c-0.31,0-.62,0-0.94,0a9.81,9.81,0,0,0-7.12,2.84,10.25,10.25,0,0,0-1,1.09h0a9.55,9.55,0,0,0-1.95,6,10.29,10.29,0,0,0,.62,3.64,8.89,8.89,0,0,0,1,1.87h0a9.43,9.43,0,0,0,1.27,1.52,9.67,9.67,0,0,0,1.91,1.45h0l0.52,0.28,0.39,0.18h0a10.9,10.9,0,0,0,4.43.87,9.88,9.88,0,0,0,1.42-.1h0c0.3,0,.59-0.1.88-0.17a9.91,9.91,0,0,0,4.45-2.46c0.27-.25.54-0.52,0.8-0.8a0.19,0.19,0,0,0,0-.26l-2.46-2.54a0.18,0.18,0,0,0-.17-0.05,0.2,0.2,0,0,0-.11.07,6.26,6.26,0,0,1-5,2.33,5.57,5.57,0,0,1-1.93-.33,5.42,5.42,0,0,1-2-1.29,5.22,5.22,0,0,1-1.25-2,6.78,6.78,0,0,1-.37-2.29,5.53,5.53,0,0,1,1.48-4l0.23-.22a5.86,5.86,0,0,1,4.11-1.57,6.17,6.17,0,0,1,4.89,2.35,0.18,0.18,0,0,0,.28,0l2.4-2.72a0.19,0.19,0,0,0,0-.25A10,10,0,0,0,114.93,90.05ZM104.15,92l0.72-1.26a0.19,0.19,0,0,0-.16-0.28h-4.19a0.19,0.19,0,0,0-.16.09l-3.8,6.53h0l-0.2.15-0.15.12a0.2,0.2,0,0,1-.08-0.07l-0.06-.11L96,97l-3.75-6.46a0.19,0.19,0,0,0-.16-0.09H87.86a0.19,0.19,0,0,0-.16.28l1.82,3.18,3.29,5.75L94.13,102a0.19,0.19,0,0,1,0,.09v7.31a0.19,0.19,0,0,0,.19.19h3.89a0.19,0.19,0,0,0,.19-0.19v-7.31a0.19,0.19,0,0,1,0-.09l0.94-1.64,3.56-6.22,0.73-1.27,0.48-.84h0ZM86.2,105.79H76.76a0.19,0.19,0,0,1-.19-0.19V102a0.19,0.19,0,0,1,.19-0.19h8.18a0.19,0.19,0,0,0,.19-0.19V98.37a0.19,0.19,0,0,0-.19-0.19H76.76A0.19,0.19,0,0,1,76.58,98V94.44a0.19,0.19,0,0,1,.19-0.19H85.9a0.19,0.19,0,0,0,.19-0.19V90.64a0.19,0.19,0,0,0-.19-0.19H72.5a0.19,0.19,0,0,0-.19.19v18.73a0.19,0.19,0,0,0,.19.19H86.2a0.19,0.19,0,0,0,.19-0.19V106A0.19,0.19,0,0,0,86.2,105.79ZM70.12,109l-1.77-2.48L66.53,104l-0.07-.1L63,99a0.19,0.19,0,0,1,0-.23l1.7-1.89h0l1.4-1.56,1.35-1.5,2.77-3.07a0.19,0.19,0,0,0-.14-0.31H65.3a0.19,0.19,0,0,0-.14.06l-3,3.21-3.88,4.22A0.19,0.19,0,0,1,58,97.82V90.64a0.19,0.19,0,0,0-.19-0.18H53.93a0.19,0.19,0,0,0-.19.19v18.73a0.19,0.19,0,0,0,.19.19h3.89a0.19,0.19,0,0,0,.19-0.19v-5.16a0.18,0.18,0,0,1,0-.12l0.81-.91,0.9-1a0.19,0.19,0,0,1,.29,0l2.7,3.63,1.94,2.61,0.78,1a0.18,0.18,0,0,0,.15.08h4.52a0.19,0.19,0,0,0,.15-0.3Zm-18.6-18.6H11.74a0.36,0.36,0,0,0-.3.17h0l-0.2.34L8.8,95.17,6.11,99.83a0.35,0.35,0,0,0,0,.35l0.58,1,4.74,8.2a0.35,0.35,0,0,0,.31.18H51.52a0.39,0.39,0,0,0,.39-0.39V90.83A0.4,0.4,0,0,0,51.51,90.43Z"/></clipPath><linearGradient id="linear-gradient" x1="5.63" y1="100.28" x2="195.08" y2="100.28" gradientUnits="userSpaceOnUse"><stop offset="0" stop-color="#e6e6e6"/><stop offset="1" stop-color="#595959"/></linearGradient></defs><title>keycloak_deliverables</title><path class="cls-2" d="M44.89,90.43a0.35,0.35,0,0,1-.31-0.17L39.26,81A0.36,0.36,0,0,0,39,80.86H17.26A0.35,0.35,0,0,0,17,81L11.43,90.6h0L6.11,99.82a0.36,0.36,0,0,0,0,.35l5.32,9.22L17,119a0.35,0.35,0,0,0,.31.17H39a0.36,0.36,0,0,0,.31-0.17l5.32-9.22a0.35,0.35,0,0,1,.31-0.17h6.62a0.4,0.4,0,0,0,.4-0.4V90.83a0.4,0.4,0,0,0-.4-0.4H44.89Z"/><g class="cls-3"><rect class="cls-4" x="5.63" y="87.49" width="189.45" height="25.59"/></g><path class="cls-5" d="M12.64,99l-5.94,2.16-0.58-1a0.35,0.35,0,0,1,0-.35L8.8,95.16Z"/><path class="cls-6" d="M193.75,109.56H191.3l-2.24-1.4L193,108l0.93,1.3A0.19,0.19,0,0,1,193.75,109.56Z"/><path class="cls-6" d="M191.3,109.56h-2.06a0.19,0.19,0,0,1-.15-0.08l-0.35-.48,0.33-.85Z"/><path class="cls-7" d="M193.88,90.64a0.21,0.21,0,0,1,0,.12l-2.15,2.39-0.13-1.34Z"/><path class="cls-8" d="M193,108l-3.91.2,2.58-2.07Z"/><path class="cls-9" d="M193.88,90.64l-2.33,1.17,0.4-1.36h1.75A0.19,0.19,0,0,1,193.88,90.64Z"/><path class="cls-10" d="M191.64,106.08l-2.58,2.07,1.3-3.87Z"/><polygon class="cls-11" points="191.95 90.45 191.55 91.81 189.28 90.45 191.95 90.45"/><path class="cls-12" d="M181.62,90.64v1.93l-4.26.33V90.64a0.19,0.19,0,0,1,.19-0.19h3.89A0.19,0.19,0,0,1,181.62,90.64Z"/><path class="cls-12" d="M191.55,91.81l-4.26.33,1.5-1.63a0.19,0.19,0,0,1,.14-0.06h0.37Z"/><path class="cls-13" d="M190.36,104.29l-1.3,3.87-1.29-.44-2.63-3.54,3.32-2.56,1.69,2.38Z"/><polygon class="cls-9" points="181.62 92.57 181.62 94.67 177.36 93.06 177.36 92.9 181.62 92.57"/><polygon class="cls-9" points="191.68 93.15 188.11 97.13 184.09 95.61 187.29 92.14 191.55 91.81 191.68 93.15"/><path class="cls-14" d="M188.46,101.61l-3.32,2.56-1.47-2a0.19,0.19,0,0,0-.29,0l-1.54,1.71-4.49-10.18V93.06l4.26,1.61v3.14a0.19,0.19,0,0,0,.32.13l2.15-2.33,4,1.52-1.49,1.65a0.18,0.18,0,0,0,0,.23Z"/><polygon class="cls-15" points="189.06 108.15 188.73 109 187.77 107.71 189.06 108.15"/><path class="cls-16" d="M181.85,103.89l-0.17.2a0.18,0.18,0,0,0,0,.12V105l-4.26-3.62V93.71Z"/><path class="cls-10" d="M175.86,109.29a0.19,0.19,0,0,1-.17.26h-0.62l0.76-.35Z"/><path class="cls-10" d="M181.62,106.53v2.84a0.19,0.19,0,0,1-.19.19h-3.89a0.19,0.19,0,0,1-.19-0.19V108.5Z"/><path class="cls-9" d="M175.82,109.21l-0.76.35h-3.51a0.18,0.18,0,0,1-.17-0.11l-0.08-.18h0l1.79-6.36Z"/><polygon class="cls-9" points="181.62 105.03 181.62 106.53 177.36 108.5 177.36 101.41 181.62 105.03"/><path class="cls-17" d="M173.1,102.9l-1.79,6.36-1.6-3.71a0.18,0.18,0,0,0-.17-0.11h-7.76a0.19,0.19,0,0,0-.17.11l-0.24.55L157.76,104l0.08-.19,6.87-2.09h3.06a0.19,0.19,0,0,0,.17-0.26l-0.27-.64,4-1.22Z"/><path class="cls-18" d="M164.71,101.68l-6.87,2.09,0-.09,6-3.4-0.5,1.14a0.19,0.19,0,0,0,.17.26h1.16Z"/><polygon class="cls-18" points="171.66 99.57 167.66 100.78 166.75 98.65 170.37 96.59 171.66 99.57"/><polygon class="cls-12" points="161.36 106.09 159.93 109.44 159.92 109.45 157.69 104.12 157.69 104.12 157.75 103.96 161.36 106.09"/><path class="cls-19" d="M170.37,96.59l-3.62,2.06-0.91-2.11a0.19,0.19,0,0,0-.35,0l-1.62,3.75-6,3.4,0.65-1.5h0l6.63-11.7h2.43a0.18,0.18,0,0,1,.17.11Z"/><path class="cls-20" d="M155.55,95.84a9.45,9.45,0,0,1,.75,3Z"/><path class="cls-20" d="M165.17,90.45l-6.63,11.7,5-11.59a0.19,0.19,0,0,1,.17-0.11h1.45Z"/><path class="cls-21" d="M156.35,99.88a10,10,0,0,1-.66,3.69l-4.4-.64a6.39,6.39,0,0,0,.71-3,6.26,6.26,0,0,0-1.47-4.16l1.72-3.9a9.92,9.92,0,0,1,1.2,1,9.41,9.41,0,0,1,2.1,3l0.75,3h0C156.34,99.17,156.35,99.52,156.35,99.88Z"/><path class="cls-22" d="M151.47,105.4l3.84-1a9.59,9.59,0,0,1-1.85,2.48Z"/><path class="cls-22" d="M159.92,109.45a0.19,0.19,0,0,1-.17.11H157l-1.23-.93,1.95-4.51Z"/><path class="cls-18" d="M151.47,105.4l2,1.51h0a10.2,10.2,0,0,1-1,.9Z"/><path class="cls-18" d="M157,109.56h-1.34a0.19,0.19,0,0,1-.17-0.26l0.29-.66Z"/><path class="cls-20" d="M155.69,103.58a8.18,8.18,0,0,1-.38.85l-3.84,1-1.27-1,0.17-.17a6.2,6.2,0,0,0,.92-1.31Z"/><path class="cls-22" d="M152.41,107.81a9.7,9.7,0,0,1-5.39,1.91l4.45-4.33Z"/><path class="cls-23" d="M152.25,91.83l-1.72,3.9-0.17-.2a5.24,5.24,0,0,0-4-1.8,5.77,5.77,0,0,0-1.23.13L144,90.24a11,11,0,0,1,2.27-.23A9.9,9.9,0,0,1,152.25,91.83Z"/><path class="cls-24" d="M151.47,105.4L147,109.73l-0.7,0a10,10,0,0,1-5.59-1.58l0.5-2.68,2.65,0a5.59,5.59,0,0,0,5,0Z"/><path class="cls-25" d="M145.1,93.86a5.26,5.26,0,0,0-2.8,1.67,6.21,6.21,0,0,0-1.64,4.21l-4.24-1.62-0.1,0,0.14-.21,4.16-6.21A9.39,9.39,0,0,1,144,90.24h0Z"/><path class="cls-26" d="M142.8,104.72a5.24,5.24,0,0,0,1.08.74l-2.65,0Z"/><path class="cls-26" d="M151.47,105.4l-2.6,0a5.43,5.43,0,0,0,1.33-1Z"/><path class="cls-27" d="M142.8,104.72l-1.57.76-4.82-7.26h0l-0.09-.13,0.1,0,4.24,1.62c0,0.05,0,.1,0,0.15a6.2,6.2,0,0,0,1.64,4.35A5.44,5.44,0,0,0,142.8,104.72Z"/><path class="cls-28" d="M140.63,91.67l-4.16,6.21a9.26,9.26,0,0,1,2.72-5A10.17,10.17,0,0,1,140.63,91.67Z"/><path class="cls-26" d="M129,109.56l7.29-2.42v2.23a0.19,0.19,0,0,1-.19.19H129Z"/><path class="cls-26" d="M141.23,105.49l-0.5,2.68a10.15,10.15,0,0,1-1.54-1.25c-0.19-.19-0.37-0.38-0.54-0.57Z"/><path class="cls-23" d="M136.25,105.94v1.19L129,109.56h-4l3.75-3.8h7.3A0.19,0.19,0,0,1,136.25,105.94Z"/><path class="cls-23" d="M141.23,105.49l-2.59.86a9.44,9.44,0,0,1-2.35-6.46,10.84,10.84,0,0,1,.12-1.66Z"/><path class="cls-29" d="M128.76,105.76l-3.75,3.8h-1a0.19,0.19,0,0,1-.19-0.19v0l4.26-12v8.26a0.19,0.19,0,0,0,.19.18h0.47Z"/><path class="cls-30" d="M128.11,90.64V91.7L128,90.47A0.18,0.18,0,0,1,128.11,90.64Z"/><path class="cls-31" d="M121.75,93.47a0.19,0.19,0,0,1,0,.25l-2.4,2.72a0.18,0.18,0,0,1-.28,0,6.37,6.37,0,0,0-3.21-2.13l-0.93-4.25A10,10,0,0,1,121.75,93.47Z"/><path class="cls-31" d="M125.77,90.45l-1.92,2V90.64a0.19,0.19,0,0,1,.19-0.19h1.73Z"/><path class="cls-32" d="M128.11,91.7v4.6l-4.26,1.18V92.4l1.92-2h2.15l0.08,0Z"/><path class="cls-33" d="M121.63,106a0.19,0.19,0,0,1,0,.26c-0.26.29-.53,0.56-0.8,0.8L119,103.39a0.18,0.18,0,0,1,.17.05Z"/><polygon class="cls-33" points="128.11 96.31 128.11 97.31 123.84 109.35 123.84 97.48 128.11 96.31"/><path class="cls-28" d="M120.84,107a9.91,9.91,0,0,1-4.45,2.46l0.25-4.29a6.52,6.52,0,0,0,2.25-1.75,0.2,0.2,0,0,1,.11-0.07Z"/><path class="cls-34" d="M116.64,105.21l-0.25,4.29c-0.29.07-.58,0.13-0.88,0.17h0l-5.85-.77h0l-0.39-.18,2.7-3.27a5.57,5.57,0,0,0,1.93.33A6.51,6.51,0,0,0,116.64,105.21Z"/><path class="cls-35" d="M111.95,105.46l-2.7,3.27-0.52-.28h0l-3.17-3h0a8.89,8.89,0,0,1-1-1.87l4.14-1.41a5.22,5.22,0,0,0,1.25,2A5.42,5.42,0,0,0,111.95,105.46Z"/><polygon class="cls-36" points="102.78 92.41 104.15 92 103.66 92.84 102.78 92.41"/><path class="cls-36" d="M115.86,94.3a6.31,6.31,0,0,0-1.68-.22,5.86,5.86,0,0,0-4.11,1.57l-0.23.22-3.94-1.93h0a10.25,10.25,0,0,1,1-1.09A9.81,9.81,0,0,1,114,90c0.32,0,.63,0,0.94,0Z"/><polygon class="cls-37" points="102.78 92.41 103.66 92.84 102.94 94.11 102.78 92.41"/><path class="cls-37" d="M108.36,99.89a6.78,6.78,0,0,0,.37,2.29l-4.14,1.41a10.29,10.29,0,0,1-.62-3.64,9.55,9.55,0,0,1,1.95-6l3.94,1.93A5.53,5.53,0,0,0,108.36,99.89Z"/><polygon class="cls-38" points="109.64 108.9 109.65 108.9 109.65 108.91 109.64 108.9"/><path class="cls-38" d="M115.5,109.67a9.88,9.88,0,0,1-1.42.1,10.9,10.9,0,0,1-4.43-.87Z"/><path class="cls-39" d="M104.87,90.73L104.15,92l-1.36.42-0.69-2h2.61A0.19,0.19,0,0,1,104.87,90.73Z"/><polygon class="cls-40" points="98.42 107.26 98.42 107.76 97.45 107.12 98.42 107.26"/><path class="cls-34" d="M98.42,107.76v1.61a0.19,0.19,0,0,1-.19.19H97.32l0.13-2.44Z"/><polygon class="cls-41" points="97.45 107.12 98.42 106.63 98.42 107.26 97.45 107.12"/><path class="cls-41" d="M108.72,108.44a9.67,9.67,0,0,1-1.91-1.45,9.43,9.43,0,0,1-1.27-1.52Z"/><polygon class="cls-42" points="102.94 94.11 99.38 100.33 95.9 97.57 96.2 97.35 96.35 97.23 96.56 97.08 96.56 97.08 96.56 97.08 102.78 92.41 102.94 94.11"/><path class="cls-43" d="M99.38,100.33L98.44,102a0.19,0.19,0,0,0,0,.09v4.56l-1,.5L95.9,97.57Z"/><path class="cls-44" d="M96.12,97.28a0.2,0.2,0,0,0,.08.07l-0.3.22,0.16-.4Z"/><path class="cls-44" d="M102.78,92.41l-6.22,4.67,3.8-6.53a0.19,0.19,0,0,1,.16-0.09h1.58Z"/><polygon class="cls-45" points="97.45 107.12 97.32 109.56 94.37 109.56 97.45 107.12"/><path class="cls-46" d="M86.09,90.64v1.3l-2.6-1.49H85.9A0.19,0.19,0,0,1,86.09,90.64Z"/><path class="cls-46" d="M96,97l-0.06.57-6.39-3.67L87.7,90.73a0.19,0.19,0,0,1,.16-0.28H92a0.19,0.19,0,0,1,.16.09Z"/><polygon class="cls-47" points="96.06 97.17 95.9 97.57 95.96 97.01 96.06 97.17"/><path class="cls-37" d="M97.45,107.12l-3.08,2.44h0a0.19,0.19,0,0,1-.19-0.19v-1.45Z"/><path class="cls-48" d="M94.15,105.39v-3.33a0.19,0.19,0,0,0,0-.09L92.8,99.65l3.1-2.08,1.55,9.55Z"/><path class="cls-42" d="M85.33,109.56l1.06-2.3v2.11a0.19,0.19,0,0,1-.19.19H85.33Z"/><polygon class="cls-42" points="97.45 107.12 94.15 107.92 94.15 105.39 97.45 107.12"/><path class="cls-49" d="M86.09,91.94v2.12a0.19,0.19,0,0,1-.19.19H84.1L82,90.45H83.5Z"/><polygon class="cls-49" points="95.9 97.57 92.8 99.65 89.52 93.91 95.9 97.57"/><polygon class="cls-50" points="84.1 94.25 82.21 94.25 79.39 90.61 79.61 90.45 82.03 90.45 84.1 94.25"/><path class="cls-51" d="M86.39,106v1.29l-1.06,2.3H83.87L72.76,104.2l3.81-.41v1.81a0.19,0.19,0,0,0,.19.19H86.2A0.19,0.19,0,0,1,86.39,106Z"/><polygon class="cls-52" points="82.21 94.25 77.61 94.25 79.39 90.61 82.21 94.25"/><path class="cls-52" d="M85.13,98.37v3.26a0.19,0.19,0,0,1-.19.19H76.76a0.19,0.19,0,0,0-.19.19v1.78l-3.81.41,3.81-7.83V98a0.19,0.19,0,0,0,.19.19h8.18A0.19,0.19,0,0,1,85.13,98.37Z"/><polygon class="cls-53" points="83.87 109.56 74.45 109.56 72.76 104.2 83.87 109.56"/><path class="cls-54" d="M79.39,90.61l-1.78,3.64H76.76a0.19,0.19,0,0,0-.19.19v1.93l-3.81,7.83-0.45-.73V93.91Z"/><path class="cls-55" d="M70.21,90.76l-2.77,3.07-0.51-3.39h3.14A0.19,0.19,0,0,1,70.21,90.76Z"/><path class="cls-55" d="M79.39,90.61l-7.07,3.3V90.64a0.19,0.19,0,0,1,.19-0.19h5.88Z"/><path class="cls-56" d="M68.34,106.54L70.12,109,65.8,107.9Z"/><path class="cls-56" d="M74.45,109.56H72.5a0.19,0.19,0,0,1-.19-0.19v-4.94l0.45-.24Z"/><path class="cls-53" d="M70.13,109.56H66.29l-0.5-1.66L70.12,109l0.17,0.23A0.19,0.19,0,0,1,70.13,109.56Z"/><path class="cls-57" d="M66.53,104l1.81,2.55L65.8,107.9l0.67-4Z"/><polygon class="cls-57" points="72.76 104.2 72.31 104.43 72.31 103.46 72.76 104.2"/><path class="cls-58" d="M66.46,103.9l-0.67,4-3-2.07L60,102.2a0.19,0.19,0,0,0-.29,0l-0.9,1L54,99.89l10.69-3L63,98.78A0.19,0.19,0,0,0,63,99Z"/><path class="cls-47" d="M66.29,109.56H65.61a0.18,0.18,0,0,1-.15-0.08l-0.78-1,1.11-.54Z"/><polygon class="cls-59" points="55.91 91.12 58 90.64 58 91.99 55.91 91.12"/><path class="cls-59" d="M67.44,93.84l-1.35,1.5L62.2,93.72l3-3.21a0.19,0.19,0,0,1,.14-0.06h1.63Z"/><path class="cls-60" d="M66.1,95.33l-1.4,1.56h0L54,99.89l1.89-8.77L58,92v5.83a0.19,0.19,0,0,0,.32.13l3.88-4.22Z"/><path class="cls-61" d="M54,99.89l4.85,3.29-0.81.91a0.18,0.18,0,0,0,0,.12v5.16a0.19,0.19,0,0,1-.19.19H57.76Z"/><polygon class="cls-61" points="65.8 107.9 64.68 108.43 62.75 105.83 65.8 107.9"/><polygon class="cls-62" points="47.99 100.76 51.91 100.2 51.91 104.74 47.99 100.76"/><polygon class="cls-62" points="57.76 109.56 56.65 109.56 53.74 106.6 53.74 99.93 54.01 99.89 57.76 109.56"/><path class="cls-61" d="M48,100.76l3.92,4v4.44a0.39,0.39,0,0,1-.39.39H47Z"/><path class="cls-61" d="M56.65,109.56H53.93a0.19,0.19,0,0,1-.19-0.19V106.6Z"/><polygon class="cls-63" points="47.99 100.76 46.96 109.57 41.48 109.57 39.82 105.57 47.99 100.76"/><polygon class="cls-64" points="47.99 100.76 51.91 95.99 51.91 100.2 47.99 100.76"/><polygon class="cls-64" points="55.91 91.12 54.01 99.89 53.74 99.93 53.74 93.76 55.91 91.12"/><path class="cls-65" d="M51.91,90.83V96L48,100.76,45,90.43h6.47A0.4,0.4,0,0,1,51.91,90.83Z"/><polygon class="cls-65" points="55.91 91.12 53.74 93.76 53.74 90.66 55.91 91.12"/><polygon class="cls-58" points="41.48 109.57 38.59 109.57 37.84 108.5 39.82 105.57 41.48 109.57"/><polygon class="cls-66" points="47.99 100.76 37.15 96.17 42.85 90.43 45.04 90.43 47.99 100.76"/><path class="cls-67" d="M37.15,96.17l2.67,9.4L48,100.76Z"/><polygon class="cls-50" points="38.59 109.57 37.8 109.57 37.84 108.5 38.59 109.57"/><polygon class="cls-68" points="42.85 90.43 37.15 96.17 36.12 91.03 38.32 90.43 42.85 90.43"/><path class="cls-69" d="M37.15,96.17L24,99.21l13.85,9.29Z"/><path class="cls-67" d="M37.15,96.17l0.69,12.32,2-2.93Z"/><path class="cls-68" d="M36.12,91L24,99.21l13.16-3Z"/><polygon class="cls-70" points="23.99 99.21 18.29 109.57 15.04 109.57 12.64 99.03 23.99 99.21"/><path class="cls-71" d="M18.15,90.43L12.64,99l-1.4-8.09,0.2-.34h0a0.36,0.36,0,0,1,.3-0.17h6.41Z"/><path class="cls-70" d="M15,109.57h-3.3a0.35,0.35,0,0,1-.31-0.18l-4.74-8.2L12.64,99Z"/><polygon class="cls-72" points="12.64 99.03 8.8 95.17 11.23 90.95 12.64 99.03"/><polygon class="cls-73" points="30 90.43 26.21 90.43 20.4 90.43 23.99 99.21 36.12 91.03 32.47 90.43 30 90.43"/><polygon class="cls-73" points="18.89 90.43 18.15 90.43 12.64 99.03 23.99 99.21 20.4 90.43 18.89 90.43"/><polygon class="cls-74" points="35.2 109.57 37.32 109.57 37.8 109.57 37.84 108.5 35.2 109.57"/><polygon class="cls-67" points="37.84 108.5 23.99 99.21 26.49 109.57 30 109.57 35.2 109.57 37.84 108.5"/><polygon class="cls-75" points="18.29 109.57 18.89 109.57 26.21 109.57 26.49 109.57 23.99 99.21 18.29 109.57"/><polygon class="cls-62" points="79.61 90.45 79.39 90.61 79.28 90.45 79.61 90.45"/><polygon class="cls-76" points="79.39 90.61 78.39 90.45 79.28 90.45 79.39 90.61"/><path class="cls-75" d="M58,90.64l-2.1.49,0.57-.67h1.33A0.19,0.19,0,0,1,58,90.64Z"/><polygon class="cls-77" points="56.48 90.45 55.91 91.12 55.79 90.45 56.48 90.45"/><path class="cls-68" d="M55.9,91.12l-2.17-.46v0a0.19,0.19,0,0,1,.19-0.19h1.86Z"/><polygon class="cls-78" points="36.16 90.43 36.12 91.03 38.32 90.43 37.32 90.43 36.16 90.43"/><polygon class="cls-79" points="32.47 90.43 36.12 91.03 35.78 90.43 32.47 90.43"/><polygon class="cls-71" points="35.78 90.43 36.12 91.03 36.16 90.43 35.78 90.43"/><path class="cls-80" d="M26.17,90.59l-5.35,9.26a0.31,0.31,0,0,0,0,.15H17.05l7.34-12.72a0.29,0.29,0,0,1,.11.11h0l1.66,2.89A0.32,0.32,0,0,1,26.17,90.59Z"/><path class="cls-81" d="M26.17,109.75l-1.66,2.88a0.32,0.32,0,0,1-.11.11L17,100h3.73a0.28,0.28,0,0,0,0,.14v0l5.34,9.26A0.31,0.31,0,0,1,26.17,109.75Z"/><path class="cls-82" d="M24.39,87.29L17.05,100h0l-1.84,3.19-1.76-3a0.28,0.28,0,0,1,0-.14,0.31,0.31,0,0,1,0-.15l1.78-3.08,5.41-9.36a0.31,0.31,0,0,1,.27-0.16h3.32A0.33,0.33,0,0,1,24.39,87.29Z"/><path class="cls-80" d="M24.39,112.73a0.33,0.33,0,0,1-.16,0H20.92a0.31,0.31,0,0,1-.27-0.16l-4.94-8.56-0.49-.85L17,100Z"/><path class="cls-82" d="M39.15,100l-7.35,12.72a0.34,0.34,0,0,1-.11-0.11h0L30,109.73a0.32,0.32,0,0,1,0-.3l5.34-9.26a0.31,0.31,0,0,0,0-.16h3.73Z"/><path class="cls-80" d="M42.79,100a0.31,0.31,0,0,1,0,.16l-7.19,12.45a0.31,0.31,0,0,1-.27.15H32a0.34,0.34,0,0,1-.16,0L39.15,100,41,96.82l1.75,3A0.31,0.31,0,0,1,42.79,100Z"/><path class="cls-80" d="M39.15,100H35.42a0.31,0.31,0,0,0,0-.16L30,90.6a0.31,0.31,0,0,1,0-.32L31.7,87.4a0.34,0.34,0,0,1,.11-0.11Z"/><path class="cls-81" d="M41,96.82h0L39.15,100,31.81,87.29a0.34,0.34,0,0,1,.16,0h3.32a0.31,0.31,0,0,1,.27.15Z"/></svg>