<svg id="Guides" xmlns="http://www.w3.org/2000/svg" xmlns:xlink="http://www.w3.org/1999/xlink" viewBox="0 0 48 48"><defs><style>.cls-1{fill:none;}.cls-2{clip-path:url(#clip-path);}.cls-3{fill:#4d4d4d;}.cls-4{fill:#e1e1e1;}.cls-5{fill:#c8c8c8;}.cls-6{fill:#c2c2c2;}.cls-7{fill:#c7c7c7;}.cls-8{fill:#cecece;}.cls-9{fill:#d3d3d3;}.cls-10{fill:#c6c6c6;}.cls-11{fill:#d5d5d5;}.cls-12{fill:#d0d0d0;}.cls-13{fill:#bfbfbf;}.cls-14{fill:#d9d9d9;}.cls-15{fill:#d4d4d4;}.cls-16{fill:#d8d8d8;}.cls-17{fill:#e2e2e2;}.cls-18{fill:#e4e4e4;}.cls-19{fill:#dedede;}.cls-20{fill:#c5c5c5;}.cls-21{fill:#d1d1d1;}.cls-22{fill:#ddd;}.cls-23{fill:#e3e3e3;}.cls-24{fill:#00b8e3;}.cls-25{fill:#33c6e9;}.cls-26{fill:#008aaa;}</style><clipPath id="clip-path"><rect class="cls-1" width="48" height="48"/></clipPath></defs><title>keycloak_deliverables</title><g class="cls-2"><path class="cls-3" d="M41.11,14.25a0.36,0.36,0,0,1-.31-0.18L35.38,4.68a0.37,0.37,0,0,0-.32-0.18H13a0.36,0.36,0,0,0-.31.18L7,14.43H7L1.61,23.82a0.36,0.36,0,0,0,0,.36L7,33.57l5.63,9.75a0.36,0.36,0,0,0,.31.18h22.1a0.37,0.37,0,0,0,.32-0.18l5.42-9.39a0.36,0.36,0,0,1,.31-0.18h6.74a0.41,0.41,0,0,0,.41-0.41V14.66a0.41,0.41,0,0,0-.41-0.41H41.11Z"/><path class="cls-1" d="M47.86,14.25H7.34a0.37,0.37,0,0,0-.31.17H7l-0.2.35-2.48,4.3L1.61,23.82a0.36,0.36,0,0,0,0,.36l0.6,1L7,33.57a0.36,0.36,0,0,0,.31.18H47.86a0.4,0.4,0,0,0,.4-0.4V14.66A0.4,0.4,0,0,0,47.86,14.25Z"/><path class="cls-4" d="M8.26,23l-6.05,2.2-0.6-1a0.36,0.36,0,0,1,0-.36l2.74-4.75Z"/><polygon class="cls-5" points="44.27 24.77 48.26 24.2 48.26 28.83 44.27 24.77"/><path class="cls-6" d="M44.27,24.77l4,4.06v4.52a0.4,0.4,0,0,1-.4.4H43.22Z"/><polygon class="cls-7" points="44.27 24.77 43.22 33.75 37.64 33.75 35.95 29.68 44.27 24.77"/><polygon class="cls-8" points="44.27 24.77 48.26 19.91 48.26 24.2 44.27 24.77"/><path class="cls-9" d="M48.26,14.66v5.26l-4,4.86-3-10.52h6.59A0.4,0.4,0,0,1,48.26,14.66Z"/><polygon class="cls-10" points="37.64 33.75 34.69 33.75 33.93 32.65 35.95 29.68 37.64 33.75"/><polygon class="cls-11" points="44.27 24.77 33.23 20.1 39.03 14.25 41.26 14.25 44.27 24.77"/><path class="cls-12" d="M33.23,20.1l2.72,9.57,8.32-4.9Z"/><polygon class="cls-13" points="34.69 33.75 33.89 33.75 33.93 32.65 34.69 33.75"/><polygon class="cls-14" points="39.03 14.25 33.23 20.1 32.18 14.87 34.42 14.25 39.03 14.25"/><path class="cls-15" d="M33.23,20.1l-13.4,3.09,14.1,9.46Z"/><path class="cls-12" d="M33.23,20.1l0.7,12.55,2-3Z"/><path class="cls-14" d="M32.18,14.87L19.82,23.19l13.4-3.09Z"/><polygon class="cls-16" points="19.82 23.19 14.02 33.75 10.71 33.75 8.26 23.02 19.82 23.19"/><path class="cls-17" d="M13.87,14.25L8.26,23,6.83,14.78,7,14.43H7a0.37,0.37,0,0,1,.31-0.17h6.53Z"/><path class="cls-16" d="M10.71,33.75H7.34A0.36,0.36,0,0,1,7,33.57L2.21,25.21,8.26,23Z"/><polygon class="cls-18" points="8.26 23.02 4.35 19.07 6.83 14.78 8.26 23.02"/><polygon class="cls-19" points="25.95 14.25 22.08 14.25 16.16 14.25 19.82 23.19 32.18 14.87 28.45 14.25 25.95 14.25"/><polygon class="cls-19" points="14.63 14.25 13.87 14.25 8.26 23.02 19.82 23.19 16.16 14.25 14.63 14.25"/><polygon class="cls-20" points="31.24 33.75 33.4 33.75 33.89 33.75 33.93 32.65 31.24 33.75"/><polygon class="cls-12" points="33.93 32.65 19.82 23.19 22.37 33.75 25.95 33.75 31.24 33.75 33.93 32.65"/><polygon class="cls-21" points="14.02 33.75 14.63 33.75 22.08 33.75 22.37 33.75 19.82 23.19 14.02 33.75"/><polygon class="cls-22" points="32.22 14.25 32.18 14.87 34.42 14.25 33.4 14.25 32.22 14.25"/><polygon class="cls-23" points="28.45 14.25 32.18 14.87 31.84 14.25 28.45 14.25"/><polygon class="cls-17" points="31.84 14.25 32.18 14.87 32.22 14.25 31.84 14.25"/><path class="cls-24" d="M22,14.42L16.6,23.86a0.32,0.32,0,0,0,0,.15h-3.8l7.48-13a0.29,0.29,0,0,1,.11.11h0L22,14.12A0.33,0.33,0,0,1,22,14.42Z"/><path class="cls-25" d="M22,33.93l-1.69,2.93a0.33,0.33,0,0,1-.11.11L12.75,24h3.8a0.29,0.29,0,0,0,0,.15v0L22,33.6A0.32,0.32,0,0,1,22,33.93Z"/><path class="cls-26" d="M20.23,11.06L12.76,24h0l-1.88,3.25-1.79-3.1a0.29,0.29,0,0,1,0-.15,0.32,0.32,0,0,1,0-.15l1.81-3.14,5.51-9.54A0.32,0.32,0,0,1,16.69,11h3.38A0.34,0.34,0,0,1,20.23,11.06Z"/><path class="cls-24" d="M20.23,37a0.34,0.34,0,0,1-.16,0H16.69a0.32,0.32,0,0,1-.28-0.16l-5-8.72-0.5-.87L12.75,24Z"/><path class="cls-26" d="M35.27,24L27.79,37a0.35,0.35,0,0,1-.11-0.11h0L26,33.91a0.33,0.33,0,0,1,0-.3l5.44-9.44a0.32,0.32,0,0,0,0-.16h3.8Z"/><path class="cls-24" d="M39,24a0.32,0.32,0,0,1,0,.16L31.6,36.86a0.32,0.32,0,0,1-.27.15H28a0.35,0.35,0,0,1-.16,0l7.48-13,1.88-3.25,1.78,3.09A0.31,0.31,0,0,1,39,24Z"/><path class="cls-24" d="M35.27,24h-3.8a0.31,0.31,0,0,0,0-.16L26,14.42a0.32,0.32,0,0,1,0-.32l1.7-2.93a0.35,0.35,0,0,1,.11-0.11Z"/><path class="cls-25" d="M37.14,20.76h0L35.27,24l-7.48-13A0.35,0.35,0,0,1,28,11h3.38a0.32,0.32,0,0,1,.27.15Z"/></g></svg>