<?xml version="1.0" encoding="UTF-8" standalone="no"?>
<!-- Generator: Adobe Illustrator 16.0.0, SVG Export Plug-In . SVG Version: 6.00 Build 0)  -->

<svg
   xmlns:dc="http://purl.org/dc/elements/1.1/"
   xmlns:cc="http://creativecommons.org/ns#"
   xmlns:rdf="http://www.w3.org/1999/02/22-rdf-syntax-ns#"
   xmlns:svg="http://www.w3.org/2000/svg"
   xmlns="http://www.w3.org/2000/svg"
   xmlns:xlink="http://www.w3.org/1999/xlink"
   xmlns:sodipodi="http://sodipodi.sourceforge.net/DTD/sodipodi-0.dtd"
   xmlns:inkscape="http://www.inkscape.org/namespaces/inkscape"
   version="1.1"
   id="Layer_1"
   x="0px"
   y="0px"
   width="1440px"
   height="960px"
   viewBox="0 0 1440 960"
   enable-background="new 0 0 1440 960"
   xml:space="preserve"
   inkscape:version="0.48.5 r10040"
   sodipodi:docname="login-bg.svg"><metadata
     id="metadata3911"><rdf:RDF><cc:Work
         rdf:about=""><dc:format>image/svg+xml</dc:format><dc:type
           rdf:resource="http://purl.org/dc/dcmitype/StillImage" /></cc:Work></rdf:RDF></metadata><sodipodi:namedview
     pagecolor="#ffffff"
     bordercolor="#666666"
     borderopacity="1"
     objecttolerance="10"
     gridtolerance="10"
     guidetolerance="10"
     inkscape:pageopacity="0"
     inkscape:pageshadow="2"
     inkscape:window-width="2048"
     inkscape:window-height="1128"
     id="namedview3909"
     showgrid="false"
     inkscape:zoom="0.72257474"
     inkscape:cx="794.86512"
     inkscape:cy="532.00436"
     inkscape:window-x="0"
     inkscape:window-y="24"
     inkscape:window-maximized="1"
     inkscape:current-layer="Layer_1" /><rect
     fill="#034672"
     width="1440"
     height="961.062"
     id="rect3625" /><linearGradient
     id="SVGID_1_"
     gradientUnits="userSpaceOnUse"
     x1="633.4873"
     y1="155.333"
     x2="696.1514"
     y2="155.333"
     gradientTransform="matrix(1 0 0 1 -106 -219.5)"><stop
       offset="0"
       style="stop-color:#FEFEFE"
       id="stop3628" /><stop
       offset="0.1452"
       style="stop-color:#F4F5F4"
       id="stop3630" /><stop
       offset="0.6844"
       style="stop-color:#DADCDB"
       id="stop3632" /><stop
       offset="1"
       style="stop-color:#CFD1D1"
       id="stop3634" /></linearGradient><linearGradient
     id="SVGID_2_"
     gradientUnits="userSpaceOnUse"
     x1="859.5273"
     y1="475.5811"
     x2="851.2537"
     y2="475.5811"
     gradientTransform="matrix(1 0 0 -1 -300 412)"><stop
       offset="0"
       style="stop-color:#E6E6E6"
       id="stop3639" /><stop
       offset="1"
       style="stop-color:#B3B4B4"
       id="stop3641" /></linearGradient><linearGradient
     id="SVGID_3_"
     gradientUnits="userSpaceOnUse"
     x1="466.3438"
     y1="-243.916"
     x2="473.3443"
     y2="-224.4146"
     gradientTransform="matrix(1 0 0 -1 88 -301.5)"><stop
       offset="0"
       style="stop-color:#F6F6F6"
       id="stop3646" /><stop
       offset="1"
       style="stop-color:#B3B4B4"
       id="stop3648" /></linearGradient><linearGradient
     id="SVGID_4_"
     gradientUnits="userSpaceOnUse"
     x1="643.3027"
     y1="149.5488"
     x2="674.1378"
     y2="141.8818"
     gradientTransform="matrix(1 0 0 1 -106 -219.5)"><stop
       offset="0"
       style="stop-color:#B8D7E8"
       id="stop3665" /><stop
       offset="0.3324"
       style="stop-color:#CCE3F1"
       id="stop3667" /><stop
       offset="0.6937"
       style="stop-color:#DAEBF8"
       id="stop3669" /><stop
       offset="1"
       style="stop-color:#E0EEF9"
       id="stop3671" /></linearGradient><linearGradient
     id="SVGID_5_"
     gradientUnits="userSpaceOnUse"
     x1="646.2637"
     y1="125.3784"
     x2="654.8886"
     y2="167.6281"
     gradientTransform="matrix(1 0 0 1 -106 -219.5)"><stop
       offset="0"
       style="stop-color:#F1F9FE"
       id="stop3676" /><stop
       offset="0.4254"
       style="stop-color:#E9F5FD"
       id="stop3678" /><stop
       offset="1"
       style="stop-color:#E4F3FC"
       id="stop3680" /></linearGradient><linearGradient
     id="SVGID_6_"
     gradientUnits="userSpaceOnUse"
     x1="750.8477"
     y1="124.7031"
     x2="750.8477"
     y2="180.0502"
     gradientTransform="matrix(1 0 0 1 -106 -219.5)"><stop
       offset="0"
       style="stop-color:#055F94"
       id="stop3691" /><stop
       offset="0.5912"
       style="stop-color:#004A77"
       id="stop3693" /><stop
       offset="1"
       style="stop-color:#054167"
       id="stop3695" /></linearGradient><linearGradient
     id="SVGID_7_"
     gradientUnits="userSpaceOnUse"
     x1="784.4727"
     y1="124.7031"
     x2="784.4727"
     y2="180.0486"
     gradientTransform="matrix(1 0 0 1 -106 -219.5)"><stop
       offset="0"
       style="stop-color:#055F94"
       id="stop3700" /><stop
       offset="0.5912"
       style="stop-color:#004A77"
       id="stop3702" /><stop
       offset="1"
       style="stop-color:#054167"
       id="stop3704" /></linearGradient><linearGradient
     id="SVGID_8_"
     gradientUnits="userSpaceOnUse"
     x1="815.5596"
     y1="124.7031"
     x2="815.5596"
     y2="180.0502"
     gradientTransform="matrix(1 0 0 1 -106 -219.5)"><stop
       offset="0"
       style="stop-color:#055F94"
       id="stop3709" /><stop
       offset="0.5912"
       style="stop-color:#004A77"
       id="stop3711" /><stop
       offset="1"
       style="stop-color:#054167"
       id="stop3713" /></linearGradient><linearGradient
     id="SVGID_9_"
     gradientUnits="userSpaceOnUse"
     x1="866.3086"
     y1="124.7031"
     x2="866.3086"
     y2="180.0509"
     gradientTransform="matrix(1 0 0 1 -106 -219.5)"><stop
       offset="0"
       style="stop-color:#055F94"
       id="stop3718" /><stop
       offset="0.5912"
       style="stop-color:#004A77"
       id="stop3720" /><stop
       offset="1"
       style="stop-color:#054167"
       id="stop3722" /></linearGradient><linearGradient
     id="SVGID_10_"
     gradientUnits="userSpaceOnUse"
     x1="900.2178"
     y1="124.7031"
     x2="900.2178"
     y2="180.0502"
     gradientTransform="matrix(1 0 0 1 -106 -219.5)"><stop
       offset="0"
       style="stop-color:#055F94"
       id="stop3727" /><stop
       offset="0.5912"
       style="stop-color:#004A77"
       id="stop3729" /><stop
       offset="1"
       style="stop-color:#054167"
       id="stop3731" /></linearGradient><linearGradient
     id="SVGID_11_"
     gradientUnits="userSpaceOnUse"
     x1="721.2734"
     y1="124.7031"
     x2="721.2734"
     y2="180.0485"
     gradientTransform="matrix(1 0 0 1 -106 -219.5)"><stop
       offset="0"
       style="stop-color:#055F94"
       id="stop3736" /><stop
       offset="0.5912"
       style="stop-color:#004A77"
       id="stop3738" /><stop
       offset="1"
       style="stop-color:#054167"
       id="stop3740" /></linearGradient><linearGradient
     id="SVGID_12_"
     gradientUnits="userSpaceOnUse"
     x1="840.6543"
     y1="124.7031"
     x2="840.6543"
     y2="180.0498"
     gradientTransform="matrix(1 0 0 1 -106 -219.5)"><stop
       offset="0"
       style="stop-color:#055F94"
       id="stop3745" /><stop
       offset="0.5912"
       style="stop-color:#004A77"
       id="stop3747" /><stop
       offset="1"
       style="stop-color:#054167"
       id="stop3749" /></linearGradient><linearGradient
     id="SVGID_13_"
     gradientUnits="userSpaceOnUse"
     x1="935.4414"
     y1="124.7031"
     x2="935.4414"
     y2="180.0485"
     gradientTransform="matrix(1 0 0 1 -106 -219.5)"><stop
       offset="0"
       style="stop-color:#055F94"
       id="stop3754" /><stop
       offset="0.5912"
       style="stop-color:#004A77"
       id="stop3756" /><stop
       offset="1"
       style="stop-color:#054167"
       id="stop3758" /></linearGradient><linearGradient
     id="SVGID_14_"
     gradientUnits="userSpaceOnUse"
     x1="652.9258"
     y1="120.5371"
     x2="652.9258"
     y2="130.705"
     gradientTransform="matrix(1 0 0 1 -106 -219.5)"><stop
       offset="0"
       style="stop-color:#01649B"
       id="stop3763" /><stop
       offset="0.2355"
       style="stop-color:#03588B"
       id="stop3765" /><stop
       offset="0.507"
       style="stop-color:#004E7C"
       id="stop3767" /><stop
       offset="0.7167"
       style="stop-color:#004873"
       id="stop3769" /><stop
       offset="1"
       style="stop-color:#00446E"
       id="stop3771" /></linearGradient><linearGradient
     id="SVGID_15_"
     gradientUnits="userSpaceOnUse"
     x1="663.6963"
     y1="172.3086"
     x2="663.6963"
     y2="172.3086"
     gradientTransform="matrix(1 0 0 1 -106 -219.5)"><stop
       offset="0"
       style="stop-color:#F6F6F6"
       id="stop3786" /><stop
       offset="0.5386"
       style="stop-color:#E4E4E3"
       id="stop3788" /><stop
       offset="1"
       style="stop-color:#DADADA"
       id="stop3790" /></linearGradient><defs
     id="defs3794"><filter
       id="Adobe_OpacityMaskFilter"
       filterUnits="userSpaceOnUse"
       x="545.96"
       y="-353.609"
       width="906.85"
       height="793.638"><feColorMatrix
         type="matrix"
         values="1 0 0 0 0  0 1 0 0 0  0 0 1 0 0  0 0 0 1 0"
         id="feColorMatrix3797" /></filter><linearGradient
       id="SVGID_1_-3"
       gradientUnits="userSpaceOnUse"
       x1="-189.84911"
       y1="135.8701"
       x2="-127.186"
       y2="135.8701"
       gradientTransform="matrix(1,0,0,-1,194,182.5)"><stop
         offset="0"
         style="stop-color:#FDFDFD"
         id="stop5009" /><stop
         offset="0.1452"
         style="stop-color:#F4F5F5"
         id="stop5011" /><stop
         offset="0.6844"
         style="stop-color:#D9DBDB"
         id="stop5013" /><stop
         offset="1"
         style="stop-color:#CFD1D1"
         id="stop5015" /></linearGradient><linearGradient
       id="SVGID_2_-6"
       gradientUnits="userSpaceOnUse"
       x1="36.190399"
       y1="47.216801"
       x2="27.9168"
       y2="47.216801"><stop
         offset="0"
         style="stop-color:#E6E6E6"
         id="stop5020" /><stop
         offset="1"
         style="stop-color:#B2B3B3"
         id="stop5022" /></linearGradient><linearGradient
       id="SVGID_3_-2"
       gradientUnits="userSpaceOnUse"
       x1="-356.99219"
       y1="766.71289"
       x2="-349.99191"
       y2="747.21222"
       gradientTransform="translate(388,-713.5)"><stop
         offset="0"
         style="stop-color:#F6F6F6"
         id="stop5027" /><stop
         offset="1"
         style="stop-color:#B2B3B3"
         id="stop5029" /></linearGradient><linearGradient
       id="SVGID_4_-3"
       gradientUnits="userSpaceOnUse"
       x1="-180.0332"
       y1="141.6543"
       x2="-149.19859"
       y2="149.3212"
       gradientTransform="matrix(1,0,0,-1,194,182.5)"><stop
         offset="0"
         style="stop-color:#B8D7E9"
         id="stop5046" /><stop
         offset="0.3324"
         style="stop-color:#CCE3F1"
         id="stop5048" /><stop
         offset="0.6937"
         style="stop-color:#DAEBF7"
         id="stop5050" /><stop
         offset="1"
         style="stop-color:#DFEEF9"
         id="stop5052" /></linearGradient><linearGradient
       id="SVGID_5_-0"
       gradientUnits="userSpaceOnUse"
       x1="-177.0732"
       y1="165.8252"
       x2="-168.4482"
       y2="123.5749"
       gradientTransform="matrix(1,0,0,-1,194,182.5)"><stop
         offset="0"
         style="stop-color:#F1F9FE"
         id="stop5057" /><stop
         offset="0.4254"
         style="stop-color:#E9F5FD"
         id="stop5059" /><stop
         offset="1"
         style="stop-color:#E4F3FD"
         id="stop5061" /></linearGradient><linearGradient
       id="SVGID_14_-3"
       gradientUnits="userSpaceOnUse"
       x1="-170.4106"
       y1="170.666"
       x2="-170.4106"
       y2="160.49809"
       gradientTransform="matrix(1,0,0,-1,194,182.5)"><stop
         offset="0"
         style="stop-color:#00639A"
         id="stop5146" /><stop
         offset="0.2355"
         style="stop-color:#00578A"
         id="stop5148" /><stop
         offset="0.507"
         style="stop-color:#004D7B"
         id="stop5150" /><stop
         offset="0.7167"
         style="stop-color:#004773"
         id="stop5152" /><stop
         offset="1"
         style="stop-color:#00446E"
         id="stop5154" /></linearGradient><linearGradient
       id="SVGID_15_-4"
       gradientUnits="userSpaceOnUse"
       x1="-159.6411"
       y1="118.8945"
       x2="-159.6411"
       y2="118.8945"
       gradientTransform="matrix(1,0,0,-1,194,182.5)"><stop
         offset="0"
         style="stop-color:#F6F6F6"
         id="stop5169" /><stop
         offset="0.5386"
         style="stop-color:#E4E4E4"
         id="stop5171" /><stop
         offset="1"
         style="stop-color:#DADADA"
         id="stop5173" /></linearGradient><linearGradient
       y2="118.8945"
       x2="-159.6411"
       y1="118.8945"
       x1="-159.6411"
       gradientTransform="matrix(1,0,0,-1,194,182.5)"
       gradientUnits="userSpaceOnUse"
       id="linearGradient5331"
       xlink:href="#SVGID_15_-4"
       inkscape:collect="always" /></defs><mask
     maskUnits="userSpaceOnUse"
     x="545.96"
     y="-353.609"
     width="906.85"
     height="793.638"
     id="SVGID_16_"><g
       filter="url(#Adobe_OpacityMaskFilter)"
       id="g3800"><polygon
         fill="#FFFFFF"
         points="1452.81,-170.972 636.18,-353.609 545.96,-16.261 1452.81,440.028   "
         id="polygon3802" /></g></mask><linearGradient
     id="SVGID_17_"
     gradientUnits="userSpaceOnUse"
     x1="624.2432"
     y1="-457.793"
     x2="1695.7627"
     y2="582.4073"><stop
       offset="0"
       style="stop-color:#FFFFFF"
       id="stop3805" /><stop
       offset="1"
       style="stop-color:#000000"
       id="stop3807" /></linearGradient><polygon
     opacity="0.04"
     mask="url(#SVGID_16_)"
     fill="url(#SVGID_17_)"
     points="1452.81,-170.972 636.18,-353.609 545.96,-16.261   1452.81,440.028 "
     id="polygon3809" /><defs
     id="defs3811"><filter
       id="Adobe_OpacityMaskFilter_1_"
       filterUnits="userSpaceOnUse"
       x="-148.385"
       y="185.369"
       width="942.603"
       height="465.304"><feColorMatrix
         type="matrix"
         values="1 0 0 0 0  0 1 0 0 0  0 0 1 0 0  0 0 0 1 0"
         id="feColorMatrix3814" /></filter></defs><mask
     maskUnits="userSpaceOnUse"
     x="-148.385"
     y="185.369"
     width="942.603"
     height="465.304"
     id="SVGID_18_"><g
       filter="url(#Adobe_OpacityMaskFilter_1_)"
       id="g3817"><linearGradient
         id="SVGID_19_"
         gradientUnits="userSpaceOnUse"
         x1="-10.3784"
         y1="93.8052"
         x2="353.6215"
         y2="493.8049"><stop
           offset="0"
           style="stop-color:#FFFFFF"
           id="stop3820" /><stop
           offset="1"
           style="stop-color:#000000"
           id="stop3822" /></linearGradient><path
         fill="url(#SVGID_19_)"
         d="M-142.385,456.954c241.188-37.587,535.834,12.111,710.251,193.719L737.183,407.09    c-240.655-239.438-582.089-236.892-847.54-208.783L-142.385,456.954z"
         id="path3824" /></g></mask><path
     opacity="0.1"
     mask="url(#SVGID_18_)"
     fill="#010202"
     d="M-148.385,456.954c241.188-37.587,535.834,12.111,710.251,193.719  l232.352-172.074c-21.068-27.212-43.2-52.042-66.242-74.679C487.503,167.675,147.918,170.322-116.357,198.307L-148.385,456.954z"
     id="path3826" /><defs
     id="defs3828"><filter
       id="Adobe_OpacityMaskFilter_2_"
       filterUnits="userSpaceOnUse"
       x="-50.702"
       y="-58.489"
       width="287.402"
       height="1042.099"><feColorMatrix
         type="matrix"
         values="1 0 0 0 0  0 1 0 0 0  0 0 1 0 0  0 0 0 1 0"
         id="feColorMatrix3831" /></filter></defs><mask
     maskUnits="userSpaceOnUse"
     x="-50.702"
     y="-58.489"
     width="287.402"
     height="1042.099"
     id="SVGID_20_"><g
       filter="url(#Adobe_OpacityMaskFilter_2_)"
       id="g3834"><linearGradient
         id="SVGID_21_"
         gradientUnits="userSpaceOnUse"
         x1="150.8232"
         y1="980.0547"
         x2="44.8237"
         y2="580.0556"><stop
           offset="0"
           style="stop-color:#FFFFFF"
           id="stop3837" /><stop
           offset="1"
           style="stop-color:#000000"
           id="stop3839" /></linearGradient><path
         opacity="0.1"
         fill="url(#SVGID_21_)"
         d="M87.395-16.937c0,163.962,24.356,750.233,149.306,1000.547l-287.402-6.396V-58.489    L87.395-16.937z"
         id="path3841" /></g></mask><path
     mask="url(#SVGID_20_)"
     fill="#010202"
     d="M87.395-16.937c0,163.962,24.356,750.233,149.306,1000.547l-287.402-6.396V-58.489  L87.395-16.937z"
     id="path3843" /><defs
     id="defs3845"><filter
       id="Adobe_OpacityMaskFilter_3_"
       filterUnits="userSpaceOnUse"
       x="-72.785"
       y="-491.193"
       width="1622.238"
       height="1285.796"><feFlood
         style="flood-color:white;flood-opacity:1"
         result="back"
         id="feFlood3848" /><feBlend
         in="SourceGraphic"
         in2="back"
         mode="normal"
         id="feBlend3850" /></filter></defs><mask
     maskUnits="userSpaceOnUse"
     x="-72.785"
     y="-491.193"
     width="1622.238"
     height="1285.796"
     id="SVGID_22_"><g
       filter="url(#Adobe_OpacityMaskFilter_3_)"
       id="g3853"><defs
         id="defs3855"><filter
           id="Adobe_OpacityMaskFilter_4_"
           filterUnits="userSpaceOnUse"
           x="-72.785"
           y="-491.193"
           width="1622.238"
           height="1285.089"><feFlood
             style="flood-color:white;flood-opacity:1"
             result="back"
             id="feFlood3858" /><feBlend
             in="SourceGraphic"
             in2="back"
             mode="normal"
             id="feBlend3860" /></filter></defs><mask
         maskUnits="userSpaceOnUse"
         x="-72.785"
         y="-491.193"
         width="1622.238"
         height="1285.089"
         id="mask3862"><g
           filter="url(#Adobe_OpacityMaskFilter_4_)"
           id="g3864" /></mask><linearGradient
         id="SVGID_23_"
         gradientUnits="userSpaceOnUse"
         x1="814.3154"
         y1="328.0283"
         x2="2094.3154"
         y2="-719.9717"><stop
           offset="0"
           style="stop-color:#FFFFFF"
           id="stop3867" /><stop
           offset="1"
           style="stop-color:#000000"
           id="stop3869" /></linearGradient><path
         mask="url(#SVGID_22_)"
         fill="url(#SVGID_23_)"
         d="M-72.785,410.758c848.81,35.016,1323.22-295.517,1502.614-901.951    c-4.743,181.709,37.787,453.373,93.752,548.953c47.774,81.209,23.788,158.081-26.479,241.24    C975.882,1160.862,493.92,627.783-29.659,661.768"
         id="path3871" /></g></mask><path
     opacity="0.02"
     fill="#FFFFFF"
     d="M-72.785,410.758c848.81,35.016,1323.22-295.517,1502.614-901.951  C1425.086-309.484,1467.616-36.58,1523.581,59c47.774,81.209,23.788,158.081-26.479,241.24  C975.882,1162.103,493.92,627.783-29.659,661.768"
     id="path3873" /><defs
     id="defs3875"><filter
       id="Adobe_OpacityMaskFilter_5_"
       filterUnits="userSpaceOnUse"
       x="310.575"
       y="-10.889"
       width="1160.942"
       height="1025.949"><feColorMatrix
         type="matrix"
         values="1 0 0 0 0  0 1 0 0 0  0 0 1 0 0  0 0 0 1 0"
         id="feColorMatrix3878" /></filter></defs><mask
     maskUnits="userSpaceOnUse"
     x="310.575"
     y="-10.889"
     width="1160.942"
     height="1025.949"
     id="SVGID_24_"><g
       filter="url(#Adobe_OpacityMaskFilter_5_)"
       id="g3881"><linearGradient
         id="SVGID_25_"
         gradientUnits="userSpaceOnUse"
         x1="679.0371"
         y1="906.7842"
         x2="1525.0364"
         y2="270.7838"><stop
           offset="0"
           style="stop-color:#FFFFFF"
           id="stop3884" /><stop
           offset="1"
           style="stop-color:#000000"
           id="stop3886" /></linearGradient><path
         opacity="0.06"
         fill="url(#SVGID_25_)"
         d="M1453.518,979.062l18-989.951h-442.43L310.575,1015.06L1453.518,979.062z"
         id="path3888" /></g></mask><path
     mask="url(#SVGID_24_)"
     fill="#010202"
     d="M1453.518,979.062l18-989.951h-442.43L310.575,1015.06L1453.518,979.062z"
     id="path3890" /><defs
     id="defs3892"><filter
       id="Adobe_OpacityMaskFilter_6_"
       filterUnits="userSpaceOnUse"
       x="-90.392"
       y="-409.996"
       width="841.456"
       height="736.356"><feColorMatrix
         type="matrix"
         values="1 0 0 0 0  0 1 0 0 0  0 0 1 0 0  0 0 0 1 0"
         id="feColorMatrix3895" /></filter></defs><mask
     maskUnits="userSpaceOnUse"
     x="-90.392"
     y="-409.996"
     width="841.456"
     height="736.356"
     id="SVGID_26_"><g
       filter="url(#Adobe_OpacityMaskFilter_6_)"
       id="g3898"><linearGradient
         id="SVGID_27_"
         gradientUnits="userSpaceOnUse"
         x1="258.9375"
         y1="-348.3218"
         x2="418.9364"
         y2="467.6746"><stop
           offset="0"
           style="stop-color:#FFFFFF"
           id="stop3901" /><stop
           offset="1"
           style="stop-color:#000000"
           id="stop3903" /></linearGradient><path
         fill="url(#SVGID_27_)"
         d="M746.367-163.7c-72.229,10.651-98.964,78.571-50.732,125.772    c90.98,89.101,60.661,179.447-23.771,195.806c-108.654,20.943-167.397-74.289-289.375-28.11    c-34.924,13.221-61.272,57.631-55.681,97.377C343.71,348.214,196.545,386.71-87.566,178.743    c-28.532-20.897,168.378-588.739,168.378-588.739L746.367-163.7z"
         id="path3905" /></g></mask><path
     opacity="0.1"
     mask="url(#SVGID_26_)"
     d="M746.367-163.7c-72.229,10.651-98.964,78.571-50.732,125.772  c90.98,89.101,60.661,179.447-23.771,195.806c-108.654,20.943-167.397-74.289-289.375-28.11  c-34.924,13.221-61.272,57.631-55.681,97.377C343.71,348.214,196.545,386.71-87.566,178.743  c-28.532-20.897,168.378-588.739,168.378-588.739L746.367-163.7z"
     id="path3907" /><g
     transform="matrix(11.919865,0,0,11.919865,546.22203,27.387087)"
     id="g5246"
     style="opacity:0.1"><path
       style="fill:url(#SVGID_1_-3)"
       inkscape:connector-curvature="0"
       id="path5017"
       d="m 66.814,34.438 c -7.205,5 -14.688,3.682 -23.183,-3.358 -4.897,-4.059 -11.15,-2.771 -15.411,-1.454 -2.648,0.82 -6.324,0.744 -9.518,0.075 -13.978,-2.93 -10.929,6.038 -8.339,14.015 4.757,14.64 -3.236,18.031 -5.983,12.815 -1.766,6.615 7.138,8.572 10.937,7.701 6.006,-1.377 14.051,-2.153 19.043,-0.627 9.544,2.916 13.125,0.513 11.542,-2.57 -0.52,-1.012 -0.229,-2.446 0.583,-3.126 2.834,-2.374 5.295,-0.373 8.007,-1.947 2.108,-1.226 2.077,-3.927 -1.19,-5.463 -1.731,-0.813 -1.649,-2.881 0.184,-3.84 3.73,-1.952 8.75,-1.036 10,-5.138 0.447,-1.469 1.699,-5.159 3.328,-7.083 z" /><path
       style="fill:url(#SVGID_2_-6)"
       inkscape:connector-curvature="0"
       id="path5024"
       d="m 30.861,32.645 c 0,4.983 0.741,22.798 4.538,30.405 L 26.665,62.856 V 31.383 l 4.196,1.262 z" /><path
       style="fill:url(#SVGID_3_-2)"
       inkscape:connector-curvature="0"
       id="path5031"
       d="M 11.234,44.396 C 8.472,36.938 4.725,27.771 18.703,30.701 c 3.193,0.669 6.869,0.745 9.518,-0.075 4.261,-1.317 9.972,-2.444 14.514,1.521 8.875,7.748 16.875,8.292 24.08,3.292 -1.63,1.924 -3.106,5.563 -3.33,7.083 -0.189,1.293 -1.134,1.873 -2.382,2.379 C 42.584,52.42 45.709,39.594 39.751,35.42 36.593,33.206 32.018,33.33 28.504,34.608 25.333,35.761 22.067,35.472 18.671,34.212 13.004,32.105 9.196,33.217 11.234,44.396 z" /><g
       style="opacity:0.75000000000000000"
       id="g5033"><path
         style="fill:#ffffff"
         inkscape:connector-curvature="0"
         id="path5035"
         d="m 35.561,30.336 c 2.719,0 4.941,0.747 6.795,2.284 5.541,4.592 10.63,6.823 15.557,6.823 1.473,0 2.934,-0.206 4.373,-0.615 -0.317,0.854 -0.559,1.602 -0.714,2.111 -0.432,1.414 -1.598,1.811 -4.357,2.437 -1.463,0.332 -3.121,0.708 -4.656,1.513 -1.577,0.824 -2.536,2.322 -2.503,3.908 0.032,1.51 0.928,2.822 2.396,3.514 1.153,0.541 1.478,1.135 1.487,1.373 0.012,0.26 -0.343,0.487 -0.45,0.551 -0.597,0.346 -1.181,0.412 -2.051,0.412 -0.16,0 -0.321,-0.002 -0.482,-0.004 -0.179,-0.002 -0.356,-0.004 -0.535,-0.004 -1.632,0 -3.393,0.211 -5.219,1.74 -1.545,1.294 -2.019,3.742 -1.078,5.573 0.137,0.267 0.141,0.405 0.149,0.407 -0.093,0.127 -0.771,0.567 -2.586,0.567 -1.776,0 -4.107,-0.426 -6.741,-1.229 -2.005,-0.613 -4.512,-0.924 -7.451,-0.924 -3.827,0 -8.428,0.553 -12.624,1.515 -0.412,0.094 -0.934,0.144 -1.509,0.144 -1.875,0 -4.187,-0.543 -5.673,-1.594 1.674,-0.011 3.264,-0.886 4.366,-2.404 1.341,-1.844 3.15,-6.289 0.213,-15.33 l -0.081,-0.25 C 10.909,38.918 9.317,34.02 10.646,32.191 11.154,31.492 12.282,31.138 14,31.138 c 1.188,0 2.632,0.177 4.295,0.525 1.76,0.369 3.618,0.563 5.375,0.563 1.944,0 3.676,-0.231 5.144,-0.686 1.664,-0.519 4.176,-1.204 6.747,-1.204 m 0,-2 c -2.663,0 -5.243,0.641 -7.34,1.29 -1.324,0.41 -2.904,0.596 -4.553,0.596 -1.649,0 -3.367,-0.187 -4.965,-0.521 -1.854,-0.389 -3.409,-0.568 -4.704,-0.568 -8.474,0 -5.881,7.664 -3.635,14.583 3.376,10.394 0.327,15.117 -2.708,15.117 -1.241,0 -2.479,-0.789 -3.276,-2.302 -1.506,5.643 4.751,7.896 8.98,7.896 0.729,0 1.397,-0.067 1.956,-0.194 C 19,63.389 23.45,62.77 27.493,62.77 c 2.549,0 4.936,0.246 6.866,0.836 3.037,0.929 5.472,1.318 7.326,1.318 3.975,0 5.295,-1.785 4.216,-3.888 -0.52,-1.013 -0.229,-2.446 0.583,-3.126 1.375,-1.152 2.663,-1.274 3.935,-1.274 0.34,0 0.679,0.009 1.018,0.009 1.005,0 2.011,-0.076 3.055,-0.682 2.108,-1.227 2.077,-3.927 -1.19,-5.463 -1.731,-0.814 -1.649,-2.881 0.184,-3.84 3.73,-1.952 8.75,-1.036 10,-5.139 0.448,-1.47 1.7,-5.159 3.33,-7.083 -2.906,2.017 -5.857,3.005 -8.902,3.005 -4.504,0 -9.211,-2.163 -14.28,-6.364 -2.489,-2.06 -5.325,-2.743 -8.073,-2.743 l 0,0 z m 31.253,6.102 h 0.005 -0.005 z" /></g><line
       style="fill:none;stroke:#ffffff;stroke-width:3.50000000000000000;stroke-miterlimit:10"
       id="line5037"
       y2="31.938"
       x2="28.504"
       y1="63.160999"
       x1="28.504"
       stroke-miterlimit="10" /><path
       style="fill:none;stroke:#034672;stroke-width:2;stroke-linecap:round;stroke-linejoin:round;stroke-miterlimit:10"
       inkscape:connector-curvature="0"
       id="path5039"
       d="m 66.814,34.438 c -7.205,5 -14.688,3.682 -23.183,-3.358 -4.897,-4.059 -11.15,-2.771 -15.411,-1.454 -2.648,0.82 -6.324,0.744 -9.518,0.075 -13.978,-2.93 -10.929,6.038 -8.339,14.015 4.757,14.64 -3.236,18.031 -5.983,12.815 -1.766,6.615 7.138,8.572 10.937,7.701 6.006,-1.377 14.051,-2.153 19.043,-0.627 9.544,2.916 13.125,0.513 11.542,-2.57 -0.52,-1.012 -0.229,-2.446 0.583,-3.126 2.834,-2.374 5.295,-0.373 8.007,-1.947 2.108,-1.226 2.077,-3.927 -1.19,-5.463 -1.731,-0.813 -1.649,-2.881 0.184,-3.84 3.73,-1.952 8.75,-1.036 10,-5.138 0.447,-1.469 1.699,-5.159 3.328,-7.083 z"
       stroke-miterlimit="10" /><path
       style="fill:#034672"
       inkscape:connector-curvature="0"
       id="path5041"
       d="M 11.234,43.396 C 8.472,35.938 4.725,26.771 18.703,29.701 c 3.193,0.669 6.869,0.745 9.518,-0.075 4.261,-1.317 9.972,-2.444 14.514,1.521 8.875,7.748 16.875,8.292 24.08,3.292 -1.63,1.924 -3.106,5.563 -3.33,7.083 -0.189,1.293 -1.116,1.916 -2.382,2.379 C 47.984,48.696 46.979,38.414 41.021,34.236 37.863,32.022 32.018,32.328 28.504,33.606 25.333,34.759 22.067,34.47 18.671,33.21 13.004,31.105 9.196,32.217 11.234,43.396 z" /><path
       style="fill:#ffffff"
       inkscape:connector-curvature="0"
       id="path5043"
       d="M 33.485,8.753 C 32.433,8.159 29.211,6.141 28.406,5.689 27.6,5.236 25.683,3.808 23.587,3.808 c -2.096,0 -4.014,1.428 -4.819,1.881 -0.805,0.452 -4.027,2.471 -5.079,3.064 -0.805,0.454 -3.724,2.037 -3.724,6.34 0,1.309 0,3.564 0,4.521 0,2.843 1.597,4.979 4.479,6.44 0.983,0.499 1.762,1.329 1.762,3.468 0,0.943 0.352,1.161 0.918,1.161 h 0.68 c 0.625,0 0.965,0.235 0.965,1.256 0,0.562 0,2.062 0,2.062 v 37.2 l 2.713,2.779 h 1.244 l 5.682,-5.819 v -34.16 c 0,0 0,-1.5 0,-2.062 0,-1.021 0.34,-1.256 0.965,-1.256 h 0.68 c 0.566,0 0.918,-0.218 0.918,-1.161 0,-2.139 0.778,-2.969 1.762,-3.468 2.882,-1.462 4.479,-3.598 4.479,-6.44 0,-0.956 0,-3.212 0,-4.521 C 37.209,10.79 34.29,9.207 33.485,8.753 z" /><path
       style="fill:url(#SVGID_4_-3)"
       inkscape:connector-curvature="0"
       id="path5054"
       d="M 33.485,8.753 C 32.433,8.159 29.211,6.141 28.406,5.689 27.6,5.236 25.683,3.808 23.587,3.808 v 69.29 l 4.819,-4.936 v -34.16 c 0,0 0,-1.5 0,-2.062 0,-1.021 0.34,-1.256 0.965,-1.256 h 0.68 c 0.566,0 0.918,-0.218 0.918,-1.161 0,-2.139 0.778,-2.969 1.762,-3.468 2.882,-1.462 4.479,-3.598 4.479,-6.44 0,-0.956 0,-3.212 0,-4.521 C 37.209,10.79 34.29,9.207 33.485,8.753 z" /><path
       style="fill:url(#SVGID_5_-0)"
       inkscape:connector-curvature="0"
       id="path5063"
       d="m 23.587,3.808 c -2.097,0 -4.014,1.428 -4.819,1.881 -0.805,0.452 -4.027,2.471 -5.079,3.064 -0.805,0.454 -3.724,2.037 -3.724,6.34 0,1.309 0,3.564 0,4.521 0,2.843 1.597,4.979 4.479,6.44 0.983,0.499 1.762,1.329 1.762,3.468 0,0.943 0.352,1.161 0.918,1.161 h 0.68 c 0.625,0 0.965,0.235 0.965,1.256 0,0.562 0,2.062 0,2.062 v 37.2 l 2.713,2.779 h 1.244 l 0.862,-0.883 -0.001,-69.289 0,0 z" /><path
       style="fill:none;stroke:#ffffff;stroke-width:2;stroke-miterlimit:10"
       inkscape:connector-curvature="0"
       id="path5065"
       d="m 23.297,3.808 c 1.908,0.938 3.431,1.966 4.236,2.419 0.805,0.452 4.027,2.471 5.079,3.064 0.805,0.454 3.724,2.037 3.724,6.34 0,1.309 0,2.806 0,3.762 0,2.843 -1.597,4.979 -4.479,6.44 -0.983,0.499 -1.762,1.431 -1.762,3.569 v 1.238"
       stroke-miterlimit="10" /><path
       style="fill:none;stroke:#034672;stroke-width:2;stroke-miterlimit:10"
       inkscape:connector-curvature="0"
       id="path5067"
       d="M 33.485,8.753 C 32.433,8.159 29.211,6.141 28.406,5.689 27.6,5.236 25.683,3.808 23.587,3.808 c -2.096,0 -4.014,1.428 -4.819,1.881 -0.805,0.452 -4.027,2.471 -5.079,3.064 -0.805,0.454 -3.724,2.037 -3.724,6.34 0,1.309 0,3.564 0,4.521 0,2.843 1.597,4.979 4.479,6.44 0.983,0.499 1.762,1.329 1.762,3.468 0,0.943 0.352,1.161 0.918,1.161 h 0.68 c 0.625,0 0.965,0.235 0.965,1.256 0,0.562 0,2.062 0,2.062 v 37.2 l 2.713,2.779 h 1.244 l 5.682,-5.819 v -34.16 c 0,0 0,-1.5 0,-2.062 0,-1.021 0.34,-1.256 0.965,-1.256 h 0.68 c 0.566,0 0.918,-0.218 0.918,-1.161 0,-2.139 0.778,-2.969 1.762,-3.468 2.882,-1.462 4.479,-3.598 4.479,-6.44 0,-0.956 0,-3.212 0,-4.521 C 37.209,10.79 34.29,9.207 33.485,8.753 z"
       stroke-miterlimit="10" /><path
       style="fill:#e9f6fe;stroke:#034672;stroke-width:2;stroke-miterlimit:10"
       inkscape:connector-curvature="0"
       id="path5069"
       d="M 38.406,34.001"
       stroke-miterlimit="10" /><polygon
       style="fill:url(#SVGID_14_-3)"
       id="polygon5156"
       points="23.589,20.501 33.641,15.443 32.641,11.704 23.589,13.729 14.537,11.704 13.537,15.443 " /><polyline
       style="opacity:0.20000000000000001"
       id="polyline5158"
       points="23.589,20.501 33.641,15.443 32.641,11.704 23.589,13.729 "
       enable-background="new    " /><path
       style="fill:#034672"
       inkscape:connector-curvature="0"
       id="path5160"
       d="m 18.671,33.209 c 3.396,1.261 6.662,1.55 9.833,0.396 l -0.283,-2.223 c -2.648,0.82 -6.324,0.744 -9.518,0.075 l -0.032,1.752 z" /><path
       style="fill:#034672"
       inkscape:connector-curvature="0"
       id="path5162"
       d="m 23.316,32.856 c -0.403,2.757 1.896,4.707 1.896,7.619 3.849,-4.335 -1.073,-5.797 -1.896,-7.619 z" /><path
       style="fill:#034672"
       inkscape:connector-curvature="0"
       id="path5164"
       d="m 23.269,33.043 c -0.118,3.207 -0.402,5.581 -1.741,7.247 -2.419,-4.737 0.687,-6.32 1.741,-7.247 z" /><circle
       style="fill:#034672"
       sodipodi:ry="1.594"
       sodipodi:rx="1.594"
       sodipodi:cy="33.021"
       sodipodi:cx="23.297001"
       d="m 24.891001,33.021 c 0,0.880342 -0.713658,1.594 -1.594,1.594 -0.880342,0 -1.594,-0.713658 -1.594,-1.594 0,-0.880342 0.713658,-1.594 1.594,-1.594 0.880342,0 1.594,0.713658 1.594,1.594 z"
       id="circle5166"
       r="1.594"
       cy="33.021"
       cx="23.297001" /><path
       style="fill:url(#linearGradient5331)"
       inkscape:connector-curvature="0"
       id="path5175"
       d="M 34.359,63.605" /></g></svg>