<?xml version="1.0" encoding="utf-8"?>
<!-- Generator: Adobe Illustrator 16.0.0, SVG Export Plug-In . SVG Version: 6.00 Build 0)  -->
<!DOCTYPE svg PUBLIC "-//W3C//DTD SVG 1.1//EN" "http://www.w3.org/Graphics/SVG/1.1/DTD/svg11.dtd">
<svg version="1.1" id="Layer_1" xmlns="http://www.w3.org/2000/svg" xmlns:xlink="http://www.w3.org/1999/xlink" x="0px" y="0px"
	 width="322.131px" height="77.5px" viewBox="0 0 322.131 77.5" enable-background="new 0 0 322.131 77.5" xml:space="preserve">
<linearGradient id="SVGID_1_" gradientUnits="userSpaceOnUse" x1="-189.8491" y1="135.8701" x2="-127.186" y2="135.8701" gradientTransform="matrix(1 0 0 -1 194 182.5)">
	<stop  offset="0" style="stop-color:#FDFDFD"/>
	<stop  offset="0.1452" style="stop-color:#F4F5F5"/>
	<stop  offset="0.6844" style="stop-color:#D9DBDB"/>
	<stop  offset="1" style="stop-color:#CFD1D1"/>
</linearGradient>
<path fill="url(#SVGID_1_)" d="M66.814,34.438c-7.205,5-14.688,3.682-23.183-3.358c-4.897-4.059-11.15-2.771-15.411-1.454
	c-2.648,0.82-6.324,0.744-9.518,0.075c-13.978-2.93-10.929,6.038-8.339,14.015c4.757,14.64-3.236,18.031-5.983,12.815
	c-1.766,6.615,7.138,8.572,10.937,7.701c6.006-1.377,14.051-2.153,19.043-0.627c9.544,2.916,13.125,0.513,11.542-2.57
	c-0.52-1.012-0.229-2.446,0.583-3.126c2.834-2.374,5.295-0.373,8.007-1.947c2.108-1.226,2.077-3.927-1.19-5.463
	c-1.731-0.813-1.649-2.881,0.184-3.84c3.73-1.952,8.75-1.036,10-5.138C63.933,40.052,65.185,36.362,66.814,34.438z"/>
<linearGradient id="SVGID_2_" gradientUnits="userSpaceOnUse" x1="36.1904" y1="47.2168" x2="27.9168" y2="47.2168">
	<stop  offset="0" style="stop-color:#E6E6E6"/>
	<stop  offset="1" style="stop-color:#B2B3B3"/>
</linearGradient>
<path fill="url(#SVGID_2_)" d="M30.861,32.645c0,4.983,0.741,22.798,4.538,30.405l-8.734-0.194V31.383L30.861,32.645z"/>
<linearGradient id="SVGID_3_" gradientUnits="userSpaceOnUse" x1="-356.9922" y1="766.7129" x2="-349.9919" y2="747.2122" gradientTransform="matrix(1 0 0 1 388 -713.5)">
	<stop  offset="0" style="stop-color:#F6F6F6"/>
	<stop  offset="1" style="stop-color:#B2B3B3"/>
</linearGradient>
<path fill="url(#SVGID_3_)" d="M11.234,44.396c-2.762-7.458-6.509-16.625,7.469-13.695c3.193,0.669,6.869,0.745,9.518-0.075
	c4.261-1.317,9.972-2.444,14.514,1.521c8.875,7.748,16.875,8.292,24.08,3.292c-1.63,1.924-3.106,5.563-3.33,7.083
	c-0.189,1.293-1.134,1.873-2.382,2.379c-18.519,7.519-15.394-5.307-21.352-9.481c-3.158-2.214-7.733-2.09-11.247-0.812
	c-3.171,1.153-6.437,0.864-9.833-0.396C13.004,32.105,9.196,33.217,11.234,44.396z"/>
<g opacity="0.75">
	<path fill="#FFFFFF" d="M35.561,30.336c2.719,0,4.941,0.747,6.795,2.284c5.541,4.592,10.63,6.823,15.557,6.823
		c1.473,0,2.934-0.206,4.373-0.615c-0.317,0.854-0.559,1.602-0.714,2.111c-0.432,1.414-1.598,1.811-4.357,2.437
		c-1.463,0.332-3.121,0.708-4.656,1.513c-1.577,0.824-2.536,2.322-2.503,3.908c0.032,1.51,0.928,2.822,2.396,3.514
		c1.153,0.541,1.478,1.135,1.487,1.373c0.012,0.26-0.343,0.487-0.45,0.551c-0.597,0.346-1.181,0.412-2.051,0.412
		c-0.16,0-0.321-0.002-0.482-0.004c-0.179-0.002-0.356-0.004-0.535-0.004c-1.632,0-3.393,0.211-5.219,1.74
		c-1.545,1.294-2.019,3.742-1.078,5.573c0.137,0.267,0.141,0.405,0.149,0.407c-0.093,0.127-0.771,0.567-2.586,0.567
		c-1.776,0-4.107-0.426-6.741-1.229c-2.005-0.613-4.512-0.924-7.451-0.924c-3.827,0-8.428,0.553-12.624,1.515
		c-0.412,0.094-0.934,0.144-1.509,0.144c-1.875,0-4.187-0.543-5.673-1.594c1.674-0.011,3.264-0.886,4.366-2.404
		c1.341-1.844,3.15-6.289,0.213-15.33l-0.081-0.25c-1.278-3.936-2.87-8.834-1.541-10.663c0.508-0.699,1.636-1.053,3.354-1.053
		c1.188,0,2.632,0.177,4.295,0.525c1.76,0.369,3.618,0.563,5.375,0.563c1.944,0,3.676-0.231,5.144-0.686
		C30.478,31.021,32.99,30.336,35.561,30.336 M35.561,28.336c-2.663,0-5.243,0.641-7.34,1.29c-1.324,0.41-2.904,0.596-4.553,0.596
		s-3.367-0.187-4.965-0.521c-1.854-0.389-3.409-0.568-4.704-0.568c-8.474,0-5.881,7.664-3.635,14.583
		c3.376,10.394,0.327,15.117-2.708,15.117c-1.241,0-2.479-0.789-3.276-2.302c-1.506,5.643,4.751,7.896,8.98,7.896
		c0.729,0,1.397-0.067,1.956-0.194C19,63.389,23.45,62.77,27.493,62.77c2.549,0,4.936,0.246,6.866,0.836
		c3.037,0.929,5.472,1.318,7.326,1.318c3.975,0,5.295-1.785,4.216-3.888c-0.52-1.013-0.229-2.446,0.583-3.126
		c1.375-1.152,2.663-1.274,3.935-1.274c0.34,0,0.679,0.009,1.018,0.009c1.005,0,2.011-0.076,3.055-0.682
		c2.108-1.227,2.077-3.927-1.19-5.463c-1.731-0.814-1.649-2.881,0.184-3.84c3.73-1.952,8.75-1.036,10-5.139
		c0.448-1.47,1.7-5.159,3.33-7.083c-2.906,2.017-5.857,3.005-8.902,3.005c-4.504,0-9.211-2.163-14.28-6.364
		C41.145,29.019,38.309,28.336,35.561,28.336L35.561,28.336z M66.814,34.438h0.005H66.814z"/>
</g>
<line fill="none" stroke="#FFFFFF" stroke-width="3.5" stroke-miterlimit="10" x1="28.504" y1="63.161" x2="28.504" y2="31.938"/>
<path fill="none" stroke="#034672" stroke-width="2" stroke-linecap="round" stroke-linejoin="round" stroke-miterlimit="10" d="
	M66.814,34.438c-7.205,5-14.688,3.682-23.183-3.358c-4.897-4.059-11.15-2.771-15.411-1.454c-2.648,0.82-6.324,0.744-9.518,0.075
	c-13.978-2.93-10.929,6.038-8.339,14.015c4.757,14.64-3.236,18.031-5.983,12.815c-1.766,6.615,7.138,8.572,10.937,7.701
	c6.006-1.377,14.051-2.153,19.043-0.627c9.544,2.916,13.125,0.513,11.542-2.57c-0.52-1.012-0.229-2.446,0.583-3.126
	c2.834-2.374,5.295-0.373,8.007-1.947c2.108-1.226,2.077-3.927-1.19-5.463c-1.731-0.813-1.649-2.881,0.184-3.84
	c3.73-1.952,8.75-1.036,10-5.138C63.933,40.052,65.185,36.362,66.814,34.438z"/>
<path fill="#034672" d="M11.234,43.396c-2.762-7.458-6.509-16.625,7.469-13.695c3.193,0.669,6.869,0.745,9.518-0.075
	c4.261-1.317,9.972-2.444,14.514,1.521c8.875,7.748,16.875,8.292,24.08,3.292c-1.63,1.924-3.106,5.563-3.33,7.083
	c-0.189,1.293-1.116,1.916-2.382,2.379c-13.119,4.795-14.124-5.487-20.082-9.665c-3.158-2.214-9.003-1.908-12.517-0.63
	c-3.171,1.153-6.437,0.864-9.833-0.396C13.004,31.105,9.196,32.217,11.234,43.396z"/>
<path fill="#FFFFFF" d="M33.485,8.753c-1.052-0.594-4.274-2.612-5.079-3.064c-0.806-0.453-2.723-1.881-4.819-1.881
	c-2.096,0-4.014,1.428-4.819,1.881c-0.805,0.452-4.027,2.471-5.079,3.064c-0.805,0.454-3.724,2.037-3.724,6.34
	c0,1.309,0,3.564,0,4.521c0,2.843,1.597,4.979,4.479,6.44c0.983,0.499,1.762,1.329,1.762,3.468c0,0.943,0.352,1.161,0.918,1.161
	h0.68c0.625,0,0.965,0.235,0.965,1.256c0,0.562,0,2.062,0,2.062v37.2l2.713,2.779h1.244l5.682-5.819v-34.16c0,0,0-1.5,0-2.062
	c0-1.021,0.34-1.256,0.965-1.256h0.68c0.566,0,0.918-0.218,0.918-1.161c0-2.139,0.778-2.969,1.762-3.468
	c2.882-1.462,4.479-3.598,4.479-6.44c0-0.956,0-3.212,0-4.521C37.209,10.79,34.29,9.207,33.485,8.753z"/>
<linearGradient id="SVGID_4_" gradientUnits="userSpaceOnUse" x1="-180.0332" y1="141.6543" x2="-149.1986" y2="149.3212" gradientTransform="matrix(1 0 0 -1 194 182.5)">
	<stop  offset="0" style="stop-color:#B8D7E9"/>
	<stop  offset="0.3324" style="stop-color:#CCE3F1"/>
	<stop  offset="0.6937" style="stop-color:#DAEBF7"/>
	<stop  offset="1" style="stop-color:#DFEEF9"/>
</linearGradient>
<path fill="url(#SVGID_4_)" d="M33.485,8.753c-1.052-0.594-4.274-2.612-5.079-3.064c-0.806-0.453-2.723-1.881-4.819-1.881v69.29
	l4.819-4.936v-34.16c0,0,0-1.5,0-2.062c0-1.021,0.34-1.256,0.965-1.256h0.68c0.566,0,0.918-0.218,0.918-1.161
	c0-2.139,0.778-2.969,1.762-3.468c2.882-1.462,4.479-3.598,4.479-6.44c0-0.956,0-3.212,0-4.521
	C37.209,10.79,34.29,9.207,33.485,8.753z"/>
<linearGradient id="SVGID_5_" gradientUnits="userSpaceOnUse" x1="-177.0732" y1="165.8252" x2="-168.4482" y2="123.5749" gradientTransform="matrix(1 0 0 -1 194 182.5)">
	<stop  offset="0" style="stop-color:#F1F9FE"/>
	<stop  offset="0.4254" style="stop-color:#E9F5FD"/>
	<stop  offset="1" style="stop-color:#E4F3FD"/>
</linearGradient>
<path fill="url(#SVGID_5_)" d="M23.587,3.808c-2.097,0-4.014,1.428-4.819,1.881c-0.805,0.452-4.027,2.471-5.079,3.064
	c-0.805,0.454-3.724,2.037-3.724,6.34c0,1.309,0,3.564,0,4.521c0,2.843,1.597,4.979,4.479,6.44c0.983,0.499,1.762,1.329,1.762,3.468
	c0,0.943,0.352,1.161,0.918,1.161h0.68c0.625,0,0.965,0.235,0.965,1.256c0,0.562,0,2.062,0,2.062v37.2l2.713,2.779h1.244
	l0.862-0.883L23.587,3.808L23.587,3.808z"/>
<path fill="none" stroke="#FFFFFF" stroke-width="2" stroke-miterlimit="10" d="M23.297,3.808c1.908,0.938,3.431,1.966,4.236,2.419
	c0.805,0.452,4.027,2.471,5.079,3.064c0.805,0.454,3.724,2.037,3.724,6.34c0,1.309,0,2.806,0,3.762c0,2.843-1.597,4.979-4.479,6.44
	c-0.983,0.499-1.762,1.431-1.762,3.569v1.238"/>
<path fill="none" stroke="#034672" stroke-width="2" stroke-miterlimit="10" d="M33.485,8.753c-1.052-0.594-4.274-2.612-5.079-3.064
	c-0.806-0.453-2.723-1.881-4.819-1.881c-2.096,0-4.014,1.428-4.819,1.881c-0.805,0.452-4.027,2.471-5.079,3.064
	c-0.805,0.454-3.724,2.037-3.724,6.34c0,1.309,0,3.564,0,4.521c0,2.843,1.597,4.979,4.479,6.44c0.983,0.499,1.762,1.329,1.762,3.468
	c0,0.943,0.352,1.161,0.918,1.161h0.68c0.625,0,0.965,0.235,0.965,1.256c0,0.562,0,2.062,0,2.062v37.2l2.713,2.779h1.244
	l5.682-5.819v-34.16c0,0,0-1.5,0-2.062c0-1.021,0.34-1.256,0.965-1.256h0.68c0.566,0,0.918-0.218,0.918-1.161
	c0-2.139,0.778-2.969,1.762-3.468c2.882-1.462,4.479-3.598,4.479-6.44c0-0.956,0-3.212,0-4.521
	C37.209,10.79,34.29,9.207,33.485,8.753z"/>
<path fill="#E9F6FE" stroke="#034672" stroke-width="2" stroke-miterlimit="10" d="M38.406,34.001"/>
<g>
	
		<linearGradient id="SVGID_6_" gradientUnits="userSpaceOnUse" x1="-72.4878" y1="166.5" x2="-72.4878" y2="111.1529" gradientTransform="matrix(1 0 0 -1 194 182.5)">
		<stop  offset="0" style="stop-color:#035E93"/>
		<stop  offset="0.5912" style="stop-color:#014A77"/>
		<stop  offset="1" style="stop-color:#004068"/>
	</linearGradient>
	<path fill="url(#SVGID_6_)" d="M127.54,48.914h-11.599c0.303,2.346,1.01,3.92,2.117,4.725s2.943,1.205,5.506,1.205
		c3.432,0,7.43-0.238,11.99-0.717l0.912,5.994c-3.346,1.607-8.015,2.411-14.01,2.411c-6.038,0-10.339-1.304-12.901-3.909
		c-2.563-2.607-3.845-6.907-3.845-12.902c0-6.299,1.248-10.707,3.746-13.228c2.498-2.519,6.701-3.779,12.609-3.779
		c5.344,0,9.209,0.923,11.599,2.769c2.389,1.848,3.605,4.66,3.649,8.439c0,2.997-0.771,5.245-2.313,6.744
		C133.459,48.164,130.971,48.914,127.54,48.914z M115.746,43.114h9.122c1.173,0,1.966-0.282,2.378-0.847
		c0.413-0.564,0.619-1.392,0.619-2.478c0-1.52-0.391-2.574-1.172-3.16c-0.782-0.586-2.216-0.88-4.301-0.88
		c-2.477,0-4.171,0.489-5.083,1.466C116.397,38.195,115.876,40.16,115.746,43.114z"/>
	
		<linearGradient id="SVGID_7_" gradientUnits="userSpaceOnUse" x1="-38.8638" y1="166.5" x2="-38.8638" y2="111.1545" gradientTransform="matrix(1 0 0 -1 194 182.5)">
		<stop  offset="0" style="stop-color:#035E93"/>
		<stop  offset="0.5912" style="stop-color:#014A77"/>
		<stop  offset="1" style="stop-color:#004068"/>
	</linearGradient>
	<path fill="url(#SVGID_7_)" d="M172.957,29.626l-11.402,32.581c-0.609,1.736-1.359,3.344-2.248,4.82
		c-0.892,1.478-2.031,2.899-3.422,4.27c-1.391,1.368-3.117,2.378-5.18,3.029c-2.064,0.652-4.355,0.824-6.875,0.521l-0.781-5.67
		c2.605-0.695,4.647-1.597,6.125-2.703c1.477-1.107,2.627-2.597,3.453-4.464l0.131-0.262h-1.825c-1.607,0-2.649-0.781-3.128-2.347
		l-10.49-29.777h10.295l5.995,20.786c0.391,1.521,0.717,3.128,0.978,4.821h0.847c0.13-0.521,0.347-1.336,0.651-2.442
		c0.304-1.106,0.521-1.899,0.652-2.379l5.93-20.786L172.957,29.626L172.957,29.626z"/>
	
		<linearGradient id="SVGID_8_" gradientUnits="userSpaceOnUse" x1="-7.7783" y1="166.5" x2="-7.7783" y2="111.1529" gradientTransform="matrix(1 0 0 -1 194 182.5)">
		<stop  offset="0" style="stop-color:#035E93"/>
		<stop  offset="0.5912" style="stop-color:#014A77"/>
		<stop  offset="1" style="stop-color:#004068"/>
	</linearGradient>
	<path fill="url(#SVGID_8_)" d="M199.644,54.127l0.849,6.256c-3.304,1.434-7.451,2.149-12.446,2.149
		c-5.908,0-10.066-1.271-12.479-3.812c-2.412-2.54-3.616-6.896-3.616-13.063c0-6.213,1.216-10.59,3.647-13.131
		c2.435-2.541,6.625-3.812,12.576-3.812c4.865,0,8.818,0.674,11.859,2.021l-1.042,5.994c-4.692-0.086-7.755-0.131-9.188-0.131
		c-2.953,0-4.984,0.631-6.092,1.891c-1.107,1.26-1.662,3.648-1.662,7.168c0,3.518,0.555,5.908,1.662,7.167
		c1.107,1.261,3.139,1.89,6.092,1.89C193.583,54.713,196.862,54.518,199.644,54.127z"/>
	
		<linearGradient id="SVGID_9_" gradientUnits="userSpaceOnUse" x1="42.9717" y1="166.5" x2="42.9717" y2="111.1529" gradientTransform="matrix(1 0 0 -1 194 182.5)">
		<stop  offset="0" style="stop-color:#035E93"/>
		<stop  offset="0.5912" style="stop-color:#014A77"/>
		<stop  offset="1" style="stop-color:#004068"/>
	</linearGradient>
	<path fill="url(#SVGID_9_)" d="M237.004,28.714c5.996,0,10.241,1.293,12.74,3.877c2.497,2.585,3.746,6.962,3.746,13.13
		c0,6.17-1.249,10.523-3.746,13.064c-2.499,2.542-6.744,3.812-12.74,3.812c-6.038,0-10.308-1.271-12.804-3.812
		c-2.499-2.541-3.747-6.896-3.747-13.064c0-6.211,1.248-10.599,3.747-13.162C226.697,29.996,230.966,28.714,237.004,28.714z
		 M237.004,35.947c-2.562,0-4.278,0.65-5.146,1.954c-0.871,1.304-1.305,3.91-1.305,7.819c0,3.823,0.434,6.386,1.305,7.689
		c0.867,1.303,2.584,1.955,5.146,1.955c2.478,0,4.16-0.652,5.052-1.955c0.889-1.304,1.336-3.866,1.336-7.689
		c0-3.864-0.437-6.461-1.305-7.787C241.218,36.609,239.522,35.947,237.004,35.947z"/>
	
		<linearGradient id="SVGID_10_" gradientUnits="userSpaceOnUse" x1="76.8818" y1="166.5" x2="76.8818" y2="111.1529" gradientTransform="matrix(1 0 0 -1 194 182.5)">
		<stop  offset="0" style="stop-color:#035E93"/>
		<stop  offset="0.5912" style="stop-color:#014A77"/>
		<stop  offset="1" style="stop-color:#004068"/>
	</linearGradient>
	<path fill="url(#SVGID_10_)" d="M257.883,36.794l-0.911-6.517c5.776-1.043,11.358-1.563,16.745-1.563
		c4.345,0,7.537,0.88,9.578,2.64c2.043,1.759,3.063,4.811,3.063,9.154V61.75h-7.625l-0.977-4.887
		c-3.217,3.779-7.168,5.669-11.859,5.669c-3.086,0-5.604-0.814-7.559-2.443c-1.955-1.629-2.934-3.897-2.934-6.81v-3.258
		c0-2.562,0.869-4.562,2.607-5.994c1.735-1.435,4.147-2.15,7.231-2.15h11.469v-1.434c-0.045-1.65-0.424-2.759-1.141-3.324
		c-0.718-0.563-2.097-0.847-4.14-0.847C267.873,36.272,263.356,36.447,257.883,36.794z M264.92,50.738v1.238
		c0,2.215,1.261,3.321,3.779,3.321c2.606,0,5.278-1.042,8.016-3.127v-4.496h-8.666C265.963,47.719,264.92,48.74,264.92,50.738z"/>
	
		<linearGradient id="SVGID_11_" gradientUnits="userSpaceOnUse" x1="-102.0625" y1="166.5" x2="-102.0625" y2="111.1545" gradientTransform="matrix(1 0 0 -1 194 182.5)">
		<stop  offset="0" style="stop-color:#035E93"/>
		<stop  offset="0.5912" style="stop-color:#014A77"/>
		<stop  offset="1" style="stop-color:#004068"/>
	</linearGradient>
	<path fill="url(#SVGID_11_)" d="M98.519,47.415c-0.913-1.563-1.912-2.714-2.997-3.454v-0.13c1.303-0.868,2.302-1.89,2.997-3.062
		l8.341-11.144H96.043l-7.95,11.208h-2.997c0.303-1.781,0.455-3.736,0.455-5.865V16.138h-2.992l-6.651,9.482v36.13h9.644v-10.1
		c0-1.26-0.152-2.867-0.455-4.822h3.062L97.15,61.75h10.816L98.519,47.415z"/>
	
		<linearGradient id="SVGID_12_" gradientUnits="userSpaceOnUse" x1="17.3159" y1="166.5" x2="17.3159" y2="111.1533" gradientTransform="matrix(1 0 0 -1 194 182.5)">
		<stop  offset="0" style="stop-color:#035E93"/>
		<stop  offset="0.5912" style="stop-color:#014A77"/>
		<stop  offset="1" style="stop-color:#004068"/>
	</linearGradient>
	<path fill="url(#SVGID_12_)" d="M218.678,54.518h-2.606c-2.434,0-3.647-1.086-3.647-3.258V16.138h-3.014l-6.565,9.36V53.67
		c0,2.824,0.825,5.008,2.477,6.549c1.65,1.542,3.91,2.313,6.777,2.313c3.475,0,6.036-0.435,7.688-1.304L218.678,54.518z"/>
	
		<linearGradient id="SVGID_13_" gradientUnits="userSpaceOnUse" x1="112.103" y1="166.5" x2="112.103" y2="111.1545" gradientTransform="matrix(1 0 0 -1 194 182.5)">
		<stop  offset="0" style="stop-color:#035E93"/>
		<stop  offset="0.5912" style="stop-color:#014A77"/>
		<stop  offset="1" style="stop-color:#004068"/>
	</linearGradient>
	<path fill="url(#SVGID_13_)" d="M312.684,47.415c-0.911-1.563-1.911-2.714-2.998-3.454v-0.13c1.304-0.868,2.304-1.89,2.998-3.062
		l8.341-11.144h-10.816l-7.949,11.208h-2.998c0.303-1.781,0.457-3.736,0.457-5.865V16.138h-2.992l-6.651,9.484V61.75h9.645v-10.1
		c0-1.26-0.153-2.867-0.457-4.822h3.062l8.992,14.922h10.815L312.684,47.415z"/>
</g>
<linearGradient id="SVGID_14_" gradientUnits="userSpaceOnUse" x1="-170.4106" y1="170.666" x2="-170.4106" y2="160.4981" gradientTransform="matrix(1 0 0 -1 194 182.5)">
	<stop  offset="0" style="stop-color:#00639A"/>
	<stop  offset="0.2355" style="stop-color:#00578A"/>
	<stop  offset="0.507" style="stop-color:#004D7B"/>
	<stop  offset="0.7167" style="stop-color:#004773"/>
	<stop  offset="1" style="stop-color:#00446E"/>
</linearGradient>
<polygon fill="url(#SVGID_14_)" points="23.589,13.729 14.537,11.704 13.537,15.443 23.589,20.501 33.641,15.443 32.641,11.704 "/>
<polyline opacity="0.2" enable-background="new    " points="23.589,20.501 33.641,15.443 32.641,11.704 23.589,13.729 "/>
<path fill="#034672" d="M18.671,33.209c3.396,1.261,6.662,1.55,9.833,0.396l-0.283-2.223c-2.648,0.82-6.324,0.744-9.518,0.075
	L18.671,33.209z"/>
<path fill="#034672" d="M23.316,32.856c-0.403,2.757,1.896,4.707,1.896,7.619C29.061,36.14,24.139,34.678,23.316,32.856z"/>
<path fill="#034672" d="M23.269,33.043c-0.118,3.207-0.402,5.581-1.741,7.247C19.109,35.553,22.215,33.97,23.269,33.043z"/>
<circle fill="#034672" cx="23.297" cy="33.021" r="1.594"/>
<linearGradient id="SVGID_15_" gradientUnits="userSpaceOnUse" x1="-159.6411" y1="118.8945" x2="-159.6411" y2="118.8945" gradientTransform="matrix(1 0 0 -1 194 182.5)">
	<stop  offset="0" style="stop-color:#F6F6F6"/>
	<stop  offset="0.5386" style="stop-color:#E4E4E4"/>
	<stop  offset="1" style="stop-color:#DADADA"/>
</linearGradient>
<path fill="url(#SVGID_15_)" d="M34.359,63.605"/>
</svg>
