<?xml version="1.0" encoding="utf-8"?>
<!-- Generator: Adobe Illustrator 16.0.0, SVG Export Plug-In . SVG Version: 6.00 Build 0)  -->
<!DOCTYPE svg PUBLIC "-//W3C//DTD SVG 1.1//EN" "http://www.w3.org/Graphics/SVG/1.1/DTD/svg11.dtd">
<svg version="1.1" id="Layer_1" xmlns="http://www.w3.org/2000/svg" xmlns:xlink="http://www.w3.org/1999/xlink" x="0px" y="0px"
	 width="160.651px" height="36.438px" viewBox="0 0 160.651 36.438" enable-background="new 0 0 160.651 36.438"
	 xml:space="preserve">
<linearGradient id="SVGID_1_" gradientUnits="userSpaceOnUse" x1="0.6514" y1="22.168" x2="32.1816" y2="22.168">
	<stop  offset="0" style="stop-color:#FDFDFD"/>
	<stop  offset="0.1452" style="stop-color:#F4F5F5"/>
	<stop  offset="0.6844" style="stop-color:#D9DBDB"/>
	<stop  offset="1" style="stop-color:#CFD1D1"/>
</linearGradient>
<path fill="url(#SVGID_1_)" d="M32.182,16.033c-3.625,2.516-7.391,1.853-11.665-1.69c-2.464-2.042-5.61-1.395-7.754-0.731
	c-1.333,0.413-3.183,0.375-4.789,0.038c-7.033-1.474-5.499,3.039-4.196,7.052c2.393,7.367-1.629,9.073-3.011,6.448
	c-0.889,3.329,3.591,4.313,5.503,3.875c3.021-0.693,7.069-1.083,9.582-0.315c4.802,1.468,6.604,0.258,5.808-1.293
	c-0.262-0.509-0.115-1.231,0.293-1.573c1.426-1.194,2.664-0.188,4.029-0.98c1.061-0.617,1.045-1.976-0.6-2.749
	c-0.871-0.41-0.83-1.45,0.093-1.932c1.877-0.982,4.402-0.521,5.031-2.585C30.731,18.858,31.361,17.001,32.182,16.033z"/>
<path fill="none" stroke="#034672" stroke-width="1.0063" stroke-linecap="round" stroke-linejoin="round" stroke-miterlimit="10" d="
	M32.182,16.033c-3.625,2.516-7.391,1.853-11.665-1.69c-2.464-2.042-5.61-1.395-7.754-0.731c-1.333,0.413-3.183,0.375-4.789,0.038
	c-7.033-1.474-5.499,3.039-4.196,7.052c2.393,7.367-1.629,9.073-3.011,6.448c-0.889,3.329,3.591,4.313,5.503,3.875
	c3.021-0.693,7.069-1.083,9.582-0.315c4.802,1.468,6.604,0.258,5.808-1.293c-0.262-0.509-0.115-1.231,0.293-1.573
	c1.426-1.194,2.664-0.188,4.029-0.98c1.061-0.617,1.045-1.976-0.6-2.749c-0.871-0.41-0.83-1.45,0.093-1.932
	c1.877-0.982,4.402-0.521,5.031-2.585C30.731,18.858,31.361,17.001,32.182,16.033z"/>
<path fill="#034672" d="M4.215,20.541c-1.39-3.752-3.274-8.366,3.759-6.892c1.606,0.337,3.456,0.375,4.789-0.038
	c2.144-0.663,5.018-1.23,7.303,0.765c4.466,3.898,8.491,4.172,12.116,1.656c-0.82,0.968-1.562,2.799-1.676,3.564
	c-0.095,0.651-0.562,0.964-1.198,1.197c-6.602,2.412-7.106-2.762-10.104-4.863c-1.59-1.114-4.53-0.96-6.299-0.317
	c-1.595,0.58-3.238,0.435-4.947-0.2C5.105,14.356,3.189,14.916,4.215,20.541z"/>
<path fill="#FFFFFF" d="M15.411,3.109c-0.529-0.299-2.15-1.314-2.556-1.542c-0.405-0.228-1.37-0.946-2.425-0.946
	s-2.02,0.718-2.425,0.946C7.601,1.794,5.979,2.81,5.45,3.109c-0.405,0.229-1.874,1.025-1.874,3.19c0,0.659,0,1.794,0,2.275
	c0,1.43,0.804,2.505,2.254,3.241c0.494,0.251,0.886,0.668,0.886,1.745c0,0.475,0.178,0.584,0.462,0.584h0.343
	c0.314,0,0.485,0.118,0.485,0.632c0,0.283,0,1.038,0,1.038v18.718l1.365,1.399h0.626l2.858-2.928V15.813c0,0,0-0.754,0-1.038
	c0-0.514,0.171-0.632,0.485-0.632h0.343c0.284,0,0.462-0.11,0.462-0.584c0-1.076,0.392-1.494,0.886-1.745
	c1.45-0.736,2.254-1.811,2.254-3.241c0-0.481,0-1.616,0-2.275C17.285,4.134,15.816,3.337,15.411,3.109z"/>
<linearGradient id="SVGID_2_" gradientUnits="userSpaceOnUse" x1="5.1582" y1="19.2568" x2="20.673" y2="15.3991">
	<stop  offset="0" style="stop-color:#B8D7E9"/>
	<stop  offset="0.3324" style="stop-color:#CCE3F1"/>
	<stop  offset="0.6937" style="stop-color:#DAEBF7"/>
	<stop  offset="1" style="stop-color:#DFEEF9"/>
</linearGradient>
<path fill="url(#SVGID_2_)" d="M14.98,3.109c-0.529-0.299-2.15-1.314-2.556-1.542C12.02,1.339,11.055,0.621,10,0.621v34.865
	l2.425-2.483V15.813c0,0,0-0.754,0-1.038c0-0.514,0.171-0.632,0.485-0.632h0.343c0.284,0,0.462-0.11,0.462-0.584
	c0-1.076,0.392-1.494,0.886-1.745c1.45-0.736,2.254-1.811,2.254-3.241c0-0.481,0-1.616,0-2.275
	C16.854,4.134,15.386,3.337,14.98,3.109z"/>
<linearGradient id="SVGID_3_" gradientUnits="userSpaceOnUse" x1="7.0781" y1="7.0952" x2="11.418" y2="28.3545">
	<stop  offset="0" style="stop-color:#F1F9FE"/>
	<stop  offset="0.4254" style="stop-color:#E9F5FD"/>
	<stop  offset="1" style="stop-color:#E4F3FD"/>
</linearGradient>
<path fill="url(#SVGID_3_)" d="M10.431,0.621c-1.055,0-2.02,0.718-2.425,0.946C7.601,1.794,5.979,2.81,5.45,3.109
	c-0.405,0.229-1.874,1.025-1.874,3.19c0,0.659,0,1.794,0,2.275c0,1.43,0.804,2.505,2.254,3.241c0.494,0.251,0.886,0.668,0.886,1.745
	c0,0.475,0.178,0.584,0.462,0.584h0.343c0.314,0,0.485,0.118,0.485,0.632c0,0.283,0,1.038,0,1.038v18.718l1.365,1.399h0.626
	l0.434-0.445V0.621z"/>
<path fill="none" stroke="#034672" stroke-width="1.0063" stroke-miterlimit="10" d="M15.411,3.109
	c-0.529-0.299-2.15-1.314-2.556-1.542c-0.405-0.228-1.37-0.946-2.425-0.946s-2.02,0.718-2.425,0.946
	C7.601,1.794,5.979,2.81,5.45,3.109c-0.405,0.229-1.874,1.025-1.874,3.19c0,0.659,0,1.794,0,2.275c0,1.43,0.804,2.505,2.254,3.241
	c0.494,0.251,0.886,0.668,0.886,1.745c0,0.475,0.178,0.584,0.462,0.584h0.343c0.314,0,0.485,0.118,0.485,0.632
	c0,0.283,0,1.038,0,1.038v18.718l1.365,1.399h0.626l2.858-2.928V15.813c0,0,0-0.754,0-1.038c0-0.514,0.171-0.632,0.485-0.632h0.343
	c0.284,0,0.462-0.11,0.462-0.584c0-1.076,0.392-1.494,0.886-1.745c1.45-0.736,2.254-1.811,2.254-3.241c0-0.481,0-1.616,0-2.275
	C17.285,4.134,15.816,3.337,15.411,3.109z"/>
<path fill="#E9F6FE" stroke="#034672" stroke-width="1.0063" stroke-miterlimit="10" d="M17.888,15.813"/>
<g>
	<linearGradient id="SVGID_4_" gradientUnits="userSpaceOnUse" x1="59.7051" y1="6.7554" x2="59.7051" y2="34.6039">
		<stop  offset="0" style="stop-color:#035E93"/>
		<stop  offset="0.5912" style="stop-color:#014A77"/>
		<stop  offset="1" style="stop-color:#004068"/>
	</linearGradient>
	<path fill="url(#SVGID_4_)" d="M62.737,23.317h-5.836c0.152,1.181,0.508,1.973,1.065,2.377c0.557,0.405,1.48,0.607,2.771,0.607
		c1.727,0,3.738-0.12,6.033-0.361l0.459,3.016c-1.684,0.809-4.033,1.213-7.05,1.213c-3.038,0-5.202-0.656-6.491-1.967
		c-1.29-1.312-1.935-3.476-1.935-6.492c0-3.169,0.628-5.388,1.885-6.656c1.257-1.268,3.372-1.902,6.345-1.902
		c2.688,0,4.634,0.464,5.836,1.393c1.202,0.93,1.814,2.345,1.836,4.247c0,1.508-0.388,2.639-1.164,3.394
		C65.716,22.94,64.464,23.317,62.737,23.317z M56.803,20.399h4.59c0.591,0,0.989-0.142,1.197-0.426
		c0.208-0.284,0.312-0.7,0.312-1.246c0-0.765-0.197-1.295-0.59-1.59c-0.394-0.295-1.115-0.443-2.164-0.443
		c-1.246,0-2.099,0.246-2.558,0.737C57.131,17.924,56.868,18.912,56.803,20.399z"/>
	<linearGradient id="SVGID_5_" gradientUnits="userSpaceOnUse" x1="76.623" y1="6.7559" x2="76.623" y2="34.6041">
		<stop  offset="0" style="stop-color:#035E93"/>
		<stop  offset="0.5912" style="stop-color:#014A77"/>
		<stop  offset="1" style="stop-color:#004068"/>
	</linearGradient>
	<path fill="url(#SVGID_5_)" d="M85.59,13.612l-5.737,16.394c-0.307,0.874-0.684,1.683-1.131,2.426
		c-0.448,0.743-1.022,1.459-1.722,2.148c-0.7,0.688-1.568,1.197-2.606,1.524c-1.039,0.328-2.191,0.415-3.459,0.262l-0.394-2.853
		c1.312-0.35,2.339-0.803,3.082-1.36c0.743-0.558,1.322-1.306,1.737-2.246l0.066-0.132h-0.919c-0.809,0-1.333-0.393-1.573-1.18
		l-5.279-14.984h5.181l3.017,10.459c0.196,0.766,0.36,1.574,0.492,2.427h0.426c0.065-0.263,0.174-0.672,0.327-1.229
		c0.153-0.558,0.263-0.957,0.329-1.197l2.983-10.459H85.59z"/>
	<linearGradient id="SVGID_6_" gradientUnits="userSpaceOnUse" x1="92.2637" y1="6.7554" x2="92.2637" y2="34.6039">
		<stop  offset="0" style="stop-color:#035E93"/>
		<stop  offset="0.5912" style="stop-color:#014A77"/>
		<stop  offset="1" style="stop-color:#004068"/>
	</linearGradient>
	<path fill="url(#SVGID_6_)" d="M99.019,25.94l0.426,3.148c-1.661,0.721-3.749,1.082-6.263,1.082c-2.973,0-5.065-0.639-6.278-1.918
		c-1.214-1.278-1.819-3.47-1.819-6.574c0-3.126,0.611-5.329,1.835-6.607c1.225-1.279,3.334-1.918,6.328-1.918
		c2.448,0,4.438,0.339,5.968,1.017l-0.524,3.016c-2.361-0.043-3.902-0.066-4.623-0.066c-1.486,0-2.509,0.317-3.065,0.952
		c-0.558,0.634-0.837,1.835-0.837,3.606c0,1.77,0.279,2.973,0.837,3.606c0.557,0.634,1.579,0.951,3.065,0.951
		C95.969,26.235,97.619,26.137,99.019,25.94z"/>
	<linearGradient id="SVGID_7_" gradientUnits="userSpaceOnUse" x1="117.8008" y1="6.7554" x2="117.8008" y2="34.6036">
		<stop  offset="0" style="stop-color:#035E93"/>
		<stop  offset="0.5912" style="stop-color:#014A77"/>
		<stop  offset="1" style="stop-color:#004068"/>
	</linearGradient>
	<path fill="url(#SVGID_7_)" d="M117.817,13.153c3.017,0,5.152,0.65,6.41,1.951c1.257,1.301,1.885,3.503,1.885,6.607
		c0,3.104-0.628,5.295-1.885,6.574c-1.258,1.279-3.394,1.918-6.41,1.918c-3.038,0-5.187-0.639-6.442-1.918
		c-1.258-1.279-1.886-3.47-1.886-6.574c0-3.125,0.628-5.333,1.886-6.623C112.631,13.798,114.779,13.153,117.817,13.153z
		 M117.817,16.792c-1.29,0-2.153,0.327-2.59,0.983c-0.438,0.656-0.656,1.967-0.656,3.935c0,1.924,0.219,3.213,0.656,3.869
		c0.437,0.655,1.3,0.983,2.59,0.983c1.246,0,2.093-0.328,2.541-0.983c0.447-0.656,0.672-1.945,0.672-3.869
		c0-1.945-0.219-3.251-0.655-3.918C119.938,17.125,119.085,16.792,117.817,16.792z"/>
	<linearGradient id="SVGID_8_" gradientUnits="userSpaceOnUse" x1="134.8643" y1="6.7554" x2="134.8643" y2="34.6039">
		<stop  offset="0" style="stop-color:#035E93"/>
		<stop  offset="0.5912" style="stop-color:#014A77"/>
		<stop  offset="1" style="stop-color:#004068"/>
	</linearGradient>
	<path fill="url(#SVGID_8_)" d="M128.323,17.219l-0.459-3.279c2.906-0.525,5.716-0.787,8.426-0.787c2.186,0,3.793,0.443,4.819,1.328
		c1.028,0.885,1.542,2.42,1.542,4.606v10.688h-3.837l-0.491-2.459c-1.618,1.902-3.606,2.853-5.967,2.853
		c-1.553,0-2.821-0.41-3.804-1.229c-0.983-0.819-1.476-1.961-1.476-3.426v-1.639c0-1.29,0.437-2.295,1.312-3.016
		c0.874-0.722,2.088-1.082,3.64-1.082h5.771v-0.722c-0.022-0.83-0.214-1.388-0.574-1.672c-0.36-0.284-1.055-0.426-2.082-0.426
		C133.35,16.956,131.077,17.044,128.323,17.219z M131.863,24.235v0.623c0,1.115,0.635,1.672,1.902,1.672
		c1.312,0,2.656-0.524,4.033-1.573v-2.263h-4.36C132.389,22.716,131.863,23.229,131.863,24.235z"/>
	<linearGradient id="SVGID_9_" gradientUnits="userSpaceOnUse" x1="44.8223" y1="6.7554" x2="44.8223" y2="34.6041">
		<stop  offset="0" style="stop-color:#035E93"/>
		<stop  offset="0.5912" style="stop-color:#014A77"/>
		<stop  offset="1" style="stop-color:#004068"/>
	</linearGradient>
	<path fill="url(#SVGID_9_)" d="M48.135,22.563c-0.46-0.787-0.962-1.366-1.509-1.738v-0.065c0.656-0.437,1.158-0.951,1.509-1.541
		l4.196-5.606h-5.442l-4,5.64h-1.508c0.152-0.896,0.229-1.88,0.229-2.951V6.825h-1.506l-3.347,4.771v18.18h4.853v-5.082
		c0-0.634-0.076-1.442-0.229-2.426h1.541l4.524,7.508h5.442L48.135,22.563z"/>
	<linearGradient id="SVGID_10_" gradientUnits="userSpaceOnUse" x1="104.8906" y1="6.7554" x2="104.8906" y2="34.604">
		<stop  offset="0" style="stop-color:#035E93"/>
		<stop  offset="0.5912" style="stop-color:#014A77"/>
		<stop  offset="1" style="stop-color:#004068"/>
	</linearGradient>
	<path fill="url(#SVGID_10_)" d="M108.596,26.137h-1.312c-1.225,0-1.836-0.546-1.836-1.639V6.825h-1.517l-3.303,4.71V25.71
		c0,1.421,0.415,2.52,1.245,3.295c0.83,0.776,1.968,1.164,3.41,1.164c1.748,0,3.038-0.219,3.869-0.656L108.596,26.137z"/>
	<linearGradient id="SVGID_11_" gradientUnits="userSpaceOnUse" x1="152.5859" y1="6.7554" x2="152.5859" y2="34.6041">
		<stop  offset="0" style="stop-color:#035E93"/>
		<stop  offset="0.5912" style="stop-color:#014A77"/>
		<stop  offset="1" style="stop-color:#004068"/>
	</linearGradient>
	<path fill="url(#SVGID_11_)" d="M155.897,22.563c-0.459-0.787-0.962-1.366-1.509-1.738v-0.065c0.655-0.437,1.159-0.951,1.509-1.541
		l4.196-5.606h-5.442l-4,5.64h-1.509c0.152-0.896,0.23-1.88,0.23-2.951V6.825h-1.506l-3.348,4.772v18.179h4.854v-5.082
		c0-0.634-0.078-1.442-0.23-2.426h1.541l4.524,7.508h5.443L155.897,22.563z"/>
</g>
<linearGradient id="SVGID_12_" gradientUnits="userSpaceOnUse" x1="10.4316" y1="4.6587" x2="10.4316" y2="9.7754">
	<stop  offset="0" style="stop-color:#00639A"/>
	<stop  offset="0.2355" style="stop-color:#00578A"/>
	<stop  offset="0.507" style="stop-color:#004D7B"/>
	<stop  offset="0.7167" style="stop-color:#004773"/>
	<stop  offset="1" style="stop-color:#00446E"/>
</linearGradient>
<polygon fill="url(#SVGID_12_)" points="10.432,5.613 5.877,4.594 5.374,6.476 10.432,9.021 15.489,6.476 14.986,4.594 "/>
<polyline opacity="0.2" points="10.432,9.021 15.489,6.476 14.986,4.594 10.432,5.613 "/>
<path fill="#034672" d="M7.957,15.415c1.709,0.634,3.353,0.78,4.947,0.2l-0.142-1.119c-1.333,0.413-3.183,0.375-4.789,0.038
	L7.957,15.415z"/>
<path fill="#034672" d="M10.295,15.237c-0.203,1.387,0.954,2.369,0.953,3.834C13.185,16.889,10.708,16.154,10.295,15.237z"/>
<path fill="#034672" d="M10.271,15.331c-0.06,1.614-0.202,2.808-0.876,3.646C8.178,16.594,9.74,15.797,10.271,15.331z"/>
<circle fill="#034672" cx="10.285" cy="15.32" r="0.802"/>
<linearGradient id="SVGID_13_" gradientUnits="userSpaceOnUse" x1="15.8525" y1="30.71" x2="15.8525" y2="30.71">
	<stop  offset="0" style="stop-color:#F6F6F6"/>
	<stop  offset="0.5386" style="stop-color:#E4E4E4"/>
	<stop  offset="1" style="stop-color:#DADADA"/>
</linearGradient>
<path fill="url(#SVGID_13_)" d="M15.852,30.709"/>
</svg>
