<?xml version="1.0" encoding="utf-8"?>
<!-- Generator: Adobe Illustrator 16.0.0, SVG Export Plug-In . SVG Version: 6.00 Build 0)  -->
<!DOCTYPE svg PUBLIC "-//W3C//DTD SVG 1.1//EN" "http://www.w3.org/Graphics/SVG/1.1/DTD/svg11.dtd">
<svg version="1.1" id="Layer_1" xmlns="http://www.w3.org/2000/svg" xmlns:xlink="http://www.w3.org/1999/xlink" x="0px" y="0px"
	 width="162.418px" height="40.085px" viewBox="1.732 1.333 162.418 40.085" enable-background="new 1.732 1.333 162.418 40.085"
	 xml:space="preserve">
<g>
	
		<path fill="none" stroke="#FFFFFF" stroke-width="4.5285" stroke-linecap="round" stroke-linejoin="round" stroke-miterlimit="10" d="
		M35.681,19.22c-3.625,2.516-7.391,1.853-11.665-1.689c-2.464-2.042-5.61-1.395-7.754-0.732c-1.333,0.413-3.182,0.375-4.789,0.038
		c-7.033-1.475-5.5,3.038-4.196,7.052c2.394,7.366-1.628,9.073-3.01,6.448c-0.889,3.329,3.592,4.313,5.503,3.875
		c3.022-0.693,7.07-1.083,9.582-0.315c4.802,1.467,6.604,0.258,5.808-1.293c-0.262-0.509-0.115-1.231,0.293-1.573
		c1.426-1.195,2.664-0.188,4.029-0.98c1.061-0.617,1.045-1.976-0.599-2.749c-0.871-0.41-0.83-1.45,0.093-1.932
		c1.877-0.982,4.403-0.521,5.032-2.585C34.231,22.045,34.861,20.188,35.681,19.22z"/>
	
		<path fill="none" stroke="#FFFFFF" stroke-width="4.5285" stroke-linecap="round" stroke-linejoin="round" stroke-miterlimit="10" d="
		M18.911,6.296c-0.529-0.299-2.15-1.314-2.555-1.542c-0.406-0.228-1.37-0.946-2.425-0.946s-2.02,0.718-2.425,0.946
		C11.101,4.982,9.479,5.998,8.95,6.296c-0.405,0.229-1.874,1.025-1.874,3.19c0,0.659,0,1.793,0,2.275
		c0,1.431,0.804,2.505,2.254,3.24c0.495,0.251,0.887,0.669,0.887,1.745c0,0.475,0.177,0.584,0.462,0.584h0.342
		c0.315,0,0.486,0.118,0.486,0.632c0,0.283,0,1.038,0,1.038v18.718l1.365,1.398h0.626l2.859-2.928V19c0,0,0-0.755,0-1.038
		c0-0.514,0.171-0.632,0.485-0.632h0.342c0.285,0,0.462-0.109,0.462-0.584c0-1.076,0.392-1.494,0.886-1.745
		c1.451-0.736,2.254-1.81,2.254-3.24c0-0.481,0-1.616,0-2.275C20.785,7.321,19.316,6.525,18.911,6.296z"/>
</g>
<linearGradient id="SVGID_1_" gradientUnits="userSpaceOnUse" x1="-577.8491" y1="-556.3545" x2="-546.3188" y2="-556.3545" gradientTransform="matrix(1 0 0 -1 582 -531)">
	<stop  offset="0" style="stop-color:#FDFDFD"/>
	<stop  offset="0.1452" style="stop-color:#F4F5F5"/>
	<stop  offset="0.6844" style="stop-color:#D9DBDB"/>
	<stop  offset="1" style="stop-color:#CFD1D1"/>
</linearGradient>
<path fill="url(#SVGID_1_)" d="M35.681,19.22c-3.625,2.516-7.391,1.853-11.665-1.689c-2.464-2.042-5.61-1.395-7.754-0.732
	c-1.333,0.413-3.182,0.375-4.789,0.038c-7.033-1.475-5.5,3.038-4.196,7.052c2.394,7.366-1.628,9.073-3.01,6.448
	c-0.889,3.329,3.592,4.313,5.503,3.875c3.022-0.693,7.07-1.083,9.582-0.315c4.802,1.467,6.604,0.258,5.808-1.293
	c-0.262-0.509-0.115-1.231,0.293-1.573c1.426-1.195,2.664-0.188,4.029-0.98c1.061-0.617,1.045-1.976-0.599-2.749
	c-0.871-0.41-0.83-1.45,0.093-1.932c1.877-0.982,4.403-0.521,5.032-2.585C34.231,22.045,34.861,20.188,35.681,19.22z"/>
<path fill="none" stroke="#034672" stroke-width="1.0063" stroke-linecap="round" stroke-linejoin="round" stroke-miterlimit="10" d="
	M35.681,19.22c-3.625,2.516-7.391,1.853-11.665-1.689c-2.464-2.042-5.61-1.395-7.754-0.732c-1.333,0.413-3.182,0.375-4.789,0.038
	c-7.033-1.475-5.5,3.038-4.196,7.052c2.394,7.366-1.628,9.073-3.01,6.448c-0.889,3.329,3.592,4.313,5.503,3.875
	c3.022-0.693,7.07-1.083,9.582-0.315c4.802,1.467,6.604,0.258,5.808-1.293c-0.262-0.509-0.115-1.231,0.293-1.573
	c1.426-1.195,2.664-0.188,4.029-0.98c1.061-0.617,1.045-1.976-0.599-2.749c-0.871-0.41-0.83-1.45,0.093-1.932
	c1.877-0.982,4.403-0.521,5.032-2.585C34.231,22.045,34.861,20.188,35.681,19.22z"/>
<path fill="#034672" d="M7.715,23.728c-1.39-3.753-3.275-8.366,3.758-6.891c1.606,0.336,3.456,0.375,4.789-0.038
	c2.144-0.663,5.018-1.229,7.303,0.765c4.466,3.899,8.491,4.173,12.117,1.657c-0.82,0.968-1.563,2.799-1.676,3.563
	c-0.095,0.651-0.562,0.964-1.198,1.197c-6.602,2.413-7.107-2.76-10.105-4.863c-1.589-1.114-4.53-0.96-6.298-0.317
	c-1.595,0.58-3.239,0.435-4.947-0.199C8.605,17.543,6.689,18.103,7.715,23.728z"/>
<path fill="#FFFFFF" d="M18.911,6.296c-0.529-0.299-2.15-1.314-2.555-1.542c-0.406-0.228-1.37-0.946-2.425-0.946
	s-2.02,0.718-2.425,0.946C11.101,4.982,9.479,5.998,8.95,6.296c-0.405,0.229-1.874,1.025-1.874,3.19c0,0.659,0,1.793,0,2.275
	c0,1.431,0.804,2.505,2.254,3.24c0.495,0.251,0.887,0.669,0.887,1.745c0,0.475,0.177,0.584,0.462,0.584h0.342
	c0.315,0,0.486,0.118,0.486,0.632c0,0.283,0,1.038,0,1.038v18.718l1.365,1.398h0.626l2.859-2.928V19c0,0,0-0.755,0-1.038
	c0-0.514,0.171-0.632,0.485-0.632h0.342c0.285,0,0.462-0.109,0.462-0.584c0-1.076,0.392-1.494,0.886-1.745
	c1.451-0.736,2.254-1.81,2.254-3.24c0-0.481,0-1.616,0-2.275C20.785,7.321,19.316,6.525,18.911,6.296z"/>
<linearGradient id="SVGID_2_" gradientUnits="userSpaceOnUse" x1="-572.9106" y1="-553.4443" x2="-557.3958" y2="-549.5866" gradientTransform="matrix(1 0 0 -1 582 -531)">
	<stop  offset="0" style="stop-color:#B8D7E9"/>
	<stop  offset="0.3324" style="stop-color:#CCE3F1"/>
	<stop  offset="0.6937" style="stop-color:#DAEBF7"/>
	<stop  offset="1" style="stop-color:#DFEEF9"/>
</linearGradient>
<path fill="url(#SVGID_2_)" d="M18.911,6.296c-0.529-0.299-2.15-1.314-2.555-1.542c-0.406-0.228-1.37-0.946-2.425-0.946v34.864
	l2.425-2.483V19.001c0,0,0-0.755,0-1.038c0-0.514,0.171-0.632,0.485-0.632h0.342c0.285,0,0.462-0.109,0.462-0.584
	c0-1.076,0.392-1.494,0.887-1.745c1.45-0.736,2.254-1.81,2.254-3.24c0-0.481,0-1.616,0-2.275
	C20.785,7.321,19.316,6.525,18.911,6.296z"/>
<linearGradient id="SVGID_3_" gradientUnits="userSpaceOnUse" x1="-571.4214" y1="-541.2822" x2="-567.0815" y2="-562.5419" gradientTransform="matrix(1 0 0 -1 582 -531)">
	<stop  offset="0" style="stop-color:#F1F9FE"/>
	<stop  offset="0.4254" style="stop-color:#E9F5FD"/>
	<stop  offset="1" style="stop-color:#E4F3FD"/>
</linearGradient>
<path fill="url(#SVGID_3_)" d="M13.931,3.808c-1.055,0-2.02,0.718-2.425,0.946C11.101,4.982,9.479,5.998,8.95,6.296
	c-0.405,0.229-1.874,1.025-1.874,3.19c0,0.659,0,1.793,0,2.275c0,1.431,0.804,2.505,2.254,3.24c0.495,0.251,0.887,0.669,0.887,1.745
	c0,0.475,0.177,0.584,0.462,0.584h0.342c0.315,0,0.486,0.118,0.486,0.632c0,0.283,0,1.038,0,1.038v18.718l1.365,1.398h0.626
	l0.434-0.444L13.931,3.808L13.931,3.808z"/>
<path fill="none" stroke="#034672" stroke-width="1.0063" stroke-miterlimit="10" d="M18.911,6.296
	c-0.529-0.299-2.15-1.314-2.555-1.542c-0.406-0.228-1.37-0.946-2.425-0.946s-2.02,0.718-2.425,0.946
	C11.101,4.982,9.479,5.998,8.95,6.296c-0.405,0.229-1.874,1.025-1.874,3.19c0,0.659,0,1.793,0,2.275c0,1.431,0.804,2.505,2.254,3.24
	c0.495,0.251,0.887,0.669,0.887,1.745c0,0.475,0.177,0.584,0.462,0.584h0.342c0.315,0,0.486,0.118,0.486,0.632
	c0,0.283,0,1.038,0,1.038v18.718l1.365,1.398h0.626l2.859-2.928V19c0,0,0-0.755,0-1.038c0-0.514,0.171-0.632,0.485-0.632h0.342
	c0.285,0,0.462-0.109,0.462-0.584c0-1.076,0.392-1.494,0.886-1.745c1.451-0.736,2.254-1.81,2.254-3.24c0-0.481,0-1.616,0-2.275
	C20.785,7.321,19.316,6.525,18.911,6.296z"/>
<path fill="#E9F6FE" stroke="#034672" stroke-width="1.0063" stroke-miterlimit="10" d="M21.387,19"/>
<g>
	
		<linearGradient id="SVGID_4_" gradientUnits="userSpaceOnUse" x1="-518.7964" y1="-547.7354" x2="-518.7964" y2="-573.3391" gradientTransform="matrix(1 0 0 -1 582 -531)">
		<stop  offset="0" style="stop-color:#FFFFFE"/>
		<stop  offset="0.4815" style="stop-color:#F2F1F1"/>
		<stop  offset="1" style="stop-color:#E9E7E8"/>
	</linearGradient>
	<path fill="url(#SVGID_4_)" d="M66.236,26.504H60.4c0.152,1.181,0.508,1.973,1.065,2.377c0.557,0.405,1.481,0.606,2.771,0.606
		c1.727,0,3.739-0.12,6.033-0.361l0.458,3.016c-1.683,0.809-4.033,1.213-7.049,1.213c-3.038,0-5.202-0.656-6.491-1.967
		c-1.29-1.312-1.935-3.475-1.935-6.492c0-3.169,0.628-5.387,1.885-6.656c1.257-1.268,3.372-1.902,6.344-1.902
		c2.689,0,4.634,0.465,5.836,1.394c1.202,0.93,1.814,2.345,1.836,4.246c0,1.508-0.388,2.639-1.164,3.394
		C69.215,26.126,67.963,26.504,66.236,26.504z M60.302,23.586h4.59c0.59,0,0.989-0.142,1.196-0.426
		c0.208-0.284,0.312-0.701,0.312-1.248c0-0.765-0.197-1.295-0.59-1.59c-0.393-0.295-1.115-0.443-2.164-0.443
		c-1.246,0-2.099,0.246-2.558,0.737C60.63,21.11,60.368,22.099,60.302,23.586z"/>
	
		<linearGradient id="SVGID_5_" gradientUnits="userSpaceOnUse" x1="-501.8774" y1="-547.7354" x2="-501.8774" y2="-573.3382" gradientTransform="matrix(1 0 0 -1 582 -531)">
		<stop  offset="0" style="stop-color:#FFFFFE"/>
		<stop  offset="0.4815" style="stop-color:#F2F1F1"/>
		<stop  offset="1" style="stop-color:#E9E7E8"/>
	</linearGradient>
	<path fill="url(#SVGID_5_)" d="M89.089,16.799l-5.737,16.394c-0.307,0.874-0.684,1.682-1.131,2.425
		c-0.449,0.744-1.022,1.458-1.722,2.148c-0.7,0.688-1.568,1.196-2.606,1.524c-1.039,0.328-2.191,0.414-3.459,0.262l-0.393-2.854
		c1.311-0.349,2.338-0.804,3.082-1.359c0.743-0.557,1.322-1.308,1.737-2.247l0.066-0.131h-0.918c-0.809,0-1.333-0.393-1.574-1.182
		l-5.278-14.982h5.18l3.017,10.459c0.197,0.765,0.361,1.574,0.492,2.425h0.426c0.065-0.262,0.174-0.672,0.328-1.228
		c0.153-0.556,0.262-0.955,0.328-1.197l2.984-10.459L89.089,16.799L89.089,16.799z"/>
	
		<linearGradient id="SVGID_6_" gradientUnits="userSpaceOnUse" x1="-486.2349" y1="-547.7354" x2="-486.2349" y2="-573.3391" gradientTransform="matrix(1 0 0 -1 582 -531)">
		<stop  offset="0" style="stop-color:#FFFFFE"/>
		<stop  offset="0.4815" style="stop-color:#F2F1F1"/>
		<stop  offset="1" style="stop-color:#E9E7E8"/>
	</linearGradient>
	<path fill="url(#SVGID_6_)" d="M102.517,29.127l0.428,3.148c-1.663,0.721-3.749,1.082-6.263,1.082c-2.972,0-5.064-0.64-6.279-1.918
		c-1.213-1.278-1.819-3.47-1.819-6.572c0-3.127,0.612-5.329,1.834-6.607c1.226-1.278,3.333-1.918,6.328-1.918
		c2.448,0,4.437,0.339,5.967,1.017l-0.524,3.016c-2.361-0.043-3.902-0.066-4.623-0.066c-1.486,0-2.508,0.317-3.066,0.952
		c-0.557,0.634-0.836,1.834-0.836,3.606c0,1.77,0.28,2.972,0.836,3.606s1.58,0.951,3.066,0.951
		C99.467,29.422,101.117,29.324,102.517,29.127z"/>
	
		<linearGradient id="SVGID_7_" gradientUnits="userSpaceOnUse" x1="-460.7002" y1="-547.7354" x2="-460.7002" y2="-573.3394" gradientTransform="matrix(1 0 0 -1 582 -531)">
		<stop  offset="0" style="stop-color:#FFFFFE"/>
		<stop  offset="0.4815" style="stop-color:#F2F1F1"/>
		<stop  offset="1" style="stop-color:#E9E7E8"/>
	</linearGradient>
	<path fill="url(#SVGID_7_)" d="M121.315,16.34c3.017,0,5.153,0.651,6.411,1.951c1.256,1.301,1.885,3.503,1.885,6.607
		c0,3.104-0.628,5.295-1.885,6.573c-1.258,1.279-3.394,1.918-6.411,1.918c-3.038,0-5.187-0.64-6.442-1.918
		c-1.257-1.278-1.885-3.47-1.885-6.573c0-3.125,0.628-5.333,1.885-6.623C116.129,16.985,118.277,16.34,121.315,16.34z
		 M121.315,19.979c-1.289,0-2.153,0.327-2.589,0.983c-0.438,0.656-0.657,1.967-0.657,3.935c0,1.923,0.218,3.213,0.657,3.869
		c0.436,0.655,1.3,0.983,2.589,0.983c1.247,0,2.093-0.328,2.542-0.983c0.447-0.656,0.672-1.946,0.672-3.869
		c0-1.945-0.219-3.251-0.656-3.918C123.436,20.312,122.583,19.979,121.315,19.979z"/>
	
		<linearGradient id="SVGID_8_" gradientUnits="userSpaceOnUse" x1="-443.6392" y1="-547.7354" x2="-443.6392" y2="-573.3391" gradientTransform="matrix(1 0 0 -1 582 -531)">
		<stop  offset="0" style="stop-color:#FFFFFE"/>
		<stop  offset="0.4815" style="stop-color:#F2F1F1"/>
		<stop  offset="1" style="stop-color:#E9E7E8"/>
	</linearGradient>
	<path fill="url(#SVGID_8_)" d="M131.821,20.406l-0.458-3.279c2.906-0.525,5.715-0.787,8.425-0.787c2.187,0,3.792,0.443,4.82,1.329
		c1.028,0.885,1.541,2.421,1.541,4.606v10.688h-3.836l-0.492-2.459c-1.619,1.901-3.607,2.853-5.966,2.853
		c-1.553,0-2.82-0.41-3.804-1.229c-0.984-0.82-1.478-1.961-1.478-3.426v-1.639c0-1.29,0.438-2.296,1.312-3.016
		c0.874-0.723,2.086-1.082,3.638-1.082h5.771v-0.722c-0.022-0.83-0.213-1.388-0.575-1.672c-0.36-0.283-1.055-0.426-2.083-0.426
		C136.848,20.143,134.575,20.231,131.821,20.406z M135.362,27.422v0.623c0,1.115,0.634,1.67,1.902,1.67
		c1.312,0,2.656-0.524,4.033-1.574v-2.262h-4.36C135.887,25.903,135.362,26.417,135.362,27.422z"/>
	
		<linearGradient id="SVGID_9_" gradientUnits="userSpaceOnUse" x1="-533.6772" y1="-547.7354" x2="-533.6772" y2="-573.3375" gradientTransform="matrix(1 0 0 -1 582 -531)">
		<stop  offset="0" style="stop-color:#FFFFFE"/>
		<stop  offset="0.4815" style="stop-color:#F2F1F1"/>
		<stop  offset="1" style="stop-color:#E9E7E8"/>
	</linearGradient>
	<path fill="url(#SVGID_9_)" d="M51.634,25.75c-0.459-0.787-0.962-1.366-1.508-1.738v-0.065c0.656-0.437,1.158-0.951,1.508-1.541
		l4.197-5.608h-5.443l-4,5.64H44.88c0.152-0.896,0.229-1.88,0.229-2.951v-9.475h-1.505l-3.347,4.771v18.18h4.853V27.88
		c0-0.634-0.077-1.442-0.229-2.426h1.541l4.524,7.509h5.442L51.634,25.75z"/>
	
		<linearGradient id="SVGID_10_" gradientUnits="userSpaceOnUse" x1="-473.6079" y1="-547.7354" x2="-473.6079" y2="-573.3386" gradientTransform="matrix(1 0 0 -1 582 -531)">
		<stop  offset="0" style="stop-color:#FFFFFE"/>
		<stop  offset="0.4815" style="stop-color:#F2F1F1"/>
		<stop  offset="1" style="stop-color:#E9E7E8"/>
	</linearGradient>
	<path fill="url(#SVGID_10_)" d="M112.094,29.324h-1.312c-1.225,0-1.834-0.546-1.834-1.639V10.012h-1.516l-3.303,4.709v14.175
		c0,1.421,0.415,2.52,1.246,3.295c0.831,0.776,1.968,1.164,3.41,1.164c1.749,0,3.037-0.219,3.868-0.656L112.094,29.324z"/>
	
		<linearGradient id="SVGID_11_" gradientUnits="userSpaceOnUse" x1="-425.9141" y1="-547.7354" x2="-425.9141" y2="-573.3375" gradientTransform="matrix(1 0 0 -1 582 -531)">
		<stop  offset="0" style="stop-color:#FFFFFE"/>
		<stop  offset="0.4815" style="stop-color:#F2F1F1"/>
		<stop  offset="1" style="stop-color:#E9E7E8"/>
	</linearGradient>
	<path fill="url(#SVGID_11_)" d="M159.395,25.75c-0.458-0.787-0.96-1.366-1.508-1.738v-0.065c0.657-0.437,1.16-0.951,1.508-1.541
		l4.198-5.608h-5.442l-4,5.64h-1.508c0.152-0.896,0.229-1.88,0.229-2.951v-9.475h-1.504l-3.347,4.772v18.179h4.853v-5.082
		c0-0.634-0.078-1.443-0.23-2.426h1.541l4.525,7.508h5.44L159.395,25.75z"/>
</g>
<linearGradient id="SVGID_12_" gradientUnits="userSpaceOnUse" x1="-568.0679" y1="-538.8467" x2="-568.0679" y2="-543.9628" gradientTransform="matrix(1 0 0 -1 582 -531)">
	<stop  offset="0" style="stop-color:#00639A"/>
	<stop  offset="0.2355" style="stop-color:#00578A"/>
	<stop  offset="0.507" style="stop-color:#004D7B"/>
	<stop  offset="0.7167" style="stop-color:#004773"/>
	<stop  offset="1" style="stop-color:#00446E"/>
</linearGradient>
<polygon fill="url(#SVGID_12_)" points="13.932,8.8 9.377,7.781 8.874,9.663 13.932,12.208 18.989,9.663 18.486,7.781 "/>
<polyline opacity="0.2" enable-background="new    " points="13.932,12.208 18.989,9.663 18.486,7.781 13.932,8.8 "/>
<path fill="#034672" d="M11.457,18.602c1.708,0.635,3.352,0.78,4.947,0.199l-0.142-1.118c-1.333,0.413-3.182,0.374-4.789,0.038
	L11.457,18.602z"/>
<path fill="#034672" d="M13.794,18.424c-0.203,1.387,0.954,2.368,0.954,3.833C16.685,20.077,14.208,19.341,13.794,18.424z"/>
<path fill="#034672" d="M13.771,18.518c-0.06,1.614-0.202,2.809-0.876,3.646C11.677,19.781,13.24,18.984,13.771,18.518z"/>
<circle fill="#034672" cx="13.785" cy="18.507" r="0.802"/>
<linearGradient id="SVGID_13_" gradientUnits="userSpaceOnUse" x1="-562.6494" y1="-564.8965" x2="-562.6494" y2="-564.8965" gradientTransform="matrix(1 0 0 -1 582 -531)">
	<stop  offset="0" style="stop-color:#F6F6F6"/>
	<stop  offset="0.5386" style="stop-color:#E4E4E4"/>
	<stop  offset="1" style="stop-color:#DADADA"/>
</linearGradient>
<path fill="url(#SVGID_13_)" d="M19.351,33.896"/>
</svg>
