<?xml version="1.0" encoding="utf-8"?>
<!-- Generator: Adobe Illustrator 16.0.0, SVG Export Plug-In . SVG Version: 6.00 Build 0)  -->
<!DOCTYPE svg PUBLIC "-//W3C//DTD SVG 1.1//EN" "http://www.w3.org/Graphics/SVG/1.1/DTD/svg11.dtd">
<svg version="1.1" id="Layer_1" xmlns="http://www.w3.org/2000/svg" xmlns:xlink="http://www.w3.org/1999/xlink" x="0px" y="0px"
	 width="164.254px" height="39.875px" viewBox="-0.104 1.48 164.254 39.875" enable-background="new -0.104 1.48 164.254 39.875"
	 xml:space="preserve">
<g>
	
		<path fill="none" stroke="#FFFFFF" stroke-width="4.5285" stroke-linecap="round" stroke-linejoin="round" stroke-miterlimit="10" d="
		M33.737,19.22c-3.625,2.516-7.391,1.854-11.665-1.689c-2.464-2.042-5.61-1.396-7.754-0.732c-1.333,0.413-3.182,0.375-4.789,0.038
		c-7.033-1.475-5.5,3.038-4.196,7.052c2.394,7.366-1.628,9.073-3.01,6.448c-0.889,3.328,3.592,4.312,5.503,3.875
		c3.022-0.693,7.07-1.084,9.582-0.315c4.802,1.468,6.604,0.258,5.808-1.293c-0.262-0.509-0.115-1.231,0.293-1.573
		c1.426-1.195,2.664-0.188,4.029-0.98c1.061-0.616,1.045-1.975-0.599-2.748c-0.871-0.41-0.83-1.45,0.093-1.932
		c1.877-0.982,4.403-0.521,5.032-2.586C32.287,22.044,32.917,20.188,33.737,19.22z"/>
	
		<path fill="none" stroke="#FFFFFF" stroke-width="4.5285" stroke-linecap="round" stroke-linejoin="round" stroke-miterlimit="10" d="
		M16.967,6.296c-0.529-0.299-2.15-1.314-2.555-1.542c-0.406-0.228-1.37-0.946-2.425-0.946c-1.055,0-2.02,0.718-2.425,0.946
		C9.157,4.982,7.535,5.998,7.006,6.296c-0.405,0.229-1.874,1.025-1.874,3.19c0,0.659,0,1.793,0,2.275
		c0,1.431,0.804,2.505,2.254,3.24c0.495,0.251,0.887,0.669,0.887,1.745c0,0.475,0.177,0.584,0.462,0.584h0.342
		c0.315,0,0.486,0.118,0.486,0.632c0,0.283,0,1.038,0,1.038v18.718l1.365,1.398h0.626l2.859-2.929V19c0,0,0-0.755,0-1.038
		c0-0.514,0.171-0.632,0.485-0.632h0.342c0.285,0,0.462-0.109,0.462-0.584c0-1.076,0.392-1.494,0.886-1.745
		c1.451-0.736,2.254-1.81,2.254-3.24c0-0.481,0-1.616,0-2.275C18.841,7.321,17.372,6.525,16.967,6.296z"/>
</g>
<linearGradient id="SVGID_1_" gradientUnits="userSpaceOnUse" x1="-277.7925" y1="960.855" x2="-246.2632" y2="960.855" gradientTransform="matrix(1 0 0 1 280 -935.5)">
	<stop  offset="0" style="stop-color:#FDFDFD"/>
	<stop  offset="0.1452" style="stop-color:#F4F5F5"/>
	<stop  offset="0.6844" style="stop-color:#D9DBDB"/>
	<stop  offset="1" style="stop-color:#CFD1D1"/>
</linearGradient>
<path fill="url(#SVGID_1_)" d="M33.737,19.22c-3.625,2.516-7.391,1.854-11.665-1.689c-2.464-2.042-5.61-1.396-7.754-0.732
	c-1.333,0.413-3.182,0.375-4.789,0.038c-7.033-1.475-5.5,3.038-4.196,7.052c2.394,7.366-1.628,9.073-3.01,6.448
	c-0.889,3.328,3.592,4.312,5.503,3.875c3.022-0.693,7.07-1.084,9.582-0.315c4.802,1.468,6.604,0.258,5.808-1.293
	c-0.262-0.509-0.115-1.231,0.293-1.573c1.426-1.195,2.664-0.188,4.029-0.98c1.061-0.616,1.045-1.975-0.599-2.748
	c-0.871-0.41-0.83-1.45,0.093-1.932c1.877-0.982,4.403-0.521,5.032-2.586C32.287,22.044,32.917,20.188,33.737,19.22z"/>
<path fill="none" stroke="#034672" stroke-width="1.0063" stroke-linecap="round" stroke-linejoin="round" stroke-miterlimit="10" d="
	M33.737,19.22c-3.625,2.516-7.391,1.854-11.665-1.689c-2.464-2.042-5.61-1.396-7.754-0.732c-1.333,0.413-3.182,0.375-4.789,0.038
	c-7.033-1.475-5.5,3.038-4.196,7.052c2.394,7.366-1.628,9.073-3.01,6.448c-0.889,3.328,3.592,4.312,5.503,3.875
	c3.022-0.693,7.07-1.084,9.582-0.315c4.802,1.468,6.604,0.258,5.808-1.293c-0.262-0.509-0.115-1.231,0.293-1.573
	c1.426-1.195,2.664-0.188,4.029-0.98c1.061-0.616,1.045-1.975-0.599-2.748c-0.871-0.41-0.83-1.45,0.093-1.932
	c1.877-0.982,4.403-0.521,5.032-2.586C32.287,22.044,32.917,20.188,33.737,19.22z"/>
<path fill="#034672" d="M5.771,23.728c-1.39-3.753-3.275-8.366,3.758-6.891c1.606,0.336,3.456,0.375,4.789-0.038
	c2.144-0.663,5.018-1.229,7.303,0.765c4.466,3.898,8.491,4.173,12.117,1.657c-0.82,0.968-1.563,2.799-1.676,3.563
	c-0.095,0.65-0.562,0.963-1.198,1.196c-6.602,2.413-7.107-2.76-10.105-4.863c-1.589-1.114-4.53-0.96-6.298-0.317
	c-1.595,0.58-3.239,0.435-4.947-0.199C6.661,17.543,4.745,18.103,5.771,23.728z"/>
<path fill="#FFFFFF" d="M16.967,6.296c-0.529-0.299-2.15-1.314-2.555-1.542c-0.406-0.228-1.37-0.946-2.425-0.946
	c-1.055,0-2.02,0.718-2.425,0.946C9.157,4.982,7.535,5.998,7.006,6.296c-0.405,0.229-1.874,1.025-1.874,3.19
	c0,0.659,0,1.793,0,2.275c0,1.431,0.804,2.505,2.254,3.24c0.495,0.251,0.887,0.669,0.887,1.745c0,0.475,0.177,0.584,0.462,0.584
	h0.342c0.315,0,0.486,0.118,0.486,0.632c0,0.283,0,1.038,0,1.038v18.718l1.365,1.398h0.626l2.859-2.929V19c0,0,0-0.755,0-1.038
	c0-0.514,0.171-0.632,0.485-0.632h0.342c0.285,0,0.462-0.109,0.462-0.584c0-1.076,0.392-1.494,0.886-1.745
	c1.451-0.736,2.254-1.81,2.254-3.24c0-0.481,0-1.616,0-2.275C18.841,7.321,17.372,6.525,16.967,6.296z"/>
<linearGradient id="SVGID_2_" gradientUnits="userSpaceOnUse" x1="-272.8555" y1="957.9448" x2="-257.3407" y2="954.0872" gradientTransform="matrix(1 0 0 1 280 -935.5)">
	<stop  offset="0" style="stop-color:#B8D7E9"/>
	<stop  offset="0.3324" style="stop-color:#CCE3F1"/>
	<stop  offset="0.6937" style="stop-color:#DAEBF7"/>
	<stop  offset="1" style="stop-color:#DFEEF9"/>
</linearGradient>
<path fill="url(#SVGID_2_)" d="M16.967,6.296c-0.529-0.299-2.15-1.314-2.555-1.542c-0.406-0.228-1.37-0.946-2.425-0.946v34.863
	l2.425-2.482V19.001c0,0,0-0.755,0-1.038c0-0.514,0.171-0.632,0.485-0.632h0.342c0.285,0,0.462-0.109,0.462-0.584
	c0-1.076,0.392-1.494,0.887-1.745c1.45-0.736,2.254-1.81,2.254-3.24c0-0.481,0-1.616,0-2.275
	C18.841,7.321,17.372,6.525,16.967,6.296z"/>
<linearGradient id="SVGID_3_" gradientUnits="userSpaceOnUse" x1="-271.3652" y1="945.7817" x2="-267.0252" y2="967.042" gradientTransform="matrix(1 0 0 1 280 -935.5)">
	<stop  offset="0" style="stop-color:#F1F9FE"/>
	<stop  offset="0.4254" style="stop-color:#E9F5FD"/>
	<stop  offset="1" style="stop-color:#E4F3FD"/>
</linearGradient>
<path fill="url(#SVGID_3_)" d="M11.987,3.808c-1.055,0-2.02,0.718-2.425,0.946C9.157,4.982,7.535,5.998,7.006,6.296
	c-0.405,0.229-1.874,1.025-1.874,3.19c0,0.659,0,1.793,0,2.275c0,1.431,0.804,2.505,2.254,3.24c0.495,0.251,0.887,0.669,0.887,1.745
	c0,0.475,0.177,0.584,0.462,0.584h0.342c0.315,0,0.486,0.118,0.486,0.632c0,0.283,0,1.038,0,1.038v18.718l1.365,1.398h0.626
	l0.434-0.445L11.987,3.808L11.987,3.808z"/>
<path fill="none" stroke="#034672" stroke-width="1.0063" stroke-miterlimit="10" d="M16.967,6.296
	c-0.529-0.299-2.15-1.314-2.555-1.542c-0.406-0.228-1.37-0.946-2.425-0.946c-1.055,0-2.02,0.718-2.425,0.946
	C9.157,4.982,7.535,5.998,7.006,6.296c-0.405,0.229-1.874,1.025-1.874,3.19c0,0.659,0,1.793,0,2.275c0,1.431,0.804,2.505,2.254,3.24
	c0.495,0.251,0.887,0.669,0.887,1.745c0,0.475,0.177,0.584,0.462,0.584h0.342c0.315,0,0.486,0.118,0.486,0.632
	c0,0.283,0,1.038,0,1.038v18.718l1.365,1.398h0.626l2.859-2.929V19c0,0,0-0.755,0-1.038c0-0.514,0.171-0.632,0.485-0.632h0.342
	c0.285,0,0.462-0.109,0.462-0.584c0-1.076,0.392-1.494,0.886-1.745c1.451-0.736,2.254-1.81,2.254-3.24c0-0.481,0-1.616,0-2.275
	C18.841,7.321,17.372,6.525,16.967,6.296z"/>
<path fill="#E9F6FE" stroke="#034672" stroke-width="1.0063" stroke-miterlimit="10" d="M19.443,19"/>
<g>
	
		<linearGradient id="SVGID_4_" gradientUnits="userSpaceOnUse" x1="-216.7974" y1="952.2349" x2="-216.7974" y2="977.84" gradientTransform="matrix(1 0 0 1 280 -935.5)">
		<stop  offset="0" style="stop-color:#FFFFFE"/>
		<stop  offset="0.4815" style="stop-color:#F2F1F1"/>
		<stop  offset="1" style="stop-color:#E9E7E8"/>
	</linearGradient>
	<path fill="url(#SVGID_4_)" d="M66.236,26.503H60.4c0.152,1.182,0.508,1.974,1.065,2.377c0.557,0.406,1.481,0.606,2.771,0.606
		c1.727,0,3.739-0.12,6.033-0.36l0.458,3.016c-1.683,0.809-4.033,1.213-7.049,1.213c-3.038,0-5.202-0.656-6.491-1.967
		c-1.29-1.312-1.935-3.475-1.935-6.492c0-3.169,0.628-5.387,1.885-6.656c1.257-1.268,3.372-1.902,6.344-1.902
		c2.689,0,4.634,0.465,5.836,1.394c1.202,0.93,1.814,2.345,1.836,4.246c0,1.508-0.388,2.639-1.164,3.395
		C69.215,26.126,67.963,26.503,66.236,26.503z M60.302,23.585h4.59c0.59,0,0.989-0.142,1.196-0.426
		c0.208-0.283,0.312-0.701,0.312-1.248c0-0.765-0.197-1.295-0.59-1.59s-1.115-0.443-2.164-0.443c-1.246,0-2.099,0.246-2.558,0.738
		C60.63,21.11,60.368,22.099,60.302,23.585z"/>
	
		<linearGradient id="SVGID_5_" gradientUnits="userSpaceOnUse" x1="-199.8774" y1="952.2349" x2="-199.8774" y2="977.8398" gradientTransform="matrix(1 0 0 1 280 -935.5)">
		<stop  offset="0" style="stop-color:#FFFFFE"/>
		<stop  offset="0.4815" style="stop-color:#F2F1F1"/>
		<stop  offset="1" style="stop-color:#E9E7E8"/>
	</linearGradient>
	<path fill="url(#SVGID_5_)" d="M89.089,16.799l-5.737,16.394c-0.307,0.874-0.684,1.682-1.131,2.426
		c-0.449,0.743-1.021,1.457-1.722,2.147c-0.7,0.688-1.568,1.196-2.606,1.524c-1.039,0.328-2.191,0.414-3.459,0.262l-0.393-2.854
		c1.311-0.35,2.338-0.805,3.082-1.359c0.743-0.557,1.322-1.309,1.737-2.248l0.066-0.131h-0.918c-0.809,0-1.333-0.393-1.574-1.182
		l-5.278-14.982h5.18l3.017,10.458c0.197,0.766,0.361,1.574,0.492,2.426h0.426c0.065-0.262,0.174-0.672,0.328-1.229
		c0.153-0.556,0.262-0.955,0.328-1.197l2.984-10.458L89.089,16.799L89.089,16.799z"/>
	
		<linearGradient id="SVGID_6_" gradientUnits="userSpaceOnUse" x1="-184.2358" y1="952.2349" x2="-184.2358" y2="977.84" gradientTransform="matrix(1 0 0 1 280 -935.5)">
		<stop  offset="0" style="stop-color:#FFFFFE"/>
		<stop  offset="0.4815" style="stop-color:#F2F1F1"/>
		<stop  offset="1" style="stop-color:#E9E7E8"/>
	</linearGradient>
	<path fill="url(#SVGID_6_)" d="M102.518,29.126l0.428,3.148c-1.663,0.721-3.75,1.082-6.264,1.082c-2.972,0-5.063-0.641-6.279-1.918
		c-1.213-1.277-1.818-3.471-1.818-6.572c0-3.127,0.611-5.329,1.834-6.607c1.227-1.278,3.333-1.918,6.328-1.918
		c2.447,0,4.438,0.339,5.967,1.017l-0.523,3.016c-2.361-0.043-3.902-0.066-4.623-0.066c-1.486,0-2.508,0.317-3.066,0.952
		c-0.557,0.634-0.836,1.834-0.836,3.605c0,1.771,0.279,2.973,0.836,3.606s1.58,0.95,3.066,0.95
		C99.467,29.421,101.117,29.324,102.518,29.126z"/>
	
		<linearGradient id="SVGID_7_" gradientUnits="userSpaceOnUse" x1="-158.7007" y1="952.2349" x2="-158.7007" y2="977.8403" gradientTransform="matrix(1 0 0 1 280 -935.5)">
		<stop  offset="0" style="stop-color:#FFFFFE"/>
		<stop  offset="0.4815" style="stop-color:#F2F1F1"/>
		<stop  offset="1" style="stop-color:#E9E7E8"/>
	</linearGradient>
	<path fill="url(#SVGID_7_)" d="M121.314,16.34c3.018,0,5.153,0.651,6.412,1.951c1.256,1.301,1.885,3.503,1.885,6.607
		s-0.629,5.295-1.885,6.573c-1.259,1.278-3.395,1.918-6.412,1.918c-3.037,0-5.187-0.64-6.441-1.918
		c-1.257-1.278-1.885-3.47-1.885-6.573c0-3.125,0.628-5.333,1.885-6.623C116.129,16.985,118.277,16.34,121.314,16.34z
		 M121.314,19.979c-1.289,0-2.152,0.327-2.588,0.983c-0.438,0.656-0.658,1.967-0.658,3.935c0,1.923,0.219,3.213,0.658,3.869
		c0.436,0.655,1.299,0.983,2.588,0.983c1.248,0,2.094-0.328,2.543-0.983c0.447-0.656,0.672-1.946,0.672-3.869
		c0-1.944-0.219-3.251-0.656-3.918S122.583,19.979,121.314,19.979z"/>
	
		<linearGradient id="SVGID_8_" gradientUnits="userSpaceOnUse" x1="-141.6396" y1="952.2349" x2="-141.6396" y2="977.84" gradientTransform="matrix(1 0 0 1 280 -935.5)">
		<stop  offset="0" style="stop-color:#FFFFFE"/>
		<stop  offset="0.4815" style="stop-color:#F2F1F1"/>
		<stop  offset="1" style="stop-color:#E9E7E8"/>
	</linearGradient>
	<path fill="url(#SVGID_8_)" d="M131.82,20.406l-0.457-3.279c2.906-0.525,5.715-0.787,8.425-0.787c2.187,0,3.792,0.443,4.819,1.329
		c1.029,0.885,1.541,2.421,1.541,4.606v10.688h-3.836l-0.492-2.459c-1.618,1.901-3.606,2.854-5.965,2.854
		c-1.553,0-2.82-0.41-3.805-1.229c-0.984-0.82-1.478-1.961-1.478-3.426v-1.64c0-1.29,0.438-2.296,1.312-3.017
		c0.874-0.723,2.086-1.082,3.639-1.082h5.771v-0.721c-0.022-0.83-0.213-1.389-0.575-1.673c-0.359-0.283-1.055-0.426-2.082-0.426
		C136.848,20.143,134.575,20.231,131.82,20.406z M135.361,27.421v0.623c0,1.115,0.635,1.67,1.902,1.67
		c1.312,0,2.656-0.523,4.033-1.573v-2.263h-4.359C135.887,25.903,135.361,26.417,135.361,27.421z"/>
	
		<linearGradient id="SVGID_9_" gradientUnits="userSpaceOnUse" x1="-231.6772" y1="952.2349" x2="-231.6772" y2="977.837" gradientTransform="matrix(1 0 0 1 280 -935.5)">
		<stop  offset="0" style="stop-color:#FFFFFE"/>
		<stop  offset="0.4815" style="stop-color:#F2F1F1"/>
		<stop  offset="1" style="stop-color:#E9E7E8"/>
	</linearGradient>
	<path fill="url(#SVGID_9_)" d="M51.634,25.75c-0.459-0.787-0.962-1.365-1.508-1.737v-0.065c0.656-0.438,1.158-0.951,1.508-1.541
		l4.197-5.608h-5.443l-4,5.64H44.88c0.152-0.896,0.229-1.88,0.229-2.951v-9.475h-1.505l-3.347,4.771v18.179h4.853V27.88
		c0-0.635-0.077-1.442-0.229-2.426h1.541l4.524,7.508h5.442L51.634,25.75z"/>
	
		<linearGradient id="SVGID_10_" gradientUnits="userSpaceOnUse" x1="-171.6099" y1="952.2349" x2="-171.6099" y2="977.8392" gradientTransform="matrix(1 0 0 1 280 -935.5)">
		<stop  offset="0" style="stop-color:#FFFFFE"/>
		<stop  offset="0.4815" style="stop-color:#F2F1F1"/>
		<stop  offset="1" style="stop-color:#E9E7E8"/>
	</linearGradient>
	<path fill="url(#SVGID_10_)" d="M112.094,29.324h-1.312c-1.226,0-1.834-0.546-1.834-1.639V10.012h-1.517l-3.303,4.709v14.175
		c0,1.421,0.415,2.52,1.246,3.295s1.968,1.164,3.41,1.164c1.749,0,3.037-0.219,3.867-0.656L112.094,29.324z"/>
	
		<linearGradient id="SVGID_11_" gradientUnits="userSpaceOnUse" x1="-123.9146" y1="952.2349" x2="-123.9146" y2="977.837" gradientTransform="matrix(1 0 0 1 280 -935.5)">
		<stop  offset="0" style="stop-color:#FFFFFE"/>
		<stop  offset="0.4815" style="stop-color:#F2F1F1"/>
		<stop  offset="1" style="stop-color:#E9E7E8"/>
	</linearGradient>
	<path fill="url(#SVGID_11_)" d="M159.395,25.75c-0.457-0.787-0.959-1.365-1.508-1.737v-0.065c0.657-0.438,1.16-0.951,1.508-1.541
		l4.198-5.608h-5.442l-4,5.64h-1.508c0.152-0.896,0.229-1.88,0.229-2.951v-9.475h-1.504l-3.347,4.772v18.178h4.853V27.88
		c0-0.633-0.078-1.442-0.229-2.426h1.541l4.524,7.508h5.44L159.395,25.75z"/>
</g>
<linearGradient id="SVGID_12_" gradientUnits="userSpaceOnUse" x1="-268.0127" y1="943.3462" x2="-268.0127" y2="948.4634" gradientTransform="matrix(1 0 0 1 280 -935.5)">
	<stop  offset="0" style="stop-color:#00639A"/>
	<stop  offset="0.2355" style="stop-color:#00578A"/>
	<stop  offset="0.507" style="stop-color:#004D7B"/>
	<stop  offset="0.7167" style="stop-color:#004773"/>
	<stop  offset="1" style="stop-color:#00446E"/>
</linearGradient>
<polygon fill="url(#SVGID_12_)" points="11.988,8.8 7.433,7.781 6.93,9.663 11.988,12.208 17.045,9.663 16.542,7.781 "/>
<polyline opacity="0.2" enable-background="new    " points="11.988,12.208 17.045,9.663 16.542,7.781 11.988,8.8 "/>
<path fill="#034672" d="M9.513,18.602c1.708,0.635,3.352,0.78,4.947,0.199l-0.142-1.118c-1.333,0.413-3.182,0.374-4.789,0.038
	L9.513,18.602z"/>
<path fill="#034672" d="M11.85,18.424c-0.203,1.387,0.954,2.369,0.954,3.833C14.741,20.077,12.264,19.341,11.85,18.424z"/>
<path fill="#034672" d="M11.827,18.518c-0.06,1.614-0.202,2.81-0.876,3.646C9.732,19.781,11.296,18.984,11.827,18.518z"/>
<circle fill="#034672" cx="11.841" cy="18.507" r="0.802"/>
<linearGradient id="SVGID_13_" gradientUnits="userSpaceOnUse" x1="-262.5933" y1="969.396" x2="-262.5933" y2="969.396" gradientTransform="matrix(1 0 0 1 280 -935.5)">
	<stop  offset="0" style="stop-color:#F6F6F6"/>
	<stop  offset="0.5386" style="stop-color:#E4E4E4"/>
	<stop  offset="1" style="stop-color:#DADADA"/>
</linearGradient>
<path fill="url(#SVGID_13_)" d="M17.407,33.896"/>
</svg>
