<?xml version="1.0" encoding="utf-8"?>
<!-- Generator: Adobe Illustrator 16.0.0, SVG Export Plug-In . SVG Version: 6.00 Build 0)  -->
<!DOCTYPE svg PUBLIC "-//W3C//DTD SVG 1.1//EN" "http://www.w3.org/Graphics/SVG/1.1/DTD/svg11.dtd">
<svg version="1.1" id="Layer_1" xmlns="http://www.w3.org/2000/svg" xmlns:xlink="http://www.w3.org/1999/xlink" x="0px" y="0px"
	 width="431.217px" height="183.782px" viewBox="0 0 431.217 183.782" enable-background="new 0 0 431.217 183.782"
	 xml:space="preserve">
<rect fill="#04578B" width="431.217" height="183.782"/>
<defs>
	<filter id="Adobe_OpacityMaskFilter" filterUnits="userSpaceOnUse" x="0" y="0" width="165.717" height="183.782">
		<feColorMatrix  type="matrix" values="1 0 0 0 0  0 1 0 0 0  0 0 1 0 0  0 0 0 1 0"/>
	</filter>
</defs>
<mask maskUnits="userSpaceOnUse" x="0" y="0" width="165.717" height="183.782" id="SVGID_1_">
	<g filter="url(#Adobe_OpacityMaskFilter)">
		
			<radialGradient id="SVGID_2_" cx="228.8584" cy="-63.1089" r="82.3594" gradientTransform="matrix(1 0 0 -1 -146 28.7822)" gradientUnits="userSpaceOnUse">
			<stop  offset="0" style="stop-color:#FFFFFF"/>
			<stop  offset="0.0433" style="stop-color:#ECECEC"/>
			<stop  offset="0.1971" style="stop-color:#AFAFAF"/>
			<stop  offset="0.3497" style="stop-color:#797979"/>
			<stop  offset="0.4973" style="stop-color:#4E4E4E"/>
			<stop  offset="0.639" style="stop-color:#2C2C2C"/>
			<stop  offset="0.7732" style="stop-color:#141414"/>
			<stop  offset="0.8968" style="stop-color:#050505"/>
			<stop  offset="1" style="stop-color:#000000"/>
		</radialGradient>
		<rect fill="url(#SVGID_2_)" width="165.717" height="183.782"/>
	</g>
</mask>
<rect mask="url(#SVGID_1_)" fill="#97C8DB" width="165.717" height="183.782"/>
<g>
	<g>
		<g>
			
				<linearGradient id="SVGID_3_" gradientUnits="userSpaceOnUse" x1="321.4775" y1="-49.4629" x2="321.4775" y2="-100.345" gradientTransform="matrix(1 0 0 -1 -146 28.7822)">
				<stop  offset="0" style="stop-color:#FFFFFF"/>
				<stop  offset="0.5103" style="stop-color:#F2F1F2"/>
				<stop  offset="1" style="stop-color:#E9E8E9"/>
			</linearGradient>
			<path fill="url(#SVGID_3_)" d="M181.507,97.659h-11.599c0.303,2.346,1.01,3.92,2.117,4.723c1.107,0.806,2.943,1.207,5.506,1.207
				c3.432,0,7.43-0.238,11.99-0.717l0.912,5.994c-3.346,1.606-8.015,2.41-14.01,2.41c-6.038,0-10.339-1.304-12.901-3.908
				c-2.563-2.607-3.845-6.908-3.845-12.902c0-6.299,1.248-10.708,3.746-13.229c2.498-2.519,6.701-3.779,12.609-3.779
				c5.344,0,9.209,0.923,11.599,2.769c2.389,1.848,3.605,4.66,3.649,8.439c0,2.997-0.771,5.245-2.313,6.745
				C187.426,96.909,184.938,97.659,181.507,97.659z M169.713,91.858h9.122c1.173,0,1.966-0.282,2.378-0.847
				c0.413-0.564,0.619-1.391,0.619-2.477c0-1.52-0.391-2.574-1.172-3.16c-0.782-0.586-2.216-0.88-4.301-0.88
				c-2.477,0-4.171,0.489-5.083,1.466C170.364,86.939,169.843,88.904,169.713,91.858z"/>
			
				<linearGradient id="SVGID_4_" gradientUnits="userSpaceOnUse" x1="355.1025" y1="-49.4619" x2="355.1025" y2="-100.3444" gradientTransform="matrix(1 0 0 -1 -146 28.7822)">
				<stop  offset="0" style="stop-color:#FFFFFF"/>
				<stop  offset="0.5103" style="stop-color:#F2F1F2"/>
				<stop  offset="1" style="stop-color:#E9E8E9"/>
			</linearGradient>
			<path fill="url(#SVGID_4_)" d="M226.924,78.37l-11.402,32.582c-0.609,1.735-1.359,3.344-2.248,4.82
				c-0.892,1.477-2.031,2.898-3.422,4.27c-1.391,1.367-3.117,2.377-5.18,3.028c-2.064,0.652-4.355,0.825-6.875,0.521l-0.781-5.668
				c2.605-0.695,4.647-1.598,6.125-2.705c1.477-1.106,2.627-2.596,3.453-4.463l0.131-0.262H204.9c-1.607,0-2.649-0.781-3.128-2.346
				l-10.49-29.778h10.295l5.995,20.786c0.391,1.521,0.717,3.129,0.978,4.822h0.847c0.13-0.521,0.347-1.336,0.651-2.443
				c0.304-1.107,0.521-1.9,0.652-2.379l5.93-20.786L226.924,78.37L226.924,78.37z"/>
			
				<linearGradient id="SVGID_5_" gradientUnits="userSpaceOnUse" x1="386.1865" y1="-49.4619" x2="386.1865" y2="-100.3455" gradientTransform="matrix(1 0 0 -1 -146 28.7822)">
				<stop  offset="0" style="stop-color:#FFFFFF"/>
				<stop  offset="0.5103" style="stop-color:#F2F1F2"/>
				<stop  offset="1" style="stop-color:#E9E8E9"/>
			</linearGradient>
			<path fill="url(#SVGID_5_)" d="M253.61,102.872l0.848,6.256c-3.303,1.433-7.451,2.148-12.445,2.148
				c-5.908,0-10.068-1.271-12.479-3.812c-2.412-2.541-3.616-6.896-3.616-13.063c0-6.213,1.216-10.59,3.648-13.131
				c2.434-2.541,6.625-3.812,12.576-3.812c4.864,0,8.817,0.674,11.858,2.021l-1.042,5.994c-4.691-0.086-7.755-0.131-9.188-0.131
				c-2.955,0-4.984,0.631-6.092,1.891c-1.109,1.26-1.662,3.648-1.662,7.168c0,3.519,0.555,5.908,1.662,7.167
				c1.106,1.262,3.137,1.891,6.092,1.891C247.55,103.458,250.83,103.26,253.61,102.872z"/>
			
				<linearGradient id="SVGID_6_" gradientUnits="userSpaceOnUse" x1="436.9375" y1="-49.4629" x2="436.9375" y2="-100.3452" gradientTransform="matrix(1 0 0 -1 -146 28.7822)">
				<stop  offset="0" style="stop-color:#FFFFFF"/>
				<stop  offset="0.5103" style="stop-color:#F2F1F2"/>
				<stop  offset="1" style="stop-color:#E9E8E9"/>
			</linearGradient>
			<path fill="url(#SVGID_6_)" d="M290.972,77.458c5.995,0,10.24,1.293,12.739,3.877c2.497,2.585,3.746,6.962,3.746,13.13
				c0,6.168-1.249,10.522-3.746,13.063c-2.499,2.542-6.744,3.812-12.739,3.812c-6.039,0-10.308-1.271-12.805-3.812
				c-2.499-2.541-3.747-6.896-3.747-13.063c0-6.211,1.248-10.599,3.747-13.163C280.664,78.74,284.933,77.458,290.972,77.458z
				 M290.972,84.691c-2.562,0-4.279,0.65-5.146,1.954c-0.87,1.304-1.305,3.909-1.305,7.818c0,3.824,0.435,6.387,1.305,7.689
				c0.867,1.303,2.584,1.955,5.146,1.955c2.477,0,4.159-0.652,5.051-1.955c0.89-1.304,1.336-3.865,1.336-7.689
				c0-3.864-0.437-6.46-1.305-7.787C295.185,85.353,293.49,84.691,290.972,84.691z"/>
			
				<linearGradient id="SVGID_7_" gradientUnits="userSpaceOnUse" x1="470.8486" y1="-49.4629" x2="470.8486" y2="-100.345" gradientTransform="matrix(1 0 0 -1 -146 28.7822)">
				<stop  offset="0" style="stop-color:#FFFFFF"/>
				<stop  offset="0.5103" style="stop-color:#F2F1F2"/>
				<stop  offset="1" style="stop-color:#E9E8E9"/>
			</linearGradient>
			<path fill="url(#SVGID_7_)" d="M311.851,85.538l-0.912-6.517c5.776-1.043,11.358-1.563,16.746-1.563
				c4.344,0,7.537,0.88,9.578,2.64c2.043,1.759,3.063,4.811,3.063,9.154v21.243h-7.625l-0.978-4.888
				c-3.217,3.778-7.168,5.669-11.858,5.669c-3.087,0-5.605-0.814-7.56-2.443c-1.955-1.629-2.934-3.897-2.934-6.81v-3.258
				c0-2.562,0.869-4.562,2.607-5.994c1.735-1.434,4.147-2.15,7.231-2.15h11.47v-1.434c-0.046-1.65-0.425-2.759-1.142-3.324
				c-0.717-0.563-2.097-0.847-4.14-0.847C321.84,85.016,317.324,85.191,311.851,85.538z M318.888,99.482v1.238
				c0,2.215,1.26,3.321,3.778,3.321c2.606,0,5.278-1.041,8.017-3.127v-4.496h-8.666C319.931,96.461,318.888,97.484,318.888,99.482z"
				/>
			
				<linearGradient id="SVGID_8_" gradientUnits="userSpaceOnUse" x1="291.9043" y1="-49.4624" x2="291.9043" y2="-100.3454" gradientTransform="matrix(1 0 0 -1 -146 28.7822)">
				<stop  offset="0" style="stop-color:#FFFFFF"/>
				<stop  offset="0.5103" style="stop-color:#F2F1F2"/>
				<stop  offset="1" style="stop-color:#E9E8E9"/>
			</linearGradient>
			<path fill="url(#SVGID_8_)" d="M152.485,96.159c-0.913-1.562-1.912-2.714-2.997-3.453v-0.131c1.303-0.868,2.302-1.89,2.997-3.062
				l8.341-11.143H150.01l-7.95,11.208h-2.997c0.303-1.781,0.455-3.736,0.455-5.865V64.881h-2.992l-6.651,9.482v36.13h9.644v-10.1
				c0-1.26-0.152-2.867-0.455-4.822h3.062l8.992,14.922h10.816L152.485,96.159z"/>
			
				<linearGradient id="SVGID_9_" gradientUnits="userSpaceOnUse" x1="411.2822" y1="-49.4624" x2="411.2822" y2="-100.3453" gradientTransform="matrix(1 0 0 -1 -146 28.7822)">
				<stop  offset="0" style="stop-color:#FFFFFF"/>
				<stop  offset="0.5103" style="stop-color:#F2F1F2"/>
				<stop  offset="1" style="stop-color:#E9E8E9"/>
			</linearGradient>
			<path fill="url(#SVGID_9_)" d="M272.646,103.26h-2.606c-2.435,0-3.647-1.086-3.647-3.258V64.881h-3.015l-6.565,9.36v28.171
				c0,2.824,0.826,5.008,2.477,6.549c1.65,1.543,3.91,2.313,6.777,2.313c3.475,0,6.037-0.435,7.688-1.304L272.646,103.26z"/>
			
				<linearGradient id="SVGID_10_" gradientUnits="userSpaceOnUse" x1="506.0684" y1="-49.4624" x2="506.0684" y2="-100.3454" gradientTransform="matrix(1 0 0 -1 -146 28.7822)">
				<stop  offset="0" style="stop-color:#FFFFFF"/>
				<stop  offset="0.5103" style="stop-color:#F2F1F2"/>
				<stop  offset="1" style="stop-color:#E9E8E9"/>
			</linearGradient>
			<path fill="url(#SVGID_10_)" d="M366.649,96.159c-0.912-1.562-1.912-2.714-2.998-3.453v-0.131
				c1.304-0.868,2.304-1.89,2.998-3.062l8.341-11.143h-10.816l-7.948,11.208h-2.998c0.303-1.781,0.457-3.736,0.457-5.865V64.881
				h-2.992l-6.652,9.484v36.127h9.645v-10.1c0-1.26-0.154-2.867-0.457-4.822h3.062l8.992,14.922h10.816L366.649,96.159z"/>
		</g>
	</g>
	<g>
		
			<linearGradient id="SVGID_11_" gradientUnits="userSpaceOnUse" x1="264.1172" y1="-1546.0913" x2="326.7803" y2="-1546.0913" gradientTransform="matrix(1 0 0 -1 -206 -1450.7178)">
			<stop  offset="0" style="stop-color:#FEFEFE"/>
			<stop  offset="0.1452" style="stop-color:#F4F5F4"/>
			<stop  offset="0.6844" style="stop-color:#DADCDB"/>
			<stop  offset="1" style="stop-color:#CFD1D1"/>
		</linearGradient>
		<path fill="url(#SVGID_11_)" d="M120.78,83.181c-7.205,5-14.688,3.683-23.183-3.357c-4.897-4.059-11.15-2.771-15.411-1.454
			c-2.647,0.819-6.324,0.744-9.518,0.075c-13.979-2.93-10.93,6.038-8.339,14.015c4.757,14.641-3.236,18.031-5.983,12.815
			c-1.766,6.615,7.138,8.572,10.937,7.701c6.007-1.377,14.052-2.154,19.044-0.627c9.544,2.916,13.125,0.512,11.542-2.57
			c-0.521-1.012-0.229-2.446,0.583-3.127c2.834-2.373,5.295-0.373,8.007-1.946c2.107-1.226,2.077-3.927-1.19-5.463
			c-1.73-0.812-1.648-2.882,0.185-3.841c3.729-1.95,8.75-1.034,10-5.137C117.899,88.794,119.151,85.105,120.78,83.181z"/>
		
			<linearGradient id="SVGID_12_" gradientUnits="userSpaceOnUse" x1="684.1572" y1="-833.1753" x2="675.8836" y2="-833.1753" gradientTransform="matrix(1 0 0 -1 -594 -737.2178)">
			<stop  offset="0" style="stop-color:#E6E6E6"/>
			<stop  offset="1" style="stop-color:#B3B4B4"/>
		</linearGradient>
		<path fill="url(#SVGID_12_)" d="M84.828,81.388c0,4.983,0.74,22.799,4.537,30.403l-8.733-0.192V80.126L84.828,81.388z"/>
		
			<linearGradient id="SVGID_13_" gradientUnits="userSpaceOnUse" x1="290.9736" y1="-1552.6763" x2="297.9739" y2="-1533.1755" gradientTransform="matrix(1 0 0 -1 -206 -1450.7178)">
			<stop  offset="0" style="stop-color:#F6F6F6"/>
			<stop  offset="1" style="stop-color:#B3B4B4"/>
		</linearGradient>
		<path fill="url(#SVGID_13_)" d="M65.2,93.14c-2.762-7.459-6.509-16.625,7.47-13.695c3.192,0.669,6.869,0.744,9.518-0.075
			c4.261-1.317,9.973-2.444,14.515,1.521c8.875,7.748,16.875,8.293,24.079,3.293c-1.63,1.924-3.105,5.562-3.329,7.082
			c-0.189,1.293-1.135,1.873-2.383,2.379c-18.519,7.52-15.394-5.307-21.352-9.479c-3.158-2.214-7.733-2.09-11.247-0.812
			c-3.171,1.152-6.438,0.863-9.833-0.396C66.971,80.849,63.163,81.96,65.2,93.14z"/>
		
			<line fill="none" stroke="#FFFFFF" stroke-width="3.5" stroke-miterlimit="10" x1="82.471" y1="111.904" x2="82.471" y2="80.681"/>
		<g opacity="0.75">
			<path fill="#FFFFFF" d="M89.527,79.08c2.72,0,4.941,0.747,6.795,2.284c5.541,4.592,10.631,6.823,15.558,6.823
				c1.473,0,2.934-0.209,4.373-0.615c-0.317,0.854-0.56,1.602-0.714,2.111c-0.433,1.414-1.599,1.811-4.357,2.436
				c-1.463,0.333-3.121,0.709-4.656,1.514c-1.577,0.824-2.536,2.322-2.503,3.908c0.032,1.51,0.928,2.821,2.396,3.514
				c1.152,0.541,1.478,1.135,1.486,1.373c0.013,0.26-0.343,0.486-0.449,0.551c-0.598,0.348-1.182,0.412-2.052,0.412
				c-0.159,0-0.32-0.002-0.481-0.004c-0.179-0.002-0.356-0.004-0.535-0.004c-1.632,0-3.393,0.211-5.219,1.74
				c-1.545,1.293-2.02,3.742-1.078,5.571c0.137,0.269,0.141,0.406,0.148,0.408c-0.093,0.127-0.771,0.563-2.586,0.563
				c-1.775,0-4.106-0.426-6.74-1.229c-2.006-0.613-4.513-0.924-7.451-0.924c-3.827,0-8.429,0.553-12.624,1.516
				c-0.412,0.094-0.935,0.145-1.509,0.145c-1.875,0-4.188-0.543-5.674-1.596c1.675-0.01,3.265-0.885,4.366-2.402
				c1.341-1.846,3.15-6.288,0.213-15.329l-0.081-0.25c-1.277-3.937-2.87-8.832-1.541-10.664c0.509-0.698,1.637-1.053,3.354-1.053
				c1.188,0,2.632,0.178,4.295,0.525c1.76,0.369,3.618,0.562,5.375,0.562c1.944,0,3.676-0.23,5.144-0.686
				C84.444,79.765,86.957,79.08,89.527,79.08 M89.527,77.08c-2.663,0-5.242,0.641-7.34,1.29c-1.324,0.41-2.904,0.597-4.553,0.597
				c-1.649,0-3.367-0.188-4.965-0.521c-1.854-0.389-3.409-0.568-4.704-0.568c-8.475,0-5.881,7.664-3.635,14.582
				c3.376,10.396,0.326,15.117-2.708,15.117c-1.241,0-2.479-0.789-3.276-2.301c-1.506,5.643,4.751,7.895,8.98,7.895
				c0.729,0,1.396-0.065,1.955-0.192c3.685-0.845,8.135-1.463,12.178-1.463c2.549,0,4.936,0.245,6.865,0.836
				c3.037,0.933,5.473,1.317,7.326,1.317c3.976,0,5.295-1.785,4.217-3.889c-0.521-1.012-0.229-2.445,0.582-3.125
				c1.375-1.152,2.663-1.275,3.936-1.275c0.34,0,0.679,0.011,1.018,0.011c1.005,0,2.012-0.076,3.056-0.683
				c2.107-1.227,2.077-3.928-1.19-5.463c-1.73-0.813-1.648-2.881,0.185-3.84c3.729-1.953,8.75-1.037,10-5.139
				c0.447-1.473,1.699-5.162,3.329-7.084c-2.905,2.018-5.856,3.006-8.901,3.006c-4.504,0-9.211-2.164-14.28-6.364
				C95.111,77.763,92.275,77.08,89.527,77.08L89.527,77.08z M120.78,83.181h0.006H120.78z"/>
		</g>
		<path fill="none" stroke="#034672" stroke-width="2" stroke-linecap="round" stroke-linejoin="round" stroke-miterlimit="10" d="
			M120.78,83.181c-7.205,5-14.688,3.683-23.183-3.357c-4.897-4.059-11.15-2.771-15.411-1.454c-2.647,0.819-6.324,0.744-9.518,0.075
			c-13.979-2.93-10.93,6.038-8.339,14.015c4.757,14.641-3.236,18.031-5.983,12.815c-1.766,6.615,7.138,8.572,10.937,7.701
			c6.007-1.377,14.052-2.154,19.044-0.627c9.544,2.916,13.125,0.512,11.542-2.57c-0.521-1.012-0.229-2.446,0.583-3.127
			c2.834-2.373,5.295-0.373,8.007-1.946c2.107-1.226,2.077-3.927-1.19-5.463c-1.73-0.812-1.648-2.882,0.185-3.841
			c3.729-1.95,8.75-1.034,10-5.137C117.899,88.794,119.151,85.105,120.78,83.181z"/>
		<path fill="#034672" d="M65.2,92.14c-2.762-7.459-6.509-16.625,7.47-13.695c3.192,0.669,6.869,0.744,9.518-0.075
			c4.261-1.317,9.973-2.444,14.515,1.521c8.875,7.748,16.875,8.293,24.079,3.293c-1.63,1.924-3.105,5.562-3.329,7.082
			c-0.189,1.293-1.116,1.916-2.383,2.379c-13.119,4.795-14.124-5.484-20.082-9.664c-3.157-2.215-9.003-1.908-12.517-0.631
			c-3.171,1.153-6.438,0.865-9.833-0.396C66.971,79.849,63.163,80.96,65.2,92.14z"/>
		
			<linearGradient id="SVGID_14_" gradientUnits="userSpaceOnUse" x1="273.9326" y1="-1540.3081" x2="304.77" y2="-1532.6405" gradientTransform="matrix(1 0 0 -1 -206 -1450.7178)">
			<stop  offset="0" style="stop-color:#B8D7E8"/>
			<stop  offset="0.3324" style="stop-color:#CCE3F1"/>
			<stop  offset="0.6937" style="stop-color:#DAEBF8"/>
			<stop  offset="1" style="stop-color:#E0EEF9"/>
		</linearGradient>
		<path fill="url(#SVGID_14_)" d="M87.452,57.497c-1.053-0.594-4.274-2.612-5.079-3.063c-0.807-0.453-2.724-1.881-4.819-1.881
			v69.289l4.819-4.936V82.746c0,0,0-1.5,0-2.062c0-1.021,0.34-1.256,0.965-1.256h0.68c0.566,0,0.918-0.218,0.918-1.16
			c0-2.14,0.778-2.969,1.762-3.469c2.883-1.462,4.479-3.598,4.479-6.439c0-0.956,0-3.213,0-4.521
			C91.176,59.534,88.257,57.951,87.452,57.497z"/>
		
			<linearGradient id="SVGID_15_" gradientUnits="userSpaceOnUse" x1="276.8936" y1="-1516.1357" x2="285.5189" y2="-1558.3877" gradientTransform="matrix(1 0 0 -1 -206 -1450.7178)">
			<stop  offset="0" style="stop-color:#F1F9FE"/>
			<stop  offset="0.4254" style="stop-color:#E9F5FD"/>
			<stop  offset="1" style="stop-color:#E4F3FC"/>
		</linearGradient>
		<path fill="url(#SVGID_15_)" d="M77.554,52.552c-2.097,0-4.014,1.428-4.819,1.881c-0.805,0.451-4.026,2.471-5.079,3.063
			c-0.805,0.454-3.724,2.037-3.724,6.34c0,1.31,0,3.564,0,4.521c0,2.843,1.597,4.979,4.479,6.44
			c0.982,0.498,1.762,1.328,1.762,3.467c0,0.943,0.352,1.162,0.918,1.162h0.68c0.625,0,0.965,0.234,0.965,1.256
			c0,0.562,0,2.062,0,2.062v37.2l2.713,2.779h1.244l0.862-0.883L77.554,52.552L77.554,52.552z"/>
		<path fill="none" stroke="#FFFFFF" stroke-width="2" stroke-miterlimit="10" d="M77.264,52.552
			c1.908,0.938,3.431,1.965,4.236,2.418c0.805,0.453,4.026,2.472,5.079,3.064c0.805,0.454,3.724,2.037,3.724,6.34
			c0,1.309,0,2.807,0,3.762c0,2.844-1.597,4.979-4.479,6.44c-0.982,0.499-1.762,1.431-1.762,3.569v1.238"/>
		<path fill="none" stroke="#034672" stroke-width="2" stroke-miterlimit="10" d="M87.452,57.497
			c-1.053-0.594-4.274-2.612-5.079-3.063c-0.807-0.453-2.724-1.881-4.819-1.881c-2.095,0-4.014,1.428-4.819,1.881
			c-0.805,0.451-4.026,2.471-5.079,3.063c-0.805,0.454-3.724,2.037-3.724,6.34c0,1.31,0,3.564,0,4.521
			c0,2.843,1.597,4.979,4.479,6.44c0.982,0.498,1.762,1.328,1.762,3.467c0,0.943,0.352,1.162,0.918,1.162h0.68
			c0.625,0,0.965,0.234,0.965,1.256c0,0.562,0,2.062,0,2.062v37.2l2.713,2.779h1.244l5.683-5.82V82.745c0,0,0-1.5,0-2.062
			c0-1.021,0.34-1.256,0.965-1.256h0.68c0.566,0,0.918-0.219,0.918-1.162c0-2.139,0.778-2.969,1.762-3.467
			c2.883-1.463,4.479-3.599,4.479-6.44c0-0.956,0-3.212,0-4.521C91.176,59.534,88.257,57.951,87.452,57.497z"/>
		<path fill="#E9F6FE" stroke="#034672" stroke-width="2" stroke-miterlimit="10" d="M92.373,82.745"/>
		
			<linearGradient id="SVGID_16_" gradientUnits="userSpaceOnUse" x1="283.5557" y1="-1511.2954" x2="283.5557" y2="-1521.4633" gradientTransform="matrix(1 0 0 -1 -206 -1450.7178)">
			<stop  offset="0" style="stop-color:#01649B"/>
			<stop  offset="0.2355" style="stop-color:#03588B"/>
			<stop  offset="0.507" style="stop-color:#004E7C"/>
			<stop  offset="0.7167" style="stop-color:#004873"/>
			<stop  offset="1" style="stop-color:#00446E"/>
		</linearGradient>
		<polygon fill="url(#SVGID_16_)" points="77.556,62.472 68.504,60.448 67.504,64.187 77.556,69.245 87.607,64.187 86.607,60.448 		
			"/>
		<polyline opacity="0.2" fill="#010202" enable-background="new    " points="77.556,69.245 87.607,64.187 86.607,60.448 
			77.556,62.472 		"/>
		<path fill="#034672" d="M72.638,81.953c3.396,1.262,6.662,1.55,9.833,0.396l-0.283-2.224c-2.647,0.82-6.324,0.744-9.518,0.075
			L72.638,81.953z"/>
		<path fill="#034672" d="M77.282,81.599c-0.402,2.758,1.896,4.707,1.896,7.619C83.027,84.884,78.105,83.421,77.282,81.599z"/>
		<path fill="#034672" d="M77.235,81.787c-0.118,3.207-0.401,5.581-1.74,7.246C73.075,84.296,76.182,82.714,77.235,81.787z"/>
		<circle fill="#034672" cx="77.264" cy="81.765" r="1.594"/>
		
			<linearGradient id="SVGID_17_" gradientUnits="userSpaceOnUse" x1="294.3252" y1="-1563.0669" x2="294.3252" y2="-1563.0669" gradientTransform="matrix(1 0 0 -1 -206 -1450.7178)">
			<stop  offset="0" style="stop-color:#F6F6F6"/>
			<stop  offset="0.5386" style="stop-color:#E4E4E3"/>
			<stop  offset="1" style="stop-color:#DADADA"/>
		</linearGradient>
		<path fill="url(#SVGID_17_)" d="M88.325,112.349"/>
	</g>
</g>
</svg>
