<svg width="20" height="21" viewBox="0 0 20 21" fill="none" xmlns="http://www.w3.org/2000/svg">
<g id="alert-triangle">
<path id="Vector" d="M8.57416 3.71665L1.51583 15.5C1.3703 15.752 1.2933 16.0377 1.29249 16.3288C1.29167 16.6198 1.36707 16.9059 1.51118 17.1588C1.6553 17.4116 1.8631 17.6223 2.11392 17.7699C2.36474 17.9174 2.64983 17.9968 2.94083 18H17.0575C17.3485 17.9968 17.6336 17.9174 17.8844 17.7699C18.1352 17.6223 18.343 17.4116 18.4871 17.1588C18.6313 16.9059 18.7067 16.6198 18.7058 16.3288C18.705 16.0377 18.628 15.752 18.4825 15.5L11.4242 3.71665C11.2756 3.47174 11.0664 3.26925 10.8168 3.12872C10.5672 2.98819 10.2856 2.91437 9.99916 2.91437C9.71272 2.91437 9.43111 2.98819 9.1815 3.12872C8.93189 3.26925 8.72272 3.47174 8.57416 3.71665Z" stroke="#D54308" stroke-width="1.66667" stroke-linecap="round" stroke-linejoin="round"/>
<path id="Vector_2" d="M10 8V11.3333" stroke="#D54308" stroke-width="1.66667" stroke-linecap="round" stroke-linejoin="round"/>
<path id="Vector_3" d="M10 14.6667H10.01" stroke="#D54308" stroke-width="1.66667" stroke-linecap="round" stroke-linejoin="round"/>
</g>
</svg>
