<svg class="svg-icon" style="width: 1em; height: 1em;vertical-align: middle;fill: currentColor;overflow: hidden;" viewBox="0 0 1024 1024" version="1.1" xmlns="http://www.w3.org/2000/svg"><path d="M487.314286 233.508571v556.982858a54.857143 54.857143 0 0 0-6.948572-4.388572l-164.571428-91.428571A108.617143 108.617143 0 0 0 256 676.571429H73.142857V347.428571h182.857143a108.617143 108.617143 0 0 0 59.428571-18.285714l164.571429-91.428571a73.142857 73.142857 0 0 0 6.948571-4.388572m0-73.142857a73.142857 73.142857 0 0 0-42.24 13.714286l-167.314285 93.44A36.571429 36.571429 0 0 1 256 274.285714H73.142857a73.142857 73.142857 0 0 0-73.142857 73.142857v329.142858a73.142857 73.142857 0 0 0 73.142857 73.142857h182.857143a36.571429 36.571429 0 0 1 21.211429 6.765714l167.314285 93.44a73.142857 73.142857 0 0 0 42.24 13.714286 73.142857 73.142857 0 0 0 73.142857-73.142857V233.508571a73.142857 73.142857 0 0 0-73.142857-73.142857zM815.177143 887.771429a36.571429 36.571429 0 0 1-21.76-66.011429 384 384 0 0 0 0-619.52 36.571429 36.571429 0 0 1 43.337143-59.062857 457.142857 457.142857 0 0 1 0 737.645714 36.571429 36.571429 0 0 1-21.577143 6.948572z"  /><path d="M711.497143 736.365714a36.571429 36.571429 0 0 1-26.514286-61.622857 237.714286 237.714286 0 0 0 0-325.485714 36.571429 36.571429 0 0 1 53.211429-50.285714 310.857143 310.857143 0 0 1 0 426.057142 36.571429 36.571429 0 0 1-26.697143 11.337143z"  /></svg>