<svg width="797" height="220" viewBox="0 0 797 220" fill="none" xmlns="http://www.w3.org/2000/svg">
<path d="M248.61 85.7295V21.0795H264.64L265.42 29.4796C267.4 26.2096 269.95 23.7295 273.05 22.0495C276.15 20.3695 279.6 19.5295 283.39 19.5295C288.65 19.5295 293.06 20.6496 296.64 22.8896C300.22 25.1296 302.82 28.5796 304.46 33.2296C306.35 28.8296 309.03 25.4495 312.48 23.0795C315.93 20.7095 319.94 19.5195 324.5 19.5195C332.08 19.5195 337.86 21.9095 341.83 26.6895C345.79 31.4695 347.78 38.8196 347.78 48.7296V85.7096H330.71V52.6095C330.71 48.2095 330.24 44.8095 329.29 42.3995C328.34 39.9895 327.05 38.2395 325.41 37.1595C323.77 36.0795 321.83 35.5396 319.59 35.5396C315.45 35.4596 312.26 36.7895 310.02 39.5495C307.78 42.3095 306.66 46.3996 306.66 51.8296V85.6996H289.59V52.5995C289.59 48.1995 289.14 44.7996 288.23 42.3896C287.32 39.9796 286.03 38.2295 284.35 37.1495C282.67 36.0695 280.71 35.5295 278.47 35.5295C274.33 35.4495 271.17 36.7796 268.97 39.5396C266.77 42.2996 265.67 46.3895 265.67 51.8195V85.6895H248.6L248.61 85.7295Z" fill="white"/>
<path d="M382.29 87.2898C374.53 87.2898 368.52 85.5698 364.25 82.1198C359.98 78.6698 357.85 73.7998 357.85 67.5098C357.85 60.6198 360.15 55.4198 364.77 51.9298C369.38 48.4398 375.87 46.6898 384.23 46.6898H400.65V59.3598H390.18C384.58 59.3598 380.7 60.0298 378.54 61.3598C376.38 62.6998 375.31 64.5698 375.31 66.9798C375.31 68.8798 376.17 70.3598 377.9 71.4398C379.62 72.5198 382.04 73.0598 385.14 73.0598C387.98 73.0598 390.51 72.3898 392.7 71.0598C394.9 69.7298 396.64 67.9998 397.94 65.8898C399.23 63.7798 399.88 61.5998 399.88 59.3598H404.02C404.02 68.1498 402.36 74.9998 399.04 79.9198C395.72 84.8298 390.14 87.2898 382.3 87.2898H382.29ZM400.39 85.7398L399.87 72.6798V53.0298C399.87 49.1498 399.46 45.8298 398.64 43.0698C397.82 40.3098 396.53 38.1798 394.76 36.6698C392.99 35.1598 390.6 34.4098 387.58 34.4098C384.82 34.4098 382.32 35.0098 380.08 36.2198C377.84 37.4298 375.94 39.2798 374.39 41.7798L359.39 36.6098C360.6 33.8498 362.36 31.1598 364.69 28.5298C367.02 25.8998 370.06 23.7498 373.8 22.0698C377.55 20.3898 382.14 19.5498 387.57 19.5498C394.12 19.5498 399.57 20.7998 403.93 23.2998C408.28 25.7998 411.51 29.3098 413.63 33.8398C415.74 38.3698 416.75 43.7298 416.67 49.9398L416.28 85.7498H400.38L400.39 85.7398Z" fill="white"/>
<path d="M455.99 83.9203C450.04 83.9203 444.889 82.6303 440.539 80.0403C436.189 77.4603 432.8 73.8303 430.39 69.1803C427.98 64.5303 426.77 59.0103 426.77 52.6303C426.77 45.9103 427.98 40.0703 430.39 35.1103C432.8 30.1503 436.189 26.3203 440.539 23.6003C444.889 20.8903 450.04 19.5303 455.99 19.5303C461.16 19.5303 465.64 20.8903 469.44 23.6003C473.23 26.3103 476.159 30.1703 478.229 35.1703C480.299 40.1703 481.33 46.1203 481.33 53.0103C481.33 59.2203 480.299 64.6503 478.229 69.3003C476.159 73.9503 473.23 77.5503 469.44 80.1003C465.65 82.6403 461.17 83.9102 455.99 83.9102V83.9203ZM459.349 113.27C454.439 113.27 450.079 112.93 446.289 112.24C442.499 111.55 439.309 110.64 436.719 109.53C434.129 108.41 432.02 107.29 430.39 106.17L437.109 92.4603C438.319 93.1503 439.91 93.9503 441.89 94.8503C443.87 95.7603 446.24 96.5303 449 97.1803C451.76 97.8303 454.95 98.1503 458.57 98.1503C462.19 98.1503 465.06 97.4803 467.69 96.1503C470.32 94.8103 472.39 92.7403 473.9 89.9403C475.41 87.1403 476.159 83.5803 476.159 79.2703V21.0903H493.229V78.7503C493.229 85.9903 491.85 92.2203 489.09 97.4303C486.33 102.64 482.43 106.59 477.39 109.26C472.35 111.93 466.339 113.27 459.349 113.27ZM460.9 69.5703C463.83 69.5703 466.4 68.8203 468.59 67.3103C470.79 65.8003 472.49 63.7303 473.7 61.1003C474.91 58.4703 475.51 55.4803 475.51 52.1103C475.51 48.7403 474.88 45.6503 473.63 43.0603C472.38 40.4703 470.66 38.4503 468.46 36.9803C466.26 35.5203 463.7 34.7803 460.77 34.7803C457.84 34.7803 455.08 35.5103 452.75 36.9803C450.42 38.4503 448.61 40.4703 447.32 43.0603C446.03 45.6503 445.34 48.6603 445.25 52.1103C445.33 55.4703 446.03 58.4703 447.32 61.1003C448.61 63.7303 450.44 65.8003 452.82 67.3103C455.19 68.8203 457.88 69.5703 460.9 69.5703Z" fill="white"/>
<path d="M507.959 85.7303V21.0803H523.989L525.019 32.9803V85.7303H507.949H507.959ZM550.749 52.6303C550.749 48.2303 550.249 44.8303 549.259 42.4203C548.269 40.0103 546.869 38.2603 545.059 37.1803C543.249 36.1003 541.139 35.5603 538.729 35.5603C534.329 35.4803 530.949 36.8103 528.579 39.5703C526.209 42.3303 525.019 46.4203 525.019 51.8503H519.329C519.329 44.9603 520.339 39.1103 522.369 34.3303C524.389 29.5503 527.239 25.8803 530.899 23.3403C534.559 20.8003 538.849 19.5303 543.759 19.5303C548.669 19.5303 553.199 20.5603 556.819 22.6303C560.439 24.7003 563.199 27.9103 565.089 32.2603C566.979 36.6103 567.889 42.2403 567.799 49.1303V52.6203H550.729L550.749 52.6303ZM550.749 85.7303V52.6303H567.819V85.7303H550.749Z" fill="white"/>
<path d="M610.609 87.2898C604.229 87.2898 598.589 85.8498 593.669 82.9598C588.749 80.0698 584.899 76.0898 582.099 70.9998C579.299 65.9198 577.899 60.0498 577.899 53.4198C577.899 46.7898 579.339 40.9198 582.229 35.8398C585.119 30.7598 589.079 26.7698 594.119 23.8798C599.159 20.9898 604.959 19.5498 611.509 19.5498C617.199 19.5498 622.429 21.0398 627.219 24.0098C631.999 26.9798 635.839 31.3398 638.729 37.0698C641.619 42.7998 643.059 49.7598 643.059 57.9498H594.059L595.609 56.3998C595.609 59.5898 596.409 62.3698 597.999 64.7398C599.589 67.1098 601.659 68.9198 604.209 70.1698C606.749 71.4198 609.489 72.0498 612.419 72.0498C615.949 72.0498 618.839 71.2998 621.079 69.7898C623.319 68.2798 625.039 66.3198 626.249 63.9098L641.509 69.8598C639.699 73.4798 637.349 76.6098 634.459 79.2298C631.569 81.8598 628.139 83.8598 624.179 85.2398C620.219 86.6198 615.689 87.3098 610.599 87.3098L610.609 87.2898ZM596.519 46.8198L594.969 45.2698H626.129L624.709 46.8198C624.709 43.7198 623.979 41.2398 622.509 39.3898C621.039 37.5398 619.259 36.1798 617.139 35.3198C615.029 34.4598 612.979 34.0298 610.999 34.0298C609.019 34.0298 606.909 34.4598 604.669 35.3198C602.429 36.1798 600.509 37.5398 598.919 39.3898C597.319 41.2398 596.529 43.7198 596.529 46.8198H596.519Z" fill="white"/>
<path d="M647.46 35.5699V21.0899H691.16V35.5699H647.46ZM679.65 87.2899C672.49 87.2899 667.09 85.5199 663.42 81.9899C659.75 78.4599 657.92 73.4099 657.92 66.8599V0.919922H674.99V63.1099C674.99 65.8699 675.59 67.9599 676.8 69.3799C678.01 70.7999 679.77 71.5099 682.1 71.5099C682.96 71.5099 683.91 71.3199 684.94 70.9299C685.98 70.5399 687.05 69.9599 688.17 69.1799L694.12 81.9799C692.05 83.5299 689.74 84.7999 687.2 85.7899C684.66 86.7799 682.14 87.2799 679.64 87.2799L679.65 87.2899Z" fill="white"/>
<path d="M282.33 209.79C275.87 209.79 270.13 208.35 265.13 205.46C260.13 202.57 256.23 198.59 253.43 193.5C250.63 188.42 249.23 182.56 249.23 175.92C249.23 169.28 250.63 163.42 253.43 158.34C256.23 153.26 260.11 149.27 265.07 146.38C270.03 143.49 275.69 142.05 282.07 142.05C288.45 142.05 294.03 143.52 299.07 146.45C304.11 149.38 307.88 153.56 310.38 158.99L299.26 163.64C297.62 160.45 295.27 157.95 292.21 156.14C289.15 154.33 285.64 153.43 281.67 153.43C277.7 153.43 274.34 154.38 271.33 156.27C268.31 158.17 265.94 160.82 264.22 164.22C262.5 167.63 261.64 171.52 261.64 175.92C261.64 180.32 262.5 184.19 264.22 187.56C265.94 190.92 268.36 193.57 271.46 195.51C274.56 197.45 278.05 198.42 281.93 198.42C285.81 198.42 289.43 197.41 292.53 195.38C295.63 193.36 297.96 190.62 299.51 187.17L310.76 191.7C308.26 197.39 304.49 201.83 299.45 205.02C294.41 208.21 288.7 209.8 282.32 209.8L282.33 209.79Z" fill="white"/>
<path d="M321.38 176.69V143.59H333.66V176.69H321.38ZM333.66 176.69C333.66 182.47 334.33 186.9 335.66 190.01C336.99 193.11 338.87 195.27 341.28 196.47C343.69 197.68 346.41 198.32 349.42 198.41C354.68 198.41 358.77 196.56 361.7 192.85C364.63 189.14 366.1 183.93 366.1 177.21H371.4C371.4 184.02 370.39 189.86 368.36 194.73C366.33 199.6 363.47 203.33 359.76 205.91C356.05 208.5 351.53 209.79 346.18 209.79C341.18 209.79 336.81 208.76 333.06 206.69C329.31 204.62 326.42 201.39 324.4 196.99C322.37 192.59 321.36 186.91 321.36 179.92V176.69H333.64H333.66ZM366.89 208.24L366.11 196.35V143.6H378.26V208.24H366.88H366.89Z" fill="white"/>
<path d="M418.6 209.79C414.03 209.79 409.96 209.1 406.38 207.72C402.8 206.34 399.79 204.49 397.33 202.16C394.87 199.83 393.04 197.2 391.83 194.27L402.43 189.62C403.81 192.29 405.88 194.49 408.64 196.21C411.4 197.93 414.46 198.8 417.82 198.8C421.53 198.8 424.59 198.11 427 196.73C429.41 195.35 430.62 193.41 430.62 190.91C430.62 188.41 429.71 186.6 427.9 185.22C426.09 183.84 423.46 182.72 420.01 181.86L413.93 180.31C407.9 178.67 403.22 176.22 399.9 172.94C396.58 169.67 394.92 165.96 394.92 161.82C394.92 155.53 396.94 150.66 401 147.21C405.05 143.76 411.04 142.04 418.97 142.04C422.85 142.04 426.4 142.6 429.64 143.72C432.87 144.84 435.63 146.44 437.91 148.5C440.19 150.57 441.81 153.03 442.76 155.87L432.42 160.52C431.39 157.93 429.62 156.02 427.12 154.77C424.62 153.52 421.69 152.89 418.33 152.89C414.97 152.89 412.17 153.65 410.19 155.15C408.21 156.66 407.22 158.75 407.22 161.42C407.22 162.89 408.06 164.29 409.74 165.62C411.42 166.96 413.9 168.06 417.17 168.92L424.15 170.6C428.37 171.63 431.86 173.21 434.62 175.32C437.38 177.43 439.45 179.8 440.83 182.43C442.21 185.06 442.9 187.8 442.9 190.64C442.9 194.52 441.84 197.9 439.73 200.79C437.62 203.68 434.73 205.9 431.07 207.45C427.41 209 423.25 209.78 418.59 209.78L418.6 209.79Z" fill="white"/>
<path d="M449.37 154.2V143.6H491V154.2H449.37ZM480.66 209.79C474.2 209.79 469.2 208.13 465.66 204.81C462.12 201.49 460.36 196.73 460.36 190.52V123.42H472.64V188.71C472.64 191.9 473.44 194.33 475.03 196.01C476.62 197.69 478.93 198.53 481.95 198.53C482.81 198.53 483.76 198.36 484.79 198.01C485.82 197.67 487.07 196.98 488.54 195.94L493.19 205.51C490.95 206.98 488.81 208.05 486.79 208.74C484.76 209.43 482.72 209.77 480.65 209.77L480.66 209.79Z" fill="white"/>
<path d="M534.061 209.79C527.601 209.79 521.911 208.35 516.991 205.46C512.071 202.57 508.221 198.59 505.421 193.5C502.621 188.42 501.221 182.56 501.221 175.92C501.221 169.28 502.601 163.42 505.361 158.34C508.121 153.26 511.951 149.27 516.871 146.38C521.781 143.49 527.431 142.05 533.811 142.05C540.191 142.05 545.831 143.49 550.751 146.38C555.661 149.27 559.501 153.26 562.261 158.34C565.021 163.43 566.401 169.29 566.401 175.92C566.401 182.55 565.021 188.42 562.261 193.5C559.501 198.59 555.691 202.57 550.821 205.46C545.951 208.35 540.371 209.79 534.081 209.79H534.061ZM534.061 198.54C537.941 198.54 541.391 197.57 544.401 195.63C547.421 193.69 549.771 191.04 551.451 187.68C553.131 184.32 553.971 180.4 553.971 175.91C553.971 171.42 553.131 167.51 551.451 164.14C549.771 160.78 547.381 158.13 544.281 156.19C541.181 154.25 537.691 153.28 533.811 153.28C529.931 153.28 526.351 154.25 523.341 156.19C520.321 158.13 517.951 160.78 516.231 164.14C514.511 167.5 513.651 171.43 513.651 175.91C513.651 180.39 514.511 184.31 516.231 187.68C517.951 191.04 520.371 193.69 523.471 195.63C526.571 197.57 530.111 198.54 534.071 198.54H534.061Z" fill="white"/>
<path d="M579.82 208.24V143.6H591.33L591.85 152.52C593.92 149.07 596.51 146.47 599.61 144.7C602.71 142.93 606.29 142.05 610.34 142.05C615.51 142.05 619.91 143.24 623.53 145.61C627.15 147.98 629.78 151.58 631.42 156.41C633.31 151.76 635.99 148.2 639.44 145.74C642.89 143.28 646.98 142.06 651.72 142.06C659.05 142.06 664.78 144.45 668.92 149.24C673.06 154.02 675.08 161.37 675 171.28V208.26H662.85V175.16C662.85 169.3 662.22 164.84 660.97 161.78C659.72 158.72 658.06 156.59 655.99 155.38C653.92 154.17 651.51 153.53 648.75 153.44C643.92 153.44 640.2 155.29 637.57 159C634.94 162.71 633.63 167.92 633.63 174.64V208.26H621.35V175.16C621.35 169.3 620.75 164.84 619.54 161.78C618.33 158.72 616.67 156.59 614.56 155.38C612.45 154.17 610.01 153.53 607.26 153.44C602.43 153.44 598.7 155.29 596.08 159C593.45 162.71 592.14 167.92 592.14 174.64V208.26H579.86L579.82 208.24Z" fill="white"/>
<path d="M719.2 209.79C712.91 209.79 707.35 208.35 702.52 205.46C697.69 202.57 693.9 198.59 691.14 193.5C688.38 188.42 687 182.56 687 175.92C687 169.28 688.38 163.42 691.14 158.34C693.9 153.26 697.71 149.27 702.58 146.38C707.45 143.49 713.03 142.05 719.32 142.05C725.27 142.05 730.48 143.54 734.96 146.51C739.44 149.48 742.95 153.71 745.5 159.18C748.04 164.65 749.31 171.1 749.31 178.51H697.08L699.41 176.57C699.41 181.14 700.31 185.1 702.12 188.46C703.93 191.82 706.39 194.39 709.49 196.15C712.59 197.92 716.13 198.8 720.09 198.8C724.4 198.8 728 197.79 730.89 195.76C733.78 193.74 736.04 191.17 737.68 188.07L748.28 192.98C746.55 196.34 744.31 199.29 741.56 201.84C738.8 204.38 735.55 206.34 731.8 207.72C728.05 209.1 723.85 209.79 719.19 209.79H719.2ZM700.19 170.74L697.73 168.8H738.59L736.26 170.74C736.26 166.95 735.48 163.69 733.93 160.98C732.38 158.26 730.31 156.2 727.72 154.77C725.13 153.35 722.25 152.64 719.06 152.64C715.87 152.64 712.96 153.35 710.07 154.77C707.18 156.19 704.81 158.24 702.96 160.91C701.11 163.58 700.18 166.86 700.18 170.74H700.19Z" fill="white"/>
<path d="M761.471 208.24V143.6H773.751V208.24H761.471ZM768.971 173.46C768.971 166.48 770.301 160.79 772.981 156.39C775.651 151.99 779.101 148.72 783.321 146.56C787.541 144.41 791.981 143.33 796.641 143.33V154.97C792.761 154.97 789.081 155.55 785.591 156.72C782.101 157.88 779.261 159.78 777.061 162.41C774.861 165.04 773.761 168.6 773.761 173.08L768.981 173.47L768.971 173.46Z" fill="white"/>
<path d="M28.69 62.7601C40.16 51.5501 59.47 59.6701 59.47 75.7101V144.2L142.59 62.9301C154.06 51.7201 173.37 59.8401 173.37 75.8801V144.2L211.52 106.89V32.5401C211.52 19.0301 200.57 8.08008 187.06 8.08008H24.96C11.45 8.08008 0.5 19.0301 0.5 32.5401V90.3201L28.7 62.7501L28.69 62.7601Z" fill="#9052F6"/>
<path d="M183.03 164.26C171.56 175.47 152.25 167.35 152.25 151.31V82.9903L69.1305 164.26C57.6605 175.47 38.3505 167.35 38.3505 151.31V82.8203L0.480469 119.85V194.66C0.480469 208.17 11.4305 219.12 24.9405 219.12H187.04C200.55 219.12 211.5 208.17 211.5 194.66V136.42L183.02 164.27L183.03 164.26Z" fill="#9052F6"/>
</svg>
