<?xml version="1.0" encoding="utf-8"?>
<!-- Generator: Adobe Illustrator 26.1.0, SVG Export Plug-In . SVG Version: 6.00 Build 0)  -->
<svg version="1.1" id="Calque_1" xmlns="http://www.w3.org/2000/svg" xmlns:xlink="http://www.w3.org/1999/xlink" x="0px" y="0px"
	 viewBox="0 0 1000 1000" style="enable-background:new 0 0 1000 1000;" xml:space="preserve">
<style type="text/css">
	.st0{fill:#FFFFFF;}
</style>
<g>
	<g>
		<g>
			<path class="st0" d="M465.1,594.6c-1.9,0.5-3.4,0.9-5.8,1.4c0,0,0,0,0,0c-9.9,1.6-19,3.1-29,4.2c0,0,0,0,0,0
				c-4.4,0.4-8.4,0.5-12.6,0.7c0,0,0,0,0,0c-5.8,0.3-11.8,0.9-18.2,0.6c0.5,0,1.1,0,1.6,0v0c-1.6,0-3.2-0.1-4.8-0.2h0
				c-7.2-0.2-14.4-0.5-21.5-1.2c0,0,0,0,0,0c-2.7-0.3-5.4-0.6-8.1-0.9c0,0,0,0,0,0c-17.3-2.2-34.6-5.6-51.2-10.7
				c-1.3-0.4-2.6-0.8-3.8-1.3c-6.9-2.3-13.8-4.7-20.6-7.4c-2.5-1-4.9-2-7.4-3.1c0,0,0,0,0,0c-0.2-0.1-0.6-0.3-0.8-0.3l0,0l0,0l0,0
				c-5.6-2.5-11.1-5-16.6-7.8l0,0c-9.9-4.9-20.2-10.9-28.7-16.6v0c-0.9-0.6-1.7-1.2-2.7-1.9c-6.2-4.3-12.4-8.7-18.3-13.5
				c0,0,0,0,0,0c-2.1-1.6-4.1-3.3-6.1-5c0,0,0,0,0,0v0c-4.9-4.1-9.8-8.5-14.4-12.9v0c-1.8-1.7-3.8-3.5-5.5-5.3c0,0,0,0,0,0l0,0
				c-6.8-6.8-12.4-13-17.8-19.4c0,0,0,0,0,0c0,0,0,0,0,0l0,0c-0.5-0.7-1.1-1.3-1.6-2c-5.1-6.2-9.9-12.7-14.5-19.3c0,0,0,0,0,0
				c-6.8-10-13-20.3-18.7-31c0,0,0,0,0,0c-4.2-8-8-15.9-11.5-24.1l-0.1-0.2c-24-57.7-29.5-120.3-15.7-180.6
				c-1.6,1.2-3.1,2.3-4.7,3.6v0c-1.8,1.4-3.6,3-5.4,4.4c0,0,0,0,0,0c-4.1,3.5-8.2,7-12.1,10.8c0,0,0,0,0,0v0
				c-1.6,1.5-3.3,3.1-4.9,4.7v0c0,0,0,0,0,0c-5.2,5.4-10.4,10.7-15.2,16.5c0,0,0,0,0,0c-0.3,0.4-0.6,0.8-1,1.2c0,0,0,0,0,0
				c-4.5,5.4-8.7,11.1-12.7,16.9c0,0,0,0,0,0c-1.3,1.9-2.6,3.9-3.9,5.9c0,0,0,0,0,0c-3.1,4.7-6,9.5-8.7,14.4c0,0,0,0,0,0
				c-1.1,2-2.3,4.1-3.4,6.1c0,0,0,0,0,0c-3.6,6.9-6.9,14-10.1,21.2v0c0,0,0,0,0,0c0,0,0,0,0,0c-54.4,128.5,8.9,281.2,138,333.5
				c0,0,0,0,0,0c8,3.2,16.2,6.2,24.4,8.7c0,0,0,0,0,0c2.7,0.8,5.3,1.3,8,2c0,0,0,0,0,0c5.5,1.5,11.1,3,16.7,4.1
				c-1.4-0.3-2.8-0.6-4.2-1c1.4,0.3,2.8,0.7,4.2,1c0,0,0,0,0,0c3.3,0.6,6.6,0.9,9.8,1.4v0c0,0,0,0,0,0c2.7,0.4,5.5,0.9,8.2,1.3
				c0,0,0,0,0,0c2.2,0.3,4.5,0.6,6.7,0.9c0,0,0,0,0,0c18.1,1.3,36.2,1.6,54.2-0.8c0,0,0,0,0,0c5.5-0.7,10.9-1.5,16.3-2.5
				c0,0,0,0,0,0c2-0.4,4.1-0.7,6.1-1.1c0,0,0,0,0,0c7.2-1.6,14.3-3.4,21.3-5.4c0,0,0,0,0,0c7-2.3,14-4.6,20.9-7.4c0,0,0,0,0,0
				c2.1-0.9,4.3-1.8,6.4-2.7v0c0,0,0,0,0,0c6.8-3.2,13.7-6.3,20.4-9.8c0,0,0,0,0,0c6.4-3.6,12.8-7.2,18.9-11.2c0,0,0,0,0,0
				c0.7-0.5,1.4-1,2.1-1.5c0,0,0,0,0,0c7.3-5,14.4-10.2,21.2-16v0c0,0,0,0,0,0c4.1-3.5,8.1-7.3,12.2-10.9c0,0,0,0,0,0
				c1.6-1.5,3.2-3,4.8-4.6c0,0,0,0,0,0c5.3-5.3,10.4-10.8,15.2-16.5c0,0,0,0,0,0c0.3-0.4,0.6-0.8,0.9-1.1c0,0,0,0,0,0
				c2.3-2.8,4.6-5.8,6.8-8.7c0,0,0,0,0,0c0,0,0,0,0,0L465.1,594.6z"/>
			<path class="st0" d="M411.8,557.1c-0.7,0-1.3,0.1-2,0.1c1.3-0.1,2.6-0.1,3.9-0.2C413.1,557,412.4,557.1,411.8,557.1z"/>
			<path class="st0" d="M401.3,557.5C401.3,557.5,401.3,557.5,401.3,557.5C401.3,557.5,401.3,557.5,401.3,557.5L401.3,557.5z"/>
			<path class="st0" d="M415.5,556.9C415.5,556.9,415.5,556.9,415.5,556.9C415.5,556.9,415.5,556.9,415.5,556.9
				C415.5,556.9,415.4,556.9,415.5,556.9C415.4,556.9,415.5,556.9,415.5,556.9C415.5,556.9,415.5,556.9,415.5,556.9z"/>
		</g>
		<path class="st0" d="M425.2,546.5c-123.5-84.9-165.1-260.8-86.9-393c8.4-14.8,17.8-28.5,28.1-41c17.5-21.6,40.4-42.2,63.6-57.9
			c2.4-1.8,4.9-3.4,7.5-5c-113.7-16.8-227.9,48.7-271,154.9c-25.8,61.8-26,133.4,0,195.4c0,0,0,0,0,0c0,0,0,0,0,0
			c1.3,3.1,2.7,6.1,4.1,9.1c0,0,0,0,0,0c0,0,0,0,0,0c0,0,0,0,0,0c0.4,0.9,0.8,1.8,1.3,2.7c0,0,0,0,0,0c0,0,0,0,0,0
			c1.6,3.1,3.1,6.2,4.7,9.3c0,0,0,0,0,0c1.1,2.1,2.2,4.1,3.4,6.1c0,0,0,0,0,0c2.8,4.9,5.8,9.7,8.8,14.5c0,0,0,0,0,0c0,0,0,0,0,0
			c0,0,0,0,0,0c0,0,0,0,0,0c0,0,0,0,0,0c0,0,0,0,0,0c1.3,1.9,2.5,3.9,3.8,5.8c0,0,0,0,0,0c4.1,5.8,8.3,11.5,12.7,17c0,0,0,0,0,0
			c0.3,0.4,0.6,0.8,0.9,1.2c0,0,0,0,0,0c6.3,7.3,12.8,14.5,19.9,21.1v0c4,3.8,8.1,7.5,12.3,11c0,0,0,0,0,0c1.7,1.5,3.5,2.9,5.2,4.3
			c0,0,0,0,0,0c0,0,0,0,0,0c3.8,2.9,7.7,5.8,11.6,8.6c0,0,0,0,0,0c0,0,0,0,0,0c1.5,1,2.9,2.1,4.4,3.1c0,0,0,0,0,0
			c0.7,0.5,1.3,0.9,2,1.4c0,0,0,0,0,0c0.3,0.2,0.6,0.4,0.9,0.6c5.9,3.7,11.9,7.4,18.1,10.7c0,0,0,0,0,0c1.8,1,3.7,1.9,5.5,2.8
			c0,0,0,0,0,0c4.9,2.4,9.9,4.7,14.8,7c0,0,0,0,0,0c2.1,0.9,4.2,1.8,6.3,2.6c0,0,0,0,0,0c0,0,0,0,0,0c5.8,2.3,11.8,4.4,17.7,6.4
			c0,0,0,0,0,0c8,2.7,16.2,4.7,24.5,6.5c0,0,0,0,0,0c2,0.4,4,0.7,5.9,1.1h0c2.4,0.5,4.9,0.8,7.3,1.3c0,0,0,0,0,0c3,0.5,6,0.9,9,1.3
			c0,0,0,0,0,0c0,0,0,0,0,0c0,0,0,0,0.1,0c0,0,0,0,0,0c2.3,0.3,4.6,0.5,6.9,0.8h0c3,0.2,6,0.4,9.1,0.7c0,0,0,0,0,0c0,0,0,0,0,0
			c3.1,0.2,6.2,0.2,9.3,0.4h0c6.1,0.4,12.1-0.1,18.2-0.4c0,0,0,0,0,0c0,0,0,0,0.1,0c0,0,0,0,0,0c3.6-0.2,7.1-0.2,10.7-0.5h0
			c3.8-0.5,7.6-1,11.4-1.6C433.4,552.2,429.2,549.4,425.2,546.5z"/>
		<path class="st0" d="M801.4,148.6c-6.7-9-14.1-17.5-21.9-25.5c0,0,0,0,0,0C720.4,62,628.3,34.4,545,52.6c0,0,0,0,0,0c0,0,0,0,0,0
			c-15.4,3.2-30.4,8-44.9,14c-182.3,76.1-213.1,319.8-56.3,439c-36.4-151.5,61.5-315,213.2-353.6c1-0.3,2-0.5,2.9-0.7
			c25.1-7.1,51.8-9.9,78.1-10.1c1.3,0,2.6,0.1,3.9,0.2C762,141.8,781.8,144.3,801.4,148.6C801.4,148.6,801.4,148.6,801.4,148.6z"/>
		<g>
			<path class="st0" d="M988.6,404.8c-3-21.3-8.7-42.1-17-62c0,0,0,0,0,0c-0.1-0.3-0.3-0.6-0.4-0.9c-0.5-1.2-1-2.3-1.5-3.5
				c0,0,0,0,0,0c-0.5-1.1-1-2.2-1.5-3.3c-1.3-2.8-2.6-5.6-4-8.4c-1.9-3.9-3.9-7.6-6-11.3c0,0,0,0,0,0c0,0,0,0,0,0c0,0,0,0,0,0
				c0,0,0,0,0,0c-2.8-5-5.7-9.8-8.8-14.5c0,0,0,0,0,0c-1.3-1.9-2.5-3.9-3.8-5.8c0,0,0,0,0,0c-4.1-5.8-8.3-11.5-12.8-17c0,0,0,0,0,0
				c-0.3-0.4-0.6-0.8-0.9-1.2c0,0,0,0,0,0c-4.9-5.7-10-11.2-15.2-16.6c0,0,0,0,0,0c-1.5-1.5-3.1-3-4.7-4.5l0,0
				c-4.1-3.6-8.1-7.4-12.3-11c0,0,0,0,0,0c-1.7-1.4-3.5-2.9-5.2-4.3c0,0,0,0,0,0c-5.2-4.1-10.5-8.1-16-11.7c0,0,0,0,0,0
				c-0.7-0.4-1.3-0.9-1.9-1.4c0,0,0,0,0,0s0,0,0,0c0,0,0,0,0,0c-0.7-0.4-1.4-0.8-2-1.2c0,0,0,0,0,0c-12.9-8.4-26.6-15.4-40.8-21.4
				c0,0,0,0,0,0l0,0v0c-93.3-40.1-209.1-16.9-279.4,56.4c-84.6,85.1-98,221.2-30.6,320.7c0,0,0,0,0,0.1c0.8,1.2,1.6,2.5,2.4,3.7
				c0,0,0,0,0,0c0,0.1,0.1,0.1,0.1,0.2c0,0,0,0,0,0c4.1,5.7,8.2,11.4,12.7,16.9c0,0,0,0,0,0c0.3,0.4,0.6,0.8,0.9,1.2c0,0,0,0,0,0
				c0,0,0,0,0,0c4.8,5.7,9.9,11.2,15.1,16.5c0,0,0.1,0.1,0.1,0.1c0,0,0,0,0,0c1.5,1.5,3.1,3,4.7,4.5v0c4,3.8,8.1,7.5,12.3,11
				c0,0,0,0,0,0c1.7,1.4,3.4,2.9,5.2,4.3c0,0,0,0,0,0c5.2,4.1,10.5,8,16,11.7c0,0,0,0,0,0c0.7,0.5,1.3,0.9,2,1.4l0,0
				c7.9,5.1,16.1,9.9,24.5,14.1c0,0,0,0,0,0c4.9,2.5,9.8,4.8,14.8,7c0,0,0,0,0,0c2.1,0.9,4.2,1.8,6.3,2.7v0
				c5.9,2.3,11.8,4.5,17.8,6.4l0,0c1,0.3,2.1,0.7,3.1,1.1h0c9,2.7,18.1,4.9,27.3,6.6c0,0,0,0,0,0c5.5,1,10.9,1.9,16.4,2.5
				c0,0,0,0,0,0c8.4,1.1,16.8,1.6,25.3,1.8c0,0,0,0,0,0c3.8,0.2,7.6,0.1,11.4-0.1c0,0,0,0,0,0c2.3-0.1,4.6-0.3,6.9-0.4c0,0,0,0,0,0
				c3.5-0.2,7.1-0.2,10.6-0.5c0,0,0,0,0,0c11.1-1.5,22.4-2.7,33.3-5.5c0,0,0,0,0,0c2.6-0.7,5.2-1.4,7.9-2.1c0,0,0,0,0,0
				c7-1.5,13.7-3.8,20.5-6.1c0,0,0,0,0,0C934.3,641.9,1006.2,523,988.6,404.8z"/>
			<path class="st0" d="M649.6,680.6c3,1.1,5.9,2.1,8.9,3c-4-1.3-7.9-2.7-11.8-4.1C647.6,679.8,648.6,680.2,649.6,680.6z"/>
		</g>
	</g>
	<g>
		<path class="st0" d="M112.9,911.7h-12.1L23.6,780v131.7h-9.3V767.1h11l78.3,132.3V767.1h9.3L112.9,911.7L112.9,911.7z"/>
		<path class="st0" d="M232.8,911.7h-8.7v-16.3c-5.8,11.9-18.6,17.8-38.6,17.8c-13.4,0-23.3-2.4-29.5-7.3
			c-6.2-4.8-9.3-12.7-9.3-23.5c0-12.7,3.3-21.2,9.8-25.6c6.5-4.3,16.5-6.5,30.1-6.5h36.8c-0.1-11.7-0.6-18.9-1.3-21.7
			c-1.9-6.6-7.4-10.8-16.5-12.3c-4-0.7-8.9-1.1-14.5-1.1c-6.4,0-11.6,0.4-15.8,1.1c-4.2,0.7-8.1,2.7-11.7,6.1
			c-3.6,3.3-5.4,8-5.4,14.1h-8.7c0-6.1,1.2-11.2,3.6-15.4c2.4-4.2,5.7-7.3,10.1-9.3c4.3-2,8.8-3.4,13.5-4.2
			c4.7-0.8,10.1-1.2,16.1-1.2c4.9,0,9.3,0.3,13.2,0.9c3.9,0.6,7.2,1.4,10,2.4c2.7,1,5.1,2.3,7.2,3.8c2,1.5,3.6,3.2,4.8,5.1
			c1.2,1.9,2.1,3.9,2.8,6.1c0.7,2.2,1.2,4.5,1.4,6.8s0.4,4.9,0.5,7.6c0.1,2.7,0.1,5.4,0,8.1c0,1.9,0,3.3,0,4.3L232.8,911.7
			L232.8,911.7z M223.4,858.8h-37.7c-10.3,0-17.8,1.5-22.5,4.6c-4.8,3-7.2,9.3-7.2,18.9c0,8.1,2.2,13.9,6.5,17.3
			c4.3,3.5,11.8,5.2,22.3,5.2c8.7,0,15.7-1,21-2.9c5.3-1.9,9.3-5.1,11.8-9.5c2.5-4.4,4.2-9.1,4.9-14S223.6,866.9,223.4,858.8z"/>
		<path class="st0" d="M338.5,883.3c0,19.9-11.1,29.9-33.4,29.9c-11,0-19.1-2.3-24.5-6.9c-5.4-4.6-8-12.3-8-23v-66.8h-17.8v-8.5
			h17.8v-41h9.3v41h47.9v8.5H282v66.8c0,8.1,1.8,13.7,5.5,16.7c3.7,3,9.7,4.6,18.1,4.6c8.4,0,14.5-1.6,18.4-4.9
			c3.9-3.3,5.9-8.7,5.9-16.4H338.5z"/>
		<path class="st0" d="M373.9,772.3c0,4.8-2.3,7.2-6.9,7.2c-4.6,0-6.9-2.4-6.9-7.2c0-4.5,2.3-6.7,6.9-6.7
			C371.6,765.6,373.9,767.8,373.9,772.3z M371.5,911.7h-9.3V808.1h9.3V911.7z"/>
		<path class="st0" d="M484.2,808.1l-39.7,103.6h-10.4l-39.9-103.6h9.7l35.6,93l34.9-93H484.2z"/>
		<path class="st0" d="M589.3,860.7h-77c0,6.5,0.2,11.7,0.5,15.6c0.4,3.9,1.2,7.9,2.4,11.9c1.2,4,3.1,7.1,5.5,9.1
			c2.5,2,5.9,3.7,10.2,5c4.3,1.3,9.7,1.9,16,1.9c21.2,0,31.9-7,31.9-21h8.7c0,19.9-13.6,29.9-40.8,29.9c-9.5,0-17.2-1.1-23.1-3.1
			c-5.9-2.1-10.3-5.6-13.3-10.5c-3-4.9-5-10.3-6-16.1c-0.9-5.9-1.4-13.6-1.4-23.3c0-9.5,0.5-17.2,1.4-23.1
			c0.9-5.8,2.9-11.3,5.7-16.4c2.9-5.1,7.3-8.7,13.1-10.9c5.9-2.3,13.5-3.4,22.9-3.4c7.7,0,14.1,0.8,19.4,2.5
			c5.3,1.7,9.5,3.9,12.6,6.6c3.1,2.7,5.5,6.6,7.1,11.5c1.7,4.9,2.7,9.9,3.3,14.8C589.1,846.8,589.3,853.1,589.3,860.7z M580.2,852.3
			c0-13.4-2.4-23-7.1-28.7c-4.8-5.7-13.7-8.6-26.9-8.6c-12.9,0-21.7,2.9-26.6,8.7c-4.8,5.8-7.3,15.3-7.3,28.6L580.2,852.3
			L580.2,852.3z"/>
		<path class="st0" d="M729.8,839.3c0,21.1-0.7,35.2-2.2,42.3c-3,13.9-10.7,23.1-23,27.7c-7.5,2.8-17.2,4.1-29,4.1
			c-24,0-39.6-6.1-46.8-18.4c-4.6-7.8-7.1-21.2-7.4-40.3c0-1.7,0-6.9,0-15.4c0-20.9,0.7-35,2.2-42c3-13.7,10.6-22.9,22.8-27.5
			c7.5-2.8,17.3-4.1,29.3-4.1c24,0,39.6,6.1,46.8,18.2c4.6,7.7,7.1,21,7.4,39.9C729.8,825.4,729.8,830.6,729.8,839.3z M720.3,839.5
			c0-20.2-0.7-33.4-1.9-39.4c-2.5-11.4-8.7-18.9-18.9-22.3c-6.1-2.2-14-3.3-23.8-3.3c-19.7,0-32.4,4.8-38.4,14.3
			c-4,6.4-6.1,18.1-6.3,35.3c0,1.4,0,6.6,0,15.4c0,1,0,2.5,0,4.3c0,5.6,0,9.8,0,12.6c0,2.7,0.1,6.4,0.4,10.8
			c0.3,4.5,0.7,7.8,1.2,9.9c0.5,2.1,1.3,4.8,2.3,8c1,3.3,2.2,5.6,3.7,7c1.4,1.4,3.3,3.1,5.5,5.1c2.2,2,4.8,3.3,7.8,4.1
			c3,0.8,6.4,1.5,10.4,2.1c4,0.6,8.4,0.9,13.3,0.9c4.9,0,9.4-0.3,13.3-0.9c4-0.6,7.4-1.3,10.4-2.1c3-0.8,5.6-2.2,7.8-4.1
			c2.2-1.9,4.1-3.6,5.5-5.1c1.4-1.4,2.7-3.8,3.7-7.1c1-3.3,1.8-6,2.3-7.9s0.9-5.2,1.2-9.9c0.3-4.6,0.4-8.2,0.4-10.7
			c0-2.5,0-6.8,0-12.7C720.3,841.9,720.3,840.5,720.3,839.5z"/>
		<path class="st0" d="M853.1,859.9c0,7.4-0.2,13.4-0.7,18.1s-1.4,9.5-3,14.4c-1.6,4.9-3.9,8.7-6.8,11.5c-3,2.7-7,5-12.1,6.7
			c-5.1,1.7-11.5,2.6-19,2.6c-17.5,0-29.5-5.6-36.2-16.7v56.6H766v-145h8.9v15.6c6.6-11.6,18.9-17.4,36.6-17.4
			c9.2,0,16.7,1.2,22.4,3.6c5.7,2.4,9.9,6.2,12.7,11.5c2.7,5.3,4.5,10.7,5.3,16.3C852.7,843.2,853.1,850.6,853.1,859.9z
			 M843.8,859.7c0-5.1-0.1-9.1-0.2-12c-0.1-3-0.5-6.4-1.2-10.3c-0.7-3.9-1.6-7-2.9-9.2c-1.3-2.2-3.1-4.4-5.3-6.6
			c-2.2-2.2-5.2-3.7-8.8-4.7c-3.6-0.9-7.9-1.4-12.8-1.4c-14.2,0-24,3.1-29.4,9.4c-5.4,6.3-8.1,17.9-8.1,34.8c0,17,2.7,28.8,8.2,35.1
			c5.5,6.4,15.2,9.5,29.3,9.5c5.8,0,10.7-0.8,14.7-2.5s7.2-3.6,9.3-5.8c2.2-2.3,3.8-5.6,4.9-10c1.1-4.4,1.7-8.4,1.9-11.9
			C843.7,870.5,843.8,865.7,843.8,859.7z"/>
		<path class="st0" d="M963,882.4c0,11.1-3.4,19.1-10.3,23.9c-6.9,4.8-17.6,7.1-32.2,6.9c-14.6-0.2-24.9-2.4-31-6.7
			c-6.1-4.3-9.1-12.1-9.1-23.2h8.7c0,8.1,2.2,13.7,6.6,16.7c4.4,3,12.6,4.6,24.6,4.6c12,0,20.6-1.6,25.7-4.9s7.7-8.8,7.7-16.8
			c0-6.8-1.4-11.4-4.1-13.8s-8.5-4-17.1-4.8c-3.2-0.3-7.6-0.6-13.3-1c-5.7-0.3-10-0.6-12.7-0.8s-6-0.8-9.7-1.8
			c-3.8-1-6.5-2.4-8.2-4.2c-1.7-1.8-3.3-4.4-4.5-7.8c-1.3-3.4-2-7.5-2-12.5c0-11.1,3.3-18.9,10-23.4c6.6-4.5,17.4-6.6,32.3-6.5
			c15.5,0,26.1,3,31.9,8.9c4.5,4.8,6.7,11.7,6.7,20.8h-8.9c0-7.5-2.1-12.9-6.4-16.2c-4.3-3.3-12-4.9-23.1-4.9
			c-12,0-20.5,1.5-25.5,4.4c-5,2.9-7.5,7.9-7.7,15c-0.1,7.5,1.2,12.3,3.9,14.5c2.7,2.2,8.2,3.8,16.5,4.6c3.3,0.2,7.7,0.6,13.3,1
			c5.6,0.4,9.8,0.7,12.7,0.9s6.2,0.8,10,1.9c3.8,1,6.6,2.4,8.4,4.3c1.8,1.8,3.4,4.5,4.8,8C962.3,873,963,877.3,963,882.4z"/>
	</g>
</g>
</svg>
