<?xml version="1.0" encoding="utf-8"?>
<!-- Generator: Adobe Illustrator 16.0.0, SVG Export Plug-In . SVG Version: 6.00 Build 0)  -->
<!DOCTYPE svg PUBLIC "-//W3C//DTD SVG 1.0//EN" "http://www.w3.org/TR/2001/REC-SVG-20010904/DTD/svg10.dtd">
<svg version="1.0" id="svg7384" xmlns="http://www.w3.org/2000/svg" xmlns:xlink="http://www.w3.org/1999/xlink" x="0px" y="0px"
	 width="17px" height="17px" viewBox="0 0 17 17" enable-background="new 0 0 17 17" xml:space="preserve">
<g>
	<path fill="#CC0000" d="M8.196,3.822C8.74,3.806,9.244,4.31,9.228,4.854v3.938c0.007,0.528-0.473,1.014-1,1.014
		c-0.528,0-1.008-0.486-1-1.014V4.854c-0.008-0.467,0.354-0.913,0.812-1C8.091,3.839,8.144,3.83,8.196,3.822L8.196,3.822z"/>
	<rect x="7.228" y="10.792" fill="#CC0000" width="2" height="2"/>
</g>
<g>
	<g>
		<path fill="#CC0000" d="M11.432,16.5H5.126L0,11.373V5.097L5.127,0h6.247l5.125,5.157V11.4L11.432,16.5z M5.747,15h5.06
			l4.192-4.218V5.775L10.75,1.5H5.746L1.5,5.721v5.031L5.747,15z"/>
		<path fill="#CC0000" d="M5.229,16.25h6.098l4.922-4.953V5.26L11.27,0.25H5.23L0.25,5.201v6.069L5.229,16.25z M10.91,15.25H5.644
			L1.25,10.855V5.617L5.643,1.25h5.212l4.395,4.422v5.212L10.91,15.25z"/>
	</g>
</g>
</svg>
